<?xml version="1.0" encoding="UTF-8" standalone="no"?>
<!-- Generator: Adobe Illustrator 17.0.0, SVG Export Plug-In . SVG Version: 6.00 Build 0)  -->

<svg
   version="1.1"
   id="Capa_1"
   x="0px"
   y="0px"
   width="11.339px"
   height="11.339px"
   viewBox="0 0 11.339 11.339"
   enable-background="new 0 0 11.339 11.339"
   xml:space="preserve"
   sodipodi:docname="AFF_VIGILANTES_ICON.svg"
   inkscape:version="1.2.1 (9c6d41e, 2022-07-14)"
   xmlns:inkscape="http://www.inkscape.org/namespaces/inkscape"
   xmlns:sodipodi="http://sodipodi.sourceforge.net/DTD/sodipodi-0.dtd"
   xmlns="http://www.w3.org/2000/svg"
   xmlns:svg="http://www.w3.org/2000/svg"><defs
   id="defs195" /><sodipodi:namedview
   id="namedview193"
   pagecolor="#ffffff"
   bordercolor="#000000"
   borderopacity="0.25"
   inkscape:showpageshadow="2"
   inkscape:pageopacity="0.0"
   inkscape:pagecheckerboard="0"
   inkscape:deskcolor="#d1d1d1"
   showgrid="false"
   inkscape:zoom="20.813123"
   inkscape:cx="4.2281016"
   inkscape:cy="5.6694999"
   inkscape:window-width="1309"
   inkscape:window-height="456"
   inkscape:window-x="0"
   inkscape:window-y="25"
   inkscape:window-maximized="0"
   inkscape:current-layer="g190" />
<g
   id="g190">
	<g
   id="g188"
   style="fill:#ffffff">
		<path
   d="M5.669,9.567c-2.217,0-4.021-1.748-4.021-3.898s1.804-3.898,4.021-3.898c2.217,0,4.021,1.748,4.021,3.898    S7.887,9.567,5.669,9.567z M5.669,1.961c-2.113,0-3.832,1.664-3.832,3.709c0,2.045,1.719,3.709,3.832,3.709    S9.502,7.714,9.502,5.67C9.502,3.625,7.783,1.961,5.669,1.961z"
   id="path182"
   style="fill:#ffffff" />
		<g
   id="g186"
   style="fill:#ffffff">
			<path
   d="M5.691,8.123c-0.033,0-0.042-0.151-0.061-0.227c-0.17-0.498-0.252-1.04-0.624-1.443c-0.05-0.05-0.132-0.063-0.208-0.044     C4.52,6.617,4.552,7.014,4.476,7.354L4.438,7.373L4.401,7.329C4.306,7.058,4.142,6.756,3.859,6.649     c-0.132-0.044-0.246,0.013-0.34,0.088c-0.189,0.347-0.107,0.87,0.088,1.166C3.688,8.092,3.84,8.231,3.909,8.426H3.852     C3.058,8.004,2.554,7.203,2.346,6.359H2.34L2.276,5.968H2.27c-0.063-0.775,0.113-1.532,0.498-2.13     c0.265-0.504,0.775-0.87,1.242-1.135c0.088-0.038,0.158-0.082,0.24-0.126c0.032,0.006,0.076-0.019,0.069,0.032     C4.13,2.829,3.909,3.062,3.821,3.333C3.77,3.447,3.77,3.617,3.802,3.737C3.947,4.14,4.382,4.367,4.81,4.38     c0.107,0,0.107-0.113,0.139-0.183C5.056,3.56,5.1,2.924,5.176,2.268h0.019c0.132,0.227,0.202,0.46,0.321,0.7h0.174h0.174     c0.12-0.24,0.189-0.473,0.321-0.7h0.019c0.076,0.656,0.12,1.292,0.227,1.929C6.464,4.266,6.464,4.38,6.571,4.38     c0.429-0.013,0.863-0.24,1.008-0.643c0.032-0.12,0.032-0.29-0.019-0.403C7.472,3.062,7.252,2.829,7.062,2.608     C7.056,2.558,7.1,2.583,7.132,2.577c0.082,0.044,0.151,0.088,0.24,0.126c0.466,0.265,0.977,0.63,1.242,1.135     c0.384,0.599,0.561,1.355,0.498,2.13H9.105L9.042,6.359H9.035C8.827,7.203,8.323,8.004,7.529,8.426H7.472     c0.069-0.195,0.221-0.334,0.303-0.523C7.97,7.607,8.052,7.083,7.863,6.737c-0.095-0.076-0.208-0.132-0.34-0.088     C7.239,6.756,7.075,7.058,6.98,7.329L6.943,7.373L6.905,7.354c-0.076-0.34-0.044-0.737-0.321-0.945     C6.508,6.39,6.426,6.403,6.375,6.453C6.004,6.857,5.922,7.399,5.751,7.896C5.733,7.972,5.723,8.123,5.691,8.123z"
   id="path184"
   style="fill:#ffffff" />
		</g>
	</g>
</g>
</svg>
