<svg xmlns="http://www.w3.org/2000/svg" width="11.339" height="11.339" viewBox="0 0 11.339 11.339">
    <path d="M7.402,6.067l1.81,-2.142L7.307,1.463l0.322,1.491L6.223,3.616L5.669,2.603L5.115,3.616L3.71,2.953l0.322,-1.491L2.126,3.925l1.81,2.142l0.917,-0.861L3.4,9.059C4.183,9.42 4.919,9.601 5.669,9.601s1.487,-0.18 2.269,-0.541L6.485,5.206L7.402,6.067zM4.149,4.921L2.806,3.875l0.659,-0.626l1.615,0.97L4.149,4.921zM7.874,3.249l0.659,0.626L7.19,4.921L6.259,4.219L7.874,3.249z" fill="#000000" fill-opacity="1"/>
</svg>