<svg xmlns="http://www.w3.org/2000/svg" width="11.339" height="11.339" viewBox="0 0 11.339 11.339">
    <path d="M3.243,8.484c0.044,-0.075 0.082,-0.159 0.038,-0.252C3.239,8.144 3.196,8.056 3.163,7.965C3.102,7.8 3.027,7.638 3.056,7.454c0.004,-0.024 0,-0.051 -0.008,-0.073C2.985,7.194 3.005,7.007 3.034,6.818c0.027,-0.179 0.051,-0.359 0.078,-0.539c0.012,-0.076 0.026,-0.152 0.044,-0.227c0.045,-0.186 0.106,-0.369 0.137,-0.557c0.04,-0.245 0.094,-0.478 0.266,-0.669c0.035,-0.039 0.055,-0.096 0.067,-0.148C3.65,4.572 3.66,4.462 3.683,4.355C3.734,4.12 3.804,3.892 3.975,3.711c0.013,-0.013 0.022,-0.035 0.023,-0.053c0.015,-0.158 0.052,-0.312 0.13,-0.449c0.04,-0.07 0.105,-0.129 0.168,-0.181c0.049,-0.04 0.092,-0.071 0.118,-0.135C4.464,2.77 4.511,2.648 4.6,2.54c0.094,-0.114 0.204,-0.164 0.335,-0.187c0.061,-0.011 0.136,-0.007 0.189,0.02c0.105,0.054 0.152,0.208 0.118,0.323C5.237,2.712 5.233,2.729 5.231,2.747c-0.025,0.174 -0.096,0.32 -0.249,0.421C4.956,3.184 4.943,3.23 4.938,3.264C4.927,3.339 4.942,3.422 4.916,3.489c-0.07,0.182 -0.211,0.57 -0.293,0.753c0.025,0.03 0.013,0.064 0.046,0.103C4.68,4.324 4.787,4.098 4.792,4.083c0.063,-0.178 0.12,-0.359 0.191,-0.534C5.049,3.382 5.13,3.222 5.203,3.058c0.048,-0.107 0.098,-0.213 0.141,-0.322c0.045,-0.114 0.069,-0.244 0.21,-0.25c0.01,-0.078 0.004,-0.154 0.032,-0.214C5.638,2.162 5.7,2.053 5.779,1.962c0.061,-0.07 0.148,-0.131 0.235,-0.163c0.098,-0.036 0.21,-0.035 0.316,-0.052c0.049,-0.008 0.077,0.01 0.102,0.053c0.07,0.121 0.062,0.248 0.039,0.377C6.428,2.422 6.32,2.624 6.094,2.756c0.007,0.016 0.018,0.039 0.033,0.074C6.098,2.815 6.081,2.805 6.05,2.788c0.011,0.068 0.026,0.121 0.026,0.174c0,0.07 0,0.145 -0.023,0.209C6.024,3.25 5.974,3.321 5.929,3.392C5.892,3.45 5.86,3.529 5.806,3.555c-0.067,0.031 -0.07,0.085 -0.091,0.132c-0.018,0.04 -0.016,0.088 -0.027,0.132C5.661,3.936 5.563,4.212 5.535,4.326C5.597,4.331 5.743,4.137 5.779,4.07c0.059,-0.112 0.108,-0.229 0.171,-0.338c0.045,-0.079 0.104,-0.15 0.163,-0.22c0.016,-0.019 0.051,-0.021 0.073,-0.03C6.183,3.281 6.3,3.122 6.373,2.948C6.449,2.764 6.58,2.629 6.757,2.531C6.696,2.482 6.698,2.434 6.741,2.38C6.847,2.245 6.95,2.108 7.055,1.973c0.062,-0.08 0.146,-0.131 0.245,-0.148c0.192,-0.034 0.382,-0.059 0.578,0.01c0.078,0.027 0.064,0.063 0.06,0.109c-0.004,0.044 -0.018,0.087 -0.029,0.13C7.882,2.174 7.862,2.277 7.826,2.374C7.799,2.449 7.751,2.516 7.712,2.586C7.681,2.643 7.662,2.709 7.619,2.754c-0.07,0.073 -0.156,0.133 -0.223,0.189C7.381,3.032 7.371,3.122 7.349,3.208c-0.015,0.062 -0.046,0.12 -0.071,0.18C7.224,3.519 7.175,3.652 7.035,3.724c-0.078,0.04 -0.089,0.045 -0.137,-0.025C6.877,3.71 6.857,3.721 6.839,3.731C6.822,3.681 6.816,3.632 6.79,3.597C6.77,3.568 6.728,3.551 6.692,3.537C6.685,3.534 6.665,3.563 6.639,3.589C6.803,3.627 6.777,3.8 6.884,3.873C6.881,3.881 6.878,3.889 6.875,3.896C6.84,3.89 6.805,3.884 6.77,3.877C6.767,3.883 6.763,3.889 6.76,3.895c0.027,0.017 0.051,0.039 0.08,0.049C6.908,3.968 6.925,3.997 6.891,4.06c-0.058,0.108 -0.11,0.219 -0.177,0.321c-0.038,0.059 -0.093,0.24 -0.065,0.294C6.688,4.626 6.783,4.44 6.824,4.394c0.043,-0.048 0.1,-0.046 0.151,0C6.989,4.407 7.006,4.417 7.04,4.442C7.022,4.356 6.913,4.31 6.998,4.232c0.049,-0.045 0.095,-0.093 0.147,-0.144c0.001,0.004 -0.009,-0.013 -0.004,-0.024c0.021,-0.05 0.046,-0.098 0.071,-0.146C7.295,3.761 7.34,3.569 7.557,3.531c0.012,-0.002 0.023,-0.028 0.028,-0.045c0.02,-0.068 0.028,-0.142 0.057,-0.205C7.675,3.213 7.72,3.148 7.77,3.091c0.081,-0.093 0.16,-0.195 0.292,-0.22c0.1,-0.019 0.202,-0.028 0.302,-0.047C8.54,2.792 8.599,2.839 8.6,3.018c0,0.042 0.001,0.09 -0.017,0.125c-0.046,0.087 -0.065,0.183 -0.1,0.273C8.435,3.54 8.369,3.659 8.292,3.767c-0.029,0.041 -0.068,0.126 -0.14,0.094c0.003,0.056 0.023,0.123 0.006,0.177C8.124,4.139 8.074,4.235 8.023,4.329C7.957,4.452 7.887,4.572 7.812,4.69C7.782,4.739 7.737,4.779 7.699,4.823c-0.013,0.01 -0.004,0.036 -0.013,0.053C7.64,4.963 7.592,5.05 7.541,5.135c-0.079,0.13 -0.203,0.23 -0.249,0.383C7.273,5.58 7.241,5.639 7.21,5.697c-0.038,0.07 -0.053,0.158 -0.134,0.191c0.002,0.021 0.007,0.04 0.004,0.057c-0.019,0.08 -0.04,0.159 -0.06,0.239C7.006,6.237 6.987,6.289 6.984,6.343c-0.004,0.06 0.014,0.122 0.01,0.182C6.988,6.623 6.972,6.721 6.959,6.818c-0.004,0.029 -0.01,0.059 -0.017,0.098C7.06,7.038 6.997,7.204 7.008,7.357c0.149,0.008 0.626,-0.268 0.757,-0.309c0.021,-0.007 0.046,-0.004 0.069,-0.005C7.828,7.065 7.82,7.087 7.811,7.114C7.832,7.121 7.856,7.129 7.89,7.14C7.876,7.056 7.896,7 7.96,6.961c0.023,-0.014 0.046,-0.034 0.058,-0.057C8.118,6.726 8.4,6.74 8.528,6.824c0.052,0.034 0.154,0.05 0.148,0.094c-0.013,0.097 -0.099,0.243 -0.14,0.335C8.52,7.289 8.491,7.319 8.474,7.354c-0.06,0.127 -0.146,0.224 -0.283,0.269C8.167,7.631 8.144,7.642 8.124,7.657c-0.18,0.133 -0.71,0.478 -0.892,0.608C7.119,8.345 6.998,8.415 6.881,8.49c-0.114,0.072 -0.246,0.107 -0.36,0.183c-0.13,0.086 -0.273,0.154 -0.414,0.223c-0.172,0.085 -0.34,0.18 -0.538,0.203C5.427,9.116 5.287,9.156 5.146,9.186C5.128,9.189 5.11,9.189 5.092,9.19C5.091,9.186 5.09,9.182 5.09,9.178c0.013,-0.006 0.026,-0.012 0.04,-0.019C5.126,9.154 5.123,9.148 5.12,9.143C5.1,9.155 5.063,9.167 5.063,9.18C5.06,9.266 5.004,9.274 4.934,9.272C4.96,9.329 4.943,9.348 4.885,9.355c-0.033,0.004 -0.063,0.04 -0.094,0.062C4.781,9.423 4.771,9.435 4.762,9.435C4.669,9.429 4.628,9.47 4.646,9.56C4.602,9.56 4.563,9.561 4.523,9.562C4.519,9.539 4.516,9.52 4.515,9.515C4.474,9.502 4.441,9.49 4.414,9.481C4.385,9.496 4.358,9.524 4.331,9.523C4.227,9.522 4.115,9.543 4.034,9.446C4.027,9.437 3.999,9.445 3.981,9.447c-0.058,0.004 -0.122,0.026 -0.173,0.01C3.653,9.407 3.498,9.35 3.387,9.22C3.378,9.21 3.358,9.211 3.348,9.202c-0.065,-0.052 -0.136,-0.098 -0.189,-0.16C3.13,9.009 3.131,8.95 3.119,8.902C3.099,8.821 3.102,8.817 3.172,8.82C3.185,8.705 3.18,8.591 3.243,8.484zM4.139,7.237C4.205,7.273 4.267,7.305 4.327,7.34c0.027,0.016 0.051,0.038 0.078,0.054C4.426,7.407 4.45,7.415 4.471,7.428c0.017,0.01 0.04,0.021 0.047,0.038c0.054,0.125 0.105,0.252 0.157,0.378c0.023,0.055 0.044,0.111 0.071,0.164C4.761,8.035 4.787,8.056 4.82,8.069c-0.039,-0.157 -0.079,-0.314 -0.12,-0.478c0.054,0.047 0.155,-0.007 0.174,0.104C4.901,7.677 4.923,7.663 4.928,7.66c0.06,0.015 0.105,0.026 0.152,0.037C5.052,7.802 4.948,7.864 4.958,7.991C4.981,7.976 5,7.969 5.008,7.956C5.042,7.893 5.07,7.827 5.105,7.764c0.022,-0.04 0.048,-0.075 0.108,-0.072C5.27,7.696 5.328,7.681 5.385,7.674c0.002,0 0.006,0 0.007,-0.001c0.139,-0.135 0.322,-0.065 0.48,-0.106c-0.059,-0.056 -0.16,-0.082 -0.25,-0.069C5.528,7.511 5.433,7.519 5.34,7.533c-0.02,0.003 -0.038,0.021 -0.058,0.03C5.254,7.574 5.225,7.583 5.196,7.594C5.181,7.599 5.161,7.599 5.152,7.609C5.111,7.655 5.064,7.64 5.025,7.616c-0.084,-0.052 -0.171,-0.085 -0.27,-0.099C4.667,7.505 4.628,7.426 4.593,7.354C4.566,7.301 4.534,7.281 4.474,7.294c-0.022,0.005 -0.05,-0.019 -0.077,-0.029C4.376,7.258 4.353,7.253 4.313,7.242C4.279,7.175 4.25,7.17 4.139,7.237zM6.509,4.429C6.457,4.464 6.4,4.487 6.377,4.554c0.146,-0.013 0.261,-0.16 0.276,-0.256C6.605,4.343 6.562,4.394 6.509,4.429zM5.935,8.221c0.009,-0.005 0.017,-0.01 0.026,-0.015C5.955,8.117 5.865,8.077 5.835,8.003C5.827,8.007 5.82,8.011 5.813,8.015C5.853,8.084 5.894,8.153 5.935,8.221zM6.511,3.43c-0.001,0 -0.021,0.033 -0.02,0.034c0.038,0.029 0.078,0.055 0.117,0.082C6.617,3.459 6.555,3.454 6.511,3.43zM6.148,4.914C6.146,4.919 6.143,4.923 6.14,4.928c0.07,0.038 0.14,0.076 0.21,0.114c0.003,-0.005 0.005,-0.009 0.008,-0.014C6.288,4.99 6.218,4.952 6.148,4.914zM4.772,8.112C4.797,8.166 4.821,8.22 4.845,8.274c0.006,-0.003 0.013,-0.005 0.019,-0.008C4.857,8.204 4.867,8.135 4.772,8.112zM6.096,7.516C6.082,7.502 6.068,7.477 6.054,7.477c-0.038,-0.001 -0.075,0.01 -0.062,0.089C6.031,7.547 6.063,7.532 6.096,7.516zM6.649,4.675c0,-0.008 0,-0.016 0,-0.024C6.619,4.651 6.585,4.642 6.557,4.652C6.539,4.658 6.53,4.691 6.517,4.712C6.523,4.716 6.53,4.72 6.537,4.724C6.575,4.708 6.612,4.691 6.649,4.675zM7.165,2.827c-0.002,0.003 -0.004,0.007 -0.006,0.01C7.216,2.869 7.273,2.9 7.334,2.932C7.32,2.906 7.306,2.88 7.296,2.86C7.248,2.848 7.206,2.838 7.165,2.827zM6.186,7.524c0.029,-0.001 0.057,-0.016 0.086,-0.026C6.24,7.482 6.208,7.467 6.176,7.451C6.168,7.459 6.16,7.466 6.152,7.474C6.163,7.492 6.175,7.524 6.186,7.524zM5.54,6.257c-0.002,0.005 -0.005,0.01 -0.007,0.014c0.045,0.024 0.09,0.049 0.135,0.073C5.67,6.34 5.673,6.335 5.675,6.33C5.63,6.306 5.585,6.281 5.54,6.257z" fill="#000000" fill-opacity="1"/>
</svg>