<?xml version="1.0" encoding="utf-8"?>
<!-- Generator: Adobe Illustrator 17.0.0, SVG Export Plug-In . SVG Version: 6.00 Build 0)  -->
<!DOCTYPE svg PUBLIC "-//W3C//DTD SVG 1.1//EN" "http://www.w3.org/Graphics/SVG/1.1/DTD/svg11.dtd">
<svg version="1.1" id="Capa_1" xmlns="http://www.w3.org/2000/svg" xmlns:xlink="http://www.w3.org/1999/xlink" x="0px" y="0px"
	 width="11.339px" height="11.339px" viewBox="0 0 11.339 11.339" enable-background="new 0 0 11.339 11.339" xml:space="preserve">
<path d="M8.177,9.469c0-0.159,0.129-0.288,0.288-0.288c0.159,0,0.288,0.129,0.288,0.288c0,0.134-0.092,0.245-0.215,0.278h1.029
	L8.351,8.287c0.615-0.653,1.002-1.522,1.035-2.482H8.308c-0.046,0-0.084-0.037-0.084-0.084c0-0.046,0.037-0.084,0.084-0.084h1.08
	C9.367,3.59,7.733,1.931,5.696,1.87v1.165c0,0.046-0.037,0.084-0.084,0.084c-0.046,0-0.084-0.037-0.084-0.084V1.869
	C3.462,1.896,1.793,3.57,1.772,5.638h1.122c0.046,0,0.084,0.037,0.084,0.084c0,0.046-0.037,0.084-0.084,0.084H1.774
	c0.068,2.026,1.717,3.651,3.754,3.678V8.449c0-0.046,0.037-0.084,0.084-0.084c0.046,0,0.084,0.037,0.084,0.084v1.032
	c0.573-0.017,1.115-0.16,1.597-0.404l0.489,0.67h0.609C8.269,9.714,8.177,9.603,8.177,9.469z M5.445,8.189
	C4.204,8.114,3.209,7.128,3.121,5.89h0.753c0.079,0.83,0.741,1.491,1.57,1.57V8.189z M5.445,7.038
	C4.847,6.962,4.373,6.488,4.297,5.89h0.714C5.07,6.1,5.234,6.265,5.444,6.323L5.445,7.038L5.445,7.038z M5.445,5.122
	C5.235,5.18,5.07,5.345,5.012,5.555H4.297c0.076-0.598,0.55-1.071,1.148-1.148L5.445,5.122L5.445,5.122z M5.445,3.984
	c-0.83,0.079-1.491,0.741-1.57,1.57H3.12c0.078-1.247,1.077-2.243,2.325-2.318V3.984z M5.78,4.407
	c0.598,0.076,1.071,0.55,1.148,1.148H6.213C6.155,5.345,5.99,5.18,5.781,5.122L5.78,4.407L5.78,4.407z M5.78,6.323
	C5.99,6.265,6.155,6.1,6.213,5.891h0.714C6.852,6.488,6.377,6.962,5.78,7.038L5.78,6.323L5.78,6.323z M5.78,8.187V7.461
	c0.83-0.079,1.491-0.741,1.57-1.57H8.07C7.983,7.117,7.006,8.096,5.78,8.187z M7.351,5.555c-0.079-0.83-0.741-1.491-1.57-1.57V3.239
	c1.232,0.091,2.213,1.08,2.291,2.315H7.351z"/>
</svg>
