<?xml version="1.0" encoding="utf-8"?>
<!-- Generator: Adobe Illustrator 17.0.0, SVG Export Plug-In . SVG Version: 6.00 Build 0)  -->
<!DOCTYPE svg PUBLIC "-//W3C//DTD SVG 1.1//EN" "http://www.w3.org/Graphics/SVG/1.1/DTD/svg11.dtd">
<svg version="1.1" id="Capa_1" xmlns="http://www.w3.org/2000/svg" xmlns:xlink="http://www.w3.org/1999/xlink" x="0px" y="0px"
	 width="11.339px" height="11.339px" viewBox="0 0 11.339 11.339" enable-background="new 0 0 11.339 11.339" xml:space="preserve">
<g>
	<path d="M6.643,9.904C6.617,9.91,6.56,9.952,6.536,9.919c-0.054-0.099-0.168,0-0.203,0.027C6.297,9.973,6.234,9.993,6.237,9.913
		c0.003-0.081,0.114-0.09,0.114-0.09c0.137-0.027,0.212-0.185,0.281-0.32C6.7,9.369,6.796,9.187,6.804,9.082
		c0.008-0.105,0.004-0.188,0.001-0.227c-0.003-0.039-0.003-0.039,0.048-0.06C6.958,8.744,6.991,8.66,6.991,8.66
		c0.061-0.191,0.095-0.214,0.142-0.359c0.041-0.185-0.005-0.161-0.104-0.314C6.868,7.621,7.274,7.582,7.274,7.582
		c0.167,0.021,0.143-0.197,0.143-0.233c0-0.036,0.018-0.079,0.06-0.03C7.531,7.429,7.561,7.358,7.57,7.334s0.027-0.07,0.066,0.055
		C8.165,9.228,6.671,9.898,6.643,9.904 M6.21,9.47C6.177,9.569,6.15,9.537,6.15,9.653C6.162,9.889,6.141,9.85,6.094,9.961
		c-0.048,0.111-0.14,0.041-0.14,0.003s0.042-0.033-0.042-0.161C5.828,9.674,5.756,9.725,5.75,9.776c-0.006,0.051,0.054,0.06,0,0.111
		c-0.054,0.051-0.024,0.03-0.041,0.152c0.012,0.107-0.069,0.081-0.078,0.015c-0.054-0.074-0.111-0.09-0.212-0.006
		c-0.102,0.084-0.081,0.009-0.105-0.06C5.289,9.919,5.252,9.933,5.233,9.853C5.224,9.715,5.131,9.736,5.131,9.736
		C4.979,9.632,4.967,9.701,4.946,9.725c-0.021,0.024-0.05,0.049-0.09,0C4.797,9.62,4.644,9.686,4.616,9.689S4.566,9.722,4.498,9.662
		C4.429,9.602,4.327,9.498,4.23,9.411C4.132,9.324,4.202,9.273,4.202,9.273c0.119-0.117-0.069-0.215-0.069-0.215
		c-0.045-0.057,0-0.117,0-0.117c0.078-0.009,0.081,0.06,0.081,0.06C4.22,9.076,4.238,9.115,4.3,9.136S4.4,9.153,4.447,9.234
		C4.489,9.363,4.531,9.333,4.616,9.33c0.085-0.003,0.199,0.006,0.173-0.212C4.763,8.9,4.731,8.918,4.704,8.759
		C4.677,8.601,4.635,8.476,4.681,8.359c0.043-0.23,0.16-0.155,0.211-0.152c0.051,0.003,0.117,0.051,0.215-0.054
		C5.206,8.048,5.27,7.782,5.27,7.782c0.076-0.251-0.145-0.323-0.145-0.323C4.925,7.304,5.131,7.25,5.131,7.25
		C5.23,7.241,5.194,7.124,5.194,7.124c0-0.072-0.081-0.149-0.081-0.149C5.006,6.978,5.009,6.873,5.009,6.873
		c0.072,0.09,0.126,0.066,0.126,0.066C5.179,6.9,5.236,6.87,5.236,6.87c0.051-0.045,0.039-0.102,0-0.114
		C5.197,6.745,5.158,6.755,5.125,6.715C5.084,6.637,5.039,6.706,5.039,6.706C5.023,6.76,4.967,6.757,4.967,6.757
		C4.91,6.727,4.789,6.571,4.789,6.571c0.157,0.075,0.175-0.143,0.103-0.143S4.828,6.401,4.776,6.365
		C4.638,6.279,4.901,6.192,4.997,6.156C5.093,6.12,5.194,6.138,5.212,6.213c0.018,0.075-0.03,0.15,0.147,0.159
		C5.535,6.38,5.535,6.446,5.604,6.467c0.069,0.021,0.158-0.123,0.063-0.209C5.532,6.165,5.66,6.022,5.768,6.027
		c0.107,0.006,0.104,0.021,0.057,0.051c-0.14,0.17,0.05,0.202,0.099,0.254C5.977,6.434,5.986,6.416,5.95,6.497
		c-0.227,0.29,0.086,0.239,0.093,0.299C6.04,6.894,6.05,6.907,6.091,6.936C6.177,7.02,6.198,7.008,6.228,6.945
		c0.128-0.126,0.169,0.02,0.299,0.158C6.688,7.235,6.626,7.184,6.664,7.28c0.131,0.147,0.143-0.018,0.14-0.071
		C6.802,7.156,6.838,7.062,6.901,7.124C6.963,7.187,6.969,7.22,7.032,7.228c0.147,0.007,0.12,0.071,0.12,0.071
		c0.062,0.127-0.075,0.09-0.075,0.09c-0.185-0.241-0.168,0.05-0.168,0.05C6.883,7.459,6.868,7.507,6.868,7.582
		c0,0.074-0.06,0.111-0.107,0.125C6.712,7.722,6.641,7.713,6.599,7.713c-0.042,0-0.096-0.024-0.117,0.036
		c-0.021,0.06-0.063,0.111-0.14,0.143c-0.26,0.042-0.227,0.147-0.23,0.197C6.108,8.141,6.106,8.182,6.037,8.161
		c-0.128-0.018-0.185-0.03-0.299,0.15C5.624,8.49,5.852,8.595,5.852,8.658c0,0.063-0.033,0.111,0.062,0.167
		C6.01,8.882,5.989,8.921,6.016,8.983c0.027,0.063,0.072,0.168,0.126,0.296S6.243,9.39,6.21,9.47 M4.102,7.027
		C4.182,6.959,4.23,7.051,4.23,7.051s0.008,0.032-0.064,0.016S4.102,7.027,4.102,7.027 M4.297,7.262c0,0,0.039-0.06,0.111,0.021
		c0,0,0.012,0.041,0.069-0.042c0,0,0.078-0.096,0.114,0.047c0,0-0.054,0.139-0.192,0.092C4.262,7.331,4.3,7.343,4.166,7.334
		C4.166,7.334,4.253,7.337,4.297,7.262 M4.648,6.636c0.028,0.036,0.067,0.044-0.024,0.04c0,0-0.056,0-0.072-0.04
		C4.536,6.597,4.62,6.6,4.648,6.636 M4.716,7.094C4.794,7.02,4.892,7.157,4.892,7.181c0,0.024-0.033,0.054-0.119,0.045
		C4.773,7.226,4.623,7.226,4.716,7.094 M6.034,6.174c-0.045,0-0.027-0.036,0-0.063c0.027-0.027,0.066-0.06,0.06-0.027
		c-0.006,0.033-0.003,0.039,0.072,0.09C6.24,6.225,6.234,6.219,6.324,6.3c0.09,0.081,0.051,0.063,0,0.105
		C6.273,6.446,6.231,6.446,6.21,6.419C6.189,6.392,6.195,6.333,6.129,6.32C6.064,6.308,6.108,6.225,6.108,6.225
		C6.106,6.171,6.079,6.174,6.034,6.174 M3.327,2.768C3.184,1.756,4.285,1.56,4.469,1.56c0,0,0.645,0.144,1.293,2.2
		c0.02,0.064,0.325,0.032,0.445,0.032c0,0,0.175,0.008,0.199-0.263c0.024-0.271-0.004-0.241-0.016-0.379
		c0,0-0.054,0.227-0.096,0.263c0,0-0.048-0.526,0.15-0.813c0,0,0.401-0.006,0.478,0c0,0-0.191,0.454-0.275,0.586
		c0,0,0.292-0.161,0.568-0.64c0,0,0.12-0.137-0.071-0.484c0,0,0.245-0.239,0.06-0.407c-0.057-0.057-0.06-0.102-0.096-0.173
		c0,0,0.795,0.15,0.912,0.992c0.002,0.033,0.009,0.22-0.013,0.335C7.859,3.365,7.41,3.501,6.904,3.891
		C6.36,4.309,6.066,4.835,6.724,5.415c0.471,0.446,0.931,0.76,1.118,1.197C7.518,6.241,7.113,5.973,6.804,5.759
		C5.668,4.975,3.616,4.186,3.327,2.768 M6.174,2.109c0,0-0.084,0.064-0.255,0.064c0,0-0.359-0.295-0.394-0.342
		C5.525,1.831,5.991,1.938,6.174,2.109 M6.286,2.623c0,0-0.136,0.482-0.084,0.92c0,0-0.06,0.032-0.124,0.02
		c0-0.116,0.004-0.243-0.028-0.402c0,0-0.076,0.317-0.135,0.387L5.871,3.54c0,0-0.311-1.008-0.327-1.259
		c0,0,0.319,0.271,0.434,0.331c0,0-0.004,0.399-0.13,0.67c0,0,0.181-0.072,0.401-0.661L6.286,2.623z M7.055,1.898
		c0,0-0.072,0.168-0.161,0.259c0,0-0.105,0-0.161-0.076C6.732,2.081,6.935,1.93,7.055,1.898 M3.98,8.891
		C3.93,8.906,3.876,8.888,3.861,8.831c-0.015-0.057,0.033-0.048-0.018-0.12S3.81,8.709,3.771,8.52
		C3.732,8.332,3.876,8.463,3.876,8.463C3.944,8.506,3.954,8.622,3.98,8.747C4.008,8.873,4.031,8.876,3.98,8.891 M7.889,6.258
		C7.296,5.576,7.152,5.521,6.921,5.29c-0.199-0.2-0.58-0.664,0.317-1.321c0.819-0.55,1.296-0.926,1.016-1.775
		C8.03,1.645,7.644,1.434,7.446,1.249S6.741,0.734,5.788,0.705c-0.953-0.03-1.413,0.191-2.047,0.598
		C3.108,1.709,2.504,2.785,2.815,3.621C3.126,4.459,3.706,4.907,4.59,5.373C5.255,5.7,5.493,5.773,5.804,5.941
		C5.245,5.927,4.6,6.02,4.065,6.66c0,0-0.518,0.606-0.432,1.564c0,0-0.351-1.142,0.504-2.122c0,0-1.341,0.741-0.945,2.511
		c0.368,1.642,1.825,2.024,2.471,2.024c0.853,0,2.734-0.39,2.734-2.598C8.398,8.039,8.461,6.915,7.889,6.258"/>
</g>
</svg>
