<svg xmlns="http://www.w3.org/2000/svg" width="11.339" height="11.339" viewBox="0 0 11.339 11.339">
    <path d="M1.98,7.331c0.324,-0.074 0.418,-0.305 0.345,-0.709L2.189,5.865C2.227,5.834 2.26,5.798 2.274,5.763l-0.053,-0.19L1.824,5.663l0.017,0.199c0.024,0.026 0.067,0.046 0.114,0.057l0.138,0.767c0.037,0.206 0.011,0.342 -0.14,0.376C1.798,7.096 1.735,6.989 1.697,6.775L1.558,6.009c0.038,-0.031 0.071,-0.067 0.085,-0.102L1.59,5.716L1.166,5.813l0.017,0.199C1.209,6.037 1.25,6.057 1.297,6.068l0.137,0.757C1.506,7.222 1.645,7.407 1.98,7.331z" fill="#000000" fill-opacity="1"/>
    <path d="M2.829,6.163l0.53,0.834l0.284,-0.065L3.4,5.584c0.038,-0.031 0.068,-0.072 0.084,-0.112L3.433,5.296L3.078,5.377l0.015,0.185c0.028,0.03 0.07,0.055 0.116,0.066l0.11,0.607c0.025,0.138 0.087,0.336 0.087,0.336L3.387,6.585c0,0 -0.085,-0.198 -0.148,-0.298L2.714,5.46L2.34,5.545l0.014,0.185C2.381,5.76 2.426,5.781 2.474,5.793l0.196,1.083C2.632,6.906 2.601,6.945 2.585,6.985l0.051,0.176L2.991,7.08L2.977,6.896c-0.028,-0.03 -0.07,-0.052 -0.115,-0.064L2.75,6.215C2.725,6.077 2.663,5.879 2.663,5.879l0.018,-0.014C2.681,5.865 2.766,6.063 2.829,6.163z" fill="#000000" fill-opacity="1"/>
    <path d="M3.808,6.692l0.053,0.19l0.424,-0.097L4.268,6.587C4.242,6.561 4.2,6.544 4.154,6.532L3.961,5.461C3.999,5.43 4.031,5.393 4.046,5.358l-0.053,-0.19L3.569,5.265l0.017,0.199C3.609,5.49 3.652,5.509 3.7,5.52l0.194,1.071C3.854,6.623 3.82,6.657 3.808,6.692z" fill="#000000" fill-opacity="1"/>
    <path d="M4.917,6.641L4.9,6.442c-0.037,-0.038 -0.111,-0.06 -0.179,-0.064L4.334,5.886l0.223,-0.571c0.036,-0.03 0.068,-0.064 0.081,-0.097L4.585,5.033L4.172,5.127l0.016,0.194c0.019,0.02 0.048,0.035 0.082,0.047L4.062,5.958L4.616,6.71L4.917,6.641z" fill="#000000" fill-opacity="1"/>
    <path d="M5.19,5.624l0.53,0.834l0.284,-0.065L5.761,5.045c0.038,-0.031 0.068,-0.072 0.084,-0.112L5.794,4.757L5.438,4.838l0.014,0.185c0.028,0.03 0.07,0.055 0.116,0.066l0.11,0.607c0.025,0.138 0.087,0.336 0.087,0.336L5.747,6.047c0,0 -0.085,-0.198 -0.148,-0.298L5.074,4.921L4.701,5.006l0.014,0.185c0.026,0.031 0.072,0.052 0.119,0.063L5.03,6.337C4.992,6.368 4.962,6.406 4.946,6.447l0.051,0.176l0.355,-0.081L5.338,6.357c-0.028,-0.03 -0.07,-0.052 -0.115,-0.064L5.111,5.677C5.086,5.538 5.024,5.34 5.024,5.34l0.018,-0.014C5.042,5.326 5.127,5.524 5.19,5.624z" fill="#000000" fill-opacity="1"/>
    <path d="M6.433,4.591C6.102,4.667 5.942,4.97 6.046,5.546c0.108,0.6 0.33,0.781 0.661,0.706C7.042,6.176 7.2,5.849 7.096,5.275C6.988,4.673 6.769,4.515 6.433,4.591zM6.674,5.984C6.529,6.017 6.391,5.89 6.314,5.463C6.236,5.034 6.318,4.894 6.467,4.86c0.15,-0.034 0.285,0.074 0.363,0.503C6.906,5.787 6.828,5.949 6.674,5.984z" fill="#000000" fill-opacity="1"/>
    <path d="M8.046,5.017L8.353,5.87l0.284,-0.065l0.062,-1.413c0.047,-0.033 0.088,-0.076 0.105,-0.119L8.75,4.082l-0.4,0.091l0.017,0.199c0.026,0.031 0.072,0.052 0.121,0.063l-0.019,0.72C8.464,5.356 8.486,5.5 8.486,5.5L8.461,5.506c0,0 -0.035,-0.141 -0.105,-0.33l-0.334,-0.91L7.744,4.329l0.009,0.989C7.756,5.52 7.779,5.659 7.779,5.659L7.754,5.664c0,0 -0.038,-0.138 -0.11,-0.326L7.39,4.676c0.038,-0.028 0.069,-0.065 0.084,-0.1l-0.053,-0.19L7.002,4.481L7.019,4.68c0.024,0.026 0.067,0.046 0.114,0.057l0.535,1.289l0.279,-0.064L7.939,5.039C7.936,4.837 7.914,4.673 7.914,4.673l0.025,-0.006C7.939,4.668 7.977,4.825 8.046,5.017z" fill="#000000" fill-opacity="1"/>
    <path d="M9.577,4.082c0.028,0.03 0.07,0.055 0.116,0.066l0.11,0.607c0.025,0.138 0.087,0.336 0.087,0.336L9.871,5.106c0,0 -0.085,-0.198 -0.148,-0.298L9.198,3.98L8.825,4.065L8.839,4.25c0.026,0.031 0.072,0.052 0.119,0.063l0.196,1.083C9.116,5.427 9.085,5.466 9.07,5.506l0.051,0.176l0.355,-0.081L9.461,5.416c-0.028,-0.03 -0.07,-0.052 -0.115,-0.064L9.235,4.736C9.21,4.598 9.147,4.399 9.147,4.399l0.018,-0.014c0,0 0.085,0.198 0.148,0.298l0.53,0.834l0.284,-0.065L9.884,4.104c0.038,-0.031 0.068,-0.072 0.084,-0.112L9.917,3.816L9.562,3.897L9.577,4.082z" fill="#000000" fill-opacity="1"/>
    <path d="M9.786,3.114l-8.794,2.006l0.059,0.328l8.794,-2.006z" fill="#000000" fill-opacity="1"/>
    <path d="M10.287,5.891l-8.793,2.006l0.059,0.327l8.793,-2.006z" fill="#000000" fill-opacity="1"/>
</svg>