<svg xmlns="http://www.w3.org/2000/svg" width="11.339" height="11.339" viewBox="0 0 11.339 11.339">
    <path d="M10.209,3.256c0,0 0.106,-0.095 0.05,-0.216l-0.218,-0.446c0,0 -0.147,-0.181 -0.274,-0.212L9.688,2.267L9.454,2.501L9.369,2.242c0,0 -0.419,0.38 -0.434,0.797L7.736,4.225l0.07,0.069L6.955,5.157L6.873,5.1L6.857,5.094L6.803,5.086L5.907,6.075c0,0 -0.12,0.009 -0.238,0.045C5.552,6.084 5.432,6.075 5.432,6.075L4.536,5.086L4.482,5.094L4.465,5.1L4.383,5.157L3.532,4.293l0.07,-0.069L2.404,3.04C2.388,2.622 1.969,2.242 1.969,2.242L1.885,2.501L1.651,2.267L1.572,2.381C1.444,2.412 1.298,2.594 1.298,2.594L1.079,3.04c-0.056,0.122 0.05,0.216 0.05,0.216L2.904,5.03c0.255,0.324 -0.025,0.755 -0.025,0.755L2.618,6.046l0.527,0.608l0.2,0.074c0.081,0.113 0.025,0.245 0.025,0.245l-0.759,1.06C2.404,8.172 2.52,8.23 2.52,8.23l1.112,1.112c0.591,-0.301 0.869,-1.379 0.869,-1.379c0.11,-0.307 0.295,-0.423 0.295,-0.423c0.33,-0.237 0.852,0.434 0.852,0.434C5.66,7.97 5.661,7.959 5.669,7.952c0.008,0.007 0.01,0.018 0.021,0.023c0,0 0.521,-0.672 0.852,-0.434c0,0 0.185,0.116 0.295,0.423c0,0 0.278,1.077 0.869,1.379L8.819,8.23c0,0 0.116,-0.058 -0.093,-0.197l-0.759,-1.06c0,0 -0.056,-0.132 0.025,-0.245l0.2,-0.074L8.72,6.046L8.46,5.785c0,0 -0.28,-0.431 -0.025,-0.755L10.209,3.256zM3.428,6.583L3.241,6.514L2.792,6.003l0.276,-0.276c0.131,-0.1 0.29,-0.012 0.29,-0.012l0.293,0.286C3.663,6.015 3.673,6.028 3.682,6.04C3.646,6.155 3.566,6.307 3.385,6.374c0,0 -0.074,0.019 -0.009,0.068c0,0 0.164,0.056 0.375,-0.097C3.701,6.52 3.541,6.57 3.428,6.583zM5.669,7.707c-0.249,-0.2 -0.206,-0.484 -0.164,-0.551l0.024,0.008c0,0 0.069,-0.008 0.141,-0.015C5.741,7.156 5.81,7.164 5.81,7.164l0.024,-0.008C5.875,7.223 5.918,7.507 5.669,7.707zM8.546,6.003L8.097,6.514L7.91,6.583C7.797,6.57 7.638,6.52 7.588,6.346c0.21,0.153 0.374,0.097 0.374,0.097c0.065,-0.049 -0.009,-0.068 -0.009,-0.068C7.773,6.307 7.692,6.155 7.657,6.04c0.009,-0.013 0.019,-0.026 0.031,-0.039l0.293,-0.286c0,0 0.158,-0.089 0.29,0.012L8.546,6.003z" fill="#000000" fill-opacity="1"/>
</svg>