<?xml version="1.0" encoding="utf-8"?>
<!-- Generator: Adobe Illustrator 17.0.0, SVG Export Plug-In . SVG Version: 6.00 Build 0)  -->
<!DOCTYPE svg PUBLIC "-//W3C//DTD SVG 1.1//EN" "http://www.w3.org/Graphics/SVG/1.1/DTD/svg11.dtd">
<svg version="1.1" id="Capa_1" xmlns="http://www.w3.org/2000/svg" xmlns:xlink="http://www.w3.org/1999/xlink" x="0px" y="0px"
	 width="11.339px" height="11.339px" viewBox="0 0 11.339 11.339" enable-background="new 0 0 11.339 11.339" xml:space="preserve">
<g>
	<polygon points="8.318,1.554 4.681,5.176 5.842,5.176 4.352,6.988 5.182,6.988 3.384,9.785 6.987,6.165 5.998,6.165 7.481,4.353 
		6.492,4.353 	"/>
	<g>
		<path d="M2.964,8.375c0.183,0.183,0.382,0.345,0.594,0.486l0.227-0.353C3.598,8.384,3.422,8.24,3.261,8.078
			C2.948,7.765,2.702,7.401,2.53,6.995C2.353,6.576,2.263,6.129,2.263,5.67s0.09-0.906,0.268-1.326
			c0.172-0.406,0.417-0.77,0.73-1.083c0.313-0.313,0.677-0.559,1.083-0.73c0.42-0.178,0.866-0.268,1.326-0.268
			c0.419,0,0.827,0.075,1.213,0.222l0.323-0.322C7.19,2.157,7.175,2.15,7.159,2.144c-0.472-0.2-0.973-0.301-1.49-0.301
			S4.652,1.944,4.18,2.144c-0.456,0.193-0.865,0.469-1.216,0.82S2.336,3.724,2.144,4.18c-0.2,0.472-0.301,0.973-0.301,1.49
			c0,0.517,0.101,1.018,0.301,1.49C2.336,7.615,2.612,8.024,2.964,8.375z"/>
		<path d="M8.375,2.964C8.264,2.852,8.146,2.748,8.023,2.652l-0.23,0.353C7.892,3.085,7.987,3.17,8.078,3.261
			c0.313,0.313,0.559,0.677,0.73,1.083C8.986,4.763,9.076,5.21,9.076,5.67s-0.09,0.906-0.268,1.326
			c-0.172,0.406-0.417,0.77-0.73,1.083c-0.313,0.313-0.677,0.559-1.083,0.73c-0.42,0.178-0.866,0.268-1.326,0.268
			c-0.325,0-0.642-0.045-0.949-0.134L4.388,9.276c0.41,0.146,0.84,0.22,1.281,0.22c0.517,0,1.018-0.101,1.49-0.301
			c0.456-0.193,0.865-0.469,1.216-0.82c0.351-0.351,0.627-0.761,0.82-1.216c0.2-0.472,0.301-0.973,0.301-1.49
			c0-0.517-0.101-1.018-0.301-1.49C9.003,3.724,8.727,3.315,8.375,2.964z"/>
	</g>
</g>
</svg>
