<?xml version="1.0" encoding="utf-8"?>
<!-- Generator: Adobe Illustrator 17.0.0, SVG Export Plug-In . SVG Version: 6.00 Build 0)  -->
<!DOCTYPE svg PUBLIC "-//W3C//DTD SVG 1.1//EN" "http://www.w3.org/Graphics/SVG/1.1/DTD/svg11.dtd">
<svg version="1.1" id="Capa_1" xmlns="http://www.w3.org/2000/svg" xmlns:xlink="http://www.w3.org/1999/xlink" x="0px" y="0px"
	 width="11.339px" height="11.339px" viewBox="0 0 11.339 11.339" enable-background="new 0 0 11.339 11.339" xml:space="preserve">
<g>
	<path d="M8.676,5.64L8.605,5.79H8.604L8.287,6.462L8.089,7.01L7.37,7.592L7.227,7.321L6.959,7.431L6.701,7.536l0.072,0.286
		l-0.526,0.15L5.71,8.125L4.757,7.953L4.79,7.665L4.52,7.56L4.222,7.443L4.064,7.698L3.305,7.274L3.084,7.15L2.772,6.219
		L2.515,5.697l0.475,0.319l0.448,0.3l0.168,0.112l-0.1,0.274l0.56,0.239l0.179-0.29l0.087,0.022L4.96,6.833l0.362,0.091l0.057,0.369
		l0.621-0.042L5.999,6.859l0.435-0.125l0.697-0.2l0.129-0.037l0.15,0.279l0.514-0.303L7.798,6.156l0.788-0.585V5.57l0.186-0.137
		L8.676,5.64z M3.631,4.056L3.631,4.056l0.314-0.233l0.484,0.531l0.526,0.578L4.466,4.751L4.305,4.692L4.177,4.645L3.91,4.546
		L3.309,4.591L2.865,4.625L3.631,4.056z M5.651,5.254l0.391,0.666L5.208,5.973L5.651,5.254z M6.893,4.424l0.441-0.557l0.98,0.775
		l0.012,0.01L8.318,4.651L7.43,4.599l-0.438,0.17L6.456,4.976L6.893,4.424z M5.589,9.108L6.352,9.18l0.732,0.069
		C7.205,9.247,7.391,9.212,7.61,9.131c0.756-0.281,1.893-1.119,2.016-3.064c0.118-1.852-0.684-2.776-1.358-3.29
		C8.228,2.744,8.187,2.714,8.147,2.686c-0.351-0.223-0.766-0.186-0.993-0.14L6.986,2.589l-1.32,0.339L5.64,2.921L4.307,2.603
		L4.172,2.571C3.688,2.495,3.325,2.653,3.14,2.763c-0.04,0.03-0.082,0.062-0.124,0.095C2.355,3.382,1.598,4.303,1.713,6.104
		c0.12,1.888,1.194,2.733,1.948,3.038c0.077,0.031,0.15,0.057,0.219,0.076C4.057,9.262,4.25,9.269,4.423,9.26l0.51-0.067
		L5.589,9.108c-0.001,0-0.002,0-0.003,0l0,0"/>
	<polygon points="5.219,1.767 5.534,2.143 5.112,2.302 4.533,2.451 5.666,2.67 6.854,2.392 6.201,2.302 5.771,2.126 5.669,1.892 
		5.968,1.897 6.15,1.428 	"/>
</g>
</svg>
