<svg xmlns="http://www.w3.org/2000/svg" width="11.339" height="11.339" viewBox="0 0 11.339 11.339">
    <path d="M5.447,8.872m-0.836,0a0.836,0.836 0,1 1,1.672 0a0.836,0.836 0,1 1,-1.672 0" fill="#000000" fill-opacity="1"/>
    <path d="M4.764,1.781c1.129,-0.407 2.345,0.136 2.345,0.136c1.102,0.451 1.232,1.371 1.232,1.371C8.606,4.475 7.716,5.1 7.716,5.1c-0.353,0.277 -1.259,1 -1.259,1C5.757,6.591 5.83,7.35 5.83,7.35H5.084c0,0 -0.124,-0.802 0.331,-1.536c0,0 0.003,-0.004 0.008,-0.012l-0.001,0c0.078,-0.126 0.17,-0.247 0.276,-0.364c0.042,-0.047 0.084,-0.095 0.126,-0.142C5.916,5.187 6.026,5.057 6.16,4.902c0.115,-0.14 0.228,-0.282 0.337,-0.427c0.184,-0.244 0.276,-0.525 0.255,-0.828c-0.008,-0.068 -0.02,-0.14 -0.035,-0.217C6.631,3.072 6.418,2.8 6.077,2.647C5.513,2.394 4.952,2.398 4.43,2.766C4.113,2.99 3.927,3.379 3.924,3.783c0.099,-0.058 0.191,-0.121 0.29,-0.167c0.44,-0.204 0.94,0.014 1.046,0.452c0.118,0.487 -0.198,0.976 -0.694,1.07C3.924,5.261 3.353,4.853 3.213,4.172C3.213,4.172 2.941,2.423 4.764,1.781z" fill="#000000" fill-opacity="1"/>
</svg>