<svg xmlns="http://www.w3.org/2000/svg" width="11.339" height="11.339" viewBox="0 0 11.339 11.339">
    <path d="M5.715,1.847L5.715,1.847c-0.001,0 -0.002,0 -0.003,0c-2.152,0 -3.896,1.744 -3.896,3.896S3.56,9.64 5.712,9.64c0.001,0 0.002,0 0.003,0v0c2.152,0 3.896,-1.744 3.896,-3.896S7.866,1.847 5.715,1.847zM7.577,5.037c0,0 -0.021,0.055 -0.055,0.195c0.071,-0.065 0.2,-0.097 0.333,0.288c0.082,0.238 -0.077,0.509 -0.202,0.956C7.619,6.597 7.625,6.615 7.601,6.708C7.56,6.864 7.465,6.9 7.465,6.9H7.351L7.276,7.414L6.467,8.449C6.139,8.741 5.715,8.706 5.715,8.706v0.431c-0.001,0 -0.002,0 -0.003,0c-0.458,0 -0.903,-0.09 -1.321,-0.266C4.19,8.786 3.996,8.68 3.815,8.558c-0.18,-0.121 -0.349,-0.261 -0.503,-0.415C3.158,7.989 3.019,7.82 2.897,7.64C2.775,7.459 2.67,7.265 2.585,7.064C2.408,6.646 2.318,6.202 2.318,5.744s0.09,-0.903 0.266,-1.321c0.085,-0.201 0.19,-0.395 0.313,-0.576c0.121,-0.18 0.261,-0.349 0.415,-0.503C3.466,3.19 3.635,3.051 3.815,2.929C3.996,2.807 4.19,2.702 4.391,2.617C4.809,2.44 5.253,2.35 5.712,2.35c0.001,0 0.002,0 0.003,0v2.141l0,0V3.013c0,0 0.071,-0.407 0.529,-0.422c0.15,-0.005 0.545,0.168 0.772,-0.002c0,0 0.025,0.288 -0.592,0.413c0,0 0.824,-0.098 1.106,0.203C7.742,3.43 7.936,3.489 8.111,3.383c0,0 -0.061,0.307 -0.754,0.345c0,0 0.402,0.132 0.495,0.41c0.082,0.245 0.13,0.425 0.429,0.431c0,0 -0.103,0.137 -0.448,0.214C7.672,4.819 7.599,4.988 7.577,5.037z" fill="#000000" fill-opacity="1"/>
    <path d="M6.518,5.744m-0.441,0a0.441,0.441 0,1 1,0.882 0a0.441,0.441 0,1 1,-0.882 0" fill="#000000" fill-opacity="1"/>
    <path d="M5.715,4.491V3.013l0,0l0,-0.004c0,0 -0.807,-0.358 -1.668,0.435C3.942,3.54 3.659,3.86 3.743,4.094c0.032,0.09 0.069,0.157 0.069,0.304c0,0.147 -0.076,0.216 0.028,0.386c0.097,0.158 0.013,0.113 0.067,0.444l0.001,0.005C3.837,5.167 3.708,5.133 3.574,5.52C3.492,5.757 3.651,6.029 3.776,6.476C3.81,6.597 3.804,6.615 3.829,6.708C3.869,6.864 3.965,6.9 3.965,6.9h0.113l0.075,0.514l0.809,1.035C5.29,8.741 5.715,8.706 5.715,8.706L5.715,4.491L5.715,4.491z" fill="#000000" fill-opacity="1"/>
</svg>