<svg xmlns="http://www.w3.org/2000/svg" width="11.339" height="11.339" viewBox="0 0 11.339 11.339">
    <g>
        <clipPath id="clip_1">
            <path d="M-29.778,0.818h8.217v9.071h-8.217z"/>
        </clipPath>
        <path d="M7.701,1.865c-2.068,-0.545 -3.704,0.86 -3.704,0.86c1.177,0.428 -0.358,1.863 -0.358,1.863s-0.3,-0.197 -0.922,-0.739l0.255,0.462L2.758,4.525L2.295,4.271c0.541,0.623 0.739,0.922 0.739,0.922S1.598,6.728 1.171,5.551c0,0 -1.405,1.635 -0.86,3.703c0,0 0.837,-2.183 2.621,-1.777c0,0 0.513,-1.741 2.317,-0.673v0v0C4.182,4.999 5.923,4.486 5.923,4.486C5.517,2.702 7.701,1.865 7.701,1.865M5.607,3.134c-0.153,0.341 -0.217,0.7 -0.193,1.07C5.377,4.225 5.338,4.248 5.298,4.273c-0.353,0.22 -0.611,0.517 -0.746,0.86C4.444,5.407 4.414,5.702 4.46,6.015L3.847,5.392L3.661,5.203l0.028,-0.028l0.266,-0.249c0.011,-0.01 0.261,-0.245 0.496,-0.561c0.365,-0.49 0.51,-0.93 0.432,-1.308C4.865,2.965 4.831,2.862 4.769,2.759C5.12,2.557 5.646,2.318 6.271,2.233C5.975,2.509 5.752,2.811 5.607,3.134" clip-path="url(#clip_1)" fill="#1d1d1b"/>
    </g>
    <path d="M5.668,8.311c-2.622,0 -4.676,-1.167 -4.676,-2.658c0,-1.473 2.054,-2.627 4.676,-2.627c2.623,0 4.678,1.154 4.678,2.627C10.346,7.144 8.292,8.311 5.668,8.311zM5.668,3.186c-2.533,0 -4.518,1.084 -4.518,2.468c0,1.378 2.027,2.499 4.518,2.499c2.492,0 4.52,-1.121 4.52,-2.499C10.188,4.27 8.203,3.186 5.668,3.186z" fill="#000000" fill-opacity="1"/>
    <path d="M6.734,6.479C7.1,6.53 7.173,6.88 7.173,6.88s0.53,-0.596 0.975,-0.431c0.656,0.24 0.152,0.86 0.059,1.004c0.113,-0.031 1.698,-0.5 1.698,-1.829c0,-1.331 -2.424,-1.975 -2.424,-1.975C7.685,3.812 7.901,4.16 7.604,4.629C7.277,5.146 6.632,4.978 6.416,4.865C6.273,4.681 6.202,3.72 6.181,3.464C6.09,3.495 5.907,3.955 5.907,3.955H5.433c0,0 -0.184,-0.46 -0.277,-0.491C5.136,3.72 5.065,4.681 4.92,4.865C4.707,4.978 4.06,5.146 3.735,4.629C3.438,4.16 3.653,3.812 3.858,3.648c0,0 -2.424,0.645 -2.424,1.975c0,1.329 1.584,1.799 1.699,1.829C3.039,7.309 2.535,6.689 3.19,6.449C3.633,6.285 4.164,6.88 4.164,6.88s0.074,-0.351 0.44,-0.401c0.539,-0.074 1.064,1.12 1.064,1.12S6.194,6.404 6.734,6.479z" fill="#000000" fill-opacity="1"/>
</svg>