<?xml version="1.0" encoding="utf-8"?>
<!-- Generator: Adobe Illustrator 17.0.0, SVG Export Plug-In . SVG Version: 6.00 Build 0)  -->
<!DOCTYPE svg PUBLIC "-//W3C//DTD SVG 1.1//EN" "http://www.w3.org/Graphics/SVG/1.1/DTD/svg11.dtd">
<svg version="1.1" id="Capa_1" xmlns="http://www.w3.org/2000/svg" xmlns:xlink="http://www.w3.org/1999/xlink" x="0px" y="0px"
	 width="11.339px" height="11.339px" viewBox="0 0 11.339 11.339" enable-background="new 0 0 11.339 11.339" xml:space="preserve">
<g>
	<rect x="6.852" y="6.987" width="0.001" height="0.001"/>
	<path d="M6.991,6.084C7.014,6.056,7.01,6.024,7.008,5.993c0-0.002-0.003-0.004-0.006-0.007C6.997,6.001,6.993,6.017,6.986,6.031
		C6.972,6.059,6.968,6.088,6.965,6.119C6.964,6.132,6.963,6.144,6.961,6.157C6.96,6.162,6.959,6.169,6.949,6.169
		c0.005-0.04,0.009-0.08,0.005-0.119C6.949,6.045,6.943,6.041,6.94,6.038c0-0.02,0-0.038,0-0.055c0-0.005,0.001-0.012-0.009-0.011
		C6.923,6,6.921,6.03,6.92,6.06C6.919,6.082,6.916,6.103,6.914,6.125C6.91,6.156,6.906,6.188,6.903,6.219
		c-0.002,0.02-0.004,0.04-0.006,0.06C6.895,6.303,6.89,6.327,6.908,6.349C6.912,6.355,6.91,6.366,6.898,6.37
		c-0.017-0.024-0.01-0.053-0.014-0.083C6.872,6.324,6.868,6.358,6.871,6.388C6.872,6.397,6.876,6.406,6.877,6.41
		c0.01,0.01,0.019,0.001,0.024,0.013c-0.003,0.02-0.006,0.043-0.009,0.065C6.889,6.475,6.888,6.462,6.885,6.449
		c-0.001-0.007-0.006-0.013-0.018-0.01C6.861,6.455,6.852,6.471,6.846,6.489C6.841,6.502,6.838,6.516,6.835,6.53
		C6.829,6.57,6.824,6.61,6.817,6.65c-0.009,0.06-0.019,0.119-0.018,0.18c0,0.03,0.003,0.06,0.005,0.09
		c0.001,0.02,0.005,0.037,0.019,0.051c0.01,0.005,0.022,0.003,0.028,0.015c0.006-0.003,0.011-0.005,0.017-0.009
		C6.864,6.967,6.858,6.956,6.86,6.943c0.008-0.004,0.015-0.007,0.021-0.011c0.011-0.02,0.001-0.053,0.036-0.055
		c0.005,0.016,0.005,0.029-0.005,0.041l0.001-0.001C6.914,6.93,6.915,6.943,6.916,6.956c0.001,0.005,0,0.012,0.011,0.012
		c0.005-0.016,0.01-0.032,0.009-0.049c-0.001-0.016,0-0.032,0.002-0.047c0.007-0.05,0.012-0.1,0.01-0.151
		c0-0.006-0.001-0.012,0.001-0.017c0.01-0.044,0.007-0.089,0.004-0.133C6.951,6.553,6.953,6.536,6.963,6.521
		c0.004-0.006,0.006-0.013,0.009-0.018C6.95,6.475,6.95,6.449,6.974,6.426C6.969,6.416,6.966,6.408,6.962,6.401
		C6.966,6.391,6.97,6.382,6.973,6.373l0.001,0.001C6.963,6.362,6.957,6.35,6.963,6.335c0.005-0.013,0.014-0.026,0.016-0.04
		c0.002-0.013-0.003-0.028-0.005-0.041c-0.002-0.01-0.004-0.019-0.007-0.03c0.005-0.01,0.011-0.02,0.016-0.029
		c0-0.03-0.001-0.059,0.001-0.087C6.984,6.1,6.987,6.09,6.991,6.084z"/>
	<rect x="6.869" y="6.979" width="0.002" height="0.001"/>
	<polygon points="6.852,7.784 6.852,7.786 6.852,7.786 6.852,7.786 6.852,7.786 6.852,7.785 	"/>
	<path d="M6.846,7.77c0,0.001,0,0.002,0,0.003c0,0.002,0.001,0.004,0.002,0.006C6.849,7.782,6.85,7.783,6.851,7.785
		C6.85,7.778,6.85,7.771,6.85,7.761C6.848,7.764,6.846,7.767,6.846,7.77z"/>
	<polygon points="6.929,7.689 6.929,7.691 6.93,7.69 	"/>
	<polygon points="6.714,8.062 6.714,8.062 6.713,8.062 	"/>
	<path d="M9.096,5.138C9.073,5.122,9.066,5.123,9.04,5.143C9.062,5.142,9.078,5.149,9.096,5.138z"/>
	<path d="M8.784,5.194C8.81,5.18,8.836,5.179,8.864,5.182c0.006,0.001,0.011,0,0.017-0.001c0.041-0.008,0.082-0.016,0.123-0.024
		c0.004-0.001,0.012-0.002,0.008-0.013C8.996,5.147,8.981,5.15,8.966,5.152C8.91,5.158,8.855,5.163,8.799,5.169
		C8.772,5.172,8.745,5.177,8.718,5.181c-0.001,0-0.001,0.002-0.003,0.005c0.009,0.003,0.019,0.005,0.028,0.009
		C8.757,5.201,8.772,5.201,8.784,5.194z"/>
	<path d="M8.911,6.879c0.017,0.004,0.03,0.007,0.043,0.01C8.93,6.873,8.93,6.873,8.911,6.879z"/>
	<path d="M6.887,7.01C6.879,6.996,6.874,6.988,6.87,6.981C6.871,6.997,6.872,6.997,6.887,7.01z"/>
	<path d="M7.5,6.727c0.001,0,0.003,0.001,0.004,0C7.531,6.7,7.559,6.673,7.586,6.646c0.003-0.003,0.004-0.01,0.006-0.014
		C7.564,6.619,7.564,6.619,7.538,6.624C7.505,6.663,7.498,6.681,7.5,6.727z"/>
	<path d="M8.281,6.543C8.28,6.544,8.279,6.545,8.278,6.546c-0.001,0.003,0,0.007,0,0.011c0,0.001,0.003,0.001,0.003,0.001
		c0.003-0.003,0.005-0.006,0.007-0.009C8.287,6.548,8.287,6.547,8.287,6.547C8.285,6.545,8.285,6.543,8.284,6.541
		C8.284,6.542,8.282,6.543,8.281,6.543z"/>
	<rect x="6.393" y="9.552" width="0.001" height="0.001"/>
	<path d="M6.407,9.389C6.398,9.384,6.395,9.391,6.394,9.398c0,0.001-0.001,0.003-0.001,0.004s0,0.002,0,0.003
		C6.399,9.4,6.408,9.4,6.407,9.389z"/>
	<rect x="6.41" y="9.517" width="0.001" height="0.001"/>
	<path d="M6.424,9.514c0.001-0.003-0.003-0.007-0.005-0.01C6.418,9.503,6.418,9.503,6.417,9.503
		C6.416,9.502,6.413,9.501,6.411,9.501V9.5l0,0l0,0h0.001c0,0.005,0,0.011,0,0.016C6.416,9.518,6.422,9.522,6.424,9.514z"/>
	<rect x="6.393" y="9.404" width="0.001" height="0.001"/>
	<path d="M6.338,9.464C6.329,9.451,6.322,9.447,6.316,9.452c-0.013,0.01-0.02,0.022-0.013,0.042C6.318,9.485,6.333,9.48,6.338,9.464
		z"/>
	<path d="M6.387,9.42c0.002-0.005,0.003-0.01,0.005-0.014C6.389,9.408,6.386,9.41,6.383,9.412C6.381,9.412,6.381,9.413,6.379,9.414
		C6.378,9.415,6.379,9.42,6.38,9.422C6.381,9.422,6.387,9.422,6.387,9.42z"/>
	<path d="M8.342,4.224C8.332,4.232,8.33,4.247,8.339,4.26c0.005-0.001,0.01-0.001,0.013-0.003c0.025-0.024,0.05-0.047,0.074-0.072
		c0.008-0.008,0.014-0.018,0.022-0.026c0.043-0.04,0.088-0.079,0.13-0.121C8.587,4.03,8.596,4.022,8.606,4.013
		c0.014-0.014,0.028-0.03,0.039-0.047c0,0,0.001,0,0.001-0.001l0,0l0,0c0.003-0.003,0.006-0.006,0.009-0.009l0,0l0,0
		C8.656,3.954,8.66,3.95,8.662,3.948l0,0l0,0C8.66,3.95,8.656,3.954,8.654,3.956l0,0C8.651,3.959,8.648,3.962,8.645,3.965
		L8.644,3.966C8.615,3.976,8.595,3.999,8.573,4.018C8.541,4.047,8.509,4.076,8.476,4.104c-0.013,0.011-0.028,0.02-0.042,0.03
		C8.397,4.158,8.375,4.197,8.342,4.224z"/>
	<path d="M6.696,8.458c-0.002-0.01-0.005-0.02-0.003-0.029C6.699,8.394,6.684,8.365,6.67,8.334C6.667,8.328,6.657,8.324,6.651,8.32
		C6.634,8.349,6.632,8.37,6.638,8.445c0.009,0.011,0.018,0.024,0.027,0.036C6.671,8.48,6.675,8.479,6.679,8.478L6.678,8.478
		c0.003,0,0.007,0,0.009,0V8.478C6.693,8.48,6.699,8.483,6.704,8.486C6.701,8.476,6.698,8.467,6.696,8.458z"/>
	<path d="M6.799,8.046c0.01-0.02,0.019-0.041,0.028-0.061c0.011-0.004,0.02-0.008,0.026-0.01c0.022-0.036,0.034-0.073,0.045-0.11
		c0.005-0.016,0.009-0.033,0.025-0.043C6.929,7.818,6.933,7.808,6.935,7.8c0.005-0.024,0.009-0.047,0-0.072
		C6.931,7.717,6.931,7.704,6.929,7.691C6.906,7.708,6.894,7.732,6.887,7.759c-0.005,0.018-0.012,0.034-0.02,0.053
		c-0.004-0.007-0.007-0.012-0.01-0.016C6.854,7.792,6.853,7.79,6.851,7.786C6.85,7.788,6.848,7.789,6.847,7.79
		C6.845,7.792,6.843,7.793,6.841,7.796c-0.004-0.01-0.008-0.018-0.012-0.027c-0.024,0.015-0.024,0.015-0.03,0.034
		C6.787,7.839,6.777,7.874,6.765,7.91C6.75,7.954,6.744,8.002,6.719,8.042c-0.003,0.006-0.004,0.013-0.006,0.02
		c0.01,0.002,0.02,0.003,0.03,0.005C6.75,8.073,6.743,8.085,6.755,8.087c0.001-0.001,0.003-0.002,0.005-0.003
		c0.001-0.001,0.003-0.002,0.005-0.003l0,0h0.001c0.001,0.005,0.001,0.01,0.002,0.014c0.001,0,0.003,0,0.005,0
		c0.001-0.005,0.001-0.01,0.002-0.014h0.001L6.773,8.08C6.788,8.072,6.793,8.058,6.799,8.046z"/>
	<polygon points="6.705,8.486 6.704,8.486 6.704,8.487 	"/>
	<rect x="6.763" y="8.281" width="0.006" height="0.007"/>
	<polygon points="6.558,9.418 6.563,9.424 6.563,9.424 6.563,9.424 6.568,9.42 6.564,9.416 	"/>
	<path d="M6.599,8.781c0.005,0.022,0.009,0.043,0.015,0.072c0-0.022,0.002-0.034,0-0.047c-0.01-0.055-0.017-0.111-0.018-0.165
		C6.59,8.631,6.585,8.623,6.583,8.621c0.003-0.051-0.011-0.094-0.021-0.136C6.56,8.476,6.557,8.468,6.544,8.465
		C6.521,8.484,6.51,8.52,6.475,8.528c-0.01-0.019,0.001-0.03,0.013-0.041l0,0c0.016-0.002,0.027-0.009,0.032-0.025
		C6.522,8.453,6.524,8.44,6.532,8.435C6.55,8.42,6.556,8.4,6.561,8.382C6.57,8.374,6.578,8.37,6.582,8.363
		c0.013-0.019,0.024-0.039,0.038-0.057c0.013-0.018,0.02-0.038,0.026-0.059c0.009-0.036,0.016-0.073,0.02-0.111
		c0.002-0.017,0.003-0.035,0.007-0.051C6.68,8.061,6.678,8.037,6.675,8.012C6.672,7.986,6.666,7.961,6.661,7.936
		c0-0.001,0-0.001-0.001-0.002C6.659,7.929,6.657,7.925,6.65,7.925l0,0l0,0C6.63,7.942,6.625,7.946,6.619,7.959
		C6.617,7.963,6.614,7.968,6.611,7.975C6.592,8.012,6.575,8.05,6.554,8.087C6.541,8.108,6.532,8.13,6.529,8.155
		c-0.001,0.005,0,0.012-0.011,0.011c0.003-0.021,0.007-0.042,0.011-0.063c0.003-0.022,0.007-0.045,0.01-0.068
		c0.001-0.005-0.002-0.01-0.005-0.017C6.524,8.022,6.518,8.025,6.513,8.029c-0.024,0.02-0.038,0.046-0.049,0.075
		c-0.007,0.02-0.015,0.041-0.02,0.061c-0.006,0.02-0.009,0.041-0.014,0.062C6.427,8.21,6.427,8.194,6.426,8.177
		C6.426,8.159,6.431,8.14,6.42,8.121C6.397,8.135,6.381,8.154,6.362,8.17C6.359,8.172,6.358,8.177,6.356,8.181
		C6.335,8.222,6.31,8.261,6.297,8.305C6.294,8.316,6.289,8.326,6.285,8.339C6.273,8.324,6.273,8.308,6.27,8.293
		C6.269,8.285,6.268,8.278,6.255,8.278c-0.014,0.016-0.03,0.034-0.047,0.053C6.149,8.287,6.094,8.245,6.032,8.212
		c-0.021,0.007-0.026,0.024-0.03,0.041c-0.004,0.02-0.007,0.04-0.009,0.06C5.99,8.341,5.987,8.37,5.987,8.398
		c0,0.014,0.001,0.028-0.003,0.043c-0.006,0.024-0.006,0.049,0,0.073C5.99,8.536,5.995,8.559,6,8.581
		c0.009,0.038,0.02,0.074,0.051,0.102C6.053,8.681,6.057,8.678,6.06,8.675c0.005-0.003,0.009-0.007,0.013-0.009
		c0.002-0.011,0.003-0.02,0.007-0.038c0.024,0.04,0.025,0.082,0.048,0.113C6.13,8.744,6.129,8.749,6.129,8.754
		c-0.02-0.003-0.04-0.012-0.061,0.001C6.059,8.768,6.052,8.783,6.05,8.802c0.003,0.003,0.007,0.005,0.01,0.009
		C6.063,8.815,6.066,8.82,6.071,8.83C6.059,8.839,6.047,8.847,6.038,8.852C6.038,8.888,6.038,8.888,6.051,8.91
		c-0.003,0.006-0.007,0.013-0.01,0.018c0.005,0.043,0.005,0.043,0.025,0.069C6.073,8.996,6.08,8.993,6.088,8.991l0,0
		C6.096,9,6.099,9.011,6.1,9.022c0.003,0.032,0.003,0.064,0.015,0.093c0.009,0.022,0.013,0.044,0.016,0.067
		c0.001,0.011,0.001,0.024,0.007,0.034c0.011,0.02,0.022,0.04,0.032,0.059c0,0.001,0.003,0,0.009,0
		c0.001-0.019-0.004-0.038-0.004-0.058c0.001-0.02-0.003-0.04-0.004-0.062c0.004-0.004,0.009-0.011,0.014-0.014
		c0.007-0.004,0.003-0.018,0.013-0.017c0.011,0.007,0.006,0.021,0.02,0.026C6.22,9.126,6.223,9.103,6.226,9.08
		c0.003-0.022-0.005-0.046,0.009-0.069c0.012-0.003,0.024-0.007,0.037-0.01c0.001-0.025-0.014-0.044-0.018-0.067
		C6.248,8.911,6.242,8.887,6.235,8.864C6.229,8.842,6.219,8.821,6.226,8.795c0.016,0.01,0.023,0.022,0.027,0.036
		C6.256,8.841,6.26,8.853,6.261,8.864c0.005,0.04,0.022,0.074,0.037,0.11c0.008,0.019,0.018,0.038,0.036,0.047
		C6.35,9.03,6.367,9.036,6.377,9.053c0.026,0.007,0.04,0.032,0.062,0.044C6.443,9.1,6.447,9.106,6.456,9.1
		C6.453,9.092,6.449,9.083,6.447,9.074c-0.004-0.013-0.008-0.027-0.012-0.04c0,0,0,0,0,0.001l0,0C6.441,9.042,6.448,9.05,6.457,9.06
		c0.006-0.017-0.004-0.03-0.005-0.043h0.001L6.451,9.017C6.459,9.011,6.467,9.005,6.475,9C6.478,8.984,6.48,8.97,6.482,8.958
		C6.474,8.936,6.466,8.916,6.459,8.896c-0.011-0.03-0.024-0.059-0.052-0.074c-0.003-0.01-0.005-0.02-0.008-0.029
		C6.396,8.784,6.394,8.775,6.391,8.767c0.011,0.011,0.022,0.021,0.033,0.032c0.009,0.009,0.016,0.02,0.026,0.029
		c0.009,0.009,0.014,0.021,0.026,0.027c0.003-0.022,0.005-0.042,0.007-0.062c0.001-0.018,0.001-0.038,0.001-0.056
		C6.483,8.718,6.47,8.7,6.474,8.674C6.48,8.682,6.483,8.685,6.484,8.688C6.487,8.71,6.491,8.733,6.495,8.756
		c0.001,0.01,0.003,0.02,0.016,0.02c0.013-0.006,0-0.022,0.013-0.029C6.536,8.79,6.538,8.795,6.577,8.841
		C6.576,8.823,6.575,8.806,6.574,8.789c0-0.002,0.003-0.005,0.006-0.008C6.587,8.78,6.592,8.781,6.599,8.781z"/>
	<path d="M6.366,9.488c-0.009,0.019,0.012,0.03,0.003,0.054C6.366,9.549,6.352,9.561,6.352,9.578c0.009,0.005,0.013,0,0.015-0.005
		c0.005-0.011,0.013-0.018,0.025-0.02C6.398,9.541,6.404,9.53,6.409,9.518C6.388,9.521,6.382,9.498,6.366,9.488z"/>
	<path d="M8.424,3.979c0.022,0.022,0.052-0.003,0.07,0.02c0.023-0.007,0.047-0.007,0.067-0.02c0.022-0.014,0.045-0.026,0.067-0.039
		C8.629,3.939,8.63,3.939,8.631,3.938c0.004-0.003,0.007-0.007,0.003-0.013l0,0l0,0c-0.04-0.008-0.124-0.009-0.178-0.003
		c-0.002,0-0.004,0.001-0.007,0.001C8.445,3.923,8.441,3.923,8.437,3.924C8.43,3.925,8.423,3.927,8.419,3.928
		c0.002,0.008,0.005,0.016,0.006,0.024C8.425,3.962,8.424,3.972,8.424,3.979z"/>
	<polygon points="5.812,6.937 5.813,6.936 5.813,6.936 	"/>
	<path d="M3.308,7.101C3.286,7.103,3.266,7.11,3.25,7.126C3.272,7.126,3.291,7.116,3.308,7.101z"/>
	<path d="M4.391,6.91C4.39,6.917,4.396,6.917,4.4,6.918C4.398,6.914,4.398,6.908,4.391,6.91z"/>
	<polygon points="3.248,7.127 3.248,7.126 3.247,7.128 3.244,7.129 3.249,7.127 3.25,7.126 3.248,7.126 	"/>
	<rect x="3.308" y="7.1" width="0.001" height="0.001"/>
	<rect x="3.37" y="7.074" width="0.001" height="0.001"/>
	<polygon points="8.949,6.797 8.947,6.796 8.948,6.798 	"/>
	<path d="M8.634,6.782c-0.005,0-0.009-0.001-0.013-0.001c0.004,0.002,0.008,0.004,0.012,0.007C8.633,6.785,8.633,6.783,8.634,6.782z
		"/>
	<path d="M2.771,4.026c0-0.008,0-0.013,0-0.018C2.756,3.995,2.739,3.991,2.722,3.99c-0.05-0.005-0.1-0.008-0.151-0.013
		C2.517,3.972,2.463,3.965,2.408,3.959c-0.02-0.002-0.04-0.005-0.061,0.002C2.349,3.966,2.35,3.972,2.353,3.974
		C2.381,4,2.409,4.027,2.439,4.052C2.532,4.13,2.625,4.207,2.718,4.284c0.011,0.009,0.023,0.017,0.036,0.025
		c0.004,0.003,0.01,0.003,0.018,0.005c0.003-0.02,0.004-0.037-0.003-0.053c-0.007-0.001-0.014-0.003-0.02-0.003
		c-0.004-0.005-0.007-0.01-0.011-0.014l0.001-0.001c-0.003,0-0.007,0-0.01,0l0.001,0.001C2.714,4.231,2.7,4.219,2.686,4.207
		C2.664,4.189,2.638,4.174,2.621,4.152C2.6,4.126,2.579,4.102,2.557,4.078c0.019,0.001,0.036,0.009,0.05,0.021
		c0.007,0.005,0.014,0.011,0.022,0.014c0.028,0.011,0.052,0.03,0.078,0.047C2.726,4.173,2.745,4.185,2.77,4.192
		c0.006-0.026,0.021-0.05,0.003-0.077C2.735,4.102,2.689,4.101,2.662,4.057c0.017,0.004,0.031,0.007,0.045,0.01
		c0.01,0.001,0.02,0.002,0.03,0.001C2.744,4.066,2.749,4.06,2.748,4.051C2.733,4.043,2.72,4.035,2.705,4.027
		C2.726,4.025,2.749,4.03,2.771,4.026z"/>
	<path d="M6.507,6.81C6.507,6.813,6.507,6.818,6.506,6.822C6.508,6.818,6.51,6.815,6.513,6.811C6.511,6.811,6.509,6.81,6.507,6.81z"
		/>
	<rect x="8.619" y="6.78" width="0.001" height="0.001"/>
	<rect x="6.505" y="6.823" width="0.001" height="0.002"/>
	<path d="M3.369,7.075C3.347,7.076,3.327,7.085,3.31,7.1C3.333,7.099,3.353,7.09,3.369,7.075z"/>
	<path d="M2.783,5.486C2.799,5.49,2.815,5.498,2.832,5.502C2.851,5.506,2.87,5.508,2.887,5.489C2.87,5.476,2.845,5.486,2.83,5.464
		c0.008-0.001,0.015,0.001,0.021-0.002c0.007-0.003,0.014-0.009,0.021-0.013c0.012,0.001,0.023,0.014,0.037-0.003
		c-0.018-0.005-0.034-0.01-0.051-0.014C2.84,5.429,2.822,5.428,2.803,5.424C2.787,5.421,2.769,5.422,2.756,5.411
		C2.758,5.4,2.765,5.397,2.772,5.397c0.011,0.001,0.022,0.006,0.033,0.008c0.002,0.001,0.005-0.001,0.01-0.003
		C2.816,5.397,2.817,5.39,2.818,5.384C2.809,5.377,2.802,5.37,2.794,5.365c0,0,0.001-0.002,0.001-0.001
		c0.022-0.007,0.042-0.013,0.064-0.02c0.009,0.001,0.018,0.004,0.028,0.004c0.008,0,0.013-0.005,0.011-0.016
		C2.887,5.322,2.875,5.313,2.861,5.302C2.857,5.306,2.855,5.31,2.852,5.313C2.851,5.313,2.851,5.314,2.85,5.315
		C2.845,5.311,2.839,5.307,2.834,5.301C2.822,5.288,2.807,5.285,2.791,5.289C2.785,5.291,2.78,5.293,2.774,5.295
		C2.758,5.299,2.743,5.297,2.729,5.285C2.725,5.282,2.721,5.278,2.716,5.275C2.714,5.274,2.71,5.274,2.708,5.274
		C2.704,5.276,2.701,5.279,2.697,5.282C2.696,5.283,2.695,5.284,2.693,5.285C2.687,5.28,2.682,5.276,2.677,5.272
		c-0.006-0.007-0.013-0.013-0.018-0.02c0.005-0.004,0.009-0.007,0.017-0.014C2.659,5.238,2.648,5.239,2.639,5.239
		C2.632,5.248,2.627,5.254,2.623,5.26C2.604,5.258,2.587,5.257,2.569,5.256C2.563,5.255,2.559,5.257,2.556,5.26
		C2.552,5.262,2.55,5.266,2.548,5.272C2.535,5.262,2.521,5.256,2.505,5.254C2.482,5.251,2.46,5.247,2.438,5.243
		C2.434,5.238,2.43,5.234,2.427,5.231C2.425,5.229,2.423,5.227,2.421,5.226C2.421,5.225,2.419,5.224,2.419,5.224
		C2.417,5.222,2.415,5.222,2.413,5.222c-0.001,0-0.002,0-0.003,0c-0.006,0-0.013,0.004-0.022,0.012l0,0l0,0
		C2.39,5.234,2.391,5.234,2.392,5.235c0.002,0.001,0.004,0.001,0.006,0.003C2.398,5.238,2.4,5.238,2.4,5.239
		c0.002,0.001,0.004,0.002,0.006,0.003c0.001,0.001,0.002,0.001,0.003,0.001C2.384,5.247,2.363,5.253,2.342,5.247
		c-0.04-0.011-0.08-0.003-0.119,0.002C2.215,5.25,2.209,5.251,2.201,5.253c-0.01-0.011-0.02-0.021-0.028-0.03
		c-0.016-0.003-0.028-0.001-0.04,0.005C2.112,5.239,2.091,5.251,2.067,5.263C2.061,5.279,2.061,5.279,2.072,5.297l0,0l0.001,0.001
		l0,0c0.02,0.009,0.041,0.02,0.063,0.026C2.19,5.337,2.247,5.343,2.302,5.361c0.014,0.005,0.03,0.003,0.041,0.011
		C2.37,5.388,2.4,5.393,2.427,5.403l0,0c0.024,0.021,0.053,0.015,0.08,0.011c0.007,0.005,0.013,0.009,0.02,0.013
		c0.011-0.002,0.022-0.003,0.032-0.005c0.009,0.005,0.015,0.01,0.021,0.013C2.59,5.43,2.6,5.428,2.609,5.424
		C2.61,5.433,2.61,5.44,2.612,5.448C2.64,5.454,2.668,5.46,2.693,5.465c0.019,0.028,0.024,0.03,0.05,0.027
		C2.75,5.491,2.756,5.49,2.764,5.489L2.763,5.49c0,0,0,0,0.001,0.001V5.49C2.77,5.488,2.777,5.484,2.783,5.486z"/>
	<path d="M1.852,5.34c0.011,0.001,0.019,0.001,0.026,0.001C1.872,5.338,1.865,5.332,1.852,5.34z"/>
	<path d="M3.683,6.884C3.69,6.877,3.694,6.872,3.698,6.867C3.692,6.869,3.683,6.868,3.683,6.884z"/>
	<path d="M2.736,5.239C2.732,5.239,2.728,5.239,2.724,5.24c0.001,0.001,0.001,0.003,0.001,0.005
		C2.729,5.243,2.733,5.241,2.736,5.239c0.001,0,0.001,0,0.002,0V5.238c0,0,0,0-0.001,0C2.737,5.238,2.737,5.239,2.736,5.239z"/>
	<path d="M8.211,2.802C8.204,2.777,8.201,2.751,8.198,2.725c-0.003-0.02,0-0.041-0.003-0.061C8.186,2.592,8.176,2.519,8.166,2.446
		C8.157,2.378,8.147,2.309,8.137,2.241C8.132,2.205,8.128,2.169,8.12,2.134C8.107,2.072,8.095,2.01,8.086,1.947
		C8.072,1.846,8.055,1.745,8.038,1.643c-0.012-0.07-0.025-0.139-0.039-0.208c-0.014-0.074-0.031-0.147-0.046-0.22
		c-0.011-0.051-0.02-0.102-0.032-0.153C7.905,0.991,7.888,0.919,7.871,0.848C7.868,0.837,7.864,0.825,7.856,0.817
		C7.817,0.775,7.781,0.73,7.731,0.696C7.716,0.704,7.72,0.715,7.722,0.725c0.011,0.074,0.021,0.148,0.031,0.223
		c0.005,0.04,0.011,0.08,0.016,0.12c0.005,0.036,0.012,0.071,0.017,0.107C7.79,1.205,7.793,1.237,7.795,1.269
		C7.8,1.325,7.804,1.381,7.809,1.437c0.009,0.109,0.02,0.219,0.028,0.328c0.005,0.072,0.007,0.144,0.011,0.216
		c0.001,0.011,0.002,0.023,0.003,0.034c0.007,0.078,0.016,0.155,0.02,0.232C7.877,2.34,7.879,2.432,7.884,2.524
		c0.001,0.03,0.005,0.061,0.009,0.09c0.001,0.01,0.005,0.02,0.009,0.029c0.028,0.067,0.055,0.133,0.084,0.2
		c0.041,0.099,0.074,0.2,0.1,0.304C8.093,3.177,8.1,3.208,8.108,3.239c0.004,0.018,0.007,0.037,0.011,0.055
		c0.005,0.024,0.005,0.049,0.018,0.07C8.146,3.378,8.15,3.393,8.154,3.408C8.162,3.442,8.17,3.476,8.183,3.508
		c0.006-0.001,0.01-0.001,0.014-0.001s0.009,0.001,0.015,0.003C8.211,3.493,8.21,3.479,8.208,3.46
		C8.222,3.472,8.22,3.484,8.222,3.495C8.224,3.507,8.226,3.519,8.234,3.53c0.001-0.001,0.002-0.003,0.003-0.004
		C8.239,3.523,8.241,3.52,8.243,3.518C8.244,3.518,8.245,3.52,8.246,3.52l0.001,0.001C8.248,3.522,8.249,3.524,8.25,3.525
		c0.002,0.003,0.004,0.006,0.006,0.009l0.001,0.001C8.258,3.538,8.259,3.54,8.26,3.542c0.001,0.001,0.001,0.003,0.002,0.004
		c0.001,0.003,0.003,0.005,0.005,0.008C8.269,3.557,8.27,3.559,8.273,3.561C8.275,3.564,8.278,3.566,8.28,3.568
		C8.283,3.57,8.286,3.572,8.289,3.573C8.29,3.563,8.291,3.556,8.29,3.549C8.287,3.522,8.283,3.494,8.282,3.467
		C8.281,3.387,8.274,3.309,8.263,3.23C8.261,3.215,8.257,3.201,8.258,3.187C8.26,3.161,8.253,3.139,8.235,3.122
		c0.014-0.034,0.014-0.034,0.009-0.065C8.239,3.026,8.233,2.995,8.23,2.963C8.228,2.949,8.223,2.936,8.213,2.924
		C8.203,2.913,8.194,2.899,8.188,2.884c0.004-0.006,0.007-0.013,0.011-0.018C8.216,2.847,8.217,2.826,8.211,2.802z"/>
	<path d="M1.859,5.094C1.803,5.118,1.745,5.137,1.69,5.159c-0.026,0.01-0.05,0.022-0.075,0.033C1.614,5.193,1.613,5.195,1.612,5.197
		c0.004,0.001,0.009,0.003,0.011,0.002c0.024-0.011,0.05-0.011,0.076-0.016c0.016-0.003,0.032-0.004,0.047-0.008
		C1.788,5.164,1.83,5.153,1.871,5.141c0.104-0.03,0.207-0.062,0.312-0.091c0.043-0.012,0.085-0.028,0.13-0.029
		c0,0-0.001,0-0.001,0.001h0.001C2.311,5.026,2.307,5.03,2.301,5.039c0.021-0.005,0.035-0.007,0.046-0.017h0.001V5.021
		c0.019,0.001,0.037-0.003,0.055-0.008C2.441,5.002,2.48,4.992,2.519,4.983c0.005-0.001,0.011,0,0.018,0
		C2.54,4.988,2.544,4.994,2.544,4.999c0,0.005-0.003,0.012-0.007,0.015C2.529,5.02,2.52,5.025,2.51,5.027
		C2.455,5.044,2.399,5.06,2.344,5.076C2.303,5.087,2.261,5.098,2.221,5.108C2.209,5.1,2.2,5.095,2.189,5.088
		C2.184,5.101,2.18,5.112,2.178,5.12C2.154,5.129,2.135,5.137,2.115,5.145C2.114,5.146,2.114,5.15,2.112,5.156
		c0.009,0.001,0.016,0.002,0.024,0.002c0.016,0,0.032-0.001,0.047-0.001C2.207,5.158,2.23,5.162,2.253,5.161
		C2.282,5.16,2.307,5.167,2.332,5.179c0.032,0.016,0.066,0.024,0.103,0.024C2.473,5.203,2.51,5.204,2.548,5.206
		c0.023,0.001,0.046,0.005,0.068,0.006c0.038,0.001,0.038,0.001,0.07,0.016c0.011-0.005,0.022-0.01,0.032-0.014
		c0.009,0.002,0.013,0.006,0.016,0.011C2.736,5.23,2.737,5.234,2.737,5.238c0.02-0.013,0.039,0,0.058,0.004
		C2.82,5.229,2.846,5.234,2.872,5.231c0.017-0.002,0.034,0,0.051,0.007c0.011,0.005,0.024,0.005,0.04,0.007
		c0.003,0.003-0.001,0.016,0.013,0.016c0.001,0,0.003,0,0.004-0.001c0.005-0.007,0.01-0.014,0.015-0.021
		c0.025-0.002,0.05-0.011,0.076-0.007C3.082,5.242,3.094,5.25,3.108,5.259c-0.006,0.014-0.01,0.029-0.003,0.045
		c0.003,0.005,0.003,0.012,0.001,0.017c-0.009,0.02,0,0.04,0.001,0.059c0.001,0.024,0.001,0.049-0.001,0.073
		C3.102,5.488,3.096,5.523,3.09,5.558C3.085,5.582,3.075,5.604,3.059,5.624C3.034,5.619,3.01,5.617,2.99,5.602
		c0.016-0.001,0.034,0.003,0.053-0.003C3.037,5.593,3.034,5.588,3.03,5.586C3.01,5.578,2.989,5.571,2.969,5.564
		C2.967,5.563,2.965,5.561,2.963,5.559c0.002-0.006,0.004-0.011,0.006-0.015C2.965,5.539,2.96,5.537,2.955,5.537
		c-0.001,0-0.003,0-0.004,0c-0.001,0-0.001,0-0.002,0.001c-0.001,0-0.002,0.001-0.003,0.001c-0.001,0-0.001,0-0.001,0.001
		C2.942,5.54,2.94,5.541,2.937,5.542l0.001-0.001C2.936,5.541,2.935,5.541,2.934,5.54C2.933,5.54,2.932,5.54,2.932,5.54
		c0.001,0,0.001,0.001,0.002,0.001c0.001,0.001,0.002,0.001,0.003,0.001C2.932,5.544,2.927,5.547,2.92,5.55
		c-0.019-0.022-0.049-0.018-0.07-0.032C2.837,5.521,2.826,5.524,2.818,5.526C2.807,5.52,2.798,5.513,2.789,5.511
		c-0.013-0.002-0.018-0.013-0.025-0.02C2.758,5.507,2.742,5.507,2.729,5.513c-0.035-0.007-0.07-0.014-0.105-0.022
		c-0.04-0.008-0.078-0.017-0.119-0.02C2.472,5.468,2.439,5.469,2.407,5.461C2.326,5.44,2.243,5.428,2.163,5.405
		c-0.082-0.023-0.165-0.04-0.248-0.06C1.913,5.345,1.91,5.344,1.907,5.344c-0.003,0-0.006-0.001-0.009-0.001
		c-0.001,0-0.003,0-0.005,0c-0.004,0-0.008,0-0.012-0.001c0,0,0-0.001-0.001-0.001L1.881,5.343h0.001
		C1.888,5.353,1.898,5.357,1.909,5.36C1.96,5.373,2.01,5.386,2.06,5.4c0.096,0.026,0.192,0.053,0.287,0.08
		c0.046,0.013,0.092,0.026,0.137,0.039c0.014,0.004,0.028,0.008,0.041,0.012C2.607,5.556,2.689,5.579,2.77,5.604
		c0.034,0.011,0.068,0.022,0.103,0.033c0.001,0,0.001,0.001,0.002,0.001C2.876,5.639,2.878,5.64,2.88,5.641
		C2.875,5.644,2.87,5.646,2.866,5.648C2.865,5.649,2.864,5.65,2.863,5.65c-0.007,0.02-0.004,0.04-0.002,0.058
		C2.863,5.735,2.866,5.763,2.869,5.79c0.005,0.063,0.03,0.118,0.072,0.167C2.96,5.932,2.956,5.906,2.954,5.88
		C2.949,5.826,2.945,5.771,2.942,5.716c-0.001-0.01,0.001-0.02,0.002-0.03c0-0.001,0.004-0.003,0.008-0.005
		c0.001,0.008,0.003,0.014,0.003,0.022c0.001,0.024,0.003,0.049,0.001,0.074C2.953,5.803,2.96,5.824,2.979,5.841
		C2.978,5.856,2.977,5.869,2.977,5.882C2.978,5.904,2.98,5.926,2.981,5.947c0,0.001,0.001,0.003,0.002,0.004
		c0.001,0.001,0.002,0,0.004,0.001c0.007-0.02-0.001-0.043,0.009-0.068c0.002,0.018,0.004,0.03,0.006,0.051
		c0.003-0.011,0.005-0.015,0.005-0.019C3.007,5.883,3.009,5.851,3.013,5.82c0.003-0.024,0.001-0.049,0.001-0.077
		C3.009,5.752,3.005,5.756,3.001,5.765c-0.001-0.012-0.002-0.02-0.003-0.029C2.997,5.731,2.996,5.724,2.984,5.728
		C2.982,5.754,2.981,5.78,2.979,5.806c-0.021-0.045-0.004-0.09-0.007-0.135c0.014,0.001,0.027,0.002,0.04,0.004
		c0.014,0.002,0.025-0.002,0.034-0.014c0-0.004,0.005-0.004,0.01-0.006c0.005,0.014,0.002,0.027,0,0.04
		C3.048,5.74,3.04,5.785,3.04,5.832C3.039,5.874,3.036,5.916,3.034,5.953c-0.008,0.011-0.013,0.019-0.02,0.028
		c0.016,0.017,0.019,0.036,0.018,0.057c-0.001,0.026,0,0.052-0.001,0.078c-0.001,0.02,0.004,0.04,0.011,0.059
		C3.056,6.207,3.08,6.23,3.099,6.257C3.11,6.273,3.124,6.285,3.142,6.291c0.009,0.003,0.014,0.008,0.02,0.015
		c0.024,0.029,0.059,0.032,0.092,0.04C3.262,6.348,3.271,6.343,3.282,6.34C3.281,6.308,3.293,6.279,3.291,6.247
		C3.289,6.213,3.299,6.179,3.304,6.143C3.3,6.135,3.294,6.126,3.288,6.117c0.005-0.034,0.005-0.067-0.001-0.101
		c-0.004-0.024-0.005-0.049,0.01-0.071C3.3,5.94,3.301,5.934,3.302,5.928c0.003-0.015,0.01-0.026,0.02-0.038
		c0.006-0.006,0.011-0.013,0.015-0.02c0.001-0.002-0.003-0.007-0.005-0.012C3.32,5.867,3.309,5.875,3.296,5.884
		c-0.02-0.028-0.005-0.061-0.016-0.088C3.275,5.801,3.273,5.803,3.271,5.804C3.265,5.781,3.256,5.76,3.252,5.738
		C3.244,5.694,3.238,5.65,3.234,5.605C3.228,5.539,3.226,5.473,3.221,5.406C3.219,5.377,3.219,5.348,3.206,5.321
		C3.195,5.296,3.201,5.277,3.221,5.26C3.236,5.26,3.25,5.259,3.264,5.257C3.27,5.257,3.275,5.253,3.273,5.243
		C3.254,5.231,3.231,5.227,3.205,5.219C3.217,5.195,3.212,5.17,3.21,5.147C3.204,5.098,3.195,5.05,3.2,5
		c0.007-0.009,0.014-0.018,0.022-0.026c0.002-0.04,0.005-0.078,0.005-0.117c0-0.057-0.002-0.115-0.003-0.172
		c0.008,0.004,0.012,0.011,0.014,0.019C3.243,4.722,3.249,4.742,3.257,4.76c0.006,0.013,0.01,0.024,0.009,0.037
		C3.266,4.821,3.271,4.842,3.289,4.86C3.29,4.888,3.291,4.915,3.293,4.943C3.296,4.967,3.3,4.992,3.304,5.015
		c0.002,0.009,0,0.02,0.013,0.029c0.003-0.036,0-0.07,0.002-0.105C3.321,4.905,3.31,4.872,3.316,4.836
		c0.023,0.007,0.013,0.03,0.027,0.041C3.35,4.88,3.359,4.886,3.36,4.886c0.037,0.041,0.068,0.078,0.099,0.113
		C3.465,5.006,3.473,5.01,3.478,5.016c0.006,0.008,0.01,0.017,0.014,0.025C3.499,5.043,3.505,5.044,3.51,5.046
		C3.501,5.078,3.503,5.127,3.514,5.143c0.008,0.005,0.017,0.01,0.028,0.016C3.544,5.17,3.549,5.182,3.549,5.195
		c0.003,0.067,0.005,0.132-0.002,0.199c-0.002,0.02-0.003,0.04-0.005,0.061C3.542,5.476,3.535,5.5,3.541,5.519
		c0.006,0.02-0.011,0.04,0.003,0.059c0.002,0.003-0.002,0.011-0.003,0.016C3.54,5.601,3.538,5.608,3.538,5.615
		C3.534,5.677,3.53,5.739,3.526,5.8C3.525,5.806,3.53,5.815,3.521,5.82c-0.003-0.017-0.003-0.036-0.01-0.051
		C3.502,5.747,3.501,5.724,3.501,5.701C3.5,5.675,3.5,5.649,3.499,5.623c0-0.005-0.001-0.012-0.01-0.01
		C3.487,5.626,3.484,5.639,3.482,5.65c-0.006,0.004-0.01,0.007-0.014,0.01c-0.004,0.027,0,0.053-0.014,0.077
		c-0.005,0.04-0.02,0.078-0.023,0.119C3.428,5.893,3.422,5.93,3.415,5.967c-0.007,0.036-0.01,0.071-0.01,0.107
		c0,0.03-0.003,0.061-0.005,0.09c-0.001,0.024-0.002,0.049,0.014,0.07c0.008,0.01,0.007,0.021,0.003,0.033
		C3.406,6.294,3.395,6.32,3.383,6.347C3.381,6.351,3.376,6.354,3.37,6.36C3.364,6.349,3.358,6.343,3.358,6.335
		c-0.001-0.013-0.001-0.026,0-0.039C3.359,6.27,3.362,6.244,3.362,6.218C3.363,6.19,3.364,6.163,3.373,6.137
		C3.379,6.12,3.378,6.103,3.371,6.086C3.366,6.076,3.362,6.065,3.358,6.054c-0.02,0.013-0.022,0.031-0.022,0.05
		c0.003,0.072-0.011,0.144,0,0.215c0.002,0.013,0,0.026,0,0.039c0,0.01,0.001,0.02,0.002,0.029c0.008,0.006,0.014,0.011,0.02,0.016
		C3.339,6.455,3.33,6.509,3.302,6.555C3.3,6.559,3.299,6.563,3.297,6.566C3.28,6.613,3.262,6.658,3.245,6.704
		C3.233,6.736,3.221,6.769,3.208,6.801C3.187,6.853,3.163,6.904,3.142,6.956C3.136,6.97,3.134,6.985,3.131,6.999
		C3.13,7.001,3.13,7.002,3.129,7.004l0,0l0,0c0.003-0.003,0.006-0.006,0.009-0.009c0.003-0.003,0.007-0.007,0.01-0.01
		c0.01-0.01,0.02-0.02,0.031-0.029C3.164,6.984,3.15,7.013,3.135,7.041C3.131,7.047,3.125,7.053,3.119,7.055
		C3.099,7.063,3.092,7.08,3.085,7.097C3.073,7.13,3.061,7.162,3.049,7.194C3.048,7.197,3.05,7.201,3.051,7.209
		c0.009-0.007,0.018-0.01,0.022-0.016c0.019-0.024,0.041-0.043,0.067-0.06C3.15,7.127,3.158,7.118,3.166,7.111
		c0.013-0.01,0.024-0.02,0.038-0.029c0.049-0.034,0.099-0.063,0.142-0.105c0.005-0.005,0.011-0.009,0.017-0.013
		C3.408,6.938,3.445,6.902,3.486,6.87c0.004-0.003,0.007-0.008,0.01-0.013C3.497,6.855,3.498,6.853,3.5,6.85
		c0.001,0,0.001,0,0.001-0.001V6.849V6.85c0.006-0.003,0.012-0.006,0.018-0.009l0,0c0.003-0.003,0.006-0.006,0.009-0.009
		L3.528,6.831C3.524,6.835,3.522,6.837,3.518,6.84C3.513,6.843,3.507,6.846,3.501,6.849l0,0C3.501,6.85,3.5,6.85,3.5,6.85
		C3.489,6.855,3.478,6.86,3.467,6.864C3.459,6.867,3.45,6.871,3.441,6.875c0.001-0.016,0.015-0.024,0.025-0.034l0.001,0.001
		c0-0.003,0-0.007,0-0.01L3.466,6.833c-0.005,0-0.012-0.002-0.016,0.001C3.434,6.846,3.418,6.856,3.398,6.859
		c0.006-0.027,0.03-0.04,0.047-0.059c0.011-0.012,0.024-0.02,0.041-0.02c0.003,0,0.007-0.004,0.011-0.006
		C3.493,6.765,3.492,6.759,3.491,6.75c0.014-0.013,0.028-0.026,0.043-0.04l0,0c0,0,0,0,0.001,0l0,0
		C3.573,6.675,3.611,6.64,3.648,6.604C3.65,6.603,3.65,6.602,3.652,6.601C3.685,6.58,3.719,6.562,3.76,6.584
		c0.005,0.003,0.011,0.002,0.019,0.003C3.775,6.576,3.773,6.569,3.771,6.562c0.003-0.003,0.004-0.006,0.007-0.007
		C3.837,6.53,3.875,6.48,3.918,6.435C3.923,6.43,3.926,6.424,3.93,6.417c0.024-0.044,0.049-0.088,0.074-0.131
		c0.018-0.031,0.038-0.059,0.065-0.084c0.045-0.041,0.086-0.086,0.128-0.128c0.005-0.005,0.011-0.009,0.016-0.014
		c0.013,0.009,0.02,0.022,0.034,0.027C4.273,6.096,4.29,6.115,4.303,6.138c0.012,0.021,0.028,0.04,0.042,0.06
		c0.005,0.007,0.011,0.013,0.016,0.02C4.367,6.229,4.368,6.241,4.36,6.251c-0.009,0.01-0.018,0.018-0.028,0.026
		C4.252,6.336,4.173,6.393,4.095,6.452c-0.017,0.013-0.037,0.024-0.05,0.041C4.027,6.515,4.003,6.528,3.98,6.542
		C3.937,6.57,3.893,6.598,3.85,6.627C3.821,6.645,3.796,6.664,3.77,6.683C3.741,6.705,3.71,6.724,3.684,6.749
		C3.64,6.792,3.59,6.829,3.538,6.862C3.528,6.868,3.518,6.875,3.516,6.89c0.02-0.003,0.037-0.011,0.052-0.022
		c0.016-0.011,0.034-0.023,0.051-0.034c0.049-0.03,0.098-0.061,0.147-0.091c0.004-0.002,0.007-0.005,0.01-0.009
		c0.018-0.02,0.042-0.03,0.063-0.045C3.877,6.663,3.92,6.642,3.957,6.613c0.056-0.043,0.117-0.08,0.175-0.119l0,0l0.001,0.001
		L4.132,6.494C4.15,6.48,4.173,6.49,4.184,6.486c0.022-0.014,0.037-0.024,0.051-0.034C4.234,6.458,4.222,6.463,4.231,6.474
		c0.018-0.011,0.037-0.02,0.047-0.04C4.272,6.433,4.265,6.439,4.26,6.431C4.279,6.41,4.301,6.396,4.331,6.4
		C4.328,6.405,4.325,6.41,4.323,6.416c0.014-0.003,0.02-0.013,0.027-0.024c0.012-0.02,0.025-0.038,0.05-0.047
		c0.017,0.018,0.033,0.037,0.037,0.062c0.005,0.031,0.022,0.056,0.037,0.082c0.003,0.006,0.007,0.012,0.011,0.018
		C4.475,6.516,4.468,6.525,4.459,6.532C4.451,6.539,4.442,6.545,4.435,6.55C4.434,6.557,4.433,6.561,4.431,6.567
		C4.415,6.574,4.398,6.58,4.38,6.587C4.379,6.588,4.376,6.584,4.375,6.582c0.003-0.007,0.007-0.014,0.012-0.023
		C4.369,6.562,4.356,6.563,4.342,6.565C4.324,6.578,4.306,6.59,4.291,6.601C4.28,6.6,4.273,6.599,4.267,6.599
		C4.259,6.607,4.252,6.615,4.246,6.622C4.241,6.631,4.238,6.64,4.233,6.649C4.231,6.653,4.23,6.655,4.228,6.658
		C4.221,6.669,4.212,6.67,4.197,6.665c0.002-0.017,0.014-0.029,0.024-0.041c0.002-0.003,0.005-0.005,0.007-0.009
		C4.225,6.607,4.222,6.6,4.219,6.592c0.005-0.01,0.009-0.02,0.014-0.032C4.228,6.549,4.229,6.535,4.214,6.526
		C4.207,6.528,4.199,6.531,4.191,6.534C4.147,6.547,4.105,6.565,4.064,6.587C3.991,6.626,3.92,6.671,3.849,6.715
		C3.83,6.727,3.81,6.74,3.796,6.758c0,0.014,0,0.026,0,0.04c-0.024,0.016-0.047,0.03-0.069,0.046
		C3.717,6.851,3.708,6.86,3.699,6.867c0.014-0.005,0.028-0.011,0.043-0.014c0.009-0.003,0.017,0,0.019,0.014
		C3.744,6.891,3.72,6.908,3.692,6.92c-0.04,0.018-0.08,0.038-0.121,0.056C3.545,6.988,3.52,7.004,3.493,7.012
		C3.456,7.022,3.426,7.044,3.391,7.058C3.383,7.062,3.376,7.07,3.369,7.076C3.386,7.071,3.405,7.068,3.421,7.06
		c0.067-0.028,0.134-0.059,0.202-0.088C3.678,6.949,3.734,6.928,3.79,6.904c0.074-0.032,0.148-0.065,0.221-0.097
		C4.095,6.769,4.179,6.73,4.264,6.694c0.038-0.016,0.078-0.03,0.118-0.043C4.396,6.647,4.408,6.64,4.418,6.629
		c0.007-0.007,0.013-0.017,0.024-0.014c0.002,0.003,0.005,0.005,0.005,0.007c0.001,0.055-0.006,0.108-0.018,0.16
		c0.005,0.003,0.009,0.006,0.012,0.008C4.429,6.798,4.419,6.811,4.417,6.827c-0.003,0.021-0.006,0.042-0.01,0.063
		C4.406,6.898,4.403,6.905,4.401,6.912C4.4,6.914,4.4,6.916,4.399,6.918H4.398c0,0,0,0.001,0.001,0.001l0,0l0,0l0,0L4.4,6.918
		c-0.001,0.014,0,0.03-0.004,0.043c-0.011,0.035-0.013,0.07-0.016,0.106C4.377,7.085,4.378,7.105,4.385,7.12
		c0.012,0.014,0.027,0.019,0.042,0.024c0.057,0.018,0.115,0.038,0.173,0.056c0.049,0.016,0.099,0.032,0.149,0.046
		c0.053,0.015,0.106,0.028,0.158,0.045c0.036,0.011,0.072,0.017,0.109,0.024c0.009,0.001,0.02-0.002,0.024-0.003
		c0.018,0.006,0.034,0.012,0.049,0.015c0.097,0.02,0.196,0.036,0.294,0.047c0.053,0.006,0.105,0.019,0.159,0.011
		c0.004-0.001,0.009,0,0.013,0.001c0.06,0.02,0.123,0.015,0.184,0.017c0.01,0,0.02-0.001,0.028-0.014
		c-0.001-0.004,0-0.011-0.002-0.018c-0.02-0.061-0.04-0.123-0.063-0.184C5.674,7.109,5.643,7.031,5.614,6.953
		C5.612,6.948,5.609,6.943,5.608,6.937c0-0.003,0.003-0.007,0.006-0.013c0.019,0.012,0.027,0.031,0.038,0.047
		C5.696,7.035,5.74,7.101,5.783,7.165c0.018,0.026,0.035,0.053,0.053,0.078c0.018,0.026,0.038,0.05,0.055,0.077
		c0.042,0.068,0.088,0.136,0.133,0.202C6.042,7.547,6.061,7.57,6.08,7.593v0.001C6.082,7.597,6.086,7.6,6.088,7.602h0.001
		c0.003,0.005,0.005,0.011,0.008,0.016c0,0.001,0,0.001,0,0.001l0,0l0,0c0.003,0,0.006,0,0.009,0l0,0l0,0l0,0c0,0,0,0,0-0.001
		c0.009,0.007,0.011,0.021,0.026,0.02c0.011-0.011,0.006-0.021,0-0.031C6.124,7.596,6.114,7.585,6.108,7.572
		C6.091,7.536,6.074,7.499,6.059,7.462C6.019,7.365,5.98,7.267,5.94,7.17C5.931,7.147,5.922,7.124,5.911,7.103
		c-0.024-0.05-0.053-0.099-0.074-0.151L5.837,6.952c0.002-0.004,0.006-0.008,0.005-0.011C5.841,6.92,5.834,6.9,5.82,6.883
		C5.818,6.881,5.813,6.881,5.806,6.881c0.006,0.017,0.011,0.031,0.015,0.045c-0.004,0.003-0.007,0.006-0.01,0.009
		c0.003,0.009,0.005,0.017,0.008,0.026L5.82,6.96C5.814,6.967,5.815,6.974,5.818,6.98c0.003,0.008,0.007,0.016,0.01,0.024
		C5.824,7.005,5.82,7.006,5.816,7.008C5.812,7.01,5.807,7.011,5.803,7.013l0,0C5.787,7.008,5.779,7.02,5.766,7.029
		c0.001,0.006,0.001,0.012,0.001,0.018C5.76,7.037,5.751,7.028,5.744,7.018C5.72,6.98,5.698,6.941,5.675,6.903
		C5.656,6.872,5.638,6.841,5.619,6.811C5.592,6.768,5.57,6.723,5.537,6.684C5.518,6.661,5.506,6.636,5.493,6.61
		C5.484,6.592,5.483,6.574,5.49,6.556c0.019-0.052,0.047-0.099,0.083-0.141c0.005-0.006,0.014-0.009,0.022-0.014
		C5.602,6.41,5.607,6.417,5.61,6.424C5.617,6.44,5.622,6.457,5.628,6.473c0.027,0.067,0.054,0.134,0.081,0.2
		c0.014,0.034,0.03,0.065,0.053,0.093c0.002,0.002,0.002,0.005,0.004,0.009C5.766,6.786,5.765,6.799,5.764,6.812
		c0.007,0.001,0.01,0.001,0.017,0.002c0.001-0.009,0.003-0.018,0.001-0.026C5.779,6.772,5.774,6.755,5.768,6.739
		C5.722,6.63,5.675,6.522,5.63,6.412c-0.005-0.011-0.006-0.022-0.008-0.03C5.64,6.347,5.668,6.331,5.7,6.321
		C5.697,6.335,5.695,6.348,5.693,6.358C5.702,6.373,5.71,6.383,5.714,6.395c0.011,0.039,0.018,0.079,0.04,0.114
		c0.001,0.002,0.001,0.006,0.001,0.009c0.014,0.049,0.029,0.097,0.048,0.144c0.026,0.065,0.05,0.129,0.074,0.194
		c0.031,0.084,0.059,0.169,0.091,0.252c0.068,0.184,0.138,0.368,0.207,0.551c0.011,0.028,0.02,0.058,0.038,0.082
		c0.014,0.021,0.024,0.042,0.028,0.067c0.001,0.009,0.003,0.017,0.006,0.025C6.249,7.84,6.253,7.846,6.265,7.845
		C6.269,7.837,6.276,7.828,6.28,7.817c0.007-0.018,0.012-0.036,0.017-0.053c0.021-0.075,0.041-0.15,0.063-0.225
		c0.007-0.022,0.014-0.043,0.021-0.066C6.395,7.427,6.406,7.381,6.42,7.336C6.455,7.22,6.491,7.104,6.527,6.988
		c0.014-0.045,0.026-0.092,0.042-0.136C6.596,6.775,6.623,6.7,6.631,6.618c0.003-0.023,0.004-0.046,0-0.068
		C6.63,6.544,6.629,6.538,6.619,6.538C6.616,6.545,6.611,6.554,6.608,6.564C6.596,6.599,6.586,6.636,6.574,6.671
		C6.57,6.686,6.562,6.701,6.559,6.716C6.55,6.758,6.539,6.8,6.524,6.84C6.52,6.842,6.516,6.845,6.509,6.85
		C6.509,6.843,6.508,6.837,6.507,6.832c0-0.003-0.001-0.005-0.001-0.007C6.494,6.856,6.487,6.887,6.495,6.92
		c0.001,0.007,0,0.014,0,0.021C6.488,6.943,6.483,6.945,6.476,6.947C6.469,7.023,6.458,7.098,6.432,7.16
		C6.426,7.192,6.422,7.215,6.416,7.236c-0.005,0.022-0.011,0.045-0.02,0.066C6.387,7.323,6.387,7.346,6.368,7.37
		C6.369,7.346,6.37,7.329,6.372,7.311c0.001-0.018,0.005-0.038,0.005-0.056c0.001-0.04,0.007-0.08-0.007-0.118
		c0.011-0.013,0.02-0.023,0.026-0.03C6.404,7.081,6.381,7.07,6.377,7.054C6.4,7.035,6.4,7.035,6.414,7.008
		c-0.014-0.032-0.009-0.066-0.001-0.1c0.003-0.017,0.006-0.034,0.008-0.051C6.427,6.81,6.432,6.763,6.438,6.715
		c0.003-0.02,0.007-0.04,0.01-0.06c0.008-0.05,0.016-0.099,0.023-0.15C6.476,6.467,6.482,6.429,6.486,6.39
		c0.001-0.007,0.002-0.015-0.011-0.016C6.473,6.383,6.47,6.392,6.468,6.401C6.464,6.384,6.463,6.368,6.47,6.347
		C6.478,6.341,6.489,6.331,6.502,6.32c0.008,0.009,0.014,0.015,0.02,0.022c-0.014,0.051-0.022,0.1-0.028,0.15
		c-0.005,0.041-0.005,0.084-0.02,0.124C6.47,6.63,6.471,6.646,6.476,6.663C6.479,6.657,6.48,6.655,6.481,6.653
		c0.024-0.088,0.041-0.177,0.051-0.267c0.001-0.01-0.001-0.021,0.014-0.024c0.013,0.008,0.025,0.016,0.037,0.023
		c0.014-0.01,0.011-0.022,0.012-0.033C6.595,6.291,6.595,6.23,6.595,6.169c0-0.023-0.001-0.046,0.013-0.067
		C6.61,6.102,6.61,6.1,6.611,6.097c0.001-0.003,0-0.007,0.001-0.01C6.634,6.118,6.66,6.146,6.679,6.18
		C6.667,6.21,6.67,6.24,6.67,6.271c0,0.04-0.001,0.08,0,0.121c0,0.03-0.002,0.061,0.003,0.091c0.006,0.034,0.006,0.066,0.003,0.099
		C6.675,6.593,6.673,6.605,6.673,6.616C6.673,6.704,6.673,6.792,6.672,6.88c0,0.007,0.001,0.015,0.003,0.022
		c0.007-0.026,0.012-0.051,0.014-0.077C6.696,6.752,6.7,6.678,6.713,6.606C6.715,6.6,6.715,6.595,6.715,6.589
		c0.006-0.072,0.013-0.144,0.018-0.215C6.736,6.351,6.74,6.331,6.756,6.314c0.002-0.002,0.003-0.005,0.003-0.007
		C6.757,6.296,6.754,6.285,6.752,6.276c0.007-0.012,0.013-0.022,0.019-0.032C6.763,6.233,6.755,6.223,6.748,6.213
		c0.015-0.034,0.043-0.059,0.054-0.093c-0.009-0.03-0.036-0.044-0.047-0.07C6.757,6.034,6.759,6.017,6.762,6
		c0.001-0.009,0.005-0.018,0.002-0.025c-0.007-0.02,0.002-0.036,0.01-0.052C6.765,5.896,6.769,5.87,6.771,5.845
		s0.004-0.052,0.005-0.078C6.777,5.754,6.777,5.741,6.778,5.73C6.79,5.71,6.808,5.7,6.827,5.694C6.85,5.687,6.875,5.68,6.899,5.669
		c0.027-0.013,0.053-0.026,0.083-0.032C6.991,5.636,7.001,5.631,7.01,5.627c0.008-0.004,0.015-0.009,0.023-0.011
		c0.043-0.011,0.084-0.03,0.125-0.048c0.005-0.002,0.011-0.002,0.018-0.003C7.18,5.592,7.163,5.613,7.162,5.637
		C7.161,5.661,7.147,5.684,7.16,5.708c0.018-0.006,0.018-0.005,0.02-0.013c0.011-0.047,0.035-0.092,0.02-0.141
		c0.007-0.011,0.013-0.019,0.028-0.012C7.226,5.565,7.222,5.59,7.22,5.613C7.215,5.658,7.21,5.702,7.207,5.747
		C7.205,5.766,7.203,5.783,7.195,5.801C7.19,5.814,7.185,5.83,7.187,5.843c0.004,0.024,0.001,0.045-0.013,0.065
		C7.178,5.934,7.188,5.96,7.17,5.984C7.168,5.986,7.168,5.99,7.168,5.992c0.007,0.034-0.001,0.066-0.005,0.099
		C7.152,6.178,7.141,6.266,7.13,6.352C7.128,6.375,7.124,6.398,7.121,6.421C7.116,6.465,7.111,6.51,7.106,6.554
		c-0.007,0.05-0.014,0.1-0.02,0.15C7.078,6.773,7.07,6.842,7.063,6.91C7.059,6.958,7.055,7.005,7.051,7.053
		C7.051,7.06,7.055,7.068,7.057,7.078c0.057-0.026,0.101-0.065,0.152-0.09c0.006-0.017,0.011-0.03,0.016-0.044
		C7.226,6.943,7.229,6.942,7.23,6.941c0.007,0.003,0.003,0.016,0.016,0.013c0.003-0.007,0.007-0.014,0.01-0.02
		c0.005,0.003,0.01,0.006,0.013,0.008c0.038-0.014,0.047-0.047,0.055-0.084c0.007,0.011,0.007,0.022,0.02,0.022
		c0.034-0.021,0.063-0.05,0.093-0.08C7.454,6.783,7.46,6.764,7.456,6.741C7.45,6.707,7.444,6.673,7.442,6.638
		C7.441,6.611,7.437,6.584,7.423,6.56C7.419,6.552,7.414,6.543,7.421,6.531c0.005,0.005,0.01,0.009,0.012,0.014
		c0.013,0.024,0.034,0.032,0.059,0.038c0.034,0.008,0.067,0.016,0.101,0.02c0.028,0.004,0.057,0.012,0.084,0.018
		c0.04,0.009,0.078,0.021,0.118,0.027c0.068,0.01,0.136,0.027,0.203,0.04C8.069,6.703,8.14,6.718,8.21,6.733
		c0.082,0.018,0.163,0.036,0.245,0.054C8.561,6.81,8.667,6.832,8.773,6.854C8.791,6.858,8.81,6.861,8.828,6.864
		c0.001,0,0.002-0.001,0.007-0.006C8.791,6.849,8.753,6.833,8.713,6.822c-0.04-0.011-0.081-0.015-0.12-0.032
		C8.6,6.78,8.61,6.783,8.617,6.781C8.608,6.776,8.601,6.77,8.592,6.767C8.569,6.758,8.545,6.752,8.531,6.729
		C8.529,6.725,8.522,6.723,8.517,6.721c-0.03-0.011-0.059-0.022-0.089-0.034C8.42,6.683,8.411,6.68,8.405,6.675
		C8.376,6.651,8.341,6.643,8.306,6.634C8.293,6.631,8.28,6.628,8.269,6.623c-0.046-0.02-0.091-0.044-0.138-0.063
		c-0.074-0.03-0.148-0.057-0.222-0.084c-0.03-0.011-0.06-0.022-0.09-0.029C7.791,6.441,7.763,6.437,7.736,6.424
		C7.732,6.422,7.725,6.422,7.72,6.422c-0.003,0-0.007,0.004-0.011,0.007C7.714,6.436,7.72,6.443,7.724,6.448
		C7.722,6.454,7.72,6.458,7.719,6.461c0.008,0.011,0.023,0.006,0.026,0.022C7.734,6.489,7.722,6.495,7.71,6.502
		c0.003,0.015,0.016,0.016,0.026,0.02c0.003,0.002,0.006,0.005,0.011,0.009C7.743,6.541,7.74,6.55,7.738,6.558
		C7.728,6.563,7.719,6.567,7.705,6.573C7.72,6.578,7.729,6.582,7.743,6.588C7.734,6.589,7.73,6.591,7.726,6.59
		c-0.06-0.009-0.12-0.018-0.179-0.028c-0.02-0.005-0.038-0.014-0.047-0.034C7.497,6.523,7.493,6.519,7.491,6.517
		C7.475,6.51,7.462,6.504,7.449,6.498C7.445,6.489,7.44,6.481,7.439,6.473C7.435,6.436,7.428,6.399,7.428,6.362
		c0-0.027,0.009-0.054,0.014-0.081c0.003-0.017,0.013-0.028,0.03-0.034c0.043,0.019,0.084,0.039,0.127,0.056
		c0.088,0.035,0.177,0.069,0.266,0.103c0.014,0.006,0.03,0.009,0.045,0.013C7.913,6.42,7.917,6.416,7.925,6.413
		C7.915,6.406,7.909,6.401,7.902,6.397c-0.088-0.04-0.175-0.081-0.264-0.119C7.597,6.26,7.554,6.246,7.512,6.231
		C7.498,6.225,7.481,6.222,7.47,6.206C7.46,6.173,7.481,6.148,7.495,6.122c0.016-0.003,0.028,0.003,0.038,0.011
		C7.544,6.14,7.554,6.148,7.566,6.155C7.62,6.187,7.678,6.213,7.737,6.237c0.014,0.006,0.03,0.01,0.044,0.017
		c0.014,0.008,0.028,0.02,0.041,0.029c0.021-0.003,0.01-0.025,0.022-0.036c0.008,0.008,0.014,0.016,0.022,0.021
		c0.009,0.005,0.019,0.005,0.028,0.009C7.9,6.279,7.904,6.284,7.908,6.287l0,0C7.901,6.289,7.891,6.286,7.89,6.3
		c0.009,0.001,0.018,0.002,0.026,0.003v0.001h0.001c0.001,0.004,0.002,0.008,0.004,0.011c0.011,0.016,0.018,0.015,0.03-0.003h0.001
		L7.951,6.312c0.038,0.012,0.072,0.03,0.105,0.05c0.018,0.01,0.035,0.02,0.052,0.03c0.049,0.03,0.098,0.06,0.148,0.09
		c0.03,0.018,0.059,0.038,0.094,0.043c0.014,0.016,0.031,0.029,0.052,0.038c0.012,0.005,0.022,0.013,0.034,0.02
		c0.028,0.017,0.057,0.034,0.086,0.051c0.026,0.015,0.057,0.02,0.08,0.041c0.005,0.005,0.014,0.003,0.02,0.007
		C8.63,6.684,8.637,6.689,8.644,6.694l0.001-0.001C8.64,6.698,8.639,6.703,8.646,6.711c0.007,0,0.017,0.001,0.023,0.001
		c0.07,0.04,0.138,0.078,0.207,0.116c0.007,0.004,0.016,0.008,0.024,0.011c0.013,0.005,0.027,0.008,0.042,0.006
		c0.001-0.012-0.004-0.018-0.01-0.024C8.914,6.799,8.893,6.78,8.88,6.757C8.858,6.721,8.828,6.691,8.799,6.662
		C8.791,6.655,8.784,6.648,8.778,6.64C8.749,6.598,8.716,6.561,8.681,6.524C8.655,6.495,8.633,6.463,8.603,6.438
		c-0.025-0.021-0.049-0.045-0.07-0.07C8.488,6.312,8.442,6.257,8.391,6.206C8.326,6.138,8.263,6.069,8.21,5.99
		C8.209,5.98,8.208,5.97,8.207,5.964C8.195,5.951,8.183,5.942,8.176,5.93C8.168,5.918,8.162,5.905,8.157,5.891
		C8.152,5.879,8.139,5.869,8.143,5.851C8.162,5.856,8.17,5.87,8.18,5.882c0.021,0.025,0.042,0.051,0.063,0.076
		c0.043,0.051,0.086,0.101,0.128,0.151c0.007,0.007,0.014,0.014,0.022,0.02V6.13c0.003,0.003,0.006,0.006,0.009,0.009h0.001
		C8.405,6.142,8.408,6.144,8.41,6.147c0,0.001,0,0.001,0,0.001h0.001c0.003,0.011,0.008,0.019,0.017,0.025v0.001h0.001
		c0.003,0.011,0.009,0.023,0.019,0.024C8.466,6.2,8.471,6.214,8.48,6.226L8.48,6.225c0.009,0.011,0.016,0.024,0.027,0.033
		c0.036,0.034,0.061,0.076,0.092,0.113c0.049,0.059,0.093,0.121,0.139,0.18C8.772,6.595,8.805,6.638,8.839,6.68
		c0.024,0.03,0.051,0.059,0.076,0.088c0.009,0.011,0.02,0.019,0.031,0.028C8.939,6.769,8.922,6.748,8.906,6.727
		C8.869,6.675,8.831,6.624,8.795,6.572C8.727,6.48,8.66,6.389,8.594,6.296C8.553,6.24,8.513,6.185,8.473,6.128
		c-0.02-0.028-0.04-0.057-0.06-0.085C8.332,5.932,8.252,5.821,8.172,5.71C8.159,5.693,8.148,5.675,8.139,5.662
		c0.009-0.063,0.016-0.119,0.024-0.18C8.168,5.494,8.17,5.5,8.172,5.504c0.022-0.008,0.041-0.016,0.062-0.022
		c0.084-0.023,0.167-0.044,0.251-0.067C8.658,5.368,8.83,5.322,9.003,5.274C9.184,5.224,9.366,5.172,9.548,5.12
		c0.014-0.004,0.028-0.009,0.041-0.014C9.592,5.105,9.594,5.1,9.6,5.095C9.583,5.092,9.57,5.089,9.565,5.089
		c-0.026-0.013-0.043-0.023-0.062-0.03C9.394,5.017,9.284,4.977,9.175,4.937C9.071,4.899,8.966,4.861,8.861,4.824
		C8.699,4.768,8.538,4.708,8.374,4.657C8.357,4.652,8.341,4.647,8.328,4.634C8.321,4.627,8.311,4.623,8.301,4.629
		c-0.01,0.011-0.01,0.023-0.006,0.036c0.01,0.016,0.026,0.022,0.042,0.028c0.049,0.017,0.098,0.034,0.148,0.05
		C8.503,4.749,8.52,4.755,8.532,4.77l0,0C8.53,4.775,8.528,4.78,8.525,4.786C8.546,4.827,8.567,4.868,8.59,4.908
		C8.631,4.98,8.668,5.052,8.688,5.133C8.69,5.141,8.694,5.149,8.697,5.158C8.729,5.162,8.76,5.161,8.792,5.158
		c0.047-0.005,0.094-0.013,0.142-0.016c0.03-0.001,0.059-0.007,0.088-0.019C9.049,5.112,9.08,5.11,9.11,5.112
		c0.024,0.001,0.049,0.003,0.073,0.005C9.169,5.12,9.156,5.123,9.142,5.127C9.136,5.128,9.13,5.131,9.134,5.139
		C9.166,5.14,9.181,5.137,9.201,5.124C9.197,5.116,9.189,5.118,9.183,5.117C9.188,5.115,9.193,5.111,9.198,5.11
		C9.235,5.11,9.27,5.108,9.306,5.111C9.324,5.112,9.34,5.113,9.358,5.11C9.386,5.106,9.415,5.103,9.443,5.1
		C9.448,5.1,9.453,5.102,9.459,5.104C9.456,5.108,9.455,5.112,9.453,5.112C9.431,5.116,9.41,5.12,9.389,5.122
		c-0.044,0.004-0.09,0.003-0.132,0.016C9.25,5.14,9.242,5.14,9.235,5.141C9.2,5.145,9.163,5.149,9.129,5.156
		C9.107,5.16,9.087,5.165,9.065,5.161C9.048,5.158,9.03,5.16,9.016,5.175c0,0.008,0,0.016,0,0.026
		c-0.03,0.007-0.06,0.014-0.089,0.021C8.909,5.226,8.89,5.228,8.872,5.232C8.853,5.236,8.837,5.253,8.814,5.244
		C8.81,5.243,8.802,5.246,8.799,5.25c-0.02,0.018-0.043,0.028-0.07,0.028c-0.005,0-0.011,0.004-0.016,0.006
		C8.693,5.289,8.673,5.297,8.654,5.301C8.596,5.312,8.54,5.331,8.482,5.345c-0.007,0.001-0.014,0.005-0.02,0.007
		c-0.025,0.011-0.05,0.022-0.075,0.034c-0.02,0.009-0.04,0.016-0.057,0.03C8.316,5.428,8.298,5.434,8.279,5.437
		C8.247,5.442,8.214,5.448,8.18,5.453C8.168,5.437,8.171,5.419,8.174,5.4c0.007-0.063,0.015-0.126,0.022-0.189
		c0.009-0.083,0.017-0.167,0.027-0.25c0.005-0.044,0.01-0.089,0.02-0.132c0.015-0.063,0.031-0.126,0.028-0.192
		c0-0.003,0-0.006,0.001-0.009c0.011-0.032,0.009-0.065,0.01-0.098c0.003-0.055,0.007-0.109,0.011-0.164
		c0-0.003,0.001-0.006,0.001-0.009C8.3,4.326,8.305,4.293,8.314,4.261c0.018-0.068,0.026-0.139,0.037-0.209
		C8.355,4.03,8.355,4.006,8.355,3.983c0-0.035-0.001-0.069-0.002-0.104C8.352,3.85,8.352,3.821,8.346,3.792
		C8.337,3.746,8.323,3.7,8.311,3.654c-0.014-0.02-0.037-0.032-0.061-0.038C8.23,3.611,8.208,3.604,8.187,3.61
		C8.18,3.612,8.172,3.613,8.171,3.622c0.005,0.007,0.02,0.007,0.016,0.021C8.181,3.647,8.177,3.65,8.172,3.653
		c0.001,0.02,0.002,0.038,0.005,0.056c0.001,0.004,0.007,0.007,0.01,0.011C8.172,3.743,8.169,3.768,8.17,3.794
		C8.172,3.82,8.175,3.846,8.175,3.872C8.174,3.906,8.17,3.941,8.169,3.976C8.168,3.999,8.168,4.022,8.172,4.045
		c0.003,0.018,0.003,0.034-0.006,0.05C8.163,4.101,8.16,4.108,8.159,4.115c-0.009,0.049-0.03,0.094-0.045,0.14
		c-0.01,0.032-0.022,0.062-0.032,0.092c-0.013,0.04-0.025,0.08-0.054,0.112C8.024,4.462,8.021,4.468,8.019,4.473
		C7.988,4.535,7.952,4.594,7.913,4.651c-0.048,0.07-0.1,0.138-0.16,0.198C7.697,4.905,7.64,4.961,7.578,5.011
		C7.554,5.029,7.531,5.046,7.509,5.064C7.451,5.112,7.387,5.152,7.324,5.192C7.271,5.226,7.215,5.257,7.159,5.287
		C7.109,5.314,7.057,5.34,7.004,5.363C6.916,5.401,6.828,5.436,6.737,5.465C6.666,5.488,6.594,5.509,6.523,5.533
		C6.492,5.544,6.459,5.545,6.429,5.562C6.422,5.566,6.412,5.567,6.404,5.566C6.387,5.565,6.37,5.561,6.35,5.559
		C6.337,5.57,6.318,5.575,6.297,5.577C6.236,5.584,6.174,5.593,6.113,5.6C6.032,5.61,5.952,5.618,5.872,5.626
		C5.837,5.629,5.803,5.634,5.768,5.635C5.675,5.635,5.581,5.641,5.488,5.628C5.477,5.627,5.465,5.627,5.453,5.626
		C5.438,5.625,5.424,5.624,5.41,5.622C5.383,5.619,5.355,5.617,5.328,5.623C5.318,5.625,5.304,5.625,5.295,5.621
		C5.276,5.61,5.257,5.612,5.236,5.611C5.201,5.61,5.164,5.615,5.129,5.599C5.104,5.6,5.083,5.586,5.058,5.583
		C5.004,5.573,4.95,5.565,4.897,5.552c-0.16-0.041-0.314-0.097-0.466-0.16c-0.045-0.019-0.09-0.039-0.134-0.06
		c-0.043-0.02-0.086-0.04-0.127-0.065C4.076,5.212,3.981,5.16,3.897,5.091C3.831,5.039,3.76,4.994,3.7,4.935
		C3.651,4.886,3.602,4.838,3.559,4.784C3.474,4.678,3.402,4.563,3.338,4.443C3.326,4.421,3.312,4.402,3.299,4.381
		C3.291,4.367,3.283,4.353,3.277,4.338C3.268,4.316,3.26,4.293,3.25,4.271C3.225,4.211,3.202,4.15,3.179,4.089
		C3.175,4.08,3.172,4.07,3.171,4.06C3.167,4.022,3.165,3.983,3.163,3.944C3.16,3.892,3.159,3.84,3.157,3.788
		C3.156,3.77,3.156,3.751,3.155,3.732C3.151,3.677,3.16,3.62,3.15,3.564C3.148,3.559,3.15,3.553,3.15,3.547
		C3.152,3.514,3.154,3.48,3.155,3.447C3.158,3.368,3.159,3.289,3.164,3.21C3.17,3.131,3.175,3.051,3.172,2.972
		c-0.001-0.012,0-0.023,0.001-0.035c0.006-0.068,0.012-0.135,0.018-0.203c0.007-0.073,0.014-0.146,0.021-0.22
		c0.01-0.101,0.019-0.201,0.03-0.302c0.004-0.04,0.012-0.08,0.015-0.12C3.266,1.985,3.28,1.877,3.294,1.77
		C3.304,1.693,3.31,1.615,3.321,1.538c0.018-0.127,0.038-0.254,0.057-0.381c0.009-0.059,0.018-0.117,0.029-0.175
		c0.012-0.065,0.025-0.13,0.038-0.196C3.448,0.771,3.451,0.756,3.454,0.74c0.001-0.006-0.002-0.013-0.003-0.021
		C3.436,0.725,3.424,0.73,3.412,0.736C3.41,0.737,3.408,0.739,3.406,0.741C3.374,0.77,3.342,0.799,3.31,0.828
		C3.283,0.853,3.266,0.885,3.256,0.92c-0.01,0.036-0.019,0.072-0.03,0.109C3.2,1.115,3.18,1.201,3.162,1.289
		c-0.02,0.097-0.04,0.195-0.058,0.293C3.085,1.68,3.067,1.778,3.052,1.877c-0.013,0.08-0.021,0.16-0.032,0.24
		C3.003,2.253,2.984,2.388,2.967,2.525c-0.011,0.089-0.02,0.178-0.03,0.267C2.93,2.85,2.922,2.909,2.916,2.968
		C2.909,3.034,2.901,3.1,2.893,3.165C2.89,3.198,2.888,3.231,2.884,3.264c-0.005,0.05-0.012,0.101-0.015,0.151
		C2.867,3.451,2.853,3.48,2.826,3.501C2.807,3.516,2.799,3.535,2.798,3.557C2.795,3.605,2.789,3.652,2.789,3.7
		C2.787,3.802,2.787,3.904,2.788,4.007C2.79,4.149,2.785,4.29,2.795,4.431c0.006,0.093,0.009,0.186,0.013,0.281
		C2.794,4.718,2.782,4.723,2.77,4.728c-0.084,0.034-0.169,0.066-0.254,0.1C2.43,4.863,2.343,4.899,2.256,4.934
		C2.124,4.988,1.989,5.037,1.859,5.094z"/>
	<polygon points="1.88,5.342 1.881,5.341 1.879,5.341 	"/>
	<polygon points="3.126,7.006 3.127,7.006 3.127,7.006 3.128,7.004 3.127,7.005 	"/>
	<rect x="3.699" y="6.865" width="0.001" height="0.002"/>
	<polygon points="4.317,6.422 4.323,6.417 4.323,6.416 4.323,6.416 	"/>
	<path d="M3.555,6.713c-0.007-0.001-0.014-0.002-0.02-0.003C3.546,6.728,3.546,6.728,3.555,6.713z"/>
	<polygon points="4.284,6.43 4.279,6.433 4.279,6.434 4.279,6.434 	"/>
	<path d="M6.663,8.7C6.68,8.685,6.68,8.685,6.665,8.632C6.669,8.615,6.677,8.6,6.676,8.586c-0.002-0.041-0.028-0.07-0.053-0.101
		c-0.01-0.001-0.015-0.007-0.019-0.013C6.6,8.465,6.597,8.458,6.592,8.453c0-0.001,0-0.001,0-0.001H6.592
		C6.591,8.449,6.59,8.447,6.59,8.445l0,0l0,0C6.588,8.447,6.586,8.449,6.584,8.451c-0.001,0-0.001,0-0.001,0
		c0,0.001,0,0.001,0,0.001C6.574,8.464,6.576,8.476,6.58,8.489C6.586,8.508,6.59,8.528,6.596,8.547
		c0.013,0.04,0.025,0.079,0.04,0.118C6.64,8.68,6.647,8.694,6.663,8.7z"/>
	<path d="M6.996,5.666c-0.001,0-0.001,0-0.003,0c0,0.003,0,0.007,0.001,0.01c0.001,0,0.001,0,0.002,0
		C6.996,5.673,6.996,5.669,6.996,5.666z"/>
	<path d="M7.024,7.612C7.024,7.611,7.021,7.608,7.02,7.606c-0.009,0.01-0.017,0.019-0.026,0.03c0,0.018,0,0.037,0,0.065
		c0.005-0.011,0.009-0.014,0.009-0.018C7.007,7.658,7.012,7.634,7.024,7.612z"/>
	<polygon points="6.322,9.617 6.324,9.613 6.323,9.613 6.323,9.613 	"/>
	<path d="M3.868,6.894C3.887,6.913,3.91,6.926,3.937,6.932c0.002,0.001,0.005-0.003,0.008-0.006
		C3.943,6.904,3.931,6.887,3.914,6.867C3.9,6.871,3.889,6.873,3.879,6.877C3.873,6.881,3.867,6.885,3.868,6.894z"/>
	<path d="M6.607,6.206c0.005-0.021,0.013-0.04,0.012-0.067C6.597,6.165,6.597,6.17,6.607,6.206z"/>
	<path d="M6.494,6.693C6.49,6.716,6.486,6.737,6.483,6.757C6.482,6.766,6.48,6.775,6.48,6.783c0.001,0.02-0.004,0.04-0.011,0.059
		C6.459,6.87,6.459,6.9,6.46,6.931c0.003-0.005,0.006-0.01,0.007-0.015C6.48,6.867,6.493,6.819,6.503,6.77
		c0.005-0.023,0.001-0.048,0.001-0.072C6.503,6.696,6.497,6.694,6.494,6.693z"/>
	<path d="M6.727,7.926C6.708,7.948,6.7,7.967,6.692,7.986c-0.006,0.016-0.005,0.033,0,0.049c0.005-0.001,0.009-0.001,0.01-0.002
		c0.011-0.02,0.022-0.04,0.032-0.06c0.002-0.004-0.002-0.011-0.003-0.016l0.001,0.001C6.73,7.95,6.729,7.942,6.727,7.926z"/>
	<path d="M6.585,7.25c0,0.001,0.004,0.003,0.009,0.006C6.597,7.253,6.601,7.248,6.609,7.24c-0.016-0.016-0.005-0.038-0.02-0.057
		C6.581,7.209,6.583,7.23,6.585,7.25z"/>
	<path d="M6.625,7.282c0.019,0.006,0.026-0.011,0.038-0.018C6.695,7.267,6.7,7.263,6.701,7.221c-0.034,0-0.047-0.026-0.057-0.053
		C6.642,7.163,6.637,7.159,6.632,7.156C6.63,7.155,6.627,7.155,6.622,7.154C6.619,7.163,6.617,7.172,6.615,7.18
		c0.007,0.01,0.013,0.018,0.018,0.025C6.63,7.232,6.605,7.255,6.625,7.282z"/>
	<polygon points="6.694,8.112 6.691,8.114 6.692,8.121 6.698,8.117 6.698,8.117 6.698,8.117 	"/>
	<path d="M6.931,7.035c0-0.013,0.001-0.028-0.014-0.043C6.919,7.007,6.92,7.015,6.921,7.024C6.922,7.031,6.922,7.04,6.922,7.048
		C6.925,7.044,6.931,7.039,6.931,7.035z"/>
	<path d="M6.719,8.219c-0.001-0.008-0.005-0.016-0.01-0.034C6.704,8.214,6.7,8.233,6.696,8.253c-0.003,0-0.005,0.001-0.009,0.001
		V8.253H6.686C6.685,8.251,6.684,8.249,6.683,8.247l0,0l0,0C6.682,8.249,6.68,8.251,6.679,8.253c-0.001,0-0.001,0-0.001,0
		c0,0.001,0,0.001,0,0.001c-0.006,0.008-0.006,0.016,0,0.024c0,0.001,0,0.001,0,0.001l0.001-0.001
		C6.672,8.32,6.704,8.343,6.725,8.378C6.73,8.32,6.723,8.27,6.719,8.219z"/>
	<path d="M6.922,7.049L6.922,7.049L6.922,7.049z"/>
	<path d="M6.918,7.112C6.918,7.101,6.919,7.094,6.92,7.087c-0.003,0-0.007,0-0.009,0C6.908,7.095,6.902,7.103,6.918,7.112z"/>
	<path d="M2.523,5.238C2.531,5.239,2.538,5.24,2.544,5.241c0-0.003,0-0.007,0.001-0.009C2.538,5.232,2.531,5.225,2.523,5.238z"/>
	<polygon points="2.035,5.292 2.038,5.293 2.038,5.289 	"/>
	<path d="M4.267,6.499C4.262,6.501,4.257,6.505,4.244,6.511C4.255,6.517,4.259,6.52,4.263,6.522
		C4.272,6.515,4.275,6.509,4.267,6.499z"/>
	<polygon points="2.631,5.474 2.633,5.468 2.629,5.466 2.624,5.471 2.63,5.474 2.63,5.474 	"/>
	<rect x="2.272" y="5.042" width="0.003" height="0.003"/>
	<rect x="1.823" y="5.326" width="0.003" height="0.005"/>
	<path d="M2.953,5.337C2.94,5.333,2.93,5.332,2.917,5.342C2.93,5.343,2.94,5.345,2.953,5.337z"/>
	<polygon points="3.568,6.794 3.567,6.794 3.565,6.797 3.569,6.798 3.569,6.798 3.57,6.795 3.57,6.795 3.57,6.795 	"/>
	<path d="M3.341,5.534C3.339,5.508,3.336,5.482,3.335,5.457C3.331,5.378,3.329,5.299,3.326,5.22c0-0.007,0-0.014-0.001-0.022
		C3.324,5.194,3.322,5.191,3.32,5.187C3.318,5.187,3.316,5.187,3.314,5.188C3.313,5.206,3.312,5.225,3.312,5.243
		C3.311,5.316,3.31,5.39,3.31,5.463c0,0.011,0.002,0.023,0.005,0.034c0.002,0.01,0.008,0.018,0.01,0.028
		c0.002,0.011,0.001,0.022,0.001,0.035C3.34,5.556,3.343,5.546,3.341,5.534z"/>
	<rect x="3.356" y="6.013" width="0.003" height="0.009"/>
	<polygon points="3.489,5.577 3.486,5.581 3.487,5.585 3.493,5.582 3.493,5.582 3.493,5.582 	"/>
	<path d="M3.254,4.851c0-0.005,0-0.01,0-0.015c-0.001,0-0.002,0-0.003,0c0,0.005,0,0.01,0,0.015
		C3.252,4.851,3.253,4.851,3.254,4.851z"/>
	<path d="M6.793,5.924C6.79,5.93,6.785,5.936,6.785,5.941C6.784,5.953,6.79,5.961,6.802,5.961C6.819,5.942,6.818,5.936,6.793,5.924z
		"/>
	<path d="M5.781,8.807C5.787,8.812,5.785,8.825,5.8,8.825c0.009-0.01,0.013-0.023,0.018-0.036c0.014-0.04,0.028-0.078,0.041-0.118
		c0.008-0.024,0.02-0.041,0.045-0.048c0.003-0.001,0.005-0.003,0.009-0.007C5.913,8.609,5.911,8.6,5.913,8.592
		c0.014-0.043,0.009-0.088,0.011-0.133c0-0.011-0.004-0.022-0.009-0.033C5.9,8.393,5.885,8.361,5.868,8.328
		C5.858,8.308,5.847,8.286,5.832,8.27C5.803,8.238,5.775,8.204,5.749,8.17C5.737,8.155,5.723,8.143,5.702,8.139
		c-0.028,0.016-0.05,0.038-0.059,0.07C5.637,8.228,5.632,8.248,5.63,8.268C5.625,8.309,5.623,8.351,5.62,8.393
		C5.619,8.399,5.619,8.407,5.609,8.409C5.606,8.407,5.602,8.404,5.6,8.4C5.585,8.372,5.566,8.347,5.554,8.318
		c-0.01-0.022-0.02-0.045-0.036-0.065C5.507,8.239,5.5,8.225,5.496,8.208c-0.002-0.01-0.006-0.02-0.018-0.022
		C5.475,8.187,5.472,8.187,5.47,8.189C5.466,8.193,5.462,8.199,5.461,8.203C5.458,8.211,5.458,8.22,5.456,8.229
		C5.452,8.251,5.45,8.253,5.432,8.274C5.421,8.256,5.412,8.236,5.399,8.22C5.386,8.204,5.376,8.187,5.367,8.168
		c-0.012-0.025-0.024-0.049-0.03-0.076C5.335,8.084,5.332,8.075,5.326,8.069c-0.02-0.024-0.041-0.048-0.062-0.072
		C5.26,7.992,5.253,7.99,5.245,7.985C5.239,7.994,5.231,8,5.23,8.007C5.226,8.044,5.217,8.081,5.226,8.119
		c0.001,0.005-0.002,0.01-0.003,0.016C5.205,8.13,5.205,8.114,5.196,8.106C5.185,8.1,5.176,8.094,5.166,8.09
		C5.164,8.083,5.162,8.077,5.16,8.072C5.143,8.024,5.12,7.98,5.083,7.944C5.077,7.937,5.072,7.927,5.069,7.918
		c-0.008-0.023-0.014-0.047-0.022-0.07C5.044,7.837,5.042,7.824,5.025,7.82C5.019,7.854,5.037,7.884,5.039,7.918
		c-0.003,0.009-0.007,0.02-0.012,0.031C5.013,7.979,5.01,8.01,5.015,8.042c0.007,0.034,0.014,0.068,0.02,0.101
		C5.037,8.15,5.039,8.157,5.04,8.164c0.001,0.008,0.008,0.015,0.001,0.025C5.031,8.166,5.022,8.143,5.014,8.121
		C5.004,8.097,4.998,8.072,4.977,8.054C4.97,8.048,4.967,8.037,4.961,8.029C4.946,8.002,4.932,7.976,4.916,7.95
		c-0.013-0.022-0.03-0.043-0.04-0.067C4.854,7.83,4.823,7.784,4.797,7.734c-0.005-0.01-0.013-0.018-0.02-0.027
		c-0.005,0.029,0,0.055,0.003,0.082C4.784,7.815,4.792,7.84,4.79,7.867C4.776,7.844,4.77,7.815,4.743,7.8
		c-0.005,0.001-0.01,0.002-0.016,0.003C4.72,7.777,4.706,7.755,4.684,7.741c-0.02-0.014-0.032-0.033-0.04-0.055
		C4.634,7.651,4.616,7.62,4.597,7.589C4.594,7.584,4.589,7.582,4.581,7.576c-0.004,0.009-0.009,0.014-0.009,0.02
		c0,0.027,0.001,0.055,0.003,0.082c0.001,0.014,0.005,0.028,0,0.043C4.56,7.72,4.556,7.709,4.55,7.699
		c-0.02-0.03-0.039-0.061-0.06-0.09C4.473,7.585,4.456,7.562,4.445,7.535C4.438,7.518,4.426,7.506,4.412,7.497
		C4.399,7.49,4.386,7.483,4.373,7.478c-0.004-0.002-0.01,0.001-0.018,0.001c0.01,0.028,0.017,0.053,0.004,0.084
		c-0.005-0.01-0.011-0.015-0.012-0.022C4.338,7.507,4.318,7.479,4.301,7.448c-0.01-0.017-0.025-0.026-0.04-0.035
		c-0.015,0.007-0.016,0.018-0.013,0.03c0.004,0.018,0.008,0.037,0.012,0.055c0.002,0.009,0.005,0.017,0.009,0.024
		C4.28,7.543,4.294,7.562,4.307,7.58c0.016,0.022,0.032,0.044,0.048,0.066C4.357,7.648,4.359,7.65,4.362,7.653
		c0.005,0.001,0.011,0.001,0.016,0.001C4.384,7.662,4.389,7.67,4.394,7.678C4.402,7.674,4.407,7.67,4.413,7.666
		c0.024,0.04,0.043,0.078,0.068,0.113C4.506,7.813,4.529,7.85,4.57,7.869c0.01-0.013,0.001-0.024,0.001-0.035L4.571,7.834
		c0.004-0.01,0.008-0.02,0.012-0.03c0.024,0.014,0.023,0.014,0.03,0.033c0.014,0.039,0.03,0.078,0.044,0.117
		c0.007,0.017,0.012,0.035,0.018,0.053c-0.006,0-0.011,0-0.017,0c-0.005-0.022-0.021-0.036-0.036-0.05
		c-0.002-0.002-0.008,0-0.011,0.001c-0.013,0.036-0.013,0.036-0.01,0.064c0.001,0.011,0,0.023,0,0.034
		C4.6,8.089,4.599,8.124,4.598,8.158c0,0.007,0.003,0.014,0.016,0.016c0.018-0.022,0.031-0.051,0.049-0.082
		c0.005,0.038,0.005,0.07,0.001,0.101C4.657,8.231,4.659,8.27,4.659,8.309c0,0.046,0.018,0.086,0.045,0.121
		C4.736,8.429,4.738,8.43,4.752,8.453c0.003,0.005,0.003,0.014,0.016,0.012C4.774,8.447,4.783,8.429,4.786,8.41
		c0.006-0.031,0.008-0.063,0.012-0.094c0.001-0.01,0.005-0.019,0.009-0.03C4.812,8.292,4.816,8.296,4.819,8.3
		c0.013-0.011,0.007-0.024,0.007-0.036c0-0.013,0.004-0.024,0.007-0.037c-0.014-0.021-0.028-0.041-0.05-0.05
		C4.78,8.164,4.779,8.152,4.776,8.141C4.774,8.129,4.768,8.119,4.759,8.112C4.757,8.11,4.755,8.106,4.755,8.104
		C4.752,8.081,4.737,8.065,4.721,8.05C4.72,8.05,4.72,8.05,4.72,8.049C4.72,8.047,4.72,8.044,4.719,8.042
		c0.007-0.007,0.009-0.01,0.014-0.011c0.001,0,0.001-0.001,0.002-0.001C4.738,8.03,4.74,8.03,4.742,8.029
		c0.002,0,0.004-0.001,0.006-0.001c0.014,0.019,0.025,0.041,0.036,0.063c0.016,0.032,0.035,0.063,0.053,0.094
		C4.842,8.193,4.849,8.197,4.86,8.191c0.011-0.017,0.006-0.036-0.001-0.053C4.85,8.112,4.85,8.085,4.843,8.059
		C4.84,8.048,4.842,8.044,4.85,8.023c0.013,0.021,0.02,0.042,0.026,0.065C4.884,8.12,4.892,8.152,4.904,8.183
		c0.013,0.034,0.014,0.064-0.007,0.094c-0.003,0.005-0.006,0.01-0.009,0.015c-0.034,0.06-0.053,0.124-0.063,0.192
		C4.824,8.493,4.823,8.502,4.826,8.51c0.002,0.008,0.008,0.014,0.009,0.016c0,0.019-0.003,0.032,0.001,0.044s0.013,0.022,0.02,0.032
		c0.003,0.018,0.009,0.036,0.01,0.055c0.001,0.02-0.001,0.04-0.001,0.061c0,0.01,0.002,0.02,0.003,0.03
		C4.867,8.754,4.868,8.76,4.878,8.759C4.884,8.747,4.885,8.733,4.9,8.725c0.007-0.003,0.009-0.014,0.013-0.022
		s0.005-0.017,0.01-0.024c0.014-0.018,0.023-0.04,0.031-0.061C4.956,8.613,4.963,8.61,4.969,8.606c-0.006,0.02-0.01,0.04-0.013,0.06
		C4.955,8.671,4.954,8.677,4.954,8.681C4.952,8.696,4.952,8.712,4.952,8.727c0,0.041,0.006,0.082,0.016,0.124
		C4.973,8.85,4.978,8.849,4.98,8.847c0.03-0.036,0.057-0.072,0.077-0.114c0.011-0.02,0.019-0.041,0.04-0.056
		c0.008-0.005,0.013-0.016,0.016-0.025c0.006-0.014,0.01-0.03,0.016-0.045c0.005-0.012,0.01-0.024,0.016-0.036
		c0.006-0.013,0.013-0.024,0.021-0.038C5.182,8.555,5.19,8.575,5.185,8.599C5.174,8.596,5.167,8.595,5.158,8.593
		C5.154,8.602,5.151,8.608,5.15,8.615C5.143,8.65,5.135,8.685,5.128,8.721c-0.001,0.009-0.002,0.018,0.011,0.02
		c0.02-0.009,0.015-0.035,0.036-0.051C5.167,8.722,5.162,8.749,5.153,8.775c-0.028,0.083-0.02,0.168-0.019,0.253
		c0,0.007,0.001,0.015,0.012,0.018c0.003-0.007,0.007-0.014,0.01-0.02C5.16,9.027,5.164,9.028,5.17,9.03
		c0.005-0.01,0.009-0.018,0.012-0.026c0.007-0.003,0.013-0.005,0.015-0.006c0.031-0.049,0.06-0.097,0.08-0.15
		c-0.005-0.007-0.01-0.014-0.015-0.022C5.27,8.812,5.278,8.8,5.288,8.785c0.013,0.003,0.026,0.006,0.04,0.009
		c0.003,0.037,0.008,0.072,0.011,0.108c0,0.005,0.001,0.009,0.001,0.013c0.003,0.031,0.011,0.061,0.02,0.09
		c0.003-0.001,0.007,0,0.008-0.001c0.026-0.028,0.061-0.049,0.084-0.079c0.007-0.024,0.001-0.047,0.003-0.07
		c0.002-0.022-0.017-0.043-0.002-0.07c0.011,0.02,0.014,0.041,0.015,0.06c0.001,0.026,0.01,0.051,0.016,0.076
		c0.007,0.025,0.008,0.051,0.011,0.077c0,0.001,0.001,0.003,0.001,0.004C5.5,9.007,5.504,9.011,5.508,9.018
		c0.019-0.021,0.02-0.047,0.035-0.067c-0.004-0.008-0.007-0.014-0.011-0.02C5.529,8.923,5.53,8.917,5.539,8.914
		c0.003,0.003,0.028,0.013,0.036,0.013c0,0.022-0.001,0.045,0,0.068C5.577,9.04,5.581,9.084,5.585,9.129
		C5.586,9.135,5.587,9.14,5.588,9.146c0.007,0.024,0.013,0.047,0.02,0.07C5.61,9.221,5.612,9.225,5.614,9.227
		c0.007,0.004,0.013,0.007,0.02,0.011C5.635,9.24,5.635,9.244,5.635,9.246c0.001,0.003,0.001,0.005,0.001,0.007c0,0,0,0-0.001,0
		v0.001h0.001l0,0c0,0,0,0-0.001-0.001l0.001,0.001l0,0c0-0.001,0-0.001,0-0.001c0.01-0.005,0.011-0.016,0.016-0.024
		C5.658,9.22,5.668,9.213,5.675,9.206c-0.001-0.024-0.009-0.047-0.001-0.07c0.008,0.003,0.015,0.005,0.021,0.007
		c0.014-0.011,0.001-0.02,0.001-0.029C5.704,9.11,5.711,9.106,5.718,9.103C5.72,9.096,5.722,9.09,5.723,9.085
		C5.727,9.053,5.728,9.02,5.737,8.988C5.745,8.961,5.74,8.934,5.721,8.911c-0.006-0.007-0.01-0.017-0.015-0.027
		c0.028-0.057,0.017-0.112-0.014-0.16c0.002-0.016,0.003-0.029,0.005-0.041c0.006,0.006,0.011,0.012,0.017,0.018
		c0.006,0,0.011,0,0.02,0c0.003,0.014,0.006,0.028,0.008,0.042c0.003,0.018,0.009,0.034,0.02,0.047
		C5.768,8.8,5.776,8.802,5.781,8.807z"/>
	<path d="M6.652,7.024c-0.006-0.001-0.01-0.001-0.014-0.001S6.63,7.022,6.627,7.021c-0.007-0.04-0.007-0.04-0.026-0.065
		c-0.008,0.039-0.034,0.07-0.014,0.111c0.01,0,0.018,0,0.026,0c0.011,0.015,0.022,0.028,0.032,0.042
		C6.657,7.082,6.654,7.054,6.652,7.024z"/>
	<path d="M5.808,9.646c0.003,0.009,0.005,0.018,0.009,0.03c0.02-0.013,0.032-0.027,0.023-0.05C5.822,9.621,5.815,9.632,5.808,9.646z
		"/>
	<path d="M5.748,9.506c0.007-0.003,0.01-0.008,0.005-0.015C5.744,9.493,5.745,9.499,5.748,9.506z"/>
	<path d="M5.543,9.509c0.028-0.027,0.03-0.032,0.021-0.061C5.554,9.456,5.554,9.456,5.543,9.509z"/>
	<path d="M5.681,9.548C5.667,9.547,5.668,9.536,5.663,9.53C5.657,9.524,5.649,9.521,5.642,9.516
		C5.639,9.507,5.637,9.497,5.633,9.488C5.631,9.484,5.625,9.482,5.619,9.478c-0.023,0.03-0.015,0.059-0.012,0.09
		c0.01,0,0.018,0,0.028,0C5.639,9.583,5.642,9.598,5.646,9.62c0.005-0.013,0.008-0.02,0.011-0.028c0.007,0,0.014,0,0.021,0
		c0.006-0.009,0.013-0.019,0.017-0.029C5.7,9.554,5.702,9.544,5.704,9.534C5.704,9.532,5.7,9.528,5.697,9.524
		C5.691,9.533,5.686,9.541,5.681,9.548z"/>
	<path d="M5.959,10.487c0.014-0.033,0.003-0.065-0.004-0.097C5.951,10.422,5.95,10.454,5.959,10.487z"/>
	<path d="M4.551,7.904C4.546,7.901,4.541,7.898,4.535,7.897c-0.004-0.001-0.008,0-0.014,0C4.52,7.904,4.517,7.911,4.517,7.917
		C4.518,7.95,4.521,7.983,4.523,8.016c0.001,0.009,0.001,0.017,0.002,0.026C4.526,8.049,4.529,8.056,4.54,8.056
		c0.007-0.021,0.035-0.02,0.047-0.041c0.004-0.034,0.009-0.069,0.013-0.105c0-0.002-0.003-0.004-0.005-0.006
		C4.591,7.906,4.588,7.908,4.586,7.911c-0.009,0.01-0.003,0.024-0.007,0.036c-0.003,0-0.006,0.001-0.009,0.001
		c-0.001,0-0.003,0-0.004,0C4.565,7.954,4.564,7.961,4.564,7.968c0,0.006,0.001,0.011,0.001,0.017c0,0.006,0.007,0.013-0.005,0.017
		C4.551,7.97,4.564,7.936,4.551,7.904z"/>
	<path d="M5.957,10.247c-0.001-0.028,0.016-0.057-0.001-0.089C5.939,10.19,5.947,10.218,5.957,10.247z"/>
	<path d="M6.306,9.578L6.306,9.578L6.306,9.578C6.306,9.578,6.306,9.578,6.306,9.578L6.306,9.578
		C6.295,9.576,6.283,9.576,6.277,9.564c0.015-0.021,0.02-0.03,0.018-0.038C6.283,9.533,6.273,9.539,6.262,9.547
		C6.258,9.55,6.255,9.555,6.251,9.56c0.002,0.01,0.004,0.02,0.005,0.028c-0.02,0.022-0.04,0.013-0.061,0.003
		C6.188,9.595,6.183,9.598,6.176,9.6C6.169,9.603,6.163,9.604,6.157,9.605C6.15,9.6,6.144,9.595,6.138,9.591
		c-0.005,0.01-0.01,0.018-0.014,0.025c-0.026-0.007-0.026-0.007-0.041-0.02c0.007-0.01,0.015-0.02,0.022-0.03
		C6.093,9.541,6.078,9.535,6.062,9.549C6.046,9.565,6.03,9.582,6.015,9.599C6.006,9.595,5.997,9.59,5.99,9.586
		C5.977,9.591,5.975,9.601,5.974,9.611C5.973,9.623,5.974,9.637,5.959,9.647C5.942,9.625,5.924,9.604,5.907,9.583
		c-0.01,0-0.021-0.01-0.033,0.002C5.877,9.59,5.88,9.596,5.882,9.602C5.885,9.607,5.887,9.613,5.89,9.618
		C5.881,9.62,5.872,9.621,5.864,9.622c-0.009,0.016-0.009,0.03-0.002,0.045C5.867,9.671,5.873,9.676,5.88,9.677
		C5.911,9.679,5.924,9.699,5.93,9.727c0.002,0.011,0.005,0.022,0.007,0.032C5.914,9.785,5.912,9.814,5.916,9.844
		C5.917,9.856,5.918,9.867,5.92,9.879C5.924,9.903,5.926,9.927,5.932,9.95c0.003,0.014,0.011,0.026,0.032,0.023
		c0.007-0.032,0.021-0.064,0.005-0.1C5.966,9.874,5.964,9.874,5.961,9.875C5.955,9.876,5.949,9.877,5.943,9.879
		C5.942,9.872,5.941,9.865,5.941,9.858C5.951,9.85,5.959,9.843,5.969,9.836C5.97,9.835,5.974,9.835,5.977,9.834
		c0.006,0.007,0.011,0.014,0.02,0.024c0.021-0.034,0.057-0.026,0.087-0.037c0.012-0.016,0.026-0.033,0.032-0.054h0.001
		c0.003-0.003,0.006-0.006,0.009-0.009L6.125,9.757c0.024-0.005,0.043-0.019,0.063-0.034C6.201,9.712,6.212,9.7,6.212,9.681
		c0-0.004,0.005-0.009,0.008-0.013c0.015,0.006,0.015,0.019,0.02,0.028c0.003,0.005,0.005,0.011,0.015,0.006
		c0-0.007,0-0.015,0-0.023c0.004-0.003,0.009-0.005,0.013-0.009C6.272,9.66,6.252,9.653,6.265,9.643
		C6.273,9.649,6.28,9.654,6.288,9.66C6.293,9.657,6.296,9.654,6.3,9.651C6.296,9.639,6.293,9.626,6.289,9.615
		c0.001-0.003,0.003-0.007,0.005-0.011C6.298,9.597,6.302,9.588,6.306,9.578z"/>
	<path d="M5.945,10.031c-0.003,0.034-0.005,0.067,0.011,0.1c0.001-0.005,0.003-0.011,0.003-0.016
		c-0.001-0.027-0.003-0.054-0.005-0.08C5.954,10.033,5.949,10.033,5.945,10.031z"/>
	<path d="M5.866,9.335C5.874,9.322,5.88,9.309,5.889,9.298c0.005-0.006,0.013-0.01,0.02-0.015c0.014,0.008,0.026,0.014,0.037,0.021
		c0.028-0.028,0.05-0.056,0.044-0.095C6.023,9.18,6.038,9.146,6.035,9.106C6.034,9.083,6.032,9.061,6.036,9.038
		c0.002-0.009-0.001-0.02-0.003-0.03C6.028,8.971,6.022,8.934,6.017,8.897C6.016,8.893,6.017,8.889,6.017,8.884
		c-0.001-0.026,0-0.052-0.005-0.077C6.009,8.785,5.999,8.763,5.99,8.742c-0.005-0.011-0.014-0.018-0.029-0.02
		c-0.012,0.023-0.009,0.05-0.019,0.074C5.93,8.82,5.932,8.847,5.932,8.875C5.906,8.86,5.916,8.83,5.897,8.812
		c-0.024,0.009-0.038,0.02-0.042,0.043C5.854,8.86,5.851,8.866,5.848,8.871C5.819,8.92,5.802,8.973,5.805,9.031
		c0.001,0.011-0.001,0.023-0.001,0.034C5.799,9.163,5.818,9.257,5.853,9.352C5.858,9.345,5.862,9.34,5.866,9.335z"/>
	<path d="M5.952,10.89c0.004,0.008,0.013,0.013,0.022,0.011c0.009-0.001,0.014-0.009,0.017-0.017
		c0.005-0.017,0.003-0.034-0.005-0.051c-0.007-0.015-0.009-0.03-0.007-0.046c0.005-0.046,0-0.092-0.005-0.138
		c-0.003-0.027-0.006-0.054-0.007-0.082c-0.001-0.01-0.001-0.02-0.002-0.03c-0.001-0.005-0.001-0.012-0.012-0.011
		c-0.001,0.007-0.001,0.014-0.001,0.02c-0.001,0.055-0.001,0.109-0.001,0.165c0,0.009-0.001,0.018,0.002,0.026
		c0.008,0.027,0.001,0.051-0.009,0.076c-0.003,0.008-0.007,0.016-0.011,0.029C5.94,10.858,5.945,10.874,5.952,10.89z"/>
	<path d="M5.634,9.284c0.002-0.006,0.004-0.01,0.005-0.014c0.001-0.004,0.001-0.008,0.001-0.012c-0.004,0-0.008,0-0.011,0
		C5.621,9.269,5.623,9.277,5.634,9.284z"/>
	<polygon points="6.212,9.575 6.213,9.574 6.216,9.568 6.21,9.566 6.206,9.572 6.206,9.572 6.206,9.572 	"/>
	<path d="M6.17,9.532C6.167,9.52,6.159,9.519,6.151,9.526C6.146,9.53,6.145,9.537,6.142,9.543C6.154,9.543,6.165,9.546,6.17,9.532z"
		/>
	<path d="M6.65,7.153c0.018,0.003,0.038,0.007,0.062,0.011c-0.002-0.032,0.009-0.06-0.001-0.09C6.694,7.078,6.68,7.084,6.67,7.097
		C6.664,7.106,6.654,7.109,6.644,7.11C6.644,7.124,6.642,7.138,6.65,7.153z"/>
	<path d="M6.19,9.198C6.182,9.21,6.184,9.221,6.192,9.233C6.213,9.217,6.212,9.209,6.19,9.198z"/>
	<path d="M4.485,7.936c0.007-0.058,0.005-0.07-0.02-0.095C4.473,7.872,4.462,7.906,4.485,7.936z"/>
	<rect x="6.141" y="9.543" width="0.001" height="0.001"/>
	<path d="M4.431,7.782C4.43,7.783,4.429,7.784,4.429,7.786c0,0.004,0.001,0.008,0.001,0.012c0.001,0,0.003,0,0.004,0
		c0-0.005,0-0.009,0-0.014C4.433,7.783,4.431,7.782,4.431,7.782z"/>
	<path d="M4.346,7.079c-0.01-0.007-0.018-0.013-0.032-0.023C4.323,7.08,4.323,7.08,4.334,7.082C4.337,7.082,4.341,7.08,4.346,7.079z
		"/>
	<path d="M6.13,9.557C6.135,9.551,6.138,9.548,6.14,9.545C6.136,9.545,6.129,9.543,6.13,9.557z"/>
	<path d="M5.884,7.354C5.878,7.354,5.873,7.355,5.868,7.356C5.866,7.344,5.864,7.334,5.862,7.317C5.853,7.363,5.854,7.369,5.863,7.4
		C5.87,7.399,5.879,7.398,5.887,7.397C5.891,7.381,5.891,7.367,5.884,7.354z"/>
	<rect x="6.644" y="7.109" width="0.001" height="0.001"/>
</g>
</svg>
