<svg xmlns="http://www.w3.org/2000/svg" width="28.176" height="17.407" viewBox="0 0 28.176 17.407">
    <path d="M10.375,2.599l1.191,3.174L9.619,7.418l0.926,1.928l2.253,1.077l1.291,2.607l-0.335,0.232l11.191,-0.686l3.231,-9.013l-18.027,-1.27L10.375,2.599zM1.81,13.994l6.975,-0.427l-0.167,-0.764L5.796,7.787L3.742,5.66l-0.17,-2.21l1.513,-1.513L0,1.579L1.81,13.994z" fill="#ffd400"/>
    <path d="M14.377,12.373c-0.124,-0.257 -0.772,-1.571 -1.349,-2.176c-0.356,-0.374 -0.859,-0.642 -1.346,-0.901c-0.305,-0.163 -0.645,-0.344 -0.855,-0.51c-0.122,-0.239 -0.362,-0.717 -0.568,-1.168l1.283,-1.14l0.472,-0.42L11.82,5.456l-0.793,-2.457l-0.341,-1.055l-0.36,0.172C10.031,1.405 9.71,0.69 9.689,0.645L9.399,0L8.696,0.08c-0.943,0.108 -2.48,0.538 -2.545,0.556L6.065,0.661L5.985,0.7C5.171,1.101 4.441,1.583 3.817,2.132C3.336,2.554 3.09,2.869 3.064,2.904l-0.153,0.2l-0.036,0.25C2.791,3.928 2.903,4.733 3.174,5.506c0.204,0.582 0.561,1.318 1.14,1.723c0.292,0.73 0.497,1.237 0.499,1.242L4.9,8.686l0.174,0.153l0.409,0.356C5.495,9.226 5.508,9.256 5.52,9.287c-0.243,1.49 -0.22,2.752 -0.22,2.752l0.966,-0.995c0.059,0.129 0.119,0.256 0.178,0.383c-0.338,1.696 -0.311,3.249 -0.311,3.249l1.28,-1.319c0.072,0.135 0.142,0.267 0.211,0.394c-0.432,1.846 -0.4,3.657 -0.4,3.657l1.568,-1.615l0.491,0.799l0.829,-0.521l3.908,-2.455l0.734,-0.461L14.377,12.373zM4.375,4.728c-0.142,-0.518 -0.174,-0.91 -0.174,-0.91l0.35,-0.626l0.004,0.055c0.003,0.045 0.059,0.729 0.36,1.505L4.375,4.728zM8.806,1.043c0,0 0.509,1.134 0.831,1.955C9.37,3.131 8.92,3.345 8.362,3.577c-0.315,-0.481 -0.432,-1.151 -0.46,-1.37L8.53,1.083C8.626,1.068 8.721,1.053 8.806,1.043zM5.964,2.654c0.002,0.038 0.052,0.816 0.424,1.502L5.65,4.566C5.302,3.938 5.208,3.183 5.208,3.183L5.98,1.802c0.14,-0.078 0.278,-0.157 0.433,-0.233c0,0 0.057,-0.016 0.136,-0.037L5.961,2.584L5.964,2.654zM7.198,1.364C7.418,1.31 7.662,1.253 7.91,1.2L7.405,2.103l0.006,0.074c0.003,0.041 0.085,0.911 0.484,1.586C7.734,3.825 7.568,3.886 7.396,3.946L6.874,4.008c-0.302,-0.501 -0.4,-1.112 -0.421,-1.314L7.198,1.364zM11.583,14.001l-1.562,-2.356L9.066,9.328L8.365,7.55h0l0,0C7.72,7.35 7.258,6.708 7.082,6.43C7.4,6.049 7.801,5.764 7.915,5.686c0.242,-0.007 0.503,-0.031 0.78,-0.098l1.091,-0.911L9.469,4.312L8.525,5.13c-0.547,0.121 -1.03,0.076 -1.352,0.015L7.171,5.141L7.164,5.144C7.038,5.12 6.933,5.095 6.866,5.076L6.708,4.68c1.725,-0.499 3.223,-1.285 3.399,-1.379l0.791,2.452L9.094,7.357c0.073,0.192 0.174,0.424 0.283,0.662c0.303,0.662 0.669,1.368 0.669,1.368c0.576,0.576 1.779,0.952 2.28,1.478c0.501,0.526 1.178,1.929 1.178,1.929L11.583,14.001z" fill="#000000" fill-opacity="1"/>
</svg>