<svg xmlns="http://www.w3.org/2000/svg" width="29.825" height="19.452" viewBox="0 0 29.825 19.452">
    <path d="M7.828,3.82l0.907,2.296l1.162,-1.758l0.227,2.013l1.588,-1.077l-0.256,2.041l1.786,-0.709L12.08,8.894l-0.085,3.005l-2.381,0.822l-2.438,-0.142L6.24,11.814l-2.281,0.368l1.743,-1.984L2.754,9.465l2.409,-0.741L4.171,6.938l1.927,0.623L5.646,5.436L7.176,6.4L7.828,3.82zM1.195,15.612l26.759,-0.737l1.871,-10.318L2.258,2.516L1.195,15.612z" fill="#ffd400"/>
    <path d="M13.092,9.842l5.671,-3.235l-5.852,1.415l2.366,-3.092l-3.356,1.783l0.627,-2.983L10.415,5.85l-0.316,-3.809L8.803,5.448L6.943,0l0.125,5.934L4.505,4.049l1.147,2.915L2.608,5.608l2.127,2.848L0,9.457l5,0.982l-2.807,2.78l3.788,-0.982l-2.926,7.214l4.21,-5.379l0.26,2.965L9.06,13.73l1.524,3.405l0.471,-4.477l4.323,4.291l-2.573,-5.213l3.965,0.423L13.092,9.842zM11.484,10.557L9.706,9.893l0.293,2.228L8.626,9.927L7.76,11.699v-1.453l-1.265,1.099l-1.851,0.48l1.857,-1.839L3.673,9.431l2.338,-0.495l-1.13,-1.513l2.111,0.94L6.12,6.148l1.713,1.259L7.776,4.713l0.99,2.898l0.869,-2.286l0.18,2.157l1.511,-1.502L10.88,8.096l1.77,-0.94l-1.367,1.787l-1.002,0.22L11.484,10.557z" fill="#000000" fill-opacity="1"/>
</svg>