<svg xmlns="http://www.w3.org/2000/svg" width="27.609" height="15.727" viewBox="0 0 27.609 15.727">
    <path d="M0,13.768l27.609,-1.133l-1.36,-10.772l-11.99,-0.195l-0.086,0.081l-1.21,1.872l0,1.927l-1.795,1.587l-0.509,2.325l-2.608,-1.361l0,-1.243l1.603,-1.024l0.948,-2.382l-0.284,-1.53l0.612,-0.306l-9.116,-0.148z" fill="#ffd400"/>
    <path d="M17.209,0.263C12.88,-0.878 9.458,2.062 9.458,2.062c2.464,0.895 -0.749,3.9 -0.749,3.9s-0.627,-0.413 -1.93,-1.546l0.533,0.967L6.864,5.831L5.897,5.298c1.133,1.303 1.546,1.93 1.546,1.93s-3.005,3.213 -3.9,0.749c0,0 -2.94,3.422 -1.799,7.75c0,0 1.752,-4.569 5.486,-3.72c0,0 1.073,-3.644 4.85,-1.408v-0.001v0.001c-2.235,-3.777 1.408,-4.85 1.408,-4.85C12.639,2.015 17.209,0.263 17.209,0.263M12.827,2.92c-0.32,0.714 -0.455,1.465 -0.403,2.24c-0.078,0.043 -0.16,0.09 -0.243,0.142c-0.739,0.461 -1.279,1.083 -1.561,1.8c-0.226,0.575 -0.29,1.192 -0.192,1.846L9.144,7.644L8.755,7.249l0.059,-0.058l0.557,-0.522c0.022,-0.02 0.546,-0.513 1.038,-1.175c0.763,-1.026 1.067,-1.947 0.905,-2.738c-0.039,-0.191 -0.111,-0.406 -0.24,-0.621c0.735,-0.423 1.835,-0.924 3.143,-1.101C13.597,1.611 13.13,2.244 12.827,2.92" fill="#000000" fill-opacity="1"/>
</svg>