<svg xmlns="http://www.w3.org/2000/svg" width="31.183" height="16.479" viewBox="0 0 31.183 16.479">
    <path d="M0.71,3.401L0,12.614l9.294,0.406l-3,-7.125l2.155,-2.438V3.041L0.71,3.401zM11.831,2.884l1.21,0.8l-2.382,3.005l0.511,0.34l-0.171,3.458l-0.056,1.418l1.315,1.244l16.94,0.74l1.985,-11.905L11.831,2.884z" fill="#ffd400"/>
    <path d="M11.53,11.475l0.308,-0.248c-0.194,-0.38 -0.267,-0.824 -0.309,-1.244c-0.113,-1.138 -0.007,-2.181 0.124,-3.313c-0.045,-0.005 -0.243,-0.024 -0.288,-0.029c0.041,-0.129 0.087,-0.256 0.138,-0.379c0.193,-0.462 0.485,-0.871 0.824,-1.244c0.39,-0.43 0.841,-0.813 1.274,-1.174c0.113,-0.095 0.226,-0.194 0.339,-0.287c-0.887,-0.617 -1.761,-1.25 -2.657,-1.855c-0.262,-0.177 -0.524,-0.354 -0.784,-0.534C10.427,1.119 8.801,0.012 8.808,0C8.463,0.594 8.092,1.214 7.682,1.809c-0.492,0.713 -1.04,1.39 -1.667,1.945c-0.078,0.068 -0.157,0.135 -0.237,0.2C5.301,4.339 4.722,4.617 4.233,5.001C3.982,5.198 3.752,5.422 3.581,5.694C3.476,5.862 3.183,6.461 3.183,6.461L2.808,6.318L1.732,7.706c1.291,1.745 2.774,2.91 2.774,2.91l0.37,-0.542c0.996,0.903 1.691,2.439 1.691,2.439c3.372,3.752 6.066,3.966 6.066,3.966l0.707,-0.78l-0.196,-0.326c0.201,-0.118 0.477,-0.51 0.529,-0.756c0.079,-0.38 -0.039,-0.728 -0.279,-1.022C12.782,12.845 11.98,12.349 11.53,11.475zM9.828,1.884c0.067,0.045 0.11,0.075 0.121,0.082c0.266,0.184 0.538,0.368 0.792,0.539c0.542,0.366 1.089,0.751 1.619,1.126c-0.261,0.232 -0.513,0.473 -0.751,0.736c-0.454,0.501 -0.781,0.999 -1,1.521c-0.06,0.144 -0.114,0.294 -0.167,0.46l-0.361,1.137l0.505,0.051c-0.077,0.844 -0.108,1.664 -0.021,2.543c0.025,0.244 0.061,0.528 0.132,0.822l-0.391,0.315l0.362,0.703c0.355,0.687 0.861,1.171 1.308,1.598c0.013,0.012 0.022,0.024 0.035,0.036l-2.928,-1.969l0.623,-0.185L8.912,6.723L7.963,5.906L10.432,3.4L9.091,1.418C9.096,1.409 9.103,1.4 9.108,1.391C9.391,1.585 9.676,1.779 9.828,1.884z" fill="#000000" fill-opacity="1"/>
</svg>