<svg xmlns="http://www.w3.org/2000/svg" width="27.044" height="14.687" viewBox="0 0 27.044 14.687">
    <path d="M0,2.977l1.193,8.901l5.544,0.163L4.824,2.684L0,2.977zM13.258,2.172l0.01,0.012l-0.567,1.417l0.822,2.839l0.312,2.717l-1.021,2.381l-1.299,0.644l14.792,0.434l0.737,-11.283L13.258,2.172z" fill="#ffd400"/>
    <path d="M13.333,2.961c0.276,-0.412 0.758,-0.444 0.899,-0.444c0.016,0 0.025,0 0.026,0l0.237,0.014l-2.607,-2.524l-0.061,0.048c-0.545,0.438 -1.114,0.66 -1.688,0.66c-0.975,0 -1.648,-0.648 -1.654,-0.654L8.423,0L8.362,0.061C8.355,0.067 7.685,0.715 6.708,0.715c-0.575,0 -1.143,-0.222 -1.689,-0.66l-0.06,-0.048l-2.437,2.36L2.353,2.53l0.235,-0.013c0.001,0 0.01,0 0.026,0c0.141,0 0.624,0.032 0.9,0.444C3.84,3.45 3.759,4.32 3.279,5.479c-0.802,1.936 -1.521,4.39 0.048,6.19c0.404,0.463 0.866,0.83 1.413,1.122c0.47,0.251 1.006,0.449 1.685,0.625c0.771,0.199 1.538,0.475 1.922,1.139l0.076,0.132l0.076,-0.132c0.384,-0.664 1.151,-0.94 1.922,-1.139c1.005,-0.26 2.159,-0.67 3.098,-1.747c1.569,-1.8 0.85,-4.254 0.049,-6.19C13.088,4.32 13.006,3.45 13.333,2.961M12.744,10.993c-0.608,0.698 -1.356,1.111 -2.58,1.427c-0.494,0.128 -1.117,0.318 -1.653,0.674V8.405L8.058,4.969l0.459,-2.118L7.798,1.879l0.638,-0.595c0.384,0.217 0.977,0.459 1.703,0.459c0.558,0 1.106,-0.141 1.63,-0.42l0.877,0.849c-0.06,0.068 -0.117,0.141 -0.168,0.218c-0.269,0.403 -0.393,0.903 -0.368,1.486c0.024,0.576 0.19,1.23 0.508,1.996c0.628,1.518 0.752,2.339 0.79,2.825C13.483,9.644 13.266,10.395 12.744,10.993" fill="#000000" fill-opacity="1"/>
</svg>