<svg xmlns="http://www.w3.org/2000/svg" width="11.339" height="11.339" viewBox="0 0 11.339 11.339">
    <g>
        <clipPath id="clip_1">
            <path d="M10.065,5.129c0,-2.153 -1.745,-3.898 -3.898,-3.898c-2.153,0 -3.898,1.745 -3.898,3.898c0,2.153 1.745,3.898 3.898,3.898C8.32,9.026 10.065,7.281 10.065,5.129"/>
        </clipPath>
        <g clip-path="url(#clip_1)">
            <clipPath id="clip_2">
                <path d="M11.864,5.128c0,-3.146 -2.551,-5.696 -5.697,-5.696c-3.146,0 -5.696,2.55 -5.696,5.696c0,3.146 2.55,5.697 5.696,5.697C9.314,10.825 11.864,8.275 11.864,5.128"/>
            </clipPath>
            <path d="M4.251,5.1436l0.3366,-0.3366l1.7175,1.7175l-0.3366,0.3366z" clip-path="url(#clip_2)" fill="#000000" fill-opacity="1"/>
            <path d="M-0.4315,14.1015l6.5979,-6.5979l0.4236,0.4236l-6.5979,6.5979z" clip-path="url(#clip_2)" fill="#000000" fill-opacity="1"/>
            <path d="M-2.77,11.763l2.119,2.119l6.598,-6.598L3.828,5.165L-2.77,11.763zM5.098,7.731L4.873,7.956L3.678,6.761l0.224,-0.224L5.098,7.731zM5.459,7.37L5.235,7.594L4.04,6.399l0.224,-0.224L5.459,7.37z" clip-path="url(#clip_2)" fill="#000000" fill-opacity="1"/>
            <path d="M8.243,2.867C8.224,2.876 7.346,3.328 5.844,4.8L5.7,4.656l2.167,-2.167c0,0 -1.468,-0.133 -3.031,1.33c0,0 0.746,0.376 0.164,0.957L5.095,4.87L5.29,5.066l0.298,0.298l0.079,0.079l0,0l0.079,0.079l0.299,0.299l0.183,0.183l0.107,0.107C6.917,5.53 7.293,6.276 7.293,6.276c1.463,-1.563 1.33,-3.031 1.33,-3.031L6.455,5.412L6.31,5.266C7.782,3.764 8.233,2.886 8.243,2.867l0.002,-0.001L8.243,2.867l0.001,-0.001L8.243,2.867z" clip-path="url(#clip_2)" fill="#000000" fill-opacity="1"/>
        </g>
    </g>
</svg>