<?xml version="1.0" encoding="UTF-8" standalone="no"?>
<!-- Created with Inkscape (http://www.inkscape.org/) -->

<svg
   width="138mm"
   height="138mm"
   viewBox="0 0 138 138"
   version="1.1"
   id="svg5"
   xml:space="preserve"
   sodipodi:docname="crown_icon.svg"
   inkscape:version="1.2.1 (9c6d41e, 2022-07-14)"
   xmlns:inkscape="http://www.inkscape.org/namespaces/inkscape"
   xmlns:sodipodi="http://sodipodi.sourceforge.net/DTD/sodipodi-0.dtd"
   xmlns:xlink="http://www.w3.org/1999/xlink"
   xmlns="http://www.w3.org/2000/svg"
   xmlns:svg="http://www.w3.org/2000/svg"><sodipodi:namedview
     id="namedview7"
     pagecolor="#ffffff"
     bordercolor="#000000"
     borderopacity="0.25"
     inkscape:showpageshadow="2"
     inkscape:pageopacity="0.0"
     inkscape:pagecheckerboard="0"
     inkscape:deskcolor="#d1d1d1"
     inkscape:document-units="mm"
     showgrid="false"
     inkscape:zoom="0.46971198"
     inkscape:cx="291.6681"
     inkscape:cy="453.46938"
     inkscape:window-width="1470"
     inkscape:window-height="800"
     inkscape:window-x="0"
     inkscape:window-y="37"
     inkscape:window-maximized="0"
     inkscape:current-layer="layer1" /><defs
     id="defs2" /><g
     inkscape:label="Layer 1"
     inkscape:groupmode="layer"
     id="layer1"><path
       style="fill:#000000;stroke-width:0.176389"
       d="m 64.455966,134.6365 c -4.660408,-0.3691 -10.623717,-1.34711 -13.599339,-2.23036 -1.148964,-0.34105 -4.839937,-1.59922 -5.803438,-1.97827 -0.533576,-0.20992 -1.20708,-0.4549 -1.496677,-0.54442 -0.289596,-0.0895 -0.805533,-0.28737 -1.146528,-0.43969 -0.340993,-0.15231 -0.778739,-0.3437 -0.972767,-0.4253 -1.517359,-0.6382 -5.38097,-2.63723 -6.564042,-3.39623 -0.796821,-0.5112 -1.987446,-1.27109 -2.645834,-1.68865 -2.10485,-1.33492 -4.137606,-2.84991 -7.19429,-5.36182 -1.551758,-1.27521 -6.111899,-5.99845 -8.065894,-8.35439 -1.559669,-1.88051 -3.2958,-4.26678 -4.493639,-6.1764 C 10.245288,100.48867 8.0905812,96.319671 6.8742703,93.207358 6.5140909,92.285726 6.1107176,91.253851 5.9778851,90.914303 5.8450526,90.574754 5.4498588,89.384129 5.0996766,88.268469 4.7494946,87.15281 4.3481986,85.88281 4.2079079,85.446247 4.0676174,85.009685 3.9532267,84.504401 3.9537065,84.323393 3.9541827,84.142386 3.8406072,83.626448 3.7013083,83.176865 3.4027385,82.21324 3.1235077,80.814815 2.8147116,78.73667 2.6916243,77.908312 2.5398244,77.069588 2.4773785,76.872839 2.4149327,76.676089 2.2532946,74.568076 2.1181824,72.188366 c -0.2105326,-3.708081 -0.210179,-4.891797 0.00247,-8.27853 0.1364726,-2.17348 0.2919344,-4.06922 0.3454705,-4.212753 0.053536,-0.143533 0.2125652,-1.056345 0.3533976,-2.028472 0.3849497,-2.657198 0.8755159,-5.045645 1.3955497,-6.794586 0.1298084,-0.436563 0.292216,-1.071563 0.3609059,-1.411111 0.06869,-0.339549 0.1834788,-0.696737 0.2550864,-0.79375 0.071607,-0.09701 0.2139279,-0.493889 0.3162677,-0.881945 0.2756295,-1.045143 0.7320851,-2.319429 1.7339165,-4.840573 0.9027515,-2.271808 4.3287623,-9.006264 4.9475883,-9.725399 0.131797,-0.15316 0.23963,-0.330983 0.23963,-0.395161 0,-0.111202 0.705856,-1.169144 2.198494,-3.295117 0.724261,-1.03157 2.923469,-3.90897 3.100738,-4.056945 0.05811,-0.04851 0.881108,-0.961319 1.828886,-2.028472 1.902175,-2.14176 3.283238,-3.516773 5.137782,-5.115278 0.675317,-0.582083 1.307225,-1.146487 1.404239,-1.254232 0.165357,-0.183646 2.726478,-2.101614 4.499257,-3.369395 1.822986,-1.303686 4.237764,-2.903361 5.129212,-3.397857 1.96254,-1.0886407 7.424721,-3.7083775 7.732012,-3.7083775 0.08889,0 0.386337,-0.1180008 0.660987,-0.2622238 0.768856,-0.4037387 2.134926,-0.9724985 2.335786,-0.9724985 0.09904,0 0.440743,-0.1112691 0.759329,-0.2472649 0.536741,-0.2291195 1.052638,-0.3846035 3.533763,-1.0650255 0.509323,-0.1396764 1.362604,-0.3876966 1.89618,-0.5511561 1.572719,-0.4817976 3.582532,-0.954624 4.056944,-0.9544323 0.242535,9.81e-5 0.996598,-0.1170781 1.675695,-0.2603913 4.526392,-0.9552271 16.421143,-0.9626325 21.343054,-0.013287 0.679097,0.1309852 1.988785,0.3747185 2.910417,0.5416295 0.921632,0.166911 1.874132,0.4024919 2.116666,0.523513 0.242535,0.1210211 0.718785,0.2718061 1.058334,0.3350779 0.339548,0.063272 1.014236,0.2281892 1.499305,0.3664834 1.967449,0.5609232 3.542501,1.0424932 3.792361,1.1595084 0.145521,0.068151 0.740833,0.2994072 1.322917,0.5139032 0.582083,0.2144959 1.296458,0.4967044 1.5875,0.6271299 0.291041,0.1304256 0.886354,0.3902916 1.322916,0.5774801 1.892755,0.811572 2.296622,0.9984844 3.96875,1.8367647 3.230911,1.6197368 3.721371,1.9146038 7.408341,4.4539688 0.67909,0.467721 1.40413,0.977778 1.61118,1.133459 0.20705,0.155681 0.55505,0.402119 0.77332,0.54764 0.21827,0.145521 0.52511,0.391194 0.68187,0.54594 0.15676,0.154747 0.58489,0.481076 0.9514,0.725176 1.18949,0.792216 4.85,4.18104 6.69488,6.197977 0.98992,1.082242 2.09345,2.285213 2.45229,2.673268 0.57355,0.620242 3.38752,4.242889 3.99099,5.137914 0.781,1.158335 1.50844,2.318615 2.31624,3.694462 0.50847,0.866013 0.99667,1.693631 1.0849,1.839152 1.09115,1.799675 4.40195,9.097213 4.40195,9.702604 0,0.09898 0.0788,0.31779 0.17509,0.486248 0.19593,0.342738 0.65574,1.61652 0.87464,2.422954 0.079,0.291041 0.32272,1.164166 0.5416,1.940278 0.83328,2.954614 1.53698,6.572232 2.04151,10.495138 0.23086,1.795024 0.30562,3.664377 0.30366,7.593304 -0.003,5.121436 -0.11973,6.681562 -0.7876,10.486558 -0.10217,0.582083 -0.24756,1.506805 -0.32311,2.054937 -0.0755,0.548134 -0.18708,1.077089 -0.24788,1.175459 -0.0608,0.09837 -0.22394,0.721461 -0.36255,1.384646 -0.35456,1.696413 -0.74182,3.166948 -0.90248,3.426891 -0.0752,0.121637 -0.19714,0.505087 -0.27104,0.852113 -0.15986,0.750717 -1.12409,3.574353 -1.48947,4.361778 -0.14186,0.305703 -0.25792,0.636614 -0.25792,0.735358 0,0.09875 -0.10936,0.404248 -0.24302,0.678898 -0.13366,0.27465 -0.36339,0.777177 -0.51051,1.116725 -1.22739,2.83267 -3.63077,7.300931 -5.07585,9.436801 -0.26254,0.38806 -0.9435,1.41982 -1.51323,2.2928 -2.15843,3.30733 -7.96,9.71108 -11.12818,12.28325 -0.75513,0.61307 -1.48099,1.2188 -1.61302,1.34607 -0.57831,0.55748 -3.59922,2.75117 -5.45508,3.96133 -3.98771,2.60028 -5.963764,3.67029 -9.738893,5.27352 -0.921632,0.3914 -1.914137,0.81389 -2.205568,0.93886 -0.29143,0.12497 -0.786614,0.28361 -1.100408,0.35253 -0.313794,0.0689 -0.615816,0.19858 -0.671161,0.28813 -0.05535,0.0896 -0.222853,0.16282 -0.372241,0.16282 -0.149387,0 -0.521733,0.11146 -0.827436,0.24768 -0.305703,0.13623 -1.071762,0.40719 -1.702352,0.60214 -0.630591,0.19495 -1.554057,0.48036 -2.052146,0.63426 -0.49809,0.15389 -1.064445,0.27981 -1.258564,0.27981 -0.19412,0 -0.739093,0.11434 -1.211049,0.25409 -2.031887,0.60166 -7.303161,1.3813 -11.353241,1.67919 -2.845741,0.20931 -5.337607,0.20463 -8.113888,-0.0153 z m 13.229166,-33.50003 c 7.02994,-0.54734 9.786284,-0.85009 12.082638,-1.327128 0.679097,-0.14108 1.427953,-0.25549 1.664123,-0.25424 0.236169,10e-4 0.871169,-0.1116 1.411112,-0.25075 0.53994,-0.13916 1.854834,-0.4591 2.921987,-0.710991 3.105743,-0.733072 3.514319,-0.857525 6.526388,-1.987959 4.21812,-1.583066 6.76329,-3.371254 7.79248,-5.474839 0.50216,-1.026379 0.60337,-2.116399 0.27625,-2.975074 -0.10568,-0.277411 -0.47711,-1.456881 -0.8254,-2.621047 -0.34829,-1.164167 -0.71695,-2.354792 -0.81925,-2.645834 -0.17479,-0.49727 -1.48575,-4.69062 -2.01277,-6.438194 -0.13166,-0.436563 -0.53095,-1.706563 -0.88733,-2.822223 -0.61572,-1.927547 -0.87561,-2.77318 -1.40945,-4.586111 -0.12855,-0.436562 -0.4286,-1.389062 -0.66678,-2.116666 -0.23818,-0.727605 -0.60884,-1.91823 -0.82369,-2.645834 -0.21485,-0.727604 -0.49426,-1.640416 -0.62091,-2.028472 -0.53416,-1.636727 -1.34144,-4.196297 -1.94712,-6.173611 -0.356601,-1.164167 -0.759621,-2.41593 -0.895601,-2.781695 -0.135978,-0.365766 -0.248449,-0.802328 -0.249934,-0.970139 -0.0089,-1.004089 -0.781823,-0.909223 -1.510872,0.185436 -0.272593,0.409296 -0.7067,0.982301 -0.964683,1.273342 -0.428801,0.483754 -2.837883,3.79648 -3.254383,4.475103 -0.09701,0.158069 -0.431873,0.582531 -0.744129,0.943248 -0.312257,0.360719 -0.867882,1.114782 -1.234722,1.675695 -0.366841,0.560915 -0.766201,1.124731 -0.887469,1.252929 -0.121267,0.128196 -0.220486,0.287757 -0.220486,0.35458 0,0.06682 -0.183543,0.319439 -0.407874,0.561369 -0.224332,0.241931 -1.192504,1.51112 -2.151495,2.820421 -0.958991,1.309299 -1.918792,2.595892 -2.132892,2.859096 -0.214101,0.263204 -0.433508,0.580704 -0.487573,0.705556 -0.211896,0.489331 -0.695663,-0.482964 -2.519937,-5.064663 -0.541904,-1.361003 -1.67522,-4.126428 -2.168612,-5.291667 -0.08216,-0.194028 -0.320569,-0.78934 -0.529806,-1.322917 -0.209238,-0.533576 -0.451591,-1.128889 -0.538562,-1.322916 -0.08697,-0.194028 -0.483557,-1.146528 -0.881304,-2.116667 -0.397746,-0.970139 -0.794127,-1.922639 -0.880845,-2.116667 -0.208778,-0.467123 -1.35954,-3.297313 -1.793006,-4.409722 -0.189013,-0.485069 -0.414819,-1.040694 -0.501789,-1.234722 -0.152082,-0.339288 -0.661892,-1.574943 -2.292415,-5.55625 -1.316551,-3.21467 -2.118406,-5.164108 -2.6482,-6.438195 -0.282385,-0.679097 -0.699543,-1.710972 -0.927017,-2.293055 -0.310214,-0.793805 -0.510281,-1.072422 -0.800435,-1.114699 -0.212766,-0.031 -0.386848,-0.02355 -0.386848,0.01655 0,0.0401 -0.521153,1.335467 -1.158118,2.878587 -0.636965,1.543121 -1.32183,3.242236 -1.521926,3.775813 -0.200093,0.533576 -0.524845,1.327326 -0.72167,1.763889 -0.478816,1.062034 -2.351375,5.64367 -2.847626,6.967361 -0.218221,0.582083 -0.593464,1.494896 -0.833869,2.028472 -0.240408,0.533576 -0.621446,1.446389 -0.846753,2.028472 -0.225309,0.582084 -0.513599,1.296459 -0.640646,1.5875 -0.987946,2.263209 -2.012725,4.834024 -2.012725,5.049228 0,0.143042 -0.07035,0.335484 -0.156338,0.427647 -0.187659,0.201138 -1.431162,3.070929 -1.431162,3.302874 0,0.161951 -0.06335,0.314178 -0.970773,2.332751 -0.26167,0.582084 -0.828915,1.931459 -1.260546,2.998612 -1.084165,2.680463 -1.347253,3.263194 -1.473251,3.263194 -0.128168,0 -2.140105,-2.694607 -7.798803,-10.445009 -3.091325,-4.234016 -5.271772,-7.105934 -5.564055,-7.328549 -0.160936,-0.122575 -0.361208,-0.199999 -0.445047,-0.172052 -0.140434,0.04681 -1.030644,2.702966 -1.905859,5.686582 -0.199206,0.679097 -0.422012,1.353785 -0.495123,1.499306 -0.07311,0.145521 -0.31549,0.939271 -0.538616,1.763889 -0.223129,0.824618 -0.473384,1.658055 -0.556124,1.852083 -0.188728,0.442574 -0.469167,1.319177 -1.382519,4.321528 -0.398423,1.309687 -0.95475,3.095625 -1.236279,3.96875 -0.281529,0.873125 -0.869289,2.738437 -1.306132,4.145139 -0.436843,1.406701 -1.203355,3.867326 -1.703359,5.468055 -0.500006,1.60073 -1.065265,3.426355 -1.256136,4.056945 -0.19087,0.63059 -0.427755,1.384653 -0.526415,1.675694 -0.457565,1.349818 -0.7132,2.365165 -0.802726,3.188314 -0.188355,1.731818 1.235256,3.666164 3.913385,5.317356 0.733982,0.452535 3.938382,1.989469 4.147902,1.989469 0.120866,0 0.545949,0.147735 0.94463,0.328299 0.92372,0.418354 1.712106,0.69231 2.929736,1.018051 2.446149,0.654394 4.428234,1.120664 6.261805,1.473044 0.582084,0.11187 1.613959,0.31803 2.293056,0.45815 0.679097,0.14012 1.491079,0.253738 1.804403,0.252488 0.313325,-0.001 1.18645,0.11096 1.940278,0.24933 1.226974,0.22522 3.615882,0.4535 8.426152,0.80518 2.543661,0.18597 15.667322,0.18102 18.07986,-0.007 z M 52.035874,62.030622 c 0.15263,-0.509632 1.146022,-3.080066 1.482669,-3.836458 0.705189,-1.58444 1.765201,-4.346223 1.765201,-4.599096 0,-0.28237 -3.094443,-4.692452 -3.907227,-5.568429 -0.499844,-0.538706 -0.831674,-0.640717 -0.92226,-0.283517 -0.03075,0.121267 -0.153075,0.498298 -0.271827,0.837847 -0.118751,0.339549 -0.412553,1.292049 -0.652893,2.116667 -0.240339,0.824618 -0.49693,1.618368 -0.5702,1.763889 -0.07327,0.14552 -0.435406,1.260263 -0.804746,2.477207 l -0.671529,2.212624 1.593012,2.197098 c 0.876157,1.208403 1.761279,2.375692 1.966936,2.593974 0.447558,0.475031 0.865882,0.512191 0.992864,0.08819 z m 34.011675,0.202239 c 0.15256,-0.05854 0.570023,-0.514948 0.927698,-1.014236 0.357672,-0.499287 1.161148,-1.603686 1.785501,-2.454219 0.828494,-1.128624 1.11158,-1.652831 1.047805,-1.940278 -0.160464,-0.72326 -1.054156,-3.561667 -1.298682,-4.124678 -0.132774,-0.305703 -0.241406,-0.647724 -0.241406,-0.760049 0,-0.112322 -0.230147,-0.894076 -0.511438,-1.737231 -0.281291,-0.843153 -0.565409,-1.790975 -0.631375,-2.10627 -0.190216,-0.90916 -0.413415,-0.812448 -1.730098,0.749652 -0.327089,0.388056 -0.860429,1.102431 -1.185201,1.5875 -0.324771,0.48507 -0.93362,1.323448 -1.352996,1.863062 -0.419377,0.539613 -0.762463,1.095238 -0.762415,1.234722 1.01e-4,0.286745 0.467136,1.557377 1.099585,2.99157 0.234342,0.531412 0.551348,1.283702 0.704459,1.671758 1.044335,2.64684 1.69176,4.145139 1.791146,4.145139 0.04402,0 0.204856,-0.0479 0.357417,-0.106442 z"
       id="path5276" /></g></svg>
