<svg xmlns="http://www.w3.org/2000/svg" width="11.339" height="11.339" viewBox="0 0 11.339 11.339">
    <path d="M8.037,6.835l-0.279,-0.472l-2.086,1.233l-2.086,-1.233l-0.278,0.472l1.826,1.079l-1.826,1.079l0.278,0.472l2.086,-1.233l2.086,1.233l0.279,-0.472l-1.826,-1.079z" fill="#000000" fill-opacity="1"/>
    <path d="M5.65,6.966c0.824,0 1.491,-0.668 1.491,-1.491c0,-0.134 -0.019,-0.262 -0.052,-0.386c-0.03,-0.114 -0.072,-0.222 -0.127,-0.323L6.959,4.762L5.65,2.397L4.34,4.762L4.338,4.766c-0.055,0.101 -0.097,0.21 -0.127,0.323C4.178,5.213 4.158,5.341 4.158,5.475C4.158,6.299 4.826,6.966 5.65,6.966zM6.334,4.914c0.283,0 0.512,0.229 0.512,0.512c0,0.283 -0.229,0.512 -0.512,0.512c-0.283,0 -0.512,-0.229 -0.512,-0.512C5.822,5.144 6.052,4.914 6.334,4.914zM5.891,6.436L5.65,6.348L5.408,6.436L5.65,5.867L5.891,6.436zM4.965,4.914c0.283,0 0.512,0.229 0.512,0.512c0,0.283 -0.229,0.512 -0.512,0.512c-0.283,0 -0.512,-0.229 -0.512,-0.512C4.453,5.144 4.682,4.914 4.965,4.914z" fill="#000000" fill-opacity="1"/>
    <path d="M7.805,2.055c-0.135,0 -0.22,0.073 -0.22,0.266v0.29H7.183V2.348c0,-0.432 0.216,-0.679 0.633,-0.679c0.417,0 0.633,0.247 0.633,0.679c0,0.359 -0.131,0.649 -0.525,1.069c-0.251,0.27 -0.32,0.397 -0.32,0.54c0,0.019 0,0.038 0.004,0.058H8.41v0.386H7.183V4.069c0,-0.301 0.108,-0.529 0.424,-0.861c0.324,-0.343 0.417,-0.555 0.417,-0.845C8.025,2.121 7.939,2.055 7.805,2.055z" fill="#000000" fill-opacity="1"/>
</svg>