<svg xmlns="http://www.w3.org/2000/svg" width="11.339" height="11.339" viewBox="0 0 11.339 11.339">
    <path d="M8.901,6.983V4.835c0,-0.161 -0.131,-0.293 -0.292,-0.293H8.054v2.733h0.554C8.77,7.275 8.901,7.144 8.901,6.983z" fill="#000000" fill-opacity="1"/>
    <path d="M5.214,8.33c0,-0.143 0.027,-0.282 0.089,-0.433c0.053,-0.129 0.133,-0.27 0.25,-0.431l0,0c0.14,-0.194 0.328,-0.417 0.586,-0.694c1.049,-1.121 1.451,-1.92 1.507,-2.851c0,0 0,0 0,0l0,0c0.005,-0.077 0.008,-0.154 0.008,-0.233c0,-1.247 -0.624,-1.96 -1.826,-1.96C4.623,1.728 4,2.44 4,3.687v0.233v0.431v0.093h1.158V4.351V3.921V3.609c0,-0.557 0.245,-0.768 0.635,-0.768s0.635,0.189 0.635,0.891c0,0.065 -0.005,0.126 -0.008,0.189l0,0c-0.004,0.067 -0.01,0.132 -0.017,0.197C6.398,4.146 6.394,4.173 6.389,4.201C6.382,4.251 6.375,4.302 6.364,4.351l0,0C6.24,4.913 5.916,5.438 5.225,6.17C4.76,6.658 4.452,7.067 4.261,7.466l0,0C4.227,7.538 4.197,7.61 4.17,7.682C4.144,7.753 4.122,7.825 4.102,7.897c0,0 0,0 0,0l0,0C4.034,8.139 4,8.386 4,8.653v0.958h3.541V8.497H5.225C5.214,8.442 5.214,8.386 5.214,8.33z" fill="#000000" fill-opacity="1"/>
    <path d="M5.373,3.921v0.431h0.773c0.034,-0.143 0.052,-0.285 0.06,-0.431H5.373z" fill="#000000" fill-opacity="1"/>
    <path d="M8.608,3.921H7.86c-0.008,0.147 -0.025,0.29 -0.05,0.431h0.798c0.267,0 0.484,0.217 0.484,0.484v2.147c0,0.267 -0.217,0.484 -0.484,0.484H5.822c-0.133,0.17 -0.226,0.311 -0.285,0.431h3.072c0.504,0 0.915,-0.41 0.915,-0.915V4.835C9.523,4.331 9.113,3.921 8.608,3.921z" fill="#000000" fill-opacity="1"/>
    <path d="M3.193,7.466c-0.267,0 -0.484,-0.217 -0.484,-0.484V4.835c0,-0.267 0.217,-0.484 0.484,-0.484h0.591V3.921H3.193c-0.504,0 -0.915,0.41 -0.915,0.915v0.472H1.816V6.51h0.463v0.473c0,0.504 0.41,0.915 0.915,0.915h0.686c0.037,-0.145 0.087,-0.288 0.15,-0.431H3.193z" fill="#000000" fill-opacity="1"/>
</svg>