<svg xmlns="http://www.w3.org/2000/svg" width="11.339" height="11.339" viewBox="0 0 11.339 11.339">
    <g>
        <clipPath id="clip_1">
            <path d="M9.567,5.669c0,-2.153 -1.745,-3.898 -3.898,-3.898c-2.153,0 -3.898,1.745 -3.898,3.898c0,2.153 1.745,3.898 3.898,3.898C7.822,9.567 9.567,7.822 9.567,5.669"/>
        </clipPath>
        <g clip-path="url(#clip_1)">
            <clipPath id="clip_2">
                <path d="M11.366,5.669c0,-3.146 -2.551,-5.696 -5.697,-5.696c-3.146,0 -5.696,2.55 -5.696,5.696c0,3.146 2.55,5.697 5.696,5.697C8.815,11.366 11.366,8.815 11.366,5.669"/>
            </clipPath>
            <path d="M5.669,-0.027c-3.146,0 -5.696,2.55 -5.696,5.696c0,2.211 1.26,4.126 3.1,5.07c-0.02,-0.021 -1.535,-1.618 -0.566,-3.406c0.632,-1.166 2.865,-0.909 2.109,-1.788c0,0 0.865,0.438 0.582,1.357c0,0 1.357,-0.543 -0.513,-2.155C3.32,3.569 5.318,2.844 5.318,2.844S3.758,3.75 6.051,4.473C8.899,5.37 7.227,7.87 7.227,7.87s0.95,-0.622 0.811,-1.612c0,0 1.131,2.21 -1.212,4.99c2.591,-0.535 4.54,-2.829 4.54,-5.579C11.366,2.523 8.815,-0.027 5.669,-0.027z" clip-path="url(#clip_2)" fill="#000000" fill-opacity="1"/>
        </g>
    </g>
</svg>