<svg xmlns="http://www.w3.org/2000/svg" width="11.339" height="11.339" viewBox="0 0 11.339 11.339">
    <g>
        <clipPath id="clip_1">
            <path d="M9.567,5.649c0,-2.153 -1.745,-3.898 -3.898,-3.898c-2.153,0 -3.898,1.745 -3.898,3.898c0,2.153 1.745,3.898 3.898,3.898C7.822,9.546 9.567,7.801 9.567,5.649"/>
        </clipPath>
        <path d="M5.667,0.777c-2.689,0 -4.869,2.18 -4.869,4.869s2.18,4.869 4.869,4.869c2.689,0 4.869,-2.18 4.869,-4.869S8.356,0.777 5.667,0.777zM3.163,7.084l0.471,-0.816l0.634,0.816H3.163zM4.067,5.518l1.6,-2.771l1.002,1.736L4.943,6.647L4.067,5.518zM5.619,7.084L7.1,5.229l1.071,1.856H5.619z" clip-path="url(#clip_1)" fill="#000000" fill-opacity="1"/>
    </g>
</svg>