<svg xmlns="http://www.w3.org/2000/svg" width="11.339" height="11.339" viewBox="0 0 11.339 11.339">
    <g>
        <clipPath id="clip_1">
            <path d="M3.41,1.984h4.707v7.37h-4.707z"/>
        </clipPath>
        <path d="M4.762,9.354h1.539V8.255H4.762V9.354zM4.835,7.435h1.393V7.04c0,-0.363 0.204,-0.717 0.829,-1.318C7.842,4.973 8.117,4.444 8.117,3.81c0,-1.162 -0.813,-1.825 -2.368,-1.825S3.41,2.648 3.41,3.81v0.717h1.51V3.738c0,-0.519 0.291,-0.717 0.8,-0.717c0.51,0 0.801,0.197 0.801,0.717c0,0.55 -0.19,0.996 -0.903,1.724C4.995,6.095 4.835,6.521 4.835,6.999V7.435z" clip-path="url(#clip_1)" fill="#000000" fill-opacity="1"/>
    </g>
</svg>