<svg xmlns="http://www.w3.org/2000/svg" width="14.17" height="14.17" viewBox="0 0 14.17 14.17">
    <path d="M12.35,6.18c-0.066,-0.912 -0.313,-1.751 -1.062,-2.337c-0.583,-0.456 -1.255,-0.547 -1.964,-0.475c-0.098,0.01 -0.239,-0.004 -0.298,-0.067c-0.431,-0.468 -0.96,-0.714 -1.573,-0.796C7.416,2.5 7.351,2.487 7.278,2.484L6.77,2.48C6.29,2.513 5.794,2.595 5.309,2.723C4.23,3.01 3.264,3.513 2.573,4.451C1.94,5.31 1.716,6.292 1.831,7.352c0.052,0.48 0.167,0.953 0.235,1.432c0.005,0.038 0.232,1.053 0.221,1.099c0.005,0.009 0.008,0.011 0.013,0.019c-0.002,0.198 0.022,0.407 0.113,0.634c0,0 0.561,1.479 2.259,1.087c0,0 0.593,-0.069 1.554,-0.704c0,0 0.357,-0.295 0.7,-0.298c0.343,0.002 0.7,0.298 0.7,0.298c0.961,0.634 1.554,0.704 1.554,0.704c1.698,0.392 2.259,-1.087 2.259,-1.087c0.064,-0.159 0.099,-0.31 0.115,-0.455c0,0 0.001,0 0.002,-0.001c0.004,-0.025 0.538,-1.391 0.545,-1.419C12.315,7.849 12.41,7.019 12.35,6.18zM4.582,10.404c-0.76,0 -1.375,-0.312 -1.375,-0.697s0.616,-0.697 1.375,-0.697c0.76,0 1.376,0.312 1.376,0.697S5.342,10.404 4.582,10.404zM6.927,8.306C6.06,8.261 5.61,8.091 5.61,8.091C5.372,7.998 4.249,7.707 3.244,8.333c0.102,-0.358 0.28,-0.653 0.574,-0.876c0.57,-0.432 1.25,-0.573 1.913,-0.76c0.415,-0.118 0.832,-0.232 1.241,-0.369C7.694,6.087 8.319,5.7 8.746,4.929c0.381,1.321 1.306,2.241 1.888,3.42c-1.01,-0.646 -2.151,-0.352 -2.391,-0.258C8.243,8.091 7.794,8.261 6.927,8.306zM9.284,10.404c-0.76,0 -1.375,-0.312 -1.375,-0.697s0.616,-0.697 1.375,-0.697c0.76,0 1.376,0.312 1.376,0.697S10.044,10.404 9.284,10.404z" fill="#000000" fill-opacity="1"/>
</svg>