<svg xmlns="http://www.w3.org/2000/svg" width="14.17" height="14.17" viewBox="0 0 14.17 14.17">
    <path d="M3.024,10.813c0,0 0.094,-2.326 0.625,-3.922c0,0 0.469,-0.734 1.281,-0.422c0,0 1.222,0.226 1.784,1.491c0,0 0.259,0.683 -0.644,0.727c0,0 1.188,0.281 1.609,-0.703c0,0 0.453,-0.891 -0.484,-1.516c0,0 1.375,0.337 2.141,-0.219c0,0 1.219,0.094 1.406,0.922c0,0 0.312,1.125 0.422,3.656c0,0 0.719,-1.578 0.781,-3.625c0,0 0.094,-3.016 -1.844,-3.25c0,0 0.875,-1.516 -3.328,-1.516c0,0 -3.266,-0.281 -4.328,2.875c0,0 -0.5,1.469 0,3.859C2.446,9.172 2.743,10.391 3.024,10.813z" fill="#000000" fill-opacity="1"/>
</svg>