<svg xmlns="http://www.w3.org/2000/svg" width="11.339" height="11.339" viewBox="0 0 11.339 11.339">
    <g>
        <clipPath id="clip_1">
            <path d="M1.561,0.818h8.217v9.071h-8.217z"/>
        </clipPath>
        <path d="M8.526,7.483c-0.059,-0.123 -0.369,-0.751 -0.645,-1.04c-0.17,-0.179 -0.41,-0.307 -0.643,-0.431C7.092,5.935 6.93,5.849 6.83,5.77C6.771,5.655 6.657,5.427 6.558,5.211l0.613,-0.545l0.226,-0.201L7.304,4.178L6.925,3.004L6.762,2.5L6.59,2.583C6.449,2.243 6.296,1.901 6.286,1.88L6.147,1.571L5.811,1.61C5.361,1.661 4.626,1.867 4.595,1.875L4.554,1.887L4.516,1.906C4.127,2.098 3.778,2.328 3.48,2.59C3.25,2.792 3.133,2.942 3.12,2.959L3.047,3.055L3.03,3.174C2.99,3.448 3.043,3.833 3.173,4.202C3.27,4.48 3.441,4.832 3.718,5.026c0.14,0.349 0.237,0.591 0.238,0.593l0.042,0.103l0.083,0.073l0.195,0.17C4.282,5.98 4.288,5.994 4.294,6.009C4.178,6.721 4.188,7.324 4.188,7.324L4.65,6.848C4.678,6.91 4.706,6.971 4.735,7.031c-0.162,0.81 -0.149,1.552 -0.149,1.552l0.612,-0.63c0.034,0.065 0.068,0.127 0.101,0.188C5.093,9.024 5.108,9.889 5.108,9.889l0.749,-0.772l0.234,0.382L6.488,9.25l1.867,-1.173l0.351,-0.22L8.526,7.483zM6.261,3.004C6.133,3.067 5.918,3.17 5.652,3.281c-0.15,-0.23 -0.207,-0.55 -0.22,-0.655l0.3,-0.537C5.778,2.082 5.823,2.074 5.864,2.07C5.864,2.07 6.107,2.612 6.261,3.004zM5.197,2.612c0.002,0.02 0.041,0.435 0.232,0.758C5.352,3.399 5.273,3.428 5.19,3.457L4.941,3.486C4.797,3.247 4.75,2.955 4.74,2.859l0.355,-0.635C5.201,2.197 5.317,2.17 5.436,2.145L5.195,2.576L5.197,2.612zM3.833,3.123c0.001,0.022 0.028,0.348 0.172,0.719L3.746,3.83C3.679,3.583 3.663,3.396 3.663,3.396l0.168,-0.3L3.833,3.123zM4.721,2.321c0,0 0.027,-0.008 0.065,-0.018L4.504,2.806L4.506,2.84c0.001,0.018 0.025,0.39 0.202,0.718L4.356,3.753c-0.166,-0.3 -0.211,-0.661 -0.211,-0.661l0.369,-0.66C4.581,2.395 4.647,2.358 4.721,2.321zM7.191,8.261L6.445,7.136L5.988,6.029l-0.335,-0.85h0l0,0C5.345,5.083 5.124,4.777 5.04,4.644c0.152,-0.182 0.345,-0.318 0.399,-0.355c0.116,-0.003 0.24,-0.015 0.373,-0.047l0.521,-0.435L6.181,3.632L5.73,4.023C5.469,4.08 5.238,4.059 5.083,4.03L5.082,4.028L5.079,4.029c-0.06,-0.011 -0.11,-0.023 -0.142,-0.033L4.861,3.808C5.685,3.57 6.4,3.194 6.485,3.149L6.864,4.32L6.002,5.087c0.035,0.092 0.083,0.203 0.135,0.316c0.145,0.316 0.32,0.654 0.32,0.654c0.275,0.275 0.85,0.455 1.089,0.706s0.563,0.922 0.563,0.922L7.191,8.261z" clip-path="url(#clip_1)" fill="#1d1d1b"/>
    </g>
    <g>
        <clipPath id="clip_1">
            <path d="M1.561,0.818h8.217v9.071h-8.217z"/>
        </clipPath>
        <path d="M12.397,9.851l1.357,-3.346l-1.756,0.456l1.301,-1.29l-2.319,-0.455l2.195,-0.464l-0.986,-1.32l1.412,0.629L13.07,2.709l1.188,0.873L14.2,0.832l0.862,2.526l0.601,-1.581l0.147,1.767l0.989,-0.984l-0.29,1.383l1.557,-0.826l-1.097,1.433l2.713,-0.656l-2.629,1.5l1.705,1.074l-1.838,-0.196l1.194,2.417l-2.006,-1.989l-0.218,2.076l-0.707,-1.579L14.47,8.732l-0.12,-1.376L12.397,9.851zM14.324,6.007l-0.7,1.725l0.99,-1.264l0.084,0.965l0.489,-1.055l0.495,1.106l0.16,-1.524l1.062,1.054L16.34,5.87l0.995,0.106L16.39,5.381l1.035,-0.591l-1.312,0.317l0.734,-0.958l-0.821,0.436l0.206,-0.981l-0.701,0.697l-0.083,-1l-0.403,1.06l-0.459,-1.345l0.026,1.25l-0.795,-0.584l0.405,1.028l-0.98,-0.436l0.524,0.701l-1.085,0.23l1.312,0.258l-0.862,0.854L14.324,6.007z" clip-path="url(#clip_1)" fill="#1d1d1b"/>
    </g>
</svg>