<svg xmlns="http://www.w3.org/2000/svg" width="11.339" height="11.339" viewBox="0 0 11.339 11.339">
    <path d="M9.826,5.33H9.158c-0.16,-1.663 -1.487,-2.99 -3.15,-3.15V1.511c0,-0.187 -0.152,-0.338 -0.338,-0.338c-0.187,0 -0.339,0.151 -0.339,0.338V2.18c-1.663,0.161 -2.99,1.487 -3.15,3.15h-0.67c-0.187,0 -0.338,0.152 -0.338,0.339c0,0.186 0.151,0.338 0.338,0.338H2.18c0.161,1.663 1.487,2.991 3.15,3.15v0.669c0,0.187 0.152,0.339 0.339,0.339c0.186,0 0.338,-0.152 0.338,-0.339V9.157c1.663,-0.16 2.991,-1.487 3.15,-3.15h0.669c0.187,0 0.339,-0.152 0.339,-0.338C10.166,5.482 10.014,5.33 9.826,5.33M8.476,5.33H7.442c-0.139,-0.724 -0.71,-1.296 -1.435,-1.435V2.861C7.297,3.016 8.321,4.04 8.476,5.33M5.33,2.861v1.034C4.606,4.034 4.034,4.606 3.896,5.33H2.862C3.017,4.04 4.041,3.016 5.33,2.861M2.862,6.007h1.034c0.138,0.725 0.71,1.297 1.434,1.434v1.034C4.041,8.32 3.017,7.296 2.862,6.007M6.007,8.475V7.441c0.725,-0.138 1.296,-0.71 1.434,-1.435h1.034C8.321,7.296 7.297,8.32 6.007,8.475" fill="#ffd400"/>
</svg>