<svg xmlns="http://www.w3.org/2000/svg" width="11.339" height="11.339" viewBox="0 0 11.339 11.339">
    <path d="M5.669,8.65c-1.63,0 -2.956,-1.337 -2.956,-2.981s1.326,-2.981 2.956,-2.981v2.981h2.957C8.626,7.313 7.3,8.65 5.669,8.65M8.383,2.933C8.379,2.929 8.375,2.925 8.371,2.921C8.263,2.813 8.148,2.712 8.028,2.618C7.979,2.579 7.929,2.542 7.879,2.506C7.706,2.384 7.525,2.274 7.333,2.181C6.83,1.937 6.265,1.8 5.669,1.8c-2.119,0 -3.837,1.732 -3.837,3.869S3.55,9.538 5.669,9.538c2.12,0 3.838,-1.732 3.838,-3.869C9.507,4.601 9.077,3.633 8.383,2.933" fill="#000000" fill-opacity="1"/>
</svg>