<svg xmlns="http://www.w3.org/2000/svg" width="11.339" height="11.339" viewBox="0 0 11.339 11.339">
    <g>
        <clipPath id="clip_1">
            <path d="M4.118,1.238h3.102v8.973h-3.102z"/>
        </clipPath>
        <path d="M4.315,8.63h2.71c0.09,0 0.15,-0.05 0.15,-0.126V4.737c0,-0.076 -0.06,-0.126 -0.15,-0.126h-2.71c-0.09,0 -0.151,0.05 -0.151,0.126v3.768C4.164,8.58 4.225,8.63 4.315,8.63" clip-path="url(#clip_1)" fill="#ffd400"/>
    </g>
    <g>
        <clipPath id="clip_1">
            <path d="M4.118,1.238h3.102v8.973h-3.102z"/>
        </clipPath>
        <path d="M7.024,9.216h-2.71c-0.115,0 -0.195,0.081 -0.195,0.196v0.602c0,0.115 0.08,0.195 0.195,0.195h2.71c0.115,0 0.196,-0.08 0.196,-0.195V9.412C7.221,9.297 7.14,9.216 7.024,9.216" clip-path="url(#clip_1)" fill="#ffd400"/>
    </g>
    <g>
        <clipPath id="clip_1">
            <path d="M4.118,1.238h3.102v8.973h-3.102z"/>
        </clipPath>
        <path d="M4.339,4.127h2.662c0.099,0 0.166,-0.05 0.166,-0.126V3.374c0,-0.817 -0.516,-1.607 -1.397,-2.111c-0.068,-0.025 -0.134,-0.025 -0.2,0c-0.882,0.501 -1.398,1.293 -1.398,2.11v0.628C4.172,4.077 4.239,4.127 4.339,4.127" clip-path="url(#clip_1)" fill="#ffd400"/>
    </g>
</svg>