<svg xmlns="http://www.w3.org/2000/svg" width="11.339" height="11.339" viewBox="0 0 11.339 11.339">
    <path d="M9.826,5.375H9.158c-0.16,-1.663 -1.487,-2.99 -3.15,-3.15V1.556c0,-0.187 -0.152,-0.338 -0.338,-0.338c-0.187,0 -0.339,0.151 -0.339,0.338v0.669c-1.663,0.161 -2.99,1.487 -3.15,3.15H1.511c-0.187,0 -0.338,0.152 -0.338,0.339c0,0.186 0.151,0.338 0.338,0.338H2.18c0.161,1.663 1.487,2.991 3.15,3.15v0.669c0,0.187 0.152,0.339 0.339,0.339c0.186,0 0.338,-0.152 0.338,-0.339V9.202c1.663,-0.16 2.991,-1.487 3.15,-3.15h0.669c0.187,0 0.339,-0.152 0.339,-0.338C10.166,5.527 10.014,5.375 9.826,5.375M8.476,5.375H7.442C7.303,4.651 6.732,4.079 6.007,3.94V2.906C7.297,3.061 8.321,4.085 8.476,5.375M5.33,2.906V3.94C4.606,4.079 4.034,4.651 3.896,5.375H2.862C3.017,4.085 4.041,3.061 5.33,2.906M2.862,6.052h1.034C4.034,6.777 4.606,7.349 5.33,7.486V8.52C4.041,8.365 3.017,7.341 2.862,6.052M6.007,8.52V7.486c0.725,-0.138 1.296,-0.71 1.434,-1.435h1.034C8.321,7.341 7.297,8.365 6.007,8.52" fill="#ffd400" fill-opacity="1"/>
</svg>
