<svg xmlns="http://www.w3.org/2000/svg" width="11.339" height="11.339" viewBox="0 0 11.339 11.339">
    <path d="M8.784,4.838c-0.092,-2.909 -2.643,-3.241 -3.115,-3.23c-0.472,-0.011 -3.023,0.321 -3.115,3.23C2.47,7.504 4.139,8.755 4.139,8.755c0.51,0.392 1.312,0.81 1.509,0.899h0.043c0.197,-0.09 0.999,-0.507 1.509,-0.899C7.199,8.755 8.869,7.504 8.784,4.838zM4.899,5.678c0,0 -0.459,0.111 -0.952,-0.243c0,0 -0.599,-0.412 -0.369,-0.807c0,0 0.259,-0.402 0.499,-0.387c0,0 0.069,0.003 0.178,0.045c-0.352,-0.287 -0.805,-0.5 -1.35,-0.442c0,0 0.571,-0.402 1.378,0.181c0.259,0.187 0.556,0.543 0.74,1.022c0.03,0.062 0.098,0.213 0.107,0.352C5.13,5.405 5.131,5.41 5.132,5.415c0,0 -0.001,-0.003 -0.003,-0.007C5.136,5.541 5.088,5.661 4.899,5.678zM5.686,8.595c0,0 -0.563,-0.404 -0.553,-1.09c0,0 0.166,-0.38 0.553,-0.38c0.387,0 0.553,0.38 0.553,0.38C6.249,8.191 5.686,8.595 5.686,8.595zM7.032,4.286C7.141,4.244 7.21,4.241 7.21,4.241c0.24,-0.016 0.499,0.387 0.499,0.387c0.229,0.396 -0.369,0.807 -0.369,0.807C6.846,5.789 6.387,5.678 6.387,5.678c-0.189,-0.016 -0.237,-0.136 -0.23,-0.27C6.154,5.412 6.153,5.415 6.153,5.415c0.001,-0.005 0.003,-0.01 0.004,-0.016c0.01,-0.139 0.077,-0.29 0.107,-0.352c0.184,-0.48 0.481,-0.835 0.74,-1.022c0.807,-0.583 1.378,-0.181 1.378,-0.181C7.837,3.786 7.384,3.999 7.032,4.286z" fill="#000000" fill-opacity="1"/>
</svg>