<svg xmlns="http://www.w3.org/2000/svg" width="11.339" height="11.339" viewBox="0 0 11.339 11.339">
    <path d="M8.402,6.07c0.01,-1.198 0.033,-2.36 0.078,-3.585C8.237,2.601 8.048,2.611 7.867,2.518C7.493,3.953 7.147,5.26 6.778,6.603c0.158,-1.211 0.327,-2.388 0.526,-3.651C7.081,3.06 6.9,3.068 6.74,2.976C6.634,3.656 6.558,4.211 6.493,4.763C6.275,4.791 6.087,4.788 5.886,4.756c0.086,-0.54 0.161,-1.085 0.241,-1.755C5.94,3.108 5.771,3.116 5.565,3.025c-0.18,1.546 -0.371,2.96 -0.604,4.482c-0.011,-1.242 -0.004,-2.416 0.016,-3.67C4.747,3.935 4.56,3.937 4.367,3.843C4.022,5.127 3.701,6.294 3.358,7.488c0.134,-1.061 0.279,-2.096 0.45,-3.204C3.58,4.372 3.41,4.37 3.25,4.276C3.157,4.89 3.091,5.389 3.036,5.884C2.82,5.898 2.634,5.885 2.434,5.842C2.511,5.36 2.575,4.871 2.643,4.268C2.46,4.356 2.292,4.354 2.087,4.26C1.92,5.784 1.74,7.157 1.506,8.673c0.223,-0.05 0.386,-0.022 0.541,0.094c0.102,-0.676 0.177,-1.242 0.241,-1.82c0.204,0.007 0.389,0.027 0.597,0.065C2.796,7.599 2.719,8.177 2.637,8.87C2.816,8.812 2.981,8.841 3.18,8.965c0.019,-0.167 0.039,-0.327 0.058,-0.491C3.378,8.465 3.498,8.5 3.62,8.585C3.691,8.247 3.76,8 3.81,7.813c0.21,-0.035 0.4,-0.012 0.621,0.076c-0.02,0.197 -0.028,0.453 -0.023,0.814c0.176,-0.067 0.345,-0.041 0.568,0.085C4.972,8.497 4.969,8.217 4.966,7.935c0.189,-0.047 0.336,-0.025 0.473,0.08c0.076,-0.497 0.14,-0.94 0.196,-1.368c0.029,-0.223 0.056,-0.441 0.082,-0.66C5.923,5.979 6.11,5.988 6.32,6.017c-0.101,0.651 -0.19,1.294 -0.285,2.066c0.182,-0.08 0.358,-0.06 0.548,0.063c0.019,-0.157 0.038,-0.308 0.057,-0.463c0.144,-0.019 0.268,0.013 0.385,0.1c0.086,-0.377 0.159,-0.648 0.207,-0.862C7.454,6.869 7.646,6.884 7.86,6.969C7.835,7.185 7.822,7.472 7.823,7.865C7.991,7.777 8.18,7.797 8.395,7.923c0,-0.175 0.001,-0.341 0.001,-0.513C8.529,7.413 8.66,7.422 8.798,7.442c0.087,-0.472 0.178,-0.897 0.294,-1.368C8.847,6.095 8.634,6.093 8.402,6.07zM4.455,6.836C4.325,6.791 4.197,6.78 4.064,6.802c0.151,-0.586 0.278,-1.117 0.429,-1.71C4.467,5.69 4.459,6.231 4.455,6.836zM7.902,5.809C7.761,5.766 7.641,5.761 7.507,5.793c0.153,-0.654 0.3,-1.245 0.463,-1.905C7.942,4.547 7.915,5.143 7.902,5.809z" fill="#000000" fill-opacity="1"/>
    <path d="M9.199,1.961C9.116,2.439 9.032,2.83 8.931,3.217C8.812,4.06 8.703,4.842 8.541,5.741c0.187,-0.075 0.344,-0.074 0.493,0.001c0.231,-0.905 0.463,-1.704 0.703,-2.558c0.071,-0.391 0.156,-0.788 0.273,-1.274C9.718,2.002 9.466,2.018 9.199,1.961z" fill="#000000" fill-opacity="1"/>
</svg>