<?xml version="1.0" encoding="utf-8"?>
<!-- Generator: Adobe Illustrator 17.0.0, SVG Export Plug-In . SVG Version: 6.00 Build 0)  -->
<!DOCTYPE svg PUBLIC "-//W3C//DTD SVG 1.1//EN" "http://www.w3.org/Graphics/SVG/1.1/DTD/svg11.dtd">
<svg version="1.1" id="Capa_1" xmlns="http://www.w3.org/2000/svg" xmlns:xlink="http://www.w3.org/1999/xlink" x="0px" y="0px"
	 width="11.339px" height="11.339px" viewBox="0 0 11.339 11.339" enable-background="new 0 0 11.339 11.339" xml:space="preserve">
<path d="M9.213,5.669L7.57,3.335l0,0L5.669,0.634L4.027,2.968l0,0L2.126,5.669l1.642,2.334l0,0l1.901,2.701l0.173-0.246L7.57,8.004
	l0,0L9.213,5.669z M5.669,1.369l1.384,1.967L6.228,4.509L5.669,5.302l0,0l0,0L4.285,3.335L5.669,1.369z M5.669,9.97L4.285,8.004
	l0.572-0.812l0.812-1.154l0.732,1.04l0.652,0.927L5.669,9.97z M5.928,5.669L6.518,4.83l0.794-1.128l1.384,1.967L7.312,7.636
	L5.928,5.669z"/>
</svg>
