<?xml version="1.0" encoding="utf-8"?>
<!-- Generator: Adobe Illustrator 17.0.0, SVG Export Plug-In . SVG Version: 6.00 Build 0)  -->
<!DOCTYPE svg PUBLIC "-//W3C//DTD SVG 1.1//EN" "http://www.w3.org/Graphics/SVG/1.1/DTD/svg11.dtd">
<svg version="1.1" id="Capa_1" xmlns="http://www.w3.org/2000/svg" xmlns:xlink="http://www.w3.org/1999/xlink" x="0px" y="0px"
	 width="11.339px" height="11.339px" viewBox="0 0 11.339 11.339" enable-background="new 0 0 11.339 11.339" xml:space="preserve">
<g>
	<g>
		<path d="M9.217,5.472C8.96,4.948,8.576,4.525,8.184,4.104C7.493,3.363,6.811,2.612,6.128,1.863
			C5.974,1.695,5.83,1.518,5.654,1.315c-0.039,0.059-0.06,0.096-0.087,0.129c-0.73,0.913-1.541,1.753-2.351,2.594
			c-0.544,0.566-1.048,1.154-1.291,1.92C1.763,6.476,1.71,6.998,1.863,7.526c0.21,0.725,0.704,1.186,1.418,1.363
			c0.537,0.133,1.035,0.06,1.467-0.22c-0.321-0.348-0.653-0.686-0.979-1.03C3.432,7.284,3.121,6.914,2.936,6.454
			c-0.187-0.468-0.258-0.95-0.092-1.436c0.211-0.617,0.835-1.024,1.491-0.973C4.899,4.09,5.401,4.479,5.572,5.011
			c0.022,0.07,0.055,0.137,0.083,0.206c0.011,0.001,0.021,0.001,0.032,0.002c0.03-0.075,0.06-0.15,0.089-0.225
			c0.187-0.492,0.539-0.821,1.048-0.922C7.41,3.955,7.916,4.148,8.287,4.629c0.327,0.423,0.35,0.906,0.246,1.41
			C8.395,6.694,8.003,7.191,7.553,7.661C7.233,7.995,6.909,8.329,6.595,8.67c0.543,0.326,1.251,0.369,1.83,0.085
			c0.571-0.28,0.945-0.722,1.08-1.331C9.656,6.746,9.521,6.093,9.217,5.472z M6.682,3.134c-0.278,0.288-0.529,0.6-0.755,0.93
			C5.841,4.19,5.761,4.321,5.673,4.456c-0.016-0.022-0.029-0.04-0.041-0.059c-0.154-0.255-0.32-0.501-0.51-0.729
			c-0.161-0.194-0.333-0.38-0.501-0.569c-0.021-0.024-0.027-0.04-0.003-0.066C4.777,2.856,4.944,2.684,5.09,2.496
			C5.261,2.278,5.415,2.047,5.574,1.82c0.033-0.047,0.062-0.098,0.098-0.156c0.023,0.039,0.039,0.068,0.057,0.097
			c0.276,0.443,0.59,0.857,0.956,1.23C6.753,3.061,6.752,3.062,6.682,3.134z M6.357,8.931c-0.177,0.197-0.35,0.397-0.516,0.603
			c0.249,0,0.497-0.001,0.747-0.003c0.056-0.001,0.146-0.04,0.158-0.08C6.76,9.406,6.716,9.329,6.677,9.283
			C6.575,9.162,6.46,9.051,6.357,8.931z M4.654,9.291c-0.04,0.033-0.083,0.123-0.066,0.151c0.027,0.045,0.103,0.087,0.159,0.087
			c0.251,0.002,0.502,0.004,0.752,0.005C5.336,9.329,5.166,9.131,4.992,8.936C4.895,9.064,4.783,9.183,4.654,9.291z"/>
	</g>
	<g>
		<path d="M5.841,9.534c-0.03,0.036-0.059,0.073-0.089,0.11C5.73,9.672,5.71,9.702,5.681,9.74C5.613,9.664,5.558,9.608,5.509,9.547
			c-0.003-0.004-0.007-0.009-0.01-0.013C5.613,9.534,5.727,9.534,5.841,9.534z"/>
	</g>
	<g>
		<path d="M5.76,7.815C5.744,7.899,5.782,7.957,5.806,8.015C5.865,8.157,5.951,8.282,6.07,8.382
			c0.015,0.013,0.032,0.046,0.026,0.055c-0.012,0.019-0.039,0.04-0.06,0.04c-0.245,0.003-0.49,0.002-0.735,0
			c-0.02,0-0.048-0.018-0.057-0.036C5.237,8.429,5.251,8.397,5.266,8.385c0.147-0.122,0.24-0.278,0.3-0.456
			C5.577,7.897,5.58,7.863,5.587,7.83c-0.005-0.002-0.01-0.004-0.015-0.005C5.531,7.861,5.491,7.9,5.447,7.932
			C5.263,8.064,5.061,8.116,4.834,8.074C4.537,8.02,4.339,7.847,4.226,7.576C4.095,7.263,4.204,6.88,4.476,6.665
			c0.127-0.101,0.272-0.16,0.434-0.172c0.044-0.003,0.053-0.021,0.035-0.058c-0.17-0.372-0.04-0.802,0.31-1.016
			c0.18-0.11,0.376-0.145,0.586-0.096c0.27,0.062,0.457,0.223,0.566,0.472c0.075,0.171,0.081,0.351,0.028,0.531
			C6.424,6.364,6.407,6.402,6.392,6.44C6.378,6.474,6.388,6.488,6.425,6.492c0.327,0.034,0.56,0.203,0.684,0.505
			C7.201,7.22,7.186,7.447,7.073,7.663C6.97,7.859,6.81,7.995,6.599,8.055C6.294,8.141,6.022,8.072,5.794,7.847
			C5.786,7.839,5.778,7.832,5.76,7.815z"/>
	</g>
</g>
</svg>
