<?xml version="1.0" encoding="utf-8"?>
<!-- Generator: Adobe Illustrator 17.0.0, SVG Export Plug-In . SVG Version: 6.00 Build 0)  -->
<!DOCTYPE svg PUBLIC "-//W3C//DTD SVG 1.1//EN" "http://www.w3.org/Graphics/SVG/1.1/DTD/svg11.dtd">
<svg version="1.1" id="Capa_1" xmlns="http://www.w3.org/2000/svg" xmlns:xlink="http://www.w3.org/1999/xlink" x="0px" y="0px"
	 width="11.339px" height="11.339px" viewBox="0 0 11.339 11.339" enable-background="new 0 0 11.339 11.339" xml:space="preserve">
<polygon points="6.222,5.269 5.118,5.269 5.099,5.269 4.894,5.457 5.153,5.512 5.225,5.39 6.115,5.39 6.186,5.512 6.445,5.457 
	6.24,5.269 "/>
<polygon points="6.011,4.627 5.978,4.627 5.361,4.627 5.328,4.627 5.67,4.991 "/>
<polygon points="4.598,5.558 4.913,5.778 4.756,5.512 4.687,5.246 "/>
<polygon points="5.935,5.567 5.888,5.567 5.844,5.567 5.495,5.567 5.451,5.567 5.404,5.567 5.36,5.567 5.086,5.869 5.408,5.737 
	5.514,5.711 5.67,5.709 5.826,5.711 5.932,5.737 6.254,5.869 5.98,5.567 "/>
<polygon points="6.584,5.512 6.427,5.778 6.742,5.558 6.652,5.246 "/>
<path d="M7.343,7.033l0.345-1.518l0.481-0.89L7.912,5.869l0.082,1.356L7.343,7.593l0.345,0.802L6.918,8.924L6.567,8.443L5.67,10.241
	L4.772,8.443l-0.35,0.481L3.652,8.396l0.344-0.802L3.345,7.225l0.082-1.356L3.171,4.624l0.482,0.89l0.344,1.518l1.673,1.41
	L7.343,7.033z M5.445,3.781L5.278,3.315L3.863,3.273L3.756,3.078l0.249-0.123L4.05,2.697L5.436,1.99L5.67,1.825L5.903,1.99
	l1.386,0.706l0.046,0.258l0.249,0.123L7.477,3.273L6.062,3.315L5.894,3.781L6.347,3.93l-0.1-0.2l0.473-0.106l0.406,0.089l-0.1,0.216
	l0.41-0.121l0.142,0.259L6.931,4.751L6.484,4.616l0.442,0.418v0.699L7.335,5.11L7.227,5.834l-0.614,0.54L6.389,6.083L6.411,6.44
	L6.305,6.555h-1.27L4.928,6.44L4.95,6.083L4.727,6.374l-0.615-0.54L4.005,5.11l0.41,0.624V5.035l0.442-0.418L4.409,4.751
	L3.761,4.068l0.142-0.259l0.41,0.121l-0.1-0.216l0.406-0.089l0.473,0.106l-0.1,0.2L5.445,3.781z M5.67,1.344l0.578,0.349
	l0.508-0.217l0.587,0.122l0.812,1.064l-0.09,0.561L7.704,2.894V2.546L5.67,1.649L3.636,2.546v0.348L3.275,3.222l-0.09-0.561
	l0.812-1.064l0.588-0.122l0.502,0.217L5.67,1.344z M5.67,0.982L3.803,1.43L2.915,2.594L2.552,8.434l3.118,2.105l3.118-2.104V8.429
	L8.426,2.622L8.424,2.594L7.537,1.43L5.67,0.982z"/>
</svg>
