<svg xmlns="http://www.w3.org/2000/svg" width="11.339" height="11.339" viewBox="0 0 11.339 11.339">
    <path d="M7.113,5.591c-0.193,-0.172 -0.41,-0.323 -0.62,-0.469L6.34,5.014c-0.278,-0.196 -0.564,-0.413 -0.744,-0.71C5.386,3.959 5.362,3.637 5.521,3.32c0.063,-0.125 0.165,-0.222 0.313,-0.294l0.004,0.077c0.005,0.105 0.011,0.21 0.022,0.314c0.045,0.402 0.161,0.74 0.355,1.034C6.49,4.866 6.861,5.1 7.351,5.167l0.309,0.042L7.438,4.99C7.314,4.867 7.237,4.732 7.196,4.562c-0.075,-0.307 -0.066,-0.637 0.03,-1.04c0.023,-0.095 0.053,-0.188 0.085,-0.284l0.046,-0.144L7.399,2.96H7.258L7.143,2.96l-0.11,0.001c-0.055,0 -0.109,-0.001 -0.163,-0.004C6.846,2.956 6.813,2.944 6.796,2.929C6.691,2.84 6.591,2.745 6.493,2.649C6.41,2.569 6.329,2.487 6.249,2.407L6.146,2.304L6.092,2.251L6.025,2.285l-0.078,0.04C5.903,2.347 5.867,2.366 5.83,2.384C5.611,2.487 5.403,2.538 5.194,2.538c-0.068,0 -0.137,-0.006 -0.206,-0.016C4.579,2.456 4.255,2.097 4.265,1.721c0.001,-0.039 0.006,-0.078 0.01,-0.121l0.008,-0.075l0.025,-0.26L4.112,1.436L4.079,1.464c-0.022,0.019 -0.04,0.034 -0.057,0.051C3.729,1.812 3.606,2.18 3.659,2.609c0.049,0.398 0.238,0.688 0.564,0.863C4.22,3.513 4.215,3.555 4.211,3.596l-0.009,0.08c-0.044,0.471 0.1,0.847 0.428,1.117C4.834,4.961 5.052,5.118 5.262,5.27c0.101,0.073 0.202,0.146 0.302,0.22C5.61,5.524 5.657,5.557 5.704,5.591c0.18,0.129 0.35,0.25 0.474,0.414C6.521,6.463 6.632,7 6.515,7.647C6.426,8.139 6.123,8.551 5.81,8.923C5.789,8.947 5.767,8.971 5.744,8.995C5.417,8.738 5.211,8.398 5.1,7.933C4.978,7.422 5.012,7.01 5.207,6.638L5.38,6.309L5.062,6.5c-0.131,0.079 -0.28,0.168 -0.4,0.287C4.604,6.844 4.565,6.905 4.539,6.968c-0.05,-0.181 -0.068,-0.363 -0.054,-0.551c0.026,-0.352 0.169,-0.638 0.439,-0.876l0.292,-0.257L4.835,5.361c-0.55,0.112 -0.993,0.498 -1.158,1.008C3.645,6.472 3.625,6.577 3.606,6.679C3.598,6.723 3.59,6.768 3.58,6.813L3.578,7.041v0.018l0.006,0.017L3.64,7.074l0.005,0.015L3.596,7.105C3.632,7.539 3.8,7.954 4.096,8.33C4.479,8.819 4.973,9.262 5.65,9.726c0.026,0.018 0.066,0.041 0.118,0.041c0.054,0 0.096,-0.026 0.122,-0.046C6.383,9.36 6.779,8.995 7.102,8.606c0.263,-0.317 0.574,-0.752 0.641,-1.298C7.827,6.616 7.615,6.039 7.113,5.591z" fill="#000000" fill-opacity="1"/>
</svg>