<?xml version="1.0" encoding="utf-8"?>
<!-- Generator: Adobe Illustrator 17.0.0, SVG Export Plug-In . SVG Version: 6.00 Build 0)  -->
<!DOCTYPE svg PUBLIC "-//W3C//DTD SVG 1.1//EN" "http://www.w3.org/Graphics/SVG/1.1/DTD/svg11.dtd">
<svg version="1.1" id="Capa_1" xmlns="http://www.w3.org/2000/svg" xmlns:xlink="http://www.w3.org/1999/xlink" x="0px" y="0px"
	 width="11.339px" height="11.339px" viewBox="0 0 11.339 11.339" enable-background="new 0 0 11.339 11.339" xml:space="preserve">
<g>
	<path d="M5.203,4.642l0.338,0.272v0.684L4.696,4.583l0.086-0.425L3.582,3.633l0.299,1.275L4.315,4.9l1.283,1.541c0,0,0,0,0,0
		l0.001,0.001C5.599,6.444,5.6,6.445,5.601,6.446c0.005,0.006,0.01,0.011,0.015,0.016c0.003,0.002,0.005,0.005,0.008,0.007
		c0.004,0.003,0.008,0.007,0.012,0.01c0.003,0.002,0.006,0.005,0.009,0.007c0.004,0.003,0.008,0.005,0.012,0.008
		c0.003,0.002,0.007,0.004,0.01,0.006c0.004,0.002,0.009,0.005,0.013,0.007c0.003,0.002,0.006,0.003,0.01,0.005
		c0.005,0.002,0.01,0.004,0.016,0.006C5.707,6.518,5.71,6.519,5.713,6.52c0.006,0.002,0.012,0.004,0.019,0.005
		c0.002,0,0.004,0.001,0.006,0.002C5.745,6.528,5.752,6.529,5.76,6.53c0.001,0,0.002,0,0.004,0.001
		C5.772,6.532,5.78,6.532,5.789,6.532c0,0,0,0,0,0c0,0,0,0,0,0c0.008,0,0.016,0,0.023-0.001c0.003,0,0.005-0.001,0.008-0.001
		c0.005-0.001,0.01-0.001,0.015-0.002c0.003-0.001,0.006-0.001,0.009-0.002c0.004-0.001,0.009-0.002,0.013-0.003
		C5.861,6.521,5.864,6.52,5.867,6.519C5.871,6.518,5.876,6.516,5.88,6.515c0.003-0.001,0.006-0.002,0.009-0.004
		c0.004-0.002,0.008-0.004,0.012-0.006c0.003-0.001,0.005-0.003,0.008-0.004c0.004-0.002,0.008-0.005,0.012-0.007
		c0.003-0.002,0.005-0.003,0.008-0.005C5.933,6.486,5.937,6.483,5.941,6.48c0.002-0.002,0.004-0.003,0.006-0.005c0,0,0,0,0,0
		C5.95,6.473,5.951,6.472,5.953,6.47c0.004-0.004,0.009-0.008,0.013-0.012c0.003-0.003,0.006-0.006,0.008-0.009
		c0.003-0.003,0.005-0.006,0.008-0.009C5.984,6.437,5.987,6.433,5.99,6.43c0.002-0.003,0.004-0.006,0.006-0.009
		C5.998,6.417,6.001,6.414,6.003,6.41C6.005,6.407,6.007,6.404,6.008,6.4C6.01,6.397,6.012,6.393,6.014,6.389
		c0.002-0.004,0.004-0.007,0.005-0.011c0.001-0.003,0.002-0.007,0.004-0.01C6.024,6.364,6.026,6.36,6.027,6.355
		c0.001-0.003,0.002-0.007,0.003-0.01c0.001-0.004,0.002-0.009,0.003-0.014C6.033,6.328,6.034,6.324,6.034,6.32
		c0.001-0.004,0.001-0.008,0.002-0.012c0.001-0.006,0.001-0.011,0.001-0.017c0-0.002,0-0.005,0-0.007V6.283c0,0,0,0,0,0V4.914
		l0.338-0.272L5.789,3.471L5.203,4.642z"/>
	<path d="M9.26,4.152C9.064,3.688,8.783,3.271,8.426,2.913C8.068,2.556,7.651,2.275,7.187,2.079
		C6.706,1.875,6.195,1.772,5.669,1.772S4.633,1.875,4.152,2.079C3.688,2.275,3.271,2.556,2.913,2.913S2.275,3.688,2.078,4.152
		C1.875,4.633,1.772,5.144,1.772,5.67c0,0.526,0.103,1.036,0.307,1.517c0.196,0.464,0.477,0.881,0.835,1.239
		c0.358,0.358,0.774,0.639,1.239,0.835c0.481,0.203,0.992,0.307,1.517,0.307s1.036-0.103,1.517-0.307
		c0.464-0.196,0.881-0.477,1.239-0.835C8.783,8.068,9.064,7.651,9.26,7.187C9.464,6.706,9.567,6.195,9.567,5.67
		C9.567,5.144,9.464,4.633,9.26,4.152z M5.669,8.74c-1.696,0-3.071-1.375-3.071-3.071s1.375-3.071,3.071-3.071S8.74,3.974,8.74,5.67
		S7.365,8.74,5.669,8.74z"/>
</g>
</svg>
