<svg xmlns="http://www.w3.org/2000/svg" width="11.339" height="11.339" viewBox="0 0 11.339 11.339">
    <path d="M1.166,2.567L1.23,2.615c0.052,0.054 0.126,0.179 0.126,0.179L1.4,2.932l0.028,0.144l0.033,0.147l0.046,0.138L1.567,3.49l0.072,0.12l0.084,0.111L1.82,3.824L1.928,3.92l0.12,0.088l0.119,0.05l0.112,0.057L2.382,4.18l0.093,0.076l0.082,0.087l0.069,0.101L2.68,4.559l0.039,0.132l0.043,0.136l0.065,0.125L2.91,5.066L3.007,5.17l0.108,0.096c0.039,0.037 0.058,0.057 0.058,0.057c-0.051,0.035 -0.08,0.033 -0.08,0.033C3.047,5.351 3.03,5.346 3.03,5.346c-0.052,-0.013 -0.155,-0.02 -0.155,-0.02L2.791,5.329L2.725,5.345C2.676,5.374 2.641,5.419 2.641,5.419L2.619,5.482L2.608,5.563L2.606,5.666l0.01,0.317l0.032,0.313l0.03,0.154L2.72,6.602l0.058,0.149l0.076,0.147l0.052,0.078l0.058,0.069l0.064,0.059l0.07,0.048l0.075,0.035l0.081,0.022l0.085,0.008l0.09,-0.008C3.466,7.201 3.498,7.19 3.498,7.19c0.045,-0.043 0.057,-0.08 0.057,-0.08c0.011,-0.046 0.018,-0.069 0.018,-0.069c0.018,-0.043 0.046,-0.097 0.046,-0.097c0.025,-0.046 0.049,-0.086 0.049,-0.086C3.69,6.826 3.713,6.799 3.713,6.799c0.044,-0.033 0.067,-0.04 0.067,-0.04c0.05,0.004 0.077,0.015 0.077,0.015c0.03,0.017 0.062,0.04 0.062,0.04c0.036,0.029 0.075,0.063 0.075,0.063c0.043,0.04 0.102,0.099 0.102,0.099l0.056,0.062L4.206,7.1l0.053,0.064l0.053,0.063L4.33,7.3l0.015,0.073l0.01,0.074l0.005,0.075L4.358,7.597l0.001,0.11l0.014,0.107l0.026,0.104L4.434,8.02l0.045,0.1c0.03,0.045 0.045,0.068 0.045,0.068c0.03,0.045 0.054,0.064 0.054,0.064c0.029,0.048 0.038,0.074 0.038,0.074l0.052,0.101l0.044,0.075l0.022,0.08L4.729,8.715L4.7,8.87L4.689,9.024l0.005,0.154l0.018,0.154l0.03,0.153c0.051,0.054 0.103,0.119 0.103,0.119C4.9,9.65 4.955,9.678 4.955,9.678L5.013,9.69l0.059,-0.004l0.061,-0.019l0.062,-0.033l0.064,-0.045l0.013,-0.094l0.01,-0.093L5.28,9.309L5.256,9.22L5.204,9.135C5.179,9.093 5.173,9.053 5.173,9.053c0.009,-0.037 0.027,-0.072 0.027,-0.072c0.024,-0.032 0.057,-0.057 0.057,-0.057c0.03,-0.001 0.058,0.013 0.058,0.013c0.028,0.021 0.058,0.04 0.058,0.04l0.176,0.066l0.088,0.017c0.033,0.002 0.066,0 0.066,0L5.79,9.043l0.176,-0.066c0.029,-0.019 0.057,-0.04 0.057,-0.04c0.028,-0.014 0.058,-0.013 0.058,-0.013c0.032,0.025 0.057,0.057 0.057,0.057c0.019,0.035 0.027,0.072 0.027,0.072c-0.006,0.04 -0.031,0.081 -0.031,0.081L6.082,9.22L6.059,9.309L6.056,9.401l0.01,0.093l0.013,0.094l0.064,0.045l0.062,0.033l0.061,0.019L6.325,9.69l0.058,-0.011L6.439,9.65c0.054,-0.046 0.106,-0.111 0.106,-0.111c0.051,-0.054 0.081,-0.208 0.081,-0.208l0.018,-0.154l0.005,-0.154L6.638,8.87L6.61,8.715L6.605,8.582l0.022,-0.08l0.044,-0.075l0.052,-0.101c0.022,-0.052 0.038,-0.074 0.038,-0.074C6.8,8.211 6.815,8.188 6.815,8.188C6.845,8.143 6.859,8.12 6.859,8.12l0.045,-0.1l0.036,-0.102l0.026,-0.104L6.98,7.707l0,-0.11L6.979,7.522l0.005,-0.075l0.01,-0.074L7.008,7.3l0.019,-0.073L7.08,7.164L7.133,7.1l0.053,-0.063l0.056,-0.062l0.059,-0.059c0.043,-0.04 0.082,-0.074 0.082,-0.074c0.036,-0.029 0.068,-0.051 0.068,-0.051c0.03,-0.017 0.057,-0.028 0.057,-0.028c0.05,-0.004 0.073,0.003 0.073,0.003c0.044,0.033 0.067,0.059 0.067,0.059c0.023,0.033 0.047,0.072 0.047,0.072C7.72,6.944 7.748,6.997 7.748,6.997c0.018,0.043 0.026,0.066 0.026,0.066c0.011,0.046 0.023,0.083 0.023,0.083C7.841,7.19 7.873,7.201 7.873,7.201c0.037,0.008 0.127,0.015 0.127,0.015l0.085,-0.008l0.081,-0.022L8.24,7.151l0.07,-0.048l0.064,-0.059l0.058,-0.069l0.052,-0.078L8.56,6.751l0.058,-0.149L8.661,6.45l0.03,-0.154l0.032,-0.313l0.01,-0.317L8.731,5.563L8.72,5.482L8.698,5.419C8.663,5.374 8.614,5.345 8.614,5.345L8.548,5.329L8.464,5.326L8.361,5.333C8.309,5.346 8.292,5.351 8.292,5.351C8.245,5.357 8.216,5.359 8.216,5.359C8.187,5.361 8.158,5.362 8.158,5.362c0.008,-0.038 0.026,-0.058 0.026,-0.058C8.224,5.266 8.332,5.17 8.332,5.17l0.097,-0.104l0.083,-0.114l0.065,-0.125l0.043,-0.136l0.039,-0.132l0.055,-0.116l0.069,-0.101l0.082,-0.087L8.956,4.18L9.06,4.115l0.112,-0.057l0.119,-0.05l0.12,-0.088l0.108,-0.096l0.096,-0.103L9.7,3.609l0.072,-0.12l0.059,-0.129l0.046,-0.138l0.033,-0.147l0.028,-0.144l0.044,-0.139l0.073,-0.125c0.052,-0.054 0.118,-0.101 0.118,-0.101l0.068,-0.151l0.031,-0.078l0.023,-0.078l0.012,-0.077l-0.004,-0.075L10.28,2.037c-0.02,-0.035 -0.047,-0.069 -0.047,-0.069c-0.031,-0.029 -0.062,-0.051 -0.062,-0.051c-0.032,-0.015 -0.064,-0.023 -0.064,-0.023l-0.066,0L9.975,1.912l-0.067,0.03L9.84,1.978L9.71,2.051c-0.044,0.051 -0.089,0.1 -0.089,0.1c-0.048,0.047 -0.099,0.09 -0.099,0.09c-0.056,0.038 -0.08,0.077 -0.08,0.077C9.414,2.352 9.381,2.38 9.381,2.38C9.343,2.401 9.299,2.415 9.299,2.415C9.253,2.444 9.206,2.469 9.206,2.469c-0.049,0.02 -0.101,0.033 -0.101,0.033C9.051,2.508 9.048,2.509 9.048,2.509C8.995,2.52 8.901,2.574 8.901,2.574l-0.098,0.04L8.701,2.642L8.596,2.66L8.491,2.67L8.388,2.685L8.294,2.714l-0.085,0.04L8.131,2.805L7.994,2.933L7.876,3.085L7.812,3.159l-0.091,0.08L7.625,3.321L7.534,3.366L7.452,3.374l-0.104,-0.01L7.29,3.366L7.23,3.376L7.173,3.4C7.141,3.437 7.128,3.484 7.128,3.484C7.125,3.537 7.126,3.591 7.126,3.591L7.128,3.65l0.002,0.059l0.002,0.059l0.002,0.059l0.002,0.059l0.023,0.079L7.158,4.04L7.139,4.111L7.106,4.179L7.066,4.245L7.007,4.312C6.961,4.36 6.924,4.388 6.924,4.388c-0.03,0.008 -0.056,-0.004 -0.056,-0.004C6.842,4.351 6.811,4.297 6.811,4.297L6.774,4.222L6.727,4.134L6.684,4.068C6.643,4.025 6.6,4.003 6.6,4.003C6.552,4.002 6.498,4.021 6.498,4.021L6.434,4.06L6.357,4.118l-0.046,0.08L6.292,4.281L6.291,4.366L6.3,4.452l0.008,0.086C6.298,4.583 6.3,4.595 6.3,4.595l0.006,0.074l0.008,0.074l0.001,0.073L6.298,4.888L6.254,4.955L6.183,5.084L6.105,5.209L6.021,5.33L5.933,5.447L5.84,5.563C5.795,5.611 5.751,5.643 5.751,5.643C5.71,5.661 5.669,5.666 5.669,5.666C5.629,5.661 5.587,5.643 5.587,5.643C5.544,5.611 5.499,5.563 5.499,5.563L5.406,5.447L5.317,5.33L5.234,5.209L5.156,5.084L5.084,4.955L5.041,4.888L5.024,4.816l0.001,-0.073l0.008,-0.074l0.006,-0.074C5.035,4.549 5.031,4.538 5.031,4.538l0.008,-0.086l0.008,-0.086L5.047,4.281L5.028,4.197l-0.046,-0.08L4.905,4.06L4.841,4.021C4.786,4.002 4.739,4.003 4.739,4.003C4.696,4.025 4.654,4.068 4.654,4.068L4.611,4.134L4.565,4.222L4.527,4.297C4.497,4.351 4.47,4.384 4.47,4.384C4.414,4.388 4.378,4.36 4.378,4.36C4.332,4.312 4.273,4.245 4.273,4.245L4.232,4.179L4.2,4.111L4.181,4.04L4.18,3.966l0.023,-0.079l0.002,-0.059l0.002,-0.059l0.002,-0.059L4.211,3.65l0.001,-0.059c0.001,-0.054 -0.001,-0.106 -0.001,-0.106C4.197,3.437 4.165,3.4 4.165,3.4L4.109,3.376l-0.06,-0.01L3.99,3.364l-0.104,0.01L3.804,3.366L3.713,3.321L3.618,3.239l-0.091,-0.08L3.463,3.085L3.345,2.933L3.208,2.805L3.13,2.754l-0.085,-0.04L2.951,2.685L2.848,2.67L2.742,2.66L2.638,2.642L2.536,2.614l-0.099,-0.04L2.344,2.52C2.29,2.509 2.287,2.508 2.287,2.508c-0.054,-0.006 -0.106,-0.02 -0.106,-0.02c-0.049,-0.02 -0.096,-0.044 -0.096,-0.044c-0.046,-0.029 -0.09,-0.043 -0.09,-0.043C1.957,2.38 1.924,2.352 1.924,2.352C1.896,2.318 1.872,2.279 1.872,2.279C1.816,2.241 1.765,2.198 1.765,2.198C1.718,2.151 1.672,2.102 1.672,2.102C1.629,2.051 1.498,1.978 1.498,1.978L1.431,1.941l-0.067,-0.03L1.297,1.894l-0.066,0C1.199,1.903 1.167,1.917 1.167,1.917C1.136,1.939 1.105,1.968 1.105,1.968C1.079,2.002 1.058,2.037 1.058,2.037L1.035,2.109L1.031,2.184l0.012,0.077l0.023,0.078l0.031,0.078L1.166,2.567" fill="#000000" fill-opacity="1"/>
</svg>