<?xml version="1.0" encoding="utf-8"?>
<!-- Generator: Adobe Illustrator 17.0.0, SVG Export Plug-In . SVG Version: 6.00 Build 0)  -->
<!DOCTYPE svg PUBLIC "-//W3C//DTD SVG 1.1//EN" "http://www.w3.org/Graphics/SVG/1.1/DTD/svg11.dtd">
<svg version="1.1" id="Capa_1" xmlns="http://www.w3.org/2000/svg" xmlns:xlink="http://www.w3.org/1999/xlink" x="0px" y="0px"
	 width="11.339px" height="11.339px" viewBox="0 0 11.339 11.339" enable-background="new 0 0 11.339 11.339" xml:space="preserve">
<g id="Batman_Family_Logo_1_">
	<path id="Line_Art" d="M10.955,6.061c-0.252-0.384-0.686-1.018-1.1-1.549C9.846,4.492,9.738,4.141,9.678,4
		C9.589,3.989,9.483,3.987,9.379,3.986C9.31,3.947,9.267,3.896,9.211,3.842c-0.09-0.088-0.186-0.17-0.283-0.251
		C8.601,3.318,8.273,3.032,7.89,2.837c-0.002,0-0.092,0.098-0.103,0.107C7.63,3.073,7.437,3.149,7.251,3.225
		C7.119,3.28,6.984,3.327,6.849,3.37c-0.126,0.039-0.26,0.089-0.394,0.093C6.351,3.466,6.315,3.446,6.267,3.4
		C6.188,3.324,6.158,3.21,6.12,3.087C6.106,3.042,6.091,2.998,6.084,2.951c-0.019-0.11-0.035-0.222-0.065-0.329
		C5.993,2.534,5.961,2.447,5.927,2.363C5.911,2.324,5.893,2.285,5.87,2.25C5.859,2.233,5.846,2.218,5.832,2.204
		c-0.006-0.006-0.043-0.03-0.043-0.037c0,0-0.001,0.183-0.026,0.25C5.73,2.402,5.695,2.391,5.66,2.388
		C5.555,2.377,5.447,2.411,5.367,2.442c-0.01,0.004-0.019,0.008-0.028,0.011c-0.004,0.002-0.01-0.006-0.021-0.013
		C5.313,2.435,5.303,2.434,5.296,2.43C5.28,2.419,5.265,2.41,5.26,2.405C5.231,2.384,5.218,2.363,5.174,2.344
		C5.164,2.329,5.13,2.277,5.112,2.253C5.1,2.239,5.097,2.236,5.087,2.266C5.071,2.317,5.058,2.378,5.057,2.432
		C5.055,2.501,5.07,2.579,5.083,2.631c0.005,0.021,0.015,0.044,0.015,0.063c0,0.02-0.013,0.041-0.018,0.063
		c-0.03,0.112-0.031,0.253-0.015,0.379c0.007,0.054,0,0.108,0.008,0.158c0.003,0.023,0.012,0.033,0.019,0.047
		C5.095,3.35,5.098,3.359,5.098,3.375c0,0.005-0.328,0.007-0.359,0.006C4.447,3.376,4.059,3.353,3.854,3.113
		c-0.025-0.029-0.019-0.07-0.037-0.077C3.464,3.155,3.152,3.314,2.632,3.614c-0.032,0.006-0.325,0-0.438,0
		c-0.074,0.18-0.177,0.418-0.27,0.623C1.857,4.325,1.759,4.401,1.682,4.481C1.511,4.657,1.343,4.837,1.175,5.016
		c-0.188,0.199-0.369,0.404-0.53,0.626C0.549,5.772,0.392,5.964,0.34,6.119C0.313,6.201,1.094,7.613,1.163,7.713
		c0.036,0.053,0.112,0.087,0.19,0.1c0.148,0.024,8.307,0.026,8.4,0.021c0.148-0.007,0.254-0.058,0.324-0.143
		C10.194,7.545,10.999,6.237,11,6.182C11,6.15,10.976,6.102,10.955,6.061z M9.012,4.062c0.01,0.003,0.482,0.638,0.589,0.758
		C9.542,4.627,9.372,4.13,9.358,4.062c0.084-0.003,0.192,0,0.276,0.008c0.166,0.468,0.641,1.845,0.644,1.888
		c-0.096,0.007-0.382,0.008-0.405-0.004C9.855,5.945,9.463,5.37,9.421,5.325c0.043,0.162,0.16,0.565,0.184,0.633
		c-0.076,0.006-0.177,0.006-0.254,0C9.108,5.334,8.633,4.066,8.64,4.059C8.652,4.048,8.989,4.055,9.012,4.062z M7.827,4.055
		C7.95,4.058,8.126,4.054,8.239,4.066c0.033,0.032,0.74,1.574,0.88,1.895C8.953,5.968,8.797,5.959,8.629,5.957
		C8.591,5.881,8.568,5.789,8.53,5.711c-0.1-0.006-0.242-0.009-0.342-0.003c0.003,0.076,0.011,0.173,0.011,0.249
		C8.116,5.956,8.015,5.965,7.948,5.959C7.934,5.527,7.814,4.089,7.827,4.055z M6.469,3.776C6.55,3.718,6.654,3.697,6.752,3.669
		c0.099-0.028,0.195-0.067,0.291-0.096c0.196-0.059,0.363-0.161,0.526-0.247C7.54,3.362,7.495,3.382,7.455,3.412
		C7.417,3.441,7.38,3.472,7.337,3.497c-0.087,0.049-0.182,0.09-0.261,0.147c-0.06-0.005-0.099,0.033-0.147,0.051
		c-0.02,0.005-0.015-0.014-0.033-0.011C6.851,3.702,6.813,3.726,6.771,3.747C6.755,3.746,6.76,3.724,6.742,3.725
		C6.712,3.741,6.68,3.753,6.643,3.769C6.631,3.774,6.623,3.785,6.613,3.787c-0.011,0.003-0.023,0-0.033,0.004
		C6.534,3.807,6.511,3.853,6.467,3.856C6.47,3.818,6.47,3.8,6.469,3.776z M6.491,4.055c0.042,0.044,0.23,0.506,0.32,0.662
		c0.023-0.049,0.1-0.501,0.136-0.662c0.101-0.004,0.278-0.006,0.379,0.002c0.018,0.036,0.456,1.822,0.471,1.904
		C7.623,5.963,7.426,5.957,7.253,5.954C7.227,5.849,7.109,5.135,7.088,5.059C7.055,5.231,6.966,5.675,6.923,5.871
		C6.816,5.693,6.658,5.349,6.517,5.1C6.548,5.411,6.56,5.664,6.586,5.958C6.483,5.956,6.295,5.953,6.203,5.953
		c-0.017-0.142-0.16-1.867-0.149-1.895C6.056,4.055,6.06,4.053,6.064,4.051C6.201,4.053,6.343,4.057,6.491,4.055z M6.444,3.868
		c-0.002,0.018-0.003,0.05-0.026,0.051c0-0.064-0.018-0.163-0.051-0.214c-0.01-0.015-0.032-0.04-0.048-0.044
		c-0.01-0.003-0.022,0.004-0.033,0.004c-0.019,0-0.042-0.004-0.063-0.008C6.204,3.655,6.182,3.651,6.168,3.639
		C6.157,3.643,6.145,3.646,6.131,3.647c0.001-0.009,0.011-0.008,0.015-0.015c-0.037-0.008-0.069,0.02-0.103,0.026
		C6.054,3.642,6.078,3.64,6.09,3.625C6.055,3.608,6.004,3.664,5.987,3.632c-0.04,0.012-0.078,0.025-0.114,0.041
		C5.815,3.67,5.754,3.697,5.696,3.721C5.649,3.74,5.601,3.755,5.556,3.772C5.509,3.79,5.464,3.806,5.417,3.823
		c-0.023,0.009-0.046,0.02-0.07,0.026C5.322,3.856,5.295,3.854,5.27,3.86C5.231,3.87,5.146,3.893,5.145,3.882
		c0-0.015,0.017-0.015,0.033-0.015C5.197,3.858,5.219,3.85,5.24,3.843C5.282,3.828,5.326,3.815,5.358,3.79
		c0.012,0.002,0.013-0.007,0.026-0.004C5.397,3.772,5.423,3.77,5.435,3.754c0.053-0.012,0.099-0.043,0.151-0.066
		C5.672,3.65,5.754,3.609,5.847,3.573c0.046-0.017,0.094-0.038,0.14-0.048C6.073,3.508,6.16,3.53,6.256,3.54
		C6.264,3.544,6.272,3.548,6.28,3.552C6.378,3.606,6.457,3.715,6.444,3.868z M4.677,4.552C4.692,4.385,4.715,4.228,4.74,4.07
		c0.001-0.028,1.159-0.018,1.159,0C5.887,4.232,5.874,4.411,5.852,4.563C5.818,4.578,5.61,4.571,5.584,4.571
		c-0.011,0-0.102,1.069-0.145,1.384C5.288,5.956,5.105,5.957,4.953,5.947c0.001-0.114,0.102-1.304,0.1-1.387
		C4.929,4.559,4.78,4.552,4.677,4.552z M5.299,3.396c0.013,0.001,0.018,0.009,0.033,0.008C5.346,3.433,5.364,3.459,5.38,3.485
		C5.395,3.51,5.414,3.536,5.424,3.566c-0.028,0.016-0.048,0-0.077,0.008c-0.02,0.005-0.035,0.028-0.058,0.028
		c-0.008,0-0.017-0.003-0.026-0.009C5.275,3.527,5.277,3.452,5.299,3.396z M5.377,3.371c0.052-0.034,0.127-0.063,0.21-0.055
		C5.566,3.389,5.448,3.413,5.377,3.371z M5.289,3.617c0.024-0.001,0.046-0.008,0.061-0.025C5.454,3.595,5.528,3.55,5.605,3.518
		C5.632,3.508,5.666,3.485,5.693,3.5c0.024,0.013,0.026,0.059,0.018,0.099c-0.03,0.015-0.058,0.032-0.096,0.04
		c-0.01,0.001-0.01-0.008-0.011-0.015C5.596,3.627,5.596,3.639,5.594,3.647C5.58,3.65,5.586,3.633,5.575,3.632
		C5.573,3.641,5.57,3.649,5.572,3.662C5.555,3.676,5.533,3.684,5.509,3.691c-0.01-0.005-0.012-0.018-0.022-0.022
		c-0.035,0.012-0.104-0.01-0.122,0.018C5.4,3.694,5.446,3.69,5.479,3.698C5.464,3.716,5.425,3.742,5.394,3.746
		c-0.029,0.004-0.063-0.011-0.096,0C5.283,3.743,5.281,3.727,5.266,3.724C5.254,3.753,5.3,3.756,5.31,3.775
		c-0.015,0.026-0.045,0.038-0.076,0.05C5.23,3.827,5.226,3.828,5.221,3.831C5.21,3.798,5.216,3.766,5.211,3.735
		C5.201,3.683,5.164,3.64,5.166,3.592C5.198,3.603,5.247,3.619,5.289,3.617z M5.17,3.706C5.139,3.719,5.106,3.727,5.074,3.742
		C5.047,3.755,4.977,3.793,4.993,3.775c0.038-0.048,0.1-0.083,0.155-0.107C5.165,3.671,5.167,3.689,5.17,3.706z M6.403,3.566
		C6.399,3.58,6.384,3.596,6.37,3.588C6.375,3.576,6.388,3.556,6.403,3.566z M6.34,3.573C6.336,3.552,6.372,3.522,6.392,3.525
		C6.379,3.546,6.362,3.562,6.34,3.573z M6.381,3.496c0.002,0.018-0.018,0.019-0.026,0.026C6.343,3.533,6.336,3.546,6.322,3.555
		C6.32,3.551,6.319,3.548,6.315,3.547C6.329,3.525,6.353,3.494,6.381,3.496z M6.337,3.492c-0.01,0.021-0.029,0.032-0.048,0.044
		C6.286,3.525,6.293,3.513,6.304,3.505S6.327,3.49,6.337,3.492z M6.307,3.481c-0.004,0.006-0.008,0.013-0.014,0.02
		C6.28,3.516,6.262,3.527,6.241,3.514c0.011-0.02,0.031-0.031,0.041-0.051C6.291,3.468,6.293,3.481,6.307,3.481z M5.089,2.915
		C5.075,2.729,5.172,2.622,5.262,2.528C5.274,2.523,5.291,2.525,5.292,2.51C5.287,2.49,5.267,2.523,5.277,2.499
		C5.224,2.501,5.173,2.508,5.152,2.55c0.012,0.012,0.02-0.012,0.033-0.011c-0.014,0.02-0.036,0.063-0.024,0.051
		c0.014-0.013,0.051-0.047,0.031-0.022C5.171,2.596,5.148,2.627,5.134,2.646c-0.015-0.031-0.02-0.05-0.027-0.077
		C5.096,2.523,5.088,2.467,5.089,2.4c0-0.028,0.01-0.076,0.015-0.077C5.112,2.324,5.13,2.354,5.153,2.375
		c0.043,0.014,0.084,0.079,0.142,0.091C5.304,2.47,5.305,2.48,5.314,2.484c0.018-0.008,0.038-0.016,0.06-0.024
		C5.49,2.418,5.659,2.384,5.759,2.455C5.756,2.476,5.754,2.499,5.748,2.518C5.714,2.514,5.701,2.489,5.667,2.485
		C5.644,2.55,5.684,2.637,5.73,2.668c0.031-0.012,0.021-0.04,0.026-0.063c0.012-0.061,0.03-0.12,0.043-0.187
		c0.011-0.056,0.021-0.116,0.024-0.174C5.854,2.262,5.874,2.313,5.89,2.35c0.024,0.057,0.043,0.112,0.062,0.178
		c0.045,0.158,0.078,0.319,0.118,0.478c0.021,0.086,0.041,0.169,0.07,0.25c0.033,0.094,0.073,0.145,0.132,0.202
		c-0.017,0.016-0.03,0.036-0.048,0.051C6.151,3.508,6.081,3.49,6.01,3.496c-0.065,0.006-0.12,0.041-0.177,0.048
		C5.822,3.448,5.826,3.327,5.815,3.22C5.806,3.126,5.786,3.051,5.764,2.974c-0.008-0.028-0.02-0.048-0.029-0.081
		C5.727,2.88,5.706,2.882,5.712,2.856C5.708,2.851,5.7,2.851,5.69,2.852c-0.003-0.01,0.005-0.01,0.004-0.018
		C5.688,2.827,5.673,2.831,5.661,2.83C5.656,2.814,5.67,2.816,5.672,2.808c-0.01-0.008-0.023,0.005-0.037,0.004
		c-0.017,0,0.005-0.01,0-0.022C5.617,2.787,5.609,2.796,5.591,2.793C5.588,2.784,5.597,2.785,5.593,2.775
		c-0.019,0-0.024,0.013-0.041,0.015C5.557,2.784,5.557,2.776,5.56,2.771C5.546,2.764,5.534,2.787,5.516,2.789
		c0.002-0.008,0.009-0.01,0.008-0.022c-0.028,0.008-0.047,0.004-0.07,0.018c0-0.006,0.002-0.014-0.004-0.015
		C5.436,2.769,5.435,2.78,5.424,2.782C5.404,2.767,5.39,2.79,5.38,2.771C5.362,2.776,5.354,2.792,5.336,2.797
		c0-0.006,0-0.012,0-0.018c-0.02,0.01-0.026,0.033-0.051,0.037c0.002-0.012,0.014-0.013,0.015-0.026
		C5.277,2.792,5.274,2.813,5.251,2.815c0.005-0.005,0.005-0.013,0-0.018C5.222,2.812,5.209,2.843,5.178,2.856
		c0-0.009,0.006-0.011,0.004-0.022C5.159,2.842,5.153,2.867,5.137,2.881C5.132,2.879,5.13,2.877,5.13,2.87
		C5.109,2.878,5.114,2.91,5.089,2.915z M5.251,3.389C5.249,3.391,5.248,3.393,5.246,3.396C5.203,3.444,5.132,3.387,5.115,3.338
		C5.171,3.345,5.207,3.371,5.251,3.389z M4.935,3.477c0.058-0.019,0.116-0.033,0.158-0.07c0.011,0.035-0.007,0.1,0.015,0.125
		C5.06,3.517,5.015,3.536,4.979,3.551C4.943,3.566,5.023,3.52,5.012,3.522C4.97,3.518,4.936,3.553,4.894,3.562
		C4.881,3.563,4.925,3.538,4.913,3.54C4.834,3.559,4.78,3.604,4.71,3.632c-0.043,0.015,0.12-0.078,0.092-0.07
		C4.75,3.574,4.717,3.607,4.674,3.629C4.663,3.635,4.679,3.609,4.67,3.614c-0.041,0.021-0.079,0.047-0.118,0.07
		C4.54,3.692,4.545,3.672,4.534,3.676C4.464,3.71,4.395,3.747,4.331,3.794c-0.02,0.015-0.037,0.031-0.059,0.037
		c0-0.018,0.018-0.028,0.029-0.037C4.341,3.764,4.385,3.731,4.43,3.702C4.574,3.611,4.758,3.536,4.935,3.477z M3.923,5.708
		c-0.138,0.008-0.341,0.008-0.453,0c-0.028,0.035-0.101,0.21-0.125,0.247C3.264,5.964,3.13,5.958,3.059,5.948
		c0.249-0.635,0.56-1.257,0.816-1.886c0.134-0.006,0.309-0.003,0.46,0.011c0.02,0.624,0.072,1.251,0.081,1.884
		C4.255,5.959,4.092,5.956,3.93,5.947C3.931,5.866,3.928,5.764,3.923,5.708z M3.706,3.636c0.034-0.01,0.069-0.021,0.103-0.029
		C3.892,3.586,3.98,3.561,4.063,3.548C4.086,3.544,4.11,3.545,4.133,3.54c0.142-0.027,0.309-0.067,0.478-0.066
		C4.66,3.471,4.497,3.492,4.438,3.51C4.407,3.52,4.379,3.533,4.35,3.54C4.334,3.545,4.342,3.525,4.328,3.529
		C4.297,3.533,4.27,3.545,4.24,3.555C4.211,3.564,4.179,3.579,4.151,3.581c-0.006,0-0.015-0.007-0.022-0.008
		C4.078,3.568,4.036,3.614,3.986,3.61c-0.01-0.001,0.064-0.032,0.033-0.026C3.94,3.6,3.88,3.634,3.809,3.658
		C3.792,3.665,3.824,3.631,3.805,3.635C3.713,3.656,3.626,3.695,3.622,3.683C3.617,3.67,3.675,3.645,3.706,3.636z M1.641,5.093
		C1.717,4.904,1.798,4.721,1.88,4.526c0.08-0.19,0.157-0.372,0.239-0.567c0.02-0.047,0.038-0.097,0.059-0.143
		C2.2,3.77,2.226,3.719,2.248,3.683c0.003-0.002,0.006-0.007,0.011-0.007c0.089-0.006,0.194-0.003,0.314,0
		c0.211,0.004,0.402,0.013,0.532,0.099c0.191,0.127,0.224,0.39,0.148,0.588c-0.024,0.062-0.055,0.128-0.094,0.19
		C3.11,4.632,3.049,4.702,2.976,4.747C3.145,4.95,3.162,5.182,3.153,5.278c-0.02,0.217-0.174,0.406-0.349,0.525
		c-0.229,0.155-0.5,0.157-0.766,0.152C1.788,5.949,1.526,5.956,1.28,5.944C1.393,5.659,1.526,5.379,1.641,5.093z M0.894,5.95
		c0.134-0.032,0.127,0.164,0.015,0.155C0.835,6.099,0.811,5.97,0.894,5.95z M10.937,6.245c-0.118,0.211-0.882,1.417-0.894,1.432
		C9.988,7.74,9.914,7.779,9.829,7.791C9.656,7.814,1.513,7.777,1.435,7.776C1.343,7.774,1.267,7.742,1.207,7.691
		C1.14,7.635,0.443,6.204,0.435,6.171c0.003-0.003,0.007-0.005,0.011-0.008C1.13,6.165,10.723,6.19,10.948,6.201
		C10.964,6.215,10.943,6.234,10.937,6.245z M9.045,6.363C9.002,6.405,8.879,6.62,8.835,6.661C8.801,6.619,8.679,6.403,8.655,6.366
		C8.563,6.354,8.037,6.362,8.009,6.374c0.028,0.098,0.527,0.663,0.565,0.721C8.512,7.213,8.321,7.512,8.265,7.62
		C8.358,7.63,8.65,7.625,8.673,7.617C8.69,7.61,9.807,6.382,9.807,6.369C9.567,6.354,9.297,6.367,9.045,6.363z M8.644,7.566
		c-0.028,0.008-0.224,0.005-0.292,0c0.076-0.123,0.191-0.299,0.296-0.472c-0.1-0.131-0.493-0.601-0.544-0.669
		C8.129,6.418,8.466,6.411,8.62,6.426C8.694,6.531,8.753,6.66,8.832,6.76c0.051-0.047,0.202-0.285,0.239-0.342
		c0.05-0.01,0.45-0.005,0.607,0.004C9.701,6.422,8.657,7.562,8.644,7.566z M8.186,5.458C8.164,5.189,8.16,4.977,8.145,4.713
		C8.192,4.84,8.378,5.359,8.413,5.465C8.344,5.465,8.25,5.465,8.186,5.458z M7.632,7.231C7.688,7.085,7.983,6.372,7.978,6.37
		C7.892,6.351,7.493,6.351,7.356,6.359C7.335,6.362,7.032,7.4,6.981,7.618C7.153,7.629,7.889,7.621,8.07,7.621
		C8.104,7.562,8.236,7.259,8.236,7.25C8.191,7.234,7.723,7.228,7.632,7.231z M8.041,7.562c-0.078,0.013-0.88,0.004-0.986,0
		c0.011-0.09,0.288-0.962,0.35-1.148C7.45,6.401,7.818,6.407,7.889,6.421c0.003,0.04-0.313,0.798-0.338,0.872
		c0.159-0.001,0.526,0.005,0.6,0.015C8.152,7.32,8.062,7.522,8.041,7.562z M6.616,6.355C6.593,6.4,6.386,7.564,6.388,7.618
		c0.158,0.012,0.31,0.008,0.486,0.004c0.025-0.047,0.362-1.152,0.383-1.262C7.17,6.34,6.651,6.343,6.616,6.355z M6.837,7.559
		c-0.046,0.009-0.309,0.014-0.387,0c0.002-0.085,0.165-0.941,0.202-1.144C6.76,6.405,7.131,6.403,7.187,6.418
		C7.108,6.708,6.877,7.469,6.837,7.559z M5.888,6.351C5.808,6.448,5.45,6.977,5.45,6.977S5.076,6.39,5.031,6.344
		c-0.191,0-0.666-0.014-0.659,0.011c0.079,0.371,0.277,1.216,0.287,1.269c0.071,0.011,0.449,0.007,0.482,0
		C5.132,7.529,5.112,7.28,5.108,7.22C5.157,7.305,5.4,7.656,5.435,7.679c0.069-0.067,0.331-0.396,0.371-0.456
		C5.799,7.351,5.802,7.505,5.799,7.62c0.069,0.013,0.41,0.011,0.482-0.008c0.082-0.38,0.251-1.208,0.254-1.262
		C6.432,6.335,5.982,6.347,5.888,6.351z M6.226,7.566c-0.053,0.01-0.31,0.015-0.368,0C5.848,7.4,5.866,7.219,5.866,7.061
		c-0.09,0.121-0.361,0.472-0.427,0.534C5.411,7.587,5.076,7.089,5.052,7.076c0.003,0.099,0.033,0.421,0.041,0.493
		c-0.119,0.006-0.276,0.006-0.395,0C4.645,7.388,4.443,6.454,4.441,6.414c0-0.006,0.003-0.01,0.008-0.011
		c0.189,0.001,0.384-0.003,0.567,0.004c0.07,0.112,0.351,0.561,0.43,0.666C5.475,7.04,5.893,6.415,5.91,6.407
		C6.018,6.4,6.389,6.403,6.465,6.41C6.463,6.46,6.241,7.566,6.226,7.566z M5.325,3.625C5.323,3.616,5.332,3.62,5.332,3.614
		C5.349,3.617,5.361,3.64,5.351,3.658C5.334,3.655,5.334,3.635,5.325,3.625z M5.229,3.695C5.225,3.691,5.225,3.682,5.225,3.673
		c0.024,0.005,0.093-0.005,0.107,0.022C5.303,3.701,5.265,3.684,5.229,3.695z M3.183,6.359C3.179,6.361,3.176,6.364,3.176,6.37
		C3.172,6.558,3.133,7.545,3.139,7.628c0.148,0.006,0.323,0.006,0.471,0C3.638,7.58,3.629,7.495,3.661,7.452
		c0.109-0.006,0.244-0.006,0.353,0C4.043,7.503,4.07,7.57,4.102,7.625c0.106,0.013,0.469,0.012,0.504-0.008
		C4.606,7.566,4.231,6.389,4.213,6.362C3.854,6.344,3.43,6.349,3.183,6.359z M4.143,7.562c-0.038-0.064-0.07-0.117-0.096-0.165
		C3.919,7.388,3.768,7.39,3.621,7.389C3.595,7.451,3.581,7.517,3.566,7.57C3.48,7.577,3.237,7.573,3.194,7.566
		c0.005-0.35,0.025-1.103,0.041-1.144c0.157-0.008,0.64-0.021,0.935,0c0.062,0.192,0.318,0.943,0.368,1.137
		C4.481,7.575,4.21,7.573,4.143,7.562z M3.915,4.688c0.006-0.001,0.02,0.692,0,0.773c-0.082,0.017-0.248,0.012-0.32,0.004
		C3.61,5.396,3.914,4.693,3.915,4.688z M3.665,7.165c0.029,0.01,0.218,0.008,0.265-0.008C3.889,7.065,3.815,6.9,3.739,6.771
		C3.704,6.913,3.67,7.088,3.665,7.165z M3.845,7.102c-0.031,0.005-0.084,0.007-0.114,0c0.015-0.08,0.018-0.117,0.029-0.169
		C3.785,6.978,3.82,7.047,3.845,7.102z M2.986,6.358C2.587,6.356,2.111,6.355,1.719,6.351C1.714,6.354,1.71,6.357,1.708,6.362
		C1.702,6.397,2.364,7.618,2.374,7.625C2.396,7.64,2.872,7.635,2.882,7.621C2.88,7.584,2.763,7.287,2.719,7.194
		C2.803,7.192,3.026,7.19,3.019,7.175C3.01,7.123,2.936,6.936,2.914,6.893C2.896,6.878,2.695,6.889,2.594,6.888
		c-0.012-0.02-0.02-0.051-0.026-0.074c0.043-0.015,0.449-0.013,0.534-0.018C3.093,6.72,3.013,6.382,2.986,6.358z M2.558,6.945
		c0.038,0.001,0.269,0.003,0.32,0.003c0.02,0.046,0.055,0.116,0.069,0.184C2.842,7.145,2.72,7.137,2.645,7.143
		c0.035,0.088,0.135,0.348,0.165,0.426c-0.005,0.013-0.274,0.007-0.39,0.005C2.379,7.536,1.813,6.471,1.799,6.418
		c-0.002-0.007,1.129-0.02,1.148,0c0.02,0.046,0.076,0.264,0.077,0.316C2.968,6.742,2.526,6.739,2.491,6.757
		C2.494,6.793,2.532,6.904,2.558,6.945z M2.399,4.611c-0.028-0.012,0.109-0.416,0.173-0.53C2.701,4.098,2.774,4.158,2.786,4.24
		c0.01,0.071-0.01,0.142-0.037,0.188C2.713,4.491,2.648,4.547,2.58,4.582C2.526,4.609,2.458,4.624,2.399,4.611z M2.053,5.625
		c-0.02-0.012,0.171-0.534,0.237-0.704c0.166,0.015,0.268,0.267,0.199,0.458C2.421,5.569,2.286,5.64,2.053,5.625z M0.872,6.078
		C0.874,6.082,0.899,6.084,0.899,6.08c0.003-0.01,0-0.023,0.001-0.04c0.008,0.001,0.012,0.001,0.018,0.001
		c0.01,0.011,0.014,0.029,0.025,0.042c0.003,0.003,0.025-0.013,0.023-0.016C0.964,6.06,0.953,6.048,0.949,6.038
		C0.998,5.986,0.93,5.934,0.872,5.972C0.87,5.975,0.872,6.036,0.872,6.078z M0.94,6.002c0,0.022-0.038,0.019-0.038,0.013
		c0-0.008-0.001-0.018-0.001-0.027C0.9,5.981,0.938,5.981,0.94,6.002z"/>
</g>
</svg>
