<?xml version="1.0" encoding="utf-8"?>
<!-- Generator: Adobe Illustrator 17.0.0, SVG Export Plug-In . SVG Version: 6.00 Build 0)  -->
<!DOCTYPE svg PUBLIC "-//W3C//DTD SVG 1.1//EN" "http://www.w3.org/Graphics/SVG/1.1/DTD/svg11.dtd">
<svg version="1.1" id="Capa_1" xmlns="http://www.w3.org/2000/svg" xmlns:xlink="http://www.w3.org/1999/xlink" x="0px" y="0px"
	 width="11.339px" height="11.339px" viewBox="0 0 11.339 11.339" enable-background="new 0 0 11.339 11.339" xml:space="preserve">
<g>
	<path d="M5.67,1.772c-2.153,0-3.898,1.745-3.898,3.898S3.517,9.567,5.67,9.567s3.898-1.745,3.898-3.898S7.822,1.772,5.67,1.772z
		 M5.67,9.416c-2.069,0-3.747-1.677-3.747-3.747S3.6,1.923,5.67,1.923S9.416,3.6,9.416,5.669S7.739,9.416,5.67,9.416z"/>
	<path d="M8.185,8.104C8.187,8.101,8.19,8.099,8.193,8.096c0.006-0.007,0.013-0.013,0.019-0.02C8.214,8.073,8.216,8.07,8.22,8.067
		c0.007-0.007,0.013-0.014,0.019-0.02C8.241,8.045,8.243,8.042,8.245,8.04c0.007-0.007,0.013-0.014,0.02-0.022
		c0.001-0.001,0.002-0.003,0.003-0.004c0.023-0.025,0.045-0.051,0.068-0.077C8.337,7.936,8.339,7.934,8.34,7.932
		c0.006-0.007,0.012-0.014,0.018-0.021c0.003-0.003,0.005-0.006,0.008-0.01c0.006-0.007,0.011-0.013,0.016-0.02
		c0.003-0.004,0.006-0.007,0.009-0.011c0.005-0.007,0.011-0.013,0.016-0.02C8.409,7.847,8.412,7.844,8.415,7.84
		C8.42,7.833,8.425,7.827,8.43,7.821C8.433,7.817,8.437,7.813,8.44,7.809c0.005-0.007,0.01-0.013,0.015-0.02
		C8.458,7.785,8.46,7.782,8.463,7.778c0.005-0.007,0.01-0.014,0.015-0.02c0.003-0.004,0.005-0.007,0.008-0.01
		C8.492,7.74,8.497,7.733,8.502,7.726l0,0C8.515,7.708,8.528,7.69,8.54,7.672c0.002-0.003,0.004-0.006,0.006-0.008
		C8.551,7.657,8.555,7.65,8.56,7.644C8.563,7.64,8.566,7.635,8.569,7.631c0.005-0.007,0.009-0.013,0.013-0.019
		c0.003-0.005,0.006-0.009,0.009-0.014C8.595,7.592,8.6,7.586,8.604,7.579c0.003-0.005,0.006-0.01,0.009-0.014
		c0.004-0.006,0.008-0.013,0.012-0.019c0.003-0.005,0.006-0.01,0.009-0.015c0.004-0.006,0.008-0.013,0.012-0.019
		c0.003-0.005,0.006-0.01,0.009-0.015C8.659,7.49,8.662,7.484,8.666,7.478c0.003-0.005,0.006-0.01,0.009-0.015
		C8.679,7.456,8.683,7.45,8.687,7.443c0.003-0.005,0.006-0.01,0.009-0.015C8.703,7.416,8.71,7.403,8.717,7.39
		c0.003-0.005,0.006-0.01,0.008-0.015c0.004-0.006,0.007-0.013,0.01-0.019C8.738,7.351,8.741,7.346,8.744,7.34
		c0.004-0.006,0.007-0.012,0.01-0.019C8.757,7.316,8.76,7.31,8.764,7.304c0.003-0.006,0.007-0.012,0.01-0.018
		c0.003-0.006,0.006-0.012,0.009-0.017c0.003-0.006,0.006-0.012,0.01-0.018c0.003-0.006,0.006-0.012,0.009-0.018
		S8.807,7.221,8.81,7.215s0.006-0.012,0.009-0.018c0.003-0.006,0.006-0.012,0.009-0.018C8.83,7.173,8.833,7.167,8.836,7.161
		c0.003-0.006,0.006-0.012,0.009-0.018c0.003-0.007,0.006-0.014,0.009-0.02c0.003-0.006,0.005-0.011,0.008-0.016
		c0.006-0.012,0.011-0.024,0.016-0.035c0.002-0.005,0.005-0.01,0.007-0.016c0.003-0.007,0.006-0.015,0.01-0.022
		C8.895,7.028,8.897,7.022,8.9,7.017c0.003-0.007,0.006-0.014,0.009-0.02c0.003-0.006,0.005-0.012,0.007-0.018
		c0.003-0.007,0.006-0.013,0.008-0.02c0.003-0.006,0.005-0.012,0.007-0.018c0.003-0.007,0.005-0.013,0.008-0.02
		c0.003-0.006,0.005-0.012,0.007-0.018C8.947,6.896,8.95,6.89,8.952,6.883c0.002-0.006,0.005-0.012,0.007-0.018
		c0.003-0.007,0.005-0.014,0.008-0.021C8.968,6.838,8.97,6.833,8.972,6.827C8.975,6.819,8.978,6.811,8.98,6.803
		c0.002-0.005,0.004-0.01,0.005-0.015C8.99,6.777,8.993,6.766,8.997,6.754C8.998,6.75,8.999,6.746,9.001,6.742
		c0.003-0.01,0.007-0.02,0.01-0.03c0.002-0.005,0.003-0.01,0.005-0.015C9.017,6.688,9.02,6.681,9.022,6.673
		c0.002-0.006,0.004-0.011,0.005-0.017c0.002-0.008,0.005-0.015,0.007-0.023c0.002-0.006,0.004-0.012,0.005-0.018
		c0.002-0.008,0.004-0.015,0.006-0.022c0.002-0.006,0.003-0.012,0.005-0.018c0.002-0.008,0.004-0.015,0.006-0.022
		C9.057,6.548,9.058,6.542,9.06,6.536C9.062,6.528,9.064,6.52,9.066,6.513C9.067,6.507,9.069,6.502,9.07,6.496
		c0.002-0.008,0.004-0.017,0.006-0.025c0.001-0.005,0.003-0.01,0.004-0.015c0.003-0.011,0.005-0.021,0.007-0.031
		c0.001-0.003,0.002-0.006,0.002-0.009c0.003-0.013,0.006-0.027,0.009-0.04C9.098,6.371,9.099,6.367,9.1,6.362
		c0.002-0.009,0.004-0.019,0.006-0.028c0.001-0.006,0.002-0.011,0.003-0.016C9.11,6.31,9.111,6.302,9.113,6.294
		c0.001-0.006,0.002-0.012,0.003-0.017C9.117,6.268,9.119,6.26,9.12,6.252c0.001-0.006,0.002-0.012,0.003-0.018
		c0.002-0.008,0.003-0.016,0.004-0.024c0.001-0.006,0.002-0.012,0.003-0.018C9.13,6.185,9.132,6.177,9.133,6.169
		c0.001-0.006,0.002-0.012,0.003-0.017c0.001-0.009,0.003-0.017,0.004-0.026C9.139,6.121,9.14,6.116,9.141,6.111
		c0.001-0.01,0.003-0.02,0.004-0.03c0.001-0.004,0.001-0.008,0.002-0.012c0.002-0.014,0.003-0.028,0.005-0.042
		c0.001-0.003,0.001-0.006,0.001-0.009c0.001-0.011,0.002-0.022,0.003-0.033C9.155,5.98,9.156,5.975,9.156,5.97
		c0.001-0.009,0.002-0.018,0.002-0.027c0.001-0.006,0.001-0.012,0.001-0.017C9.16,5.917,9.16,5.909,9.161,5.901
		c0.001-0.006,0.001-0.012,0.001-0.018c0.001-0.008,0.001-0.017,0.002-0.025C9.164,5.852,9.164,5.846,9.165,5.84
		c0.001-0.009,0.001-0.017,0.001-0.025c0-0.006,0.001-0.012,0.001-0.018C9.167,5.789,9.167,5.78,9.167,5.771
		c0-0.006,0.001-0.011,0.001-0.017c0-0.01,0.001-0.019,0.001-0.029c0-0.005,0-0.009,0-0.014c0-0.014,0.001-0.029,0.001-0.043
		c0-0.151-0.01-0.3-0.028-0.446C9.133,5.164,9.124,5.106,9.114,5.049C9.106,5.006,9.098,4.963,9.088,4.92
		C9.081,4.888,9.074,4.857,9.066,4.825C9.06,4.8,9.054,4.776,9.047,4.752C9.04,4.724,9.031,4.696,9.023,4.668
		C9.007,4.613,8.989,4.559,8.97,4.505c-0.01-0.027-0.019-0.054-0.029-0.08C8.931,4.398,8.92,4.372,8.91,4.345
		C8.904,4.332,8.899,4.319,8.894,4.306C8.883,4.279,8.871,4.254,8.859,4.227C8.848,4.202,8.836,4.176,8.824,4.15
		C8.811,4.124,8.799,4.099,8.786,4.074C8.775,4.053,8.764,4.033,8.753,4.012c-0.005-0.009-0.01-0.018-0.014-0.026
		C8.73,3.97,8.721,3.954,8.713,3.938C8.679,3.88,8.644,3.823,8.608,3.767C8.596,3.747,8.583,3.729,8.571,3.71
		C8.563,3.698,8.555,3.687,8.547,3.675c-0.03-0.043-0.061-0.086-0.093-0.128C8.426,3.511,8.398,3.476,8.369,3.441
		C8.343,3.408,8.315,3.376,8.288,3.345C8.269,3.324,8.25,3.303,8.231,3.283S8.193,3.242,8.173,3.222
		c-0.02-0.02-0.039-0.039-0.059-0.059c-0.079-0.076-0.163-0.151-0.25-0.222c-0.033-0.026-0.066-0.052-0.1-0.077
		C7.715,2.828,7.665,2.793,7.615,2.759c-0.02-0.013-0.039-0.026-0.059-0.038C7.545,2.713,7.533,2.705,7.521,2.698
		C7.485,2.676,7.448,2.654,7.412,2.633C7.327,2.584,7.239,2.538,7.149,2.496c-0.02-0.009-0.04-0.018-0.06-0.027
		c-0.045-0.02-0.09-0.039-0.135-0.057c-0.014-0.005-0.027-0.01-0.04-0.015C6.793,2.351,6.67,2.312,6.545,2.279
		C6.419,2.247,6.29,2.221,6.159,2.203C6.13,2.199,6.101,2.196,6.071,2.192C5.94,2.177,5.805,2.169,5.669,2.169
		c-0.151,0-0.3,0.01-0.446,0.028C5.165,2.205,5.107,2.214,5.05,2.224C5.007,2.232,4.964,2.241,4.921,2.25
		C4.864,2.262,4.808,2.276,4.752,2.291C4.725,2.299,4.697,2.307,4.669,2.315C4.614,2.331,4.56,2.349,4.506,2.368
		c-0.026,0.009-0.053,0.018-0.08,0.029c-0.027,0.011-0.053,0.021-0.08,0.031C4.32,2.438,4.294,2.45,4.267,2.461
		C4.229,2.478,4.19,2.496,4.151,2.515C4.113,2.533,4.075,2.552,4.038,2.572C3.414,2.901,2.901,3.414,2.572,4.038
		c-0.02,0.037-0.039,0.075-0.058,0.114C2.496,4.19,2.478,4.228,2.461,4.268C2.449,4.294,2.439,4.32,2.428,4.346
		c-0.011,0.026-0.021,0.053-0.031,0.08s-0.02,0.053-0.029,0.08C2.348,4.56,2.33,4.615,2.314,4.67
		C2.306,4.698,2.298,4.725,2.29,4.753C2.275,4.809,2.262,4.865,2.249,4.922C2.24,4.964,2.231,5.007,2.224,5.05
		c-0.01,0.058-0.019,0.116-0.027,0.174C2.178,5.37,2.169,5.519,2.169,5.67c0,0.014,0,0.029,0.001,0.043c0,0.005,0,0.009,0,0.014
		c0,0.01,0.001,0.019,0.001,0.029c0,0.006,0.001,0.011,0.001,0.017c0,0.009,0.001,0.018,0.001,0.026
		c0,0.006,0.001,0.012,0.001,0.018c0.001,0.009,0.001,0.017,0.001,0.025c0.001,0.006,0.001,0.012,0.001,0.018
		c0.001,0.009,0.001,0.017,0.002,0.025c0.001,0.006,0.001,0.012,0.001,0.018c0.001,0.009,0.001,0.017,0.002,0.025
		c0.001,0.006,0.001,0.012,0.001,0.017C2.18,5.954,2.181,5.963,2.181,5.971c0.001,0.005,0.001,0.01,0.002,0.015
		C2.184,5.997,2.185,6.009,2.186,6.02c0.001,0.003,0.001,0.006,0.001,0.009C2.188,6.042,2.19,6.056,2.191,6.07
		c0.001,0.004,0.001,0.008,0.002,0.012c0.001,0.01,0.003,0.02,0.004,0.03c0.001,0.005,0.002,0.011,0.002,0.016
		C2.199,6.136,2.2,6.145,2.202,6.153c0.001,0.006,0.002,0.012,0.003,0.017c0.001,0.008,0.003,0.016,0.004,0.024
		C2.209,6.201,2.21,6.206,2.211,6.212c0.001,0.008,0.003,0.016,0.004,0.024c0.001,0.006,0.002,0.012,0.003,0.018
		C2.219,6.262,2.22,6.27,2.222,6.278C2.223,6.284,2.224,6.29,2.225,6.295C2.226,6.303,2.228,6.312,2.229,6.32
		C2.23,6.325,2.231,6.331,2.232,6.336c0.002,0.009,0.004,0.019,0.006,0.028C2.239,6.368,2.239,6.372,2.24,6.377
		c0.003,0.014,0.006,0.027,0.009,0.04C2.249,6.42,2.25,6.423,2.251,6.426c0.003,0.011,0.005,0.021,0.007,0.031
		c0.001,0.005,0.003,0.01,0.004,0.015c0.002,0.008,0.004,0.017,0.006,0.025C2.269,6.503,2.27,6.509,2.272,6.514
		C2.274,6.522,2.276,6.53,2.277,6.537C2.279,6.543,2.28,6.549,2.282,6.555C2.284,6.563,2.286,6.57,2.288,6.577
		c0.002,0.006,0.003,0.012,0.005,0.018C2.294,6.603,2.296,6.61,2.298,6.617C2.3,6.623,2.301,6.629,2.303,6.635
		C2.305,6.642,2.308,6.65,2.31,6.658c0.002,0.006,0.004,0.011,0.005,0.017C2.318,6.682,2.32,6.69,2.322,6.698
		c0.002,0.005,0.003,0.01,0.005,0.015c0.003,0.01,0.007,0.02,0.01,0.03C2.338,6.747,2.339,6.751,2.34,6.756
		C2.344,6.768,2.348,6.779,2.351,6.79C2.353,6.795,2.355,6.8,2.356,6.805c0.003,0.008,0.005,0.016,0.008,0.023
		c0.002,0.006,0.004,0.011,0.006,0.017c0.003,0.007,0.005,0.014,0.008,0.021C2.38,6.872,2.383,6.878,2.385,6.884
		C2.387,6.891,2.39,6.898,2.392,6.905c0.002,0.006,0.005,0.012,0.007,0.018c0.003,0.007,0.005,0.013,0.008,0.02
		c0.003,0.006,0.005,0.012,0.007,0.018c0.003,0.007,0.006,0.013,0.008,0.02c0.003,0.006,0.005,0.012,0.007,0.018
		c0.003,0.007,0.006,0.014,0.009,0.02C2.44,7.024,2.442,7.03,2.444,7.035C2.447,7.043,2.45,7.05,2.453,7.057
		C2.455,7.062,2.458,7.068,2.46,7.073C2.465,7.084,2.47,7.097,2.476,7.108c0.003,0.006,0.005,0.011,0.008,0.017
		c0.003,0.007,0.006,0.013,0.009,0.02c0.003,0.006,0.006,0.012,0.009,0.018c0.003,0.006,0.006,0.012,0.009,0.019
		c0.003,0.006,0.006,0.012,0.009,0.018c0.003,0.006,0.006,0.012,0.009,0.018c0.003,0.006,0.006,0.012,0.009,0.018
		s0.006,0.012,0.009,0.018c0.003,0.006,0.006,0.012,0.01,0.018C2.557,7.277,2.56,7.283,2.563,7.288
		C2.566,7.294,2.57,7.3,2.573,7.307c0.003,0.006,0.006,0.011,0.009,0.017c0.004,0.006,0.007,0.013,0.01,0.019
		c0.003,0.006,0.006,0.011,0.009,0.016c0.004,0.006,0.007,0.013,0.011,0.019C2.614,7.382,2.617,7.386,2.62,7.391
		C2.627,7.404,2.634,7.417,2.642,7.43c0.003,0.005,0.006,0.01,0.009,0.015c0.004,0.007,0.008,0.013,0.012,0.019
		c0.003,0.005,0.006,0.01,0.009,0.015c0.004,0.007,0.008,0.013,0.012,0.019c0.003,0.005,0.006,0.01,0.009,0.015
		C2.696,7.519,2.7,7.525,2.704,7.532c0.003,0.005,0.006,0.01,0.009,0.015c0.004,0.007,0.008,0.013,0.012,0.019
		C2.728,7.57,2.731,7.575,2.734,7.58c0.004,0.007,0.009,0.013,0.013,0.019C2.75,7.604,2.753,7.608,2.756,7.613
		c0.005,0.007,0.009,0.013,0.013,0.02c0.003,0.004,0.006,0.008,0.009,0.013c0.005,0.007,0.01,0.014,0.014,0.021
		c0.002,0.003,0.004,0.005,0.006,0.008C2.815,7.699,2.834,7.724,2.852,7.75C2.854,7.753,2.857,7.756,2.86,7.76
		c0.005,0.007,0.01,0.014,0.015,0.02C2.878,7.783,2.88,7.787,2.883,7.791c0.005,0.007,0.01,0.013,0.015,0.02
		c0.003,0.004,0.006,0.008,0.009,0.012c0.005,0.007,0.01,0.013,0.015,0.02c0.003,0.004,0.006,0.008,0.009,0.011
		c0.005,0.007,0.011,0.013,0.016,0.02C2.95,7.876,2.953,7.88,2.956,7.883c0.006,0.007,0.011,0.013,0.016,0.02
		c0.003,0.003,0.005,0.006,0.008,0.01C2.986,7.92,2.991,7.927,2.997,7.934C2.999,7.935,3,7.937,3.001,7.939
		c0.022,0.026,0.045,0.052,0.068,0.077C3.07,8.017,3.071,8.018,3.072,8.019c0.007,0.007,0.013,0.015,0.02,0.022
		c0.002,0.003,0.005,0.005,0.007,0.008c0.006,0.007,0.013,0.014,0.019,0.02C3.12,8.071,3.123,8.074,3.126,8.077
		c0.006,0.007,0.013,0.013,0.019,0.02C3.147,8.099,3.15,8.102,3.153,8.105c0.007,0.007,0.013,0.013,0.019,0.02
		C3.174,8.127,3.177,8.129,3.18,8.133c0.007,0.007,0.013,0.013,0.02,0.02c0.002,0.002,0.005,0.005,0.007,0.007
		C3.213,8.166,3.22,8.173,3.228,8.18C3.229,8.181,3.23,8.182,3.231,8.183C3.265,8.217,3.3,8.249,3.336,8.281
		c0.001,0.001,0.002,0.002,0.003,0.003c0.008,0.007,0.016,0.014,0.023,0.021C3.364,8.306,3.366,8.308,3.368,8.31
		c0.008,0.007,0.015,0.013,0.023,0.02c0.002,0.002,0.005,0.004,0.007,0.006C3.405,8.342,3.413,8.348,3.42,8.355
		C3.422,8.357,3.425,8.358,3.427,8.36C3.434,8.367,3.442,8.373,3.45,8.379c0.002,0.002,0.004,0.003,0.006,0.005
		c0.008,0.007,0.017,0.014,0.025,0.02c0.001,0.001,0.002,0.001,0.002,0.002C3.53,8.443,3.579,8.48,3.629,8.516
		C3.63,8.517,3.631,8.518,3.632,8.518c0.009,0.007,0.018,0.013,0.027,0.019C3.66,8.538,3.662,8.54,3.663,8.541
		C3.672,8.547,3.681,8.553,3.69,8.559C3.691,8.56,3.693,8.561,3.695,8.562c0.009,0.006,0.018,0.012,0.027,0.018
		c0.002,0.001,0.003,0.002,0.005,0.003c0.01,0.006,0.019,0.013,0.028,0.019c0.001,0.001,0.001,0.001,0.002,0.001
		c0.062,0.04,0.126,0.079,0.19,0.116C3.947,8.719,3.948,8.72,3.949,8.72c0.01,0.006,0.02,0.011,0.03,0.017
		C3.98,8.738,3.981,8.739,3.983,8.739c0.01,0.006,0.02,0.011,0.03,0.016c0.001,0.001,0.002,0.001,0.004,0.002
		c0.011,0.006,0.021,0.011,0.031,0.017c0.001,0,0.001,0.001,0.001,0.001c0.067,0.035,0.135,0.068,0.204,0.098h0.001
		c0.011,0.005,0.022,0.01,0.033,0.015c0.001,0.001,0.002,0.001,0.003,0.001C4.3,8.893,4.311,8.898,4.322,8.902
		c0.001,0.001,0.002,0.001,0.003,0.001c0.011,0.005,0.022,0.009,0.033,0.014c0.001,0,0.001,0.001,0.001,0.001
		c0.082,0.033,0.166,0.063,0.25,0.09c0.001,0,0.001,0.001,0.002,0.001c0.012,0.004,0.023,0.007,0.035,0.011
		c0.001,0,0.002,0.001,0.003,0.001C4.659,9.023,4.671,9.026,4.683,9.03c0.001,0,0.001,0.001,0.002,0.001
		C4.77,9.055,4.858,9.077,4.946,9.096c0.001,0,0.001,0,0.001,0c0.012,0.003,0.024,0.005,0.036,0.008
		c0.001,0,0.002,0.001,0.003,0.001C4.998,9.106,5.01,9.108,5.022,9.111c0.001,0,0.002,0.001,0.003,0.001
		C5.233,9.15,5.448,9.171,5.668,9.171s0.434-0.02,0.643-0.059c0.001,0,0.002-0.001,0.003-0.001c0.012-0.002,0.024-0.005,0.036-0.007
		c0.001,0,0.002-0.001,0.003-0.001c0.012-0.003,0.024-0.005,0.036-0.008c0.001,0,0.001,0,0.001,0
		c0.088-0.019,0.176-0.04,0.261-0.066c0.001,0,0.001-0.001,0.002-0.001c0.012-0.004,0.023-0.007,0.035-0.011
		C6.688,9.019,6.689,9.019,6.69,9.018c0.012-0.004,0.023-0.007,0.035-0.011c0.001,0,0.001-0.001,0.002-0.001
		c0.085-0.027,0.169-0.057,0.25-0.09c0.001,0,0.001-0.001,0.001-0.001C6.988,8.912,6.999,8.908,7.01,8.903
		c0.001-0.001,0.002-0.001,0.003-0.001c0.011-0.005,0.022-0.009,0.033-0.014c0.001-0.001,0.002-0.001,0.003-0.001
		c0.011-0.005,0.022-0.01,0.033-0.015h0.001c0.069-0.031,0.137-0.064,0.204-0.098c0.001,0,0.001-0.001,0.001-0.001
		c0.011-0.006,0.021-0.011,0.031-0.017c0.001-0.001,0.003-0.001,0.004-0.002c0.01-0.006,0.02-0.011,0.03-0.016
		c0.002-0.001,0.003-0.002,0.004-0.002c0.01-0.006,0.02-0.011,0.03-0.017C7.386,8.72,7.387,8.719,7.388,8.719
		c0.065-0.037,0.128-0.075,0.19-0.116C7.579,8.603,7.58,8.603,7.58,8.602C7.59,8.596,7.599,8.59,7.608,8.584
		C7.61,8.583,7.611,8.582,7.613,8.581C7.622,8.575,7.631,8.568,7.64,8.562C7.642,8.561,7.643,8.56,7.645,8.559
		c0.009-0.006,0.018-0.012,0.026-0.018C7.673,8.54,7.675,8.538,7.677,8.537c0.009-0.006,0.018-0.013,0.027-0.019
		c0.001-0.001,0.002-0.002,0.003-0.003C7.756,8.48,7.804,8.443,7.852,8.405c0.001-0.001,0.002-0.001,0.002-0.002
		c0.009-0.007,0.017-0.014,0.025-0.02C7.881,8.382,7.883,8.38,7.885,8.379C7.893,8.372,7.901,8.366,7.908,8.36
		C7.91,8.358,7.913,8.356,7.915,8.354C7.922,8.347,7.93,8.341,7.937,8.335C7.94,8.333,7.942,8.331,7.945,8.329
		c0.008-0.007,0.015-0.013,0.023-0.02c0.002-0.002,0.004-0.004,0.006-0.005C7.981,8.297,7.989,8.29,7.996,8.283
		C7.997,8.282,7.998,8.281,8,8.28c0.035-0.032,0.07-0.064,0.104-0.097C8.105,8.182,8.106,8.181,8.107,8.18
		c0.007-0.007,0.014-0.014,0.021-0.021C8.13,8.157,8.133,8.154,8.135,8.152c0.007-0.007,0.013-0.013,0.02-0.02
		C8.157,8.13,8.159,8.127,8.162,8.124C8.172,8.117,8.178,8.111,8.185,8.104z M5.064,8.924V4.759H2.486
		c0.037-0.128,0.081-0.254,0.133-0.378c0.128-0.303,0.299-0.582,0.509-0.833H8.21c0.21,0.251,0.381,0.53,0.509,0.833
		c0.052,0.124,0.097,0.25,0.133,0.378H6.274v4.166C6.076,8.962,5.874,8.98,5.669,8.98C5.464,8.98,5.262,8.961,5.064,8.924z"/>
</g>
</svg>
