<svg xmlns="http://www.w3.org/2000/svg" width="11.339" height="11.339" viewBox="0 0 11.339 11.339">
    <path d="M5.706,5.084C5.411,5.57 5.119,6.05 4.825,6.534C4.781,6.454 4.74,6.378 4.699,6.302c-0.203,-0.38 -0.405,-0.76 -0.608,-1.14C4.053,5.091 4.019,5.018 3.975,4.951C3.906,4.848 3.81,4.784 3.68,4.784c-0.339,0 -0.678,-0.001 -1.017,-0.002C2.304,4.78 1.946,4.779 1.588,4.778c-0.067,0 -0.122,-0.03 -0.172,-0.072C1.281,4.591 1.184,4.447 1.09,4.3C1.068,4.267 1.049,4.232 1.023,4.19c0.043,0 0.078,0 0.113,0C1.857,4.186 2.578,4.18 3.299,4.178c0.252,-0.001 0.504,0.009 0.756,0.016C4.107,4.196 4.161,4.2 4.213,4.21c0.096,0.018 0.162,0.081 0.209,0.161c0.049,0.083 0.09,0.169 0.133,0.255c0.114,0.225 0.226,0.45 0.34,0.674C4.902,5.313 4.909,5.325 4.92,5.346c0.26,-0.483 0.517,-0.96 0.778,-1.444C5.72,3.934 5.741,3.961 5.757,3.99c0.174,0.317 0.349,0.634 0.522,0.952c0.063,0.116 0.124,0.234 0.185,0.351C6.47,5.305 6.477,5.316 6.486,5.332c0.049,-0.095 0.095,-0.186 0.144,-0.275c0.111,-0.204 0.22,-0.409 0.337,-0.609C7.036,4.328 7.132,4.233 7.273,4.2C7.312,4.19 7.353,4.185 7.392,4.185c0.356,0 0.712,0.001 1.068,0.002c0.624,0.002 1.247,0.004 1.871,0.007c0.014,0 0.028,0 0.047,0c-0.006,0.013 -0.009,0.022 -0.013,0.031c-0.074,0.136 -0.156,0.266 -0.258,0.383C9.997,4.735 9.862,4.797 9.695,4.792C9.508,4.788 9.321,4.783 9.134,4.78c-0.207,-0.003 -0.413,-0.006 -0.62,-0.005C8.266,4.777 8.016,4.782 7.767,4.786c-0.04,0.001 -0.08,0.005 -0.12,0.01C7.539,4.811 7.464,4.877 7.411,4.965C7.358,5.052 7.317,5.147 7.269,5.237c-0.225,0.424 -0.45,0.848 -0.676,1.271C6.589,6.515 6.585,6.522 6.578,6.535C6.286,6.051 5.998,5.57 5.706,5.084z" fill="#000000" fill-opacity="1"/>
    <path d="M4.824,8.286c-0.052,-0.093 -0.101,-0.18 -0.15,-0.266C4.448,7.621 4.223,7.223 3.997,6.825C3.972,6.782 3.941,6.743 3.915,6.701C3.85,6.593 3.749,6.547 3.629,6.531C3.468,6.511 3.307,6.522 3.146,6.528C3.013,6.532 2.879,6.534 2.746,6.534c-0.089,0 -0.157,-0.046 -0.218,-0.107C2.401,6.301 2.308,6.152 2.22,5.998C2.213,5.986 2.207,5.973 2.2,5.96c-0.001,-0.002 0,-0.005 0,-0.01C2.206,5.95 2.212,5.948 2.218,5.948c0.553,0 1.107,-0.001 1.66,0c0.068,0 0.137,0.011 0.204,0.024C4.193,5.994 4.26,6.07 4.312,6.165C4.478,6.473 4.647,6.78 4.816,7.087c0.002,0.003 0.005,0.006 0.011,0.014c0.289,-0.481 0.578,-0.96 0.87,-1.446c0.297,0.485 0.59,0.964 0.887,1.45c0.033,-0.06 0.062,-0.114 0.092,-0.168C6.82,6.673 6.964,6.409 7.11,6.145c0.073,-0.132 0.185,-0.199 0.337,-0.199c0.42,0.002 0.839,0.003 1.259,0.004c0.145,0.001 0.291,0.002 0.436,0.003c0.02,0 0.041,0 0.069,0C9.191,5.989 9.174,6.018 9.157,6.046C9.074,6.181 8.983,6.31 8.867,6.421C8.779,6.505 8.676,6.55 8.555,6.547C8.397,6.543 8.239,6.532 8.08,6.529C7.974,6.526 7.868,6.526 7.762,6.534c-0.132,0.01 -0.229,0.08 -0.296,0.194C7.318,6.98 7.167,7.23 7.023,7.483C6.88,7.735 6.743,7.99 6.604,8.243C6.597,8.256 6.589,8.267 6.577,8.287C6.286,7.795 5.998,7.308 5.705,6.812C5.41,7.305 5.119,7.792 4.824,8.286z" fill="#000000" fill-opacity="1"/>
    <path d="M4.031,5.66c-0.129,0 -0.25,0 -0.371,0C3.217,5.662 2.775,5.665 2.332,5.665c-0.092,0 -0.184,-0.01 -0.276,-0.015C1.982,5.646 1.922,5.611 1.869,5.563C1.722,5.426 1.623,5.254 1.52,5.071c0.084,0 0.16,0.001 0.236,0c0.438,-0.004 0.875,-0.01 1.313,-0.01c0.163,0 0.327,0.012 0.49,0.02C3.66,5.085 3.732,5.141 3.795,5.215c0.078,0.092 0.127,0.202 0.176,0.31C3.99,5.567 4.009,5.61 4.031,5.66z" fill="#000000" fill-opacity="1"/>
    <path d="M7.361,5.658c0.025,-0.055 0.045,-0.107 0.071,-0.156c0.046,-0.087 0.09,-0.176 0.143,-0.258C7.649,5.13 7.758,5.074 7.897,5.073c0.399,-0.002 0.797,-0.007 1.196,-0.008c0.244,0 0.488,0.005 0.732,0.008c0.012,0 0.025,0.001 0.044,0.002c-0.03,0.052 -0.055,0.102 -0.086,0.148C9.727,5.307 9.669,5.39 9.609,5.471C9.514,5.601 9.388,5.661 9.225,5.66C8.889,5.658 8.552,5.666 8.216,5.666c-0.271,0 -0.543,-0.005 -0.814,-0.008C7.39,5.658 7.379,5.658 7.361,5.658z" fill="#000000" fill-opacity="1"/>
    <path d="M8.069,7.047V6.859H8.002V6.821h0.18v0.038H8.114v0.188H8.069z" fill="#000000" fill-opacity="1"/>
    <path d="M8.21,7.047V6.821h0.068L8.32,6.976L8.36,6.821h0.068v0.226H8.386V6.87L8.341,7.047H8.298L8.253,6.87v0.178H8.21z" fill="#000000" fill-opacity="1"/>
</svg>