<svg xmlns="http://www.w3.org/2000/svg" width="11.339" height="11.339" viewBox="0 0 11.339 11.339">
    <g>
        <clipPath id="clip_1">
            <path d="M9.567,5.649c0,-2.153 -1.745,-3.898 -3.898,-3.898c-2.153,0 -3.898,1.745 -3.898,3.898c0,2.153 1.745,3.898 3.898,3.898C7.822,9.546 9.567,7.801 9.567,5.649"/>
        </clipPath>
        <g clip-path="url(#clip_1)">
            <clipPath id="clip_2">
                <path d="M10.541,5.649c0,-2.691 -2.181,-4.872 -4.872,-4.872c-2.691,0 -4.872,2.181 -4.872,4.872c0,2.691 2.181,4.872 4.872,4.872C8.36,10.521 10.541,8.339 10.541,5.649"/>
            </clipPath>
            <path d="M7.97,7.552c-0.463,0.56 -1.106,0.917 -1.794,1.034l0,-0.984c0.507,-0.13 0.964,-0.455 1.245,-0.943c0.282,-0.488 0.335,-1.046 0.194,-1.55l0.852,-0.492C8.708,5.269 8.722,6 8.472,6.679l1.648,0.951c0.27,-0.606 0.422,-1.276 0.422,-1.982c0,-2.512 -1.901,-4.579 -4.342,-4.843v1.915C6.531,2.78 6.858,2.895 7.166,3.073c0.312,0.18 0.58,0.409 0.798,0.672L7.11,4.238C6.986,4.112 6.844,4 6.684,3.908C5.872,3.439 4.867,3.601 4.239,4.241L3.387,3.749C3.853,3.187 4.5,2.831 5.192,2.716V0.8C2.725,1.04 0.797,3.119 0.797,5.649c0,0.715 0.155,1.394 0.432,2.006l1.66,-0.959C2.646,6.041 2.631,5.304 2.884,4.621l0.852,0.492c-0.24,0.864 0.122,1.815 0.934,2.284c0.16,0.093 0.328,0.16 0.499,0.204v0.985C4.832,8.529 4.5,8.411 4.188,8.231C3.878,8.052 3.613,7.826 3.396,7.567L1.737,8.525c0.886,1.21 2.317,1.996 3.932,1.996c1.624,0 3.062,-0.796 3.947,-2.018L7.97,7.552z" clip-path="url(#clip_2)" fill="#000000" fill-opacity="1"/>
        </g>
    </g>
</svg>