<svg xmlns="http://www.w3.org/2000/svg" width="39.002" height="33.468" viewBox="0 0 39.002 33.468">
    <path d="M19.671,0.347c0.353,0.283 0.871,0.542 1.012,0.918c0.424,-0.141 0.73,-0.565 1.083,-0.8c0.188,-0.165 0.635,-0.094 0.47,-0.447c-0.447,0.07 -0.823,0.282 -1.247,0.4l-0.235,-0.353c-0.589,-0.094 -1.295,-0.094 -1.884,0.047C18.963,0.537 19.34,0.278 19.671,0.347z" fill="#ffd400"/>
    <path d="M9.173,28.522c0.094,-0.142 0.023,-0.353 0.212,-0.448c0.212,-0.211 0.282,0.165 0.471,0.165c0.353,-0.636 1.177,-0.353 1.812,-0.494v-0.071c-1.036,0.165 -1.883,-0.824 -2.966,-0.4v0.188c-0.094,0.306 -0.424,0.354 -0.729,0.33c-0.166,-0.118 -0.495,-0.282 -0.401,-0.565c-0.682,-0.024 -1.2,-0.4 -1.93,-0.33v0.165c0.212,0.024 0.377,0.165 0.565,0.212c0.188,0.141 0.589,0.4 0.282,0.635c0.189,0.118 0.424,0.024 0.636,0.048c0.165,0.07 0.259,0.212 0.235,0.4c0.165,0.071 0.212,-0.188 0.377,-0.118c0.188,0.259 0.377,0.518 0.282,0.871c0.33,-0.094 0.189,-0.588 0.471,-0.8C8.796,28.192 8.914,28.498 9.173,28.522z" fill="#ffd400"/>
    <path d="M4.091,17.59c0.259,-0.189 0.306,0.117 0.518,0.164c0.141,-0.164 0.188,-0.4 0.235,-0.612c0.518,-0.706 1.271,-1.012 1.86,-1.412c-0.706,0.141 -1.436,0.612 -2.26,0.683l-0.447,0.659c-0.424,-0.188 -0.189,0.423 -0.565,0.306c-0.33,-0.518 -0.33,0.188 -0.636,0.212c-0.589,0.258 -1.318,0 -1.859,0c0.047,0.164 0.094,0.353 0.164,0.517l0.047,-0.07c0.706,-0.071 1.601,-0.165 2.001,0.518l0.048,-0.047C3.926,18.626 3.502,17.778 4.091,17.59z" fill="#ffd400"/>
    <path d="M10.14,1.682c-0.047,0.706 0.66,0.047 0.965,0.329c0.565,0.118 0.448,0.777 0.801,1.036c0.424,0.542 0.588,-0.306 0.918,-0.471c0.329,-0.259 0.776,-0.447 1.248,-0.282c0.518,-0.777 1.482,-0.965 2.306,-1.012V1.234c-0.588,-0.258 -1.365,0.071 -2.095,0.048c-0.306,0.447 -0.753,0.517 -1.177,0.682c-0.188,-0.07 -0.07,-0.259 -0.188,-0.353c-0.094,0 -0.212,0.024 -0.282,0.118c-0.095,-0.024 -0.165,-0.142 -0.283,-0.165c-0.353,0.259 -0.73,0.094 -1.13,0.047C10.564,1.635 10.14,0.41 9.528,1.046C9.246,1.258 8.705,1.117 8.564,1.399C9.104,1.188 9.718,1.329 10.14,1.682z" fill="#ffd400"/>
    <path d="M18.736,31.388c-0.023,0.141 0.071,0.235 0.071,0.376c-0.189,0.353 -0.542,0.518 -0.918,0.518c-0.212,-0.235 -0.542,-0.188 -0.73,-0.447c0.023,-1.036 -1.106,-0.495 -1.53,-1.083c0.023,0.353 0.424,0.565 0.73,0.682c0.376,0.236 0.8,0.613 0.611,1.083c0.448,-0.047 0.754,0.071 1.083,-0.07l0.165,0.235c0.565,-0.682 1.366,-0.753 2.048,-1.13v-0.118C19.795,31.505 19.184,31.576 18.736,31.388z" fill="#ffd400"/>
    <path d="M34.247,21.601l-0.012,-0.9c0.496,0.027 0.979,0.059 1.436,0.081v-0.118c-0.489,-0.026 -0.966,-0.08 -1.438,-0.144l-0.015,-1.109c0.128,-0.014 0.253,-0.041 0.384,-0.046c0.048,-0.353 0.33,-0.659 0.636,-0.847c0.236,-0.188 0.471,0.141 0.447,-0.283c-0.329,0.141 -0.777,0.141 -1.083,0.212c-0.115,-0.005 -0.252,0.012 -0.397,0.031l-0.011,-0.773c0.033,0.028 0.066,0.06 0.099,0.085c0.231,-0.182 0.362,-0.423 0.579,-0.525c0.004,0.002 0.009,0.003 0.013,0.005c0.235,0.094 0.541,0.212 0.589,0.495c0.07,0.07 0.211,0.07 0.282,-0.048c-0.157,-0.219 -0.386,-0.346 -0.606,-0.489c0.023,0.002 0.038,-0.007 0.062,-0.002c0.376,0.07 0.753,0.235 0.965,0.611c1.059,0.283 1.953,1.154 2.825,1.766c-0.236,-0.659 -0.942,-1.106 -1.413,-1.648c-0.612,-0.753 -1.648,-0.871 -2.048,-1.765c-0.466,-0.207 -0.911,-0.497 -1.377,-0.706l-0.035,-2.546c0.052,-0.258 0.052,-0.556 0.099,-0.789c-0.023,-0.776 0.094,-1.412 -0.118,-2.095c-0.007,0.002 -0.013,0.006 -0.02,0.008l-0.034,-2.453c0.058,-0.027 0.105,-0.069 0.129,-0.145c-0.043,-0.015 -0.088,-0.022 -0.132,-0.036l-0.07,-5.107l-6.35,0.284l0.015,1.929c-0.364,-0.483 -0.487,-1.118 -0.63,-1.71c-0.024,0.565 0.07,1.53 -0.118,2.095c0.283,-0.047 0.518,0.047 0.683,0.282c0.023,0.118 -0.024,0.189 -0.047,0.283l0.119,0.029l0.017,2.189c-0.003,-0.001 -0.007,0 -0.01,-0.002c-0.211,-0.071 -0.447,-0.283 -0.517,-0.518c-0.071,-0.377 0.188,-0.895 0,-1.248c-0.471,0.283 -0.801,0.824 -1.366,0.918c-0.4,-0.259 -0.517,-0.753 -0.612,-1.2c-0.164,0.047 -0.282,0.212 -0.235,0.4c-0.023,0.259 -0.212,0.565 -0.565,0.447c-0.115,-0.115 -0.225,-0.234 -0.331,-0.354c0.004,-0.027 0.018,-0.052 0.023,-0.079c0.014,-0.006 0.026,-0.016 0.039,-0.021c0.307,-0.33 0.942,-0.165 1.083,-0.683c-0.327,0.058 -0.655,0.139 -0.983,0.232c0.252,-0.577 0.726,-1.07 1.244,-1.427c-0.023,-0.235 0.376,-0.447 0.071,-0.659l-0.566,0.447c-0.551,0.318 -0.992,0.93 -1.487,1.291c-0.083,-0.21 -0.145,-0.431 -0.152,-0.676c0.141,-0.354 0.635,0.047 0.73,-0.33c-0.118,-0.165 -0.283,-0.212 -0.401,-0.329c-0.452,-0.26 -0.934,-0.444 -1.425,-0.607c0.188,-0.158 0.406,-0.25 0.659,-0.136c0.023,-0.118 -0.071,-0.142 -0.071,-0.235c0.236,-0.518 0.706,-1.178 1.248,-1.295c0.094,-0.236 0.376,-0.094 0.4,-0.283c-0.682,-0.118 -1.271,0.353 -1.859,0.659c-0.55,0.24 -0.804,0.659 -1.01,1.089c-0.508,-0.147 -1.02,-0.282 -1.521,-0.44c-0.471,-0.071 -1.177,-0.188 -1.459,0.282l0.494,0.047v0.048c0.659,-0.024 1.295,0.305 1.813,0.753c0.283,0.339 -0.109,0.394 -0.242,0.596c-0.077,0.043 -0.147,0.091 -0.242,0.121c-0.26,-0.141 -0.189,-0.448 -0.283,-0.683c-0.259,-0.118 -0.165,0.235 -0.4,0.235c-0.624,-0.531 -0.187,0.543 -0.593,0.716c-0.258,-0.153 -0.516,-0.306 -0.77,-0.467c0.104,-0.627 -0.645,-0.772 -1.015,-1.096c-0.16,0.039 -0.317,0.055 -0.471,0.059c0.352,-0.633 0.734,-1.252 1.064,-1.886c0.071,-0.329 0.73,-0.4 0.401,-0.753c-0.777,0.682 -1.507,1.459 -2.166,2.213c0,0.122 -0.031,0.232 -0.046,0.347c-0.677,-0.148 -1.318,-0.443 -1.96,-0.428c0.325,0.588 1.139,0.793 1.764,1.23c-0.153,0.409 -0.337,0.807 -0.505,1.213c-0.017,-0.029 -0.035,-0.057 -0.052,-0.086c-0.73,-0.541 0,0.542 -0.565,0.683c-0.541,-0.071 -1.036,-0.283 -1.365,-0.73c0.212,-0.047 0.4,-0.165 0.636,-0.118V4.841c-0.612,-0.118 -1.154,-0.424 -1.648,-0.777c-1.483,-0.071 -2.802,-0.73 -4.143,-0.965C6.471,3.287 4.658,2.816 2.916,2.416c-0.118,0.118 0.094,0.259 0.118,0.4C3.787,3.31 4.446,3.475 5.411,3.428c1.436,0.306 3.037,0.4 4.026,1.53c0.659,-0.164 1.035,0.448 1.435,0.801c0.354,0.424 -0.188,0.753 -0.188,1.177c0.004,0.011 0.009,0.016 0.013,0.026c-0.163,0.113 -0.328,0.21 -0.499,0.306C9.687,7.044 9.177,6.813 8.659,6.589C8.141,5.694 7.27,6.4 6.517,6.424C5.858,6.73 4.963,6 4.586,6.824C3.339,7.13 2.068,7.365 0.726,7.436v0.118C2.656,7.46 5.057,7.2 6.917,7.789c0.306,0.259 0.871,0.283 0.965,0.73c0,0.091 -0.014,0.175 -0.036,0.254C7.458,9.049 7.073,9.328 6.685,9.606c0,0.33 0.495,0.283 0.565,0.636c0.165,0.635 -0.07,1.271 -0.4,1.813c-0.118,0.259 -0.518,0.47 -0.565,0.729c-0.212,0.706 -0.683,-0.141 -1.13,0c0.188,0.636 -0.494,0.424 -0.729,0.636l0.329,0.33c-0.541,0.706 -0.447,-0.613 -1.013,-0.165c-0.541,-0.306 0.024,-0.73 0.048,-1.083c-1.013,0.282 -2.166,0.635 -3.108,1.294C0.565,14.338 0,14.762 0,15.28c0.518,-0.307 1.012,-0.871 1.694,-0.565c0.212,-0.189 0.518,-0.354 0.848,-0.33c0.329,0.141 0.188,0.471 0.283,0.659c0.541,-0.306 1.059,-0.635 1.765,-0.494c1.024,0.886 2.701,0.374 4.002,0.486c-1.688,1.169 -2.777,3.059 -3.877,4.72c-1.248,1.365 -0.824,3.625 -0.659,5.367L3.82,25.241c0.282,0.588 0.518,1.577 1.177,1.648c-0.753,-0.354 -0.071,-1.507 -0.612,-1.884c0,-1.907 0.918,-3.46 1.86,-4.967c0.8,-0.07 0.07,-0.941 0.753,-1.153c0.188,-0.071 0.518,-0.094 0.683,0.117c0.235,0.377 0.211,0.895 0.447,1.201l0.235,-0.636c0.306,-0.635 0.965,-1.177 1.695,-1.177c0.659,0.212 0.141,0.871 0.212,1.295c0.259,0.118 0.235,-0.188 0.353,-0.283c0.042,-0.021 0.084,-0.044 0.126,-0.068l0.79,1.55c-0.552,-0.127 -1.086,-0.306 -1.636,-0.422c-0.131,0.037 -0.268,0.064 -0.404,0.093c-0.608,-0.135 -1.208,-0.204 -1.738,0.231c-0.235,0.188 -0.918,-0.189 -0.777,0.4c-0.023,0.235 0.189,0.33 0.401,0.4c0.894,0.659 1.718,1.554 1.577,2.778c-0.188,0.212 -0.447,-0.118 -0.683,-0.188c0.377,0.612 0.048,1.365 -0.164,1.93c0.212,0.164 0.729,-0.118 0.729,0.353c0.165,0.023 0.259,-0.165 0.4,-0.165c0.895,0.306 1.86,0.471 2.661,0.942c0.235,0.047 0.353,0.4 0.635,0.353c0.165,-0.259 0.259,-0.518 0.212,-0.848c0.329,-0.329 0.612,-0.659 1.083,-0.635c0.259,-0.024 0.376,0.259 0.4,0.47c0.518,-0.094 -0.071,-0.541 0.165,-0.8c0.064,-0.114 0.147,-0.207 0.238,-0.289c0.297,0.08 0.596,0.14 0.681,0.478c-0.436,0.682 -1.096,1.124 -1.523,1.829c0.109,0.21 0.493,0.03 0.472,0.419c-0.065,0.153 -0.043,0.398 -0.24,0.476c-0.402,-0.37 -0.432,0.504 -0.826,0.028c-0.249,0.074 -0.135,0.358 -0.296,0.525c-0.612,0.372 -1.154,-0.222 -1.688,-0.413l-0.31,0.555c-0.389,0.232 -0.952,0.534 -1.328,0.229c-0.385,0.56 -0.699,1.168 -1.258,1.544L8.34,31.2c0.065,0.101 0.148,-0.009 0.223,-0.013c0.856,-0.395 1.799,-1.205 2.766,-1.009c0.201,0.249 -0.061,0.481 -0.008,0.739c0.087,0.092 0.17,-0.018 0.245,-0.022c0.637,-0.434 1.183,-1.033 2.031,-0.689c0.28,0.192 0.172,0.616 0.316,0.787c0.537,-0.749 0.658,-1.584 0.919,-2.45c0.21,-0.363 0.481,-0.446 0.809,-0.578c-0.119,-0.104 -0.171,-0.235 -0.368,-0.283c-0.049,-0.213 -0.052,-0.42 -0.018,-0.628c0.238,0.007 0.567,-0.113 0.652,0.163c0.077,0.575 0.292,0.359 0.571,0.087l0.474,0.134c0.315,0.026 0.07,-0.332 0.358,-0.372c0.143,0.172 0.308,0.24 0.482,0.269c0.098,0.791 -0.922,0.464 -1.129,0.858c0.164,-0.024 0.305,0.047 0.4,0.188c0.117,0.753 -0.706,1.13 -1.13,1.53c0.165,0.306 0.447,-0.141 0.612,0.165c0.329,-0.283 0.777,-0.283 1.201,-0.353c0.329,-0.024 0.376,0.377 0.494,0.588c0.659,-0.188 1.435,0.401 1.883,-0.306c0.659,-0.094 1.248,0.377 1.812,0.683c0.166,-0.612 0.613,0.377 0.848,-0.282c1.506,-0.024 2.778,1.2 3.696,2.447c0.047,0.236 0.141,0.495 0.329,0.613c0.024,-0.306 -0.188,-0.683 -0.447,-0.966c-0.447,-0.988 -1.412,-1.812 -2.331,-2.424c-0.847,-0.612 -2.118,-0.4 -2.895,-1.083c0.118,-0.212 0.424,-0.188 0.401,-0.447c-0.142,0 -0.425,0 -0.613,0.047c-0.753,-0.471 0.283,-0.942 0.33,-1.459c-0.306,0.187 -0.589,0.447 -1.012,0.329c-0.186,-0.102 -0.203,-0.275 -0.258,-0.435c0.058,0 0.12,-0.014 0.186,-0.047c-0.104,-0.098 -0.207,-0.197 -0.308,-0.299c0,-0.002 -0.001,-0.004 -0.001,-0.006c0.175,-0.227 0.576,-0.044 0.653,-0.414c0.268,-0.284 0.574,-0.3 0.886,-0.247c0.243,0.205 0.513,0.378 0.784,0.485c0.565,0.683 1.436,1.154 1.743,1.93c0.094,0.024 0.188,0.095 0.282,0.071c0.235,-0.212 0.024,-0.612 0.4,-0.682c0.143,-0.021 0.288,-0.024 0.432,-0.02c0.417,0.438 0.951,0.984 0.748,1.64c0.165,0 0.329,0.023 0.447,0.117c0.071,0.212 0.329,0.424 0.188,0.683l0.495,0.047c0.284,-0.246 0.608,-0.468 0.932,-0.696l0.011,1.415h-0.057l6.576,0.227l-0.118,-8.614c0.117,-0.027 0.23,-0.025 0.322,0.089c0.094,0.142 0.306,0.212 0.401,0.189c0.023,-0.189 -0.048,-0.306 -0.165,-0.4l0.329,-0.353c0.612,-0.401 1.578,-0.66 2.26,-0.212c-0.023,0.023 -0.07,0.047 -0.047,0.094c0.188,-0.118 0.636,0.071 0.565,-0.283C36.74,21.408 35.458,21.394 34.247,21.601zM9.54,14.483c-0.092,0.042 -0.174,0.099 -0.263,0.145c-0.187,-0.187 -0.379,-0.379 -0.663,-0.361c-0.125,-0.215 -0.157,-0.479 -0.135,-0.731c0.13,-0.047 0.258,-0.097 0.386,-0.149c0.209,-0.01 0.418,-0.014 0.616,0.013c0.259,0.024 0.141,0.33 0.329,0.447c0.164,-0.14 0.328,-0.394 0.56,-0.237l0.007,0.03c0.076,0.342 -0.124,0.662 -0.284,0.937c0.005,0.005 0.01,0.007 0.015,0.012c-0.029,0.016 -0.059,0.031 -0.083,0.052C9.934,14.468 9.731,14.461 9.54,14.483zM9.987,15.448c-0.114,-0.21 -0.015,-0.406 0.04,-0.609c0.196,-0.062 0.399,-0.117 0.606,-0.165l0.282,1.139C10.569,15.886 10.233,15.693 9.987,15.448zM9.762,22.15c-0.306,-0.165 -0.494,-0.447 -0.4,-0.8c0.148,-0.141 0.3,-0.221 0.456,-0.27c0.36,0.112 0.7,0.275 0.98,0.465c0.047,0.189 -0.283,0.306 -0.165,0.447c0.212,0 0.329,-0.258 0.565,-0.165c0.212,0.095 0.377,0.33 0.47,0.518c0.017,0.074 0.031,0.159 0.038,0.247c-0.334,0.037 -0.667,0.074 -0.999,0.099c-0.266,0.063 -0.607,0.143 -0.868,0.3c-0.013,-0.105 -0.009,-0.22 0.017,-0.347c0.164,-0.211 0.447,-0.117 0.635,-0.282C10.351,22.103 10.021,22.268 9.762,22.15zM11.165,24.349c-0.367,-0.336 -0.897,-0.573 -1.164,-0.963c0.448,-0.184 0.953,-0.193 1.446,-0.09c-0.006,0.003 -0.008,0.01 -0.014,0.013c0.066,0.143 0.22,0.171 0.385,0.193L11.165,24.349zM11.272,8.919c0.377,-0.259 0.871,-0.212 1.248,-0.447c0.047,-0.165 -0.071,-0.236 -0.118,-0.353c-0.544,-0.168 -1.069,-0.374 -1.59,-0.591c0.306,-0.193 0.628,-0.366 0.945,-0.539c0.678,0.082 1.109,0.795 1.588,1.194c0.409,0.514 0.573,1.185 0.57,1.866C12.967,9.828 12.046,9.45 11.272,8.919zM15.304,26.855c0.043,-0.156 0.1,-0.314 0.182,-0.475c0.155,-0.034 0.253,0.042 0.323,0.16C15.629,26.563 15.459,26.642 15.304,26.855zM16.986,7.467c-0.225,-0.272 -0.435,-0.55 -0.631,-0.833c0.318,0.167 0.572,0.413 0.694,0.798L16.986,7.467zM18.248,8.546l-0.453,0.366l-0.043,-0.758c0.09,0.033 0.177,0.07 0.27,0.096c0.198,0.089 0.251,0.199 0.248,0.319C18.263,8.562 18.256,8.553 18.248,8.546zM21.099,7.207c-0.276,0.04 -0.55,0.107 -0.817,0.243c0.079,0.156 0.076,0.341 0.002,0.491c-0.148,0.007 -0.297,0.017 -0.441,0.033c0.021,-0.161 0.154,-0.399 -0.055,-0.524c-0.165,-0.024 -0.259,0.164 -0.4,0.164l-0.236,-0.376c-0.541,-0.212 -0.259,0.447 -0.565,0.612c-0.117,-0.071 -0.306,-0.047 -0.4,-0.236c-0.07,-0.258 -0.424,-0.635 -0.047,-0.894c-0.662,-0.149 -1.325,-0.267 -1.987,-0.38c-0.094,-0.143 -0.187,-0.287 -0.277,-0.431c0.082,-0.49 0.224,-0.958 0.411,-1.407c0.148,0.052 0.507,-0.258 0.676,-0.09c0.189,0.165 0.353,0.33 0.283,0.612C17.082,5.19 16.87,5.213 16.635,5.19v0.117l1.294,0.07c0.307,0.095 0.377,0.448 0.565,0.613c0.824,0.047 1.46,0.588 2.048,1.012C20.474,6.82 20.647,6.725 20.7,6.568c0.202,0.018 0.361,0.103 0.495,0.221C21.139,6.91 21.118,7.059 21.099,7.207zM22.214,7.23c0.003,-0.001 0.003,-0.004 0.005,-0.005c0.001,0.002 0.001,0.004 0.002,0.006C22.219,7.23 22.216,7.23 22.214,7.23zM22.225,5.939c-0.174,-0.127 -0.361,-0.369 -0.524,-0.056c-0.123,-0.201 -0.329,-0.288 -0.554,-0.344c0.212,-0.218 0.447,-0.423 0.596,-0.631c-0.005,-0.024 -0.009,-0.053 -0.014,-0.078c0.202,0.183 0.385,0.398 0.498,0.61C22.36,5.634 22.308,5.792 22.225,5.939zM27.717,29.441c-0.494,0.4 -0.542,-0.518 -0.965,-0.118c-0.579,-0.386 -0.856,-1.057 -1.347,-1.486c0.373,0.054 0.741,0.157 1.085,0.266c-0.023,-0.377 -0.494,-0.353 -0.729,-0.518c-0.307,-0.282 -0.636,-0.612 -0.589,-0.965c0.251,-0.278 0.682,-0.324 1.109,-0.293c0.112,0.191 -0.115,0.479 0.264,0.413c0.029,-0.144 -0.005,-0.271 -0.046,-0.391c0.219,0.028 0.43,0.069 0.603,0.106c0.249,0.078 0.484,0.184 0.724,0.277l0.021,2.633C27.804,29.39 27.765,29.418 27.717,29.441z" fill="#ffd400"/>
</svg>