<svg xmlns="http://www.w3.org/2000/svg" width="11.339" height="11.339" viewBox="0 0 11.339 11.339">
    <path d="M3.505,6.794c0,0.064 0,0.12 0,0.169c0,-0.036 0,-0.077 0,-0.117c0.001,0.238 0.001,-0.068 0.002,-0.13c0,-0.021 0,-0.038 0,-0.062C3.506,6.824 3.506,7.009 3.505,6.794z" fill="#000000" fill-opacity="1"/>
    <path d="M3.504,6.812c0,0.094 0,0.158 0,0.201c0,-0.055 0,-0.119 0,-0.203C3.503,6.563 3.503,7.011 3.504,6.812z" fill="#000000" fill-opacity="1"/>
    <path d="M8.09,6.663c0,0.018 -0.001,0.032 -0.001,0.049C8.095,6.806 8.096,6.713 8.09,6.663z" fill="#000000" fill-opacity="1"/>
    <path d="M3.508,6.707c0,-0.004 0,0 0,0.009c0.001,0.311 0.003,0.35 0.005,0.225c0,-0.028 -0.001,-0.073 -0.001,-0.146C3.51,6.693 3.509,6.684 3.508,6.707z" fill="#000000" fill-opacity="1"/>
    <path d="M3.504,7.013c0,0.244 0.001,0.209 0.001,-0.05C3.504,7.073 3.504,7.138 3.504,7.013z" fill="#000000" fill-opacity="1"/>
    <path d="M8.29,4.249c0,0.003 0,0.005 0,0.008c0,0.005 0,0.011 0,0.022c0,-0.015 0.001,0.004 0.001,0.036C8.291,3.675 8.291,3.904 8.29,4.249z" fill="#000000" fill-opacity="1"/>
    <path d="M8.288,4.2C8.287,4.185 8.286,4.131 8.285,4.214c0,0.022 0,0.047 -0.001,0.074c0,0.012 0,0.023 0.001,0.043C8.287,4.775 8.289,4.344 8.29,4.26C8.289,4.119 8.289,3.776 8.288,4.2z" fill="#000000" fill-opacity="1"/>
    <path d="M8.291,4.314c0,0.055 0,0.114 0,0.182C8.291,4.436 8.291,4.361 8.291,4.314z" fill="#000000" fill-opacity="1"/>
    <path d="M8.29,4.26c0,0.06 0,0.082 0.001,-0.004C8.29,4.242 8.29,4.245 8.29,4.26z" fill="#000000" fill-opacity="1"/>
    <path d="M8.275,4.234c-0.002,-0.153 -0.004,-0.219 -0.007,-0.27C8.266,3.808 8.264,4.188 8.261,4.057C8.26,4.192 8.258,4.284 8.257,3.88C8.255,3.659 8.254,4.246 8.252,3.761c-0.003,-0.087 -0.007,-0.451 -0.01,0.01C8.238,3.989 8.234,4.347 8.23,3.877c-0.002,-0.338 -0.004,-0.589 -0.006,-0.29C8.222,3.557 8.22,3.89 8.217,3.74C8.209,3.791 8.199,3.896 8.188,3.854C8.177,3.476 8.166,3.628 8.153,3.62C8.147,3.333 8.14,3.734 8.133,3.708C8.129,3.783 8.125,3.774 8.122,3.83C8.118,3.966 8.114,3.581 8.11,3.62C8.106,3.908 8.102,3.824 8.098,3.907C8.094,4.114 8.09,4.138 8.086,3.728C8.082,3.904 8.078,3.661 8.074,3.613C8.069,3.938 8.065,3.648 8.061,3.389C8.043,3.346 8.024,3.053 8.005,3.167c-0.01,-0.113 -0.02,-0.182 -0.03,-0.183c-0.01,-0.002 -0.021,0.064 -0.032,0.219C7.922,3.359 7.899,3.095 7.876,3.317C7.864,3.45 7.853,3.419 7.841,3.4C7.829,3.558 7.816,3.014 7.804,3.155C7.792,3.101 7.779,3.28 7.766,3.211C7.753,3.177 7.741,3.174 7.727,2.975c-0.013,0.35 -0.026,0.375 -0.04,0.114C7.674,2.757 7.661,2.962 7.647,2.856C7.633,3.178 7.619,2.95 7.605,2.866C7.591,2.835 7.577,2.349 7.563,2.703C7.534,2.648 7.505,2.517 7.475,2.812C7.46,2.856 7.446,2.963 7.431,2.698C7.416,2.654 7.4,2.724 7.385,2.712C7.37,2.878 7.355,3.088 7.339,2.944C7.324,3.02 7.308,2.302 7.293,2.579c-0.062,0.205 -0.126,-0.27 -0.19,0.057C7.087,2.467 7.071,2.404 7.055,2.399C7.039,2.394 7.023,2.447 7.007,2.511C6.999,2.462 6.991,2.322 6.983,2.217C6.975,2.422 6.967,2.128 6.959,2.238C6.951,2.449 6.942,1.914 6.934,2.111C6.926,2.479 6.918,2.314 6.91,2.369c-0.032,0.106 -0.065,-0.357 -0.097,-0.02C6.781,2.581 6.749,2.574 6.717,2.364C6.701,2.572 6.685,2.618 6.669,2.27C6.653,2.375 6.637,1.982 6.621,2.085C6.59,2.396 6.558,2.672 6.527,2.223C6.518,2.135 6.509,1.874 6.5,2.321c-0.009,0.366 -0.018,0.401 -0.027,0.19C6.464,2.749 6.455,2.697 6.446,2.588C6.437,2.071 6.428,2.511 6.419,2.33C6.383,2.135 6.346,2.452 6.31,2.193c-0.073,0.027 -0.148,0.05 -0.222,-0.054C6.051,1.848 6.013,1.725 5.976,1.96C5.939,1.268 5.902,1.761 5.865,2.149C5.827,2.353 5.79,2.675 5.753,2.31C5.716,2.208 5.68,1.976 5.643,2.153C5.606,1.475 5.57,2.089 5.533,2.046c-0.036,0.066 -0.072,-0.242 -0.108,-0.01C5.39,1.745 5.354,2.019 5.319,2.041c-0.035,-0.128 -0.07,-0.134 -0.104,0.227C5.198,2.781 5.181,2.505 5.164,2.189C5.147,1.633 5.13,2.244 5.113,2.268C5.08,2.261 5.047,2.415 5.014,2.362C4.982,2.801 4.95,2.437 4.919,2.528c-0.031,-0.342 -0.062,0.04 -0.092,-0.04C4.767,2.422 4.711,2.12 4.659,2.674C4.633,2.692 4.608,3.039 4.584,2.76C4.56,3.025 4.537,3.128 4.515,2.806C4.47,2.689 4.429,1.952 4.391,2.898C4.372,3.096 4.353,3.097 4.336,2.953C4.327,2.45 4.318,3.09 4.31,2.812c-0.008,-0.309 -0.017,0.32 -0.025,0.386c-0.016,0.073 -0.032,0.25 -0.047,0.185c-0.015,0.273 -0.03,0.077 -0.044,0.155c-0.014,0.31 -0.027,0.129 -0.04,0.188C4.14,3.622 4.128,3.82 4.116,3.642C4.092,3.785 4.069,3.89 4.048,3.797C4.037,4.183 4.027,3.782 4.017,4.006c-0.01,0.46 -0.02,-0.049 -0.029,0.106c-0.01,-0.416 -0.021,-0.114 -0.033,-0.204c-0.012,-0.453 -0.025,-0.102 -0.04,0.016C3.886,4.31 3.853,3.459 3.816,3.91C3.78,3.572 3.739,3.432 3.694,3.914C3.65,3.995 3.601,3.781 3.549,3.89C3.522,3.735 3.497,3.234 3.473,3.618C3.448,3.592 3.425,3.763 3.403,3.86C3.381,4.232 3.36,4.116 3.34,3.865c-0.02,-0.372 -0.039,0.29 -0.057,0.271c-0.018,0.4 -0.035,-0.265 -0.05,-0.069c-0.016,-0.31 -0.03,-0.477 -0.044,0.353c-0.027,0.044 -0.05,-0.218 -0.07,0.107c-0.01,0.128 -0.018,-0.033 -0.026,0.221c-0.008,0.066 -0.014,0.328 -0.02,0.029C3.062,4.639 3.054,4.956 3.05,5C3.048,5.026 3.047,5.158 3.047,5.248c0,0.305 0.001,0.132 0.002,-0.011C3.05,5.45 3.052,5.126 3.053,5.303c0.001,0.374 0.003,-0.16 0.004,0.209c0.002,-0.265 0.004,-0.347 0.006,-0.149C3.065,5.158 3.068,5.71 3.07,5.498c0.003,0.137 0.005,0.694 0.008,0.401c0.003,0.032 0.006,-0.274 0.01,-0.126C3.092,6.13 3.095,6.159 3.099,5.705C3.103,5.951 3.107,5.332 3.111,5.7c0.002,-0.071 0.004,-0.137 0.007,-0.053C3.12,5.832 3.122,5.479 3.124,5.544c0.002,0.07 0.005,0.066 0.007,-0.097c0.002,-0.166 0.005,0.247 0.007,0.225c0.003,-0.162 0.005,-0.287 0.008,0.084C3.149,5.648 3.152,5.966 3.155,5.96C3.157,6.033 3.16,5.799 3.163,5.792c0.003,-0.063 0.006,0.304 0.009,0.165c0.023,0.278 0.05,0.263 0.079,0.2c0.015,0.598 0.03,-0.029 0.046,0.225C3.314,6.526 3.331,6.334 3.348,6.32c0.006,-0.263 0.033,0.343 0.067,0.141c0.034,-0.283 0.074,0.35 0.108,0.033C3.52,6.7 3.517,6.917 3.514,6.82C3.514,6.871 3.513,6.91 3.513,6.942c0.001,0.13 0.003,-0.132 0.004,0.063C3.518,6.837 3.52,7.446 3.522,7.33c0.002,0.082 0.004,0.05 0.007,-0.087c0.002,0.044 0.005,-0.396 0.008,-0.16C3.54,7.538 3.542,6.975 3.545,7.194C3.557,6.934 3.572,7.22 3.588,7.423C3.592,7.243 3.596,7.679 3.6,7.472C3.605,7.68 3.609,7.526 3.614,7.677c0.005,-0.009 0.009,0.061 0.014,-0.005c0.005,0.048 0.01,-0.351 0.015,-0.104c0.01,-0.089 0.02,-0.152 0.031,0.22C3.684,7.95 3.695,7.814 3.706,7.724C3.718,7.602 3.73,7.499 3.742,7.686c0.012,0.261 0.024,0.211 0.037,0.248c0.013,-0.031 0.025,-0.431 0.039,0.198c0.013,0.38 0.026,0.146 0.04,-0.017C3.871,7.968 3.884,8.25 3.898,8.253C3.912,8.596 3.926,8.892 3.94,8.295C3.956,8.453 3.973,8.713 3.99,8.184c0.017,0.3 0.036,0.237 0.054,0.202c0.019,-0.029 0.038,0.023 0.058,0.017c0.01,-0.216 0.02,0.024 0.03,0.091c0.01,0.005 0.021,0.136 0.031,0.204c0.011,-0.098 0.021,-0.07 0.032,0.129c0.011,0.21 0.022,0.54 0.033,0.003c0.022,0.044 0.045,0.027 0.068,0.156c0.047,-0.116 0.096,0.091 0.146,0.07c0.051,0.127 0.104,-0.469 0.158,0.082C4.63,9.469 4.658,9.398 4.686,9.14c0.028,0.066 0.057,-0.28 0.086,0.204c0.025,0.07 0.051,0.125 0.079,0.246c0.028,0.39 0.057,-0.193 0.087,-0.122C4.967,9.313 4.998,9.293 5.029,9.4c0.031,0.659 0.063,-0.221 0.095,0.087c0.064,-0.333 0.128,-0.364 0.19,0.01c0.031,-0.196 0.062,-0.164 0.091,-0.11c0.03,0.315 0.058,-0.403 0.085,0.129c0.083,-0.589 0.162,-0.151 0.237,-0.039c0.075,0.03 0.146,-0.436 0.214,-0.08c0.025,-0.034 0.05,0.052 0.075,-0.317c0.025,0.12 0.049,-0.187 0.072,-0.063c0.024,0.122 0.047,0.199 0.07,0.232c0.023,0.032 0.045,0.019 0.067,-0.038C6.248,9.181 6.27,9.2 6.291,9.092C6.312,9.03 6.333,9.025 6.353,9.198c0.02,0.22 0.041,0.081 0.06,0.073c0.02,-0.094 0.039,-0.147 0.058,-0.313C6.491,9.234 6.51,9.34 6.528,8.996c0.018,-0.071 0.037,-0.158 0.054,-0.235C6.6,8.603 6.618,8.718 6.635,8.52C6.653,8.452 6.67,8.554 6.686,8.657C6.72,8.414 6.752,8.586 6.784,8.494c0.032,0.26 0.062,0.124 0.092,-0.17c0.013,-0.2 0.023,-0.219 0.027,-0.003C6.93,8.17 6.957,8.218 6.985,8.44C7.012,8.81 7.04,8.192 7.069,8.268c0.057,-0.233 0.116,-0.36 0.175,-0.14C7.302,8.179 7.362,8.556 7.42,7.964c0.029,-0.075 0.058,-0.206 0.087,-0.039c0.029,0.084 0.057,-0.207 0.084,-0.159C7.619,7.68 7.646,7.414 7.672,7.563c0.026,-0.329 0.052,-0.274 0.077,-0.047C7.798,7.561 7.844,7.65 7.885,7.307c0.014,0.6 0.027,0.27 0.04,0.297C7.937,7.69 7.949,7.182 7.961,7.146c0.011,0.073 0.022,0.507 0.032,0.131c0.01,-0.146 0.02,-0.261 0.028,-0.296c0.018,0.155 0.032,0.125 0.044,0.08c0.01,-0.052 0.018,-0.173 0.023,-0.349c-0.004,-0.05 -0.01,-0.15 -0.017,-0.338C8.043,6.343 7.986,6.247 7.921,6.215C7.925,6.162 7.929,6.11 7.933,6.069C7.951,6.19 7.969,5.456 7.986,5.928c0.017,0.334 0.034,0.445 0.05,0.126c0.016,-0.237 0.032,-0.362 0.047,-0.405c0.015,-0.3 0.03,0.249 0.044,-0.122c0.007,-0.124 0.014,-0.192 0.02,-0.215c0.007,-0.023 0.013,-0.001 0.019,0.053c0.009,-0.332 0.018,-0.521 0.027,-0.349C8.202,5.391 8.21,4.647 8.217,5.15c0.007,0.011 0.014,-0.54 0.021,-0.31c0.006,0.123 0.012,0.093 0.018,0.093c0.005,-0.285 0.01,0.014 0.014,-0.126c0.002,-0.205 0.004,0.317 0.006,0.04c0.002,-0.033 0.003,-0.15 0.005,-0.245c0.001,-0.022 0.002,-0.187 0.003,-0.316C8.282,4.159 8.279,4.444 8.275,4.234zM5.158,5.559c0.003,-0.075 0.015,-0.223 0.037,-0.214C5.217,5.24 5.246,5.136 5.28,5.173C5.314,5 5.353,5.067 5.395,5.099c0.042,-0.079 0.086,-0.084 0.13,-0.079c0.044,0.093 0.089,0.11 0.131,0.062C5.698,5.038 5.733,5.05 5.762,5.163c0.028,-0.018 0.05,0.271 0.063,0.14C5.838,5.405 5.844,5.415 5.84,5.527c-0.003,0.13 -0.015,0.242 -0.037,0.104C5.782,5.615 5.753,5.747 5.718,5.751C5.684,5.767 5.645,5.812 5.603,5.877C5.562,5.766 5.517,5.813 5.473,5.79C5.429,5.806 5.384,5.868 5.342,5.895C5.258,5.872 5.2,5.67 5.173,5.674C5.16,5.64 5.155,5.715 5.158,5.559zM6.057,8.444C6.022,8.475 5.961,8.753 5.883,8.459C5.832,8.372 5.79,8.217 5.748,8.314C5.706,8.37 5.664,8.097 5.614,8.169C5.556,7.987 5.492,8.259 5.426,8.077C5.36,7.992 5.292,7.934 5.225,8.049C5.169,7.888 5.109,8.095 5.055,8.02C5.001,8.052 4.953,7.946 4.924,7.892C4.891,7.754 4.928,7.668 4.983,7.716c0.047,0.14 0.098,-0.1 0.151,-0.057c0.053,0.068 0.108,0.035 0.163,0.027c0.055,0.16 0.11,-0.118 0.163,0.025C5.512,7.652 5.563,7.714 5.61,7.815C5.635,7.87 5.66,7.928 5.685,7.852C5.762,7.782 5.84,7.747 5.908,7.99C5.942,8.119 5.973,8.093 6,8.19C6.027,8.2 6.05,8.132 6.068,8.214C6.098,8.354 6.091,8.447 6.057,8.444zM7.347,6.688C7.328,6.875 7.305,6.923 7.277,6.859C7.25,6.87 7.219,6.888 7.186,6.888C7.121,6.938 7.049,6.872 6.986,6.903C6.922,7.107 6.88,6.959 6.862,6.725c-0.017,-0.107 -0.01,-0.16 0.026,-0.267c0.037,-0.061 0.095,-0.092 0.161,-0.2c0.065,-0.313 0.137,0.15 0.201,-0.015c0.032,0.011 0.058,-0.065 0.079,-0.016c0.021,0.114 0.036,-0.032 0.044,0.194C7.391,6.518 7.383,6.324 7.347,6.688z" fill="#000000" fill-opacity="1"/>
</svg>