<svg xmlns="http://www.w3.org/2000/svg" width="11.339" height="11.339" viewBox="0 0 11.339 11.339">
    <path d="M5.759,1.683c-1.202,0 -1.826,0.713 -1.826,1.96v0.193v0.23h1.158v-0.23V3.565c0,-0.557 0.245,-0.768 0.635,-0.768S6.36,2.986 6.36,3.687v0.149v0.286c0,0.053 -0.005,0.098 -0.009,0.145l0,0C6.309,4.773 6.043,4.946 5.626,4.946H5.147v1.113h0.412c0.557,0 0.802,0.267 0.802,0.991v0.332v0.281c0,0.69 -0.245,0.88 -0.635,0.88S5.091,8.33 5.091,7.774V7.382V7.05H3.933v0.332v0.314c0,1.247 0.624,1.96 1.826,1.96c1.203,0 1.826,-0.713 1.826,-1.96V7.382V7.083c0,-0.791 -0.245,-1.358 -0.857,-1.626V5.435c0.482,-0.2 0.745,-0.582 0.827,-1.169l0,0c0,0 0,0 0,-0.001c0.008,-0.061 0.016,-0.123 0.021,-0.189c0.006,-0.075 0.01,-0.152 0.01,-0.234V3.836V3.643C7.585,2.396 6.962,1.683 5.759,1.683z" fill="#000000" fill-opacity="1"/>
    <path d="M6.145,4.122V3.836H5.307v0.23v0.201h0.831C6.142,4.222 6.145,4.175 6.145,4.122z" fill="#000000" fill-opacity="1"/>
    <path d="M8.608,3.836H7.801v0.007c0,0.151 -0.011,0.291 -0.028,0.424h0.836c0.267,0 0.484,0.217 0.484,0.484v2.147c0,0.267 -0.217,0.484 -0.484,0.484H7.801v0.314c0,0.04 -0.003,0.078 -0.004,0.117h0.812c0.504,0 0.915,-0.41 0.915,-0.915V4.751C9.523,4.246 9.113,3.836 8.608,3.836z" fill="#000000" fill-opacity="1"/>
    <path d="M6.145,7.662V7.382H5.307v0.392c0,0.015 0.002,0.025 0.002,0.039h0.829C6.141,7.765 6.145,7.719 6.145,7.662z" fill="#000000" fill-opacity="1"/>
    <path d="M3.718,7.382H3.193c-0.267,0 -0.484,-0.217 -0.484,-0.484V4.751c0,-0.267 0.217,-0.484 0.484,-0.484h0.525V4.066v-0.23H3.193c-0.504,0 -0.915,0.41 -0.915,0.915v0.472H1.816v1.202h0.463v0.473c0,0.504 0.41,0.915 0.915,0.915h0.529C3.72,7.773 3.718,7.736 3.718,7.696V7.382z" fill="#000000" fill-opacity="1"/>
</svg>