<svg xmlns="http://www.w3.org/2000/svg" width="11.339" height="11.339" viewBox="0 0 11.339 11.339">
    <path d="M8.646,5.538L7.637,4.289l0.19,-0.47c-0.07,-0.35 -0.766,-1.536 -0.766,-1.536C6.428,1.851 5.444,1.856 5.444,1.856C4.145,1.855 3.099,2.688 3.099,2.688c-0.499,1.139 -0.397,2.18 -0.397,2.18l0.867,1.568l0.39,0.656L3.706,7.738c1.229,1.768 2.463,1.616 2.463,1.616l0.549,-1.553l1.089,-0.148l0.227,-1.245l-0.046,-0.5L8.646,5.538zM4.198,5.183L4.046,5.702L3.895,5.183L3.376,5.031l0.519,-0.152L4.046,4.36l0.152,0.519l0.519,0.152L4.198,5.183zM4.553,4.447L4.315,3.632L3.5,3.394l0.815,-0.238l0.238,-0.815L4.79,3.157l0.815,0.238L4.79,3.632L4.553,4.447zM6.472,4.074L6.282,4.723L6.093,4.074L5.444,3.885l0.649,-0.189l0.189,-0.649l0.189,0.649L7.12,3.885L6.472,4.074z" fill="#000000" fill-opacity="1"/>
</svg>