<svg xmlns="http://www.w3.org/2000/svg" width="11.339" height="11.339" viewBox="0 0 11.339 11.339">
    <path d="M8.043,6.825l-0.28,-0.474l-2.094,1.237l-2.094,-1.237l-0.28,0.474l1.834,1.083l-1.834,1.083l0.28,0.474l2.094,-1.238l2.094,1.238l0.28,-0.474l-1.833,-1.083z" fill="#000000" fill-opacity="1"/>
    <path d="M5.646,6.956c0.827,0 1.497,-0.67 1.497,-1.497c0,-0.134 -0.019,-0.263 -0.052,-0.387c-0.03,-0.114 -0.072,-0.223 -0.127,-0.325L6.961,4.744L5.646,2.37L4.331,4.744L4.329,4.747C4.274,4.849 4.232,4.958 4.202,5.072C4.169,5.196 4.149,5.325 4.149,5.459C4.149,6.286 4.82,6.956 5.646,6.956zM6.334,4.897c0.284,0 0.514,0.23 0.514,0.514c0,0.284 -0.23,0.514 -0.514,0.514c-0.284,0 -0.514,-0.23 -0.514,-0.514C5.82,5.127 6.05,4.897 6.334,4.897zM5.889,6.424L5.646,6.336L5.404,6.424l0.243,-0.571L5.889,6.424zM4.959,4.897c0.284,0 0.514,0.23 0.514,0.514c0,0.284 -0.23,0.514 -0.514,0.514c-0.284,0 -0.514,-0.23 -0.514,-0.514C4.445,5.127 4.675,4.897 4.959,4.897z" fill="#000000" fill-opacity="1"/>
    <path d="M7.463,2.312H7.018V2.01c0.36,0 0.488,-0.078 0.585,-0.341h0.287v2.712H7.463V2.312z" fill="#000000" fill-opacity="1"/>
</svg>