<svg xmlns="http://www.w3.org/2000/svg" width="11.339" height="11.339" viewBox="0 0 11.339 11.339">
    <g>
        <clipPath id="clip_1">
            <path d="M1.772,5.669c0,-2.153 1.745,-3.898 3.898,-3.898c2.153,0 3.898,1.745 3.898,3.898c0,2.153 -1.745,3.898 -3.898,3.898C3.517,9.567 1.772,7.822 1.772,5.669"/>
        </clipPath>
        <path d="M5.669,-0.027c-3.146,0 -5.696,2.55 -5.696,5.696c0,3.146 2.55,5.697 5.696,5.697c3.146,0 5.697,-2.551 5.697,-5.697C11.366,2.523 8.815,-0.027 5.669,-0.027zM3.879,6.993h1.1v0.529H3.298V7.067c0,-0.412 0.148,-0.724 0.582,-1.179C4.323,5.418 4.45,5.127 4.45,4.73c0,-0.333 -0.116,-0.423 -0.301,-0.423c-0.185,0 -0.301,0.1 -0.301,0.365v0.396h-0.55V4.709c0,-0.592 0.296,-0.93 0.867,-0.93s0.867,0.338 0.867,0.93c0,0.492 -0.18,0.888 -0.719,1.465c-0.344,0.37 -0.439,0.545 -0.439,0.74C3.874,6.94 3.874,6.967 3.879,6.993zM7.147,7.168c0,0 -0.571,0.979 -0.767,1.176c-0.192,0.193 -0.418,0.32 -0.418,0.32H5.671H5.669V7.933c0.001,0 0.001,0 0.002,0c0.074,0 0.078,0.005 0.142,-0.01l0.089,-0.323l0.1,0.267c0.057,-0.02 0.054,-0.024 0.102,-0.053L6.2,7.097l0.105,0.547c0.032,-0.036 0.062,-0.072 0.088,-0.109l0.05,-0.352l0.052,0.183c0.076,-0.137 0.08,-0.197 0.08,-0.197l0.107,-0.494l0.277,-0.278l0.151,-0.725l0.192,0.092C7.08,6.568 7.147,7.168 7.147,7.168zM7.642,5.677L6.827,5.308L6.545,6.099c0,0 -0.058,-0.358 -0.211,-0.54L6.208,6.178L6.097,5.357C6.016,5.305 6.016,5.305 5.904,5.273L5.805,5.54L5.745,5.249c-0.007,0 -0.045,-0.007 -0.076,-0.011V4.801l0.002,0l0.323,0.141l-0.323,-0.61L5.669,4.335V2.674c0,0 0.002,0 0.002,0s0.447,0 0.767,0.126C6.751,2.923 7.34,3.425 7.549,3.981c0.005,0.014 0.01,0.028 0.015,0.043c0.194,0.573 0,0.928 0,0.928L7.8,5.165L7.642,5.677z" clip-path="url(#clip_1)" fill="#000000" fill-opacity="1"/>
        <path d="M6.145,3.769C5.997,3.878 5.851,4.105 5.892,4.308C6.601,4.201 7.299,4.725 7.31,4.696C7.374,4.523 7.361,4.22 7.311,4.045C7.135,3.439 6.546,3.473 6.145,3.769z" clip-path="url(#clip_1)" fill="#000000" fill-opacity="1"/>
    </g>
</svg>