<svg xmlns="http://www.w3.org/2000/svg" width="11.339" height="11.339" viewBox="0 0 11.339 11.339">
    <g>
        <clipPath id="clip_1">
            <path d="M9.567,5.669c0,-2.153 -1.745,-3.898 -3.898,-3.898c-2.153,0 -3.898,1.745 -3.898,3.898c0,2.153 1.745,3.898 3.898,3.898C7.822,9.567 9.567,7.822 9.567,5.669"/>
        </clipPath>
        <path d="M4.287,4.076C4.061,4.254 3.803,4.324 3.594,4.349l0.628,0.363c0.067,0.006 0.321,0.019 0.515,-0.133c0.136,-0.107 0.215,-0.278 0.239,-0.505l-0.25,-0.688C4.643,3.677 4.499,3.911 4.287,4.076z" clip-path="url(#clip_1)" fill="#000000" fill-opacity="1"/>
        <path d="M4.981,7.663C5.247,7.77 5.437,7.958 5.564,8.126V7.4C5.535,7.339 5.419,7.113 5.191,7.021c-0.16,-0.064 -0.348,-0.047 -0.556,0.045L4.164,7.628C4.457,7.554 4.732,7.562 4.981,7.663z" clip-path="url(#clip_1)" fill="#000000" fill-opacity="1"/>
        <path d="M5.634,3.561c-0.288,-0.01 -0.53,-0.121 -0.706,-0.236l0.248,0.682c0.047,0.048 0.234,0.221 0.479,0.229c0.17,0 0.343,-0.075 0.508,-0.234l0.25,-0.686C6.176,3.475 5.93,3.561 5.676,3.561C5.662,3.561 5.648,3.561 5.634,3.561z" clip-path="url(#clip_1)" fill="#000000" fill-opacity="1"/>
        <path d="M4.336,6.012C4.46,6.089 4.555,6.188 4.62,6.309C4.681,6.424 4.704,6.541 4.71,6.648l0.691,-0.824L4.336,6.012z" clip-path="url(#clip_1)" fill="#000000" fill-opacity="1"/>
        <path d="M5.104,4.426c-0.055,0.13 -0.134,0.238 -0.239,0.32C4.761,4.829 4.647,4.872 4.541,4.896l0.929,0.537L5.104,4.426z" clip-path="url(#clip_1)" fill="#000000" fill-opacity="1"/>
        <path d="M4.312,5.801l1.052,-0.186L4.433,5.078c0.044,0.138 0.055,0.275 0.026,0.408C4.432,5.612 4.375,5.716 4.312,5.801z" clip-path="url(#clip_1)" fill="#000000" fill-opacity="1"/>
        <path d="M6.868,5.426c-0.018,-0.127 0,-0.243 0.029,-0.344L5.974,5.616l1.059,0.187C6.943,5.687 6.888,5.562 6.868,5.426z" clip-path="url(#clip_1)" fill="#000000" fill-opacity="1"/>
        <path d="M6.463,6.78L5.775,5.96v1.069C5.871,6.926 5.982,6.851 6.109,6.81C6.235,6.769 6.356,6.767 6.463,6.78z" clip-path="url(#clip_1)" fill="#000000" fill-opacity="1"/>
        <path d="M5.775,8.136c0.178,-0.245 0.393,-0.415 0.648,-0.498c0.273,-0.089 0.538,-0.067 0.743,-0.019L6.7,7.062c-0.063,-0.03 -0.295,-0.126 -0.527,-0.05C6.008,7.065 5.875,7.199 5.775,7.404V8.136z" clip-path="url(#clip_1)" fill="#000000" fill-opacity="1"/>
        <path d="M3.231,5.992l0.724,-0.128C4.022,5.816 4.205,5.668 4.253,5.44c0.036,-0.173 -0.014,-0.358 -0.148,-0.552L3.484,4.53c0.122,0.275 0.158,0.546 0.102,0.807C3.527,5.619 3.375,5.838 3.231,5.992z" clip-path="url(#clip_1)" fill="#000000" fill-opacity="1"/>
        <path d="M6.438,4.719C6.339,4.63 6.277,4.525 6.235,4.425L5.868,5.433l0.928,-0.536C6.658,4.866 6.537,4.808 6.438,4.719z" clip-path="url(#clip_1)" fill="#000000" fill-opacity="1"/>
        <path d="M6.982,6.008L5.937,5.824l0.687,0.818c0.006,-0.144 0.043,-0.275 0.115,-0.39C6.806,6.144 6.894,6.067 6.982,6.008z" clip-path="url(#clip_1)" fill="#000000" fill-opacity="1"/>
        <path d="M3.858,6.754c0.136,0.255 0.16,0.522 0.148,0.732l0.469,-0.559c0.02,-0.075 0.068,-0.312 -0.044,-0.52C4.348,6.251 4.189,6.14 3.96,6.078L3.256,6.202C3.527,6.335 3.732,6.517 3.858,6.754z" clip-path="url(#clip_1)" fill="#000000" fill-opacity="1"/>
        <path d="M7.752,4.345c-0.3,-0.032 -0.554,-0.133 -0.754,-0.312C6.784,3.84 6.67,3.599 6.609,3.397L6.361,4.079c0.005,0.067 0.037,0.32 0.22,0.484C6.71,4.678 6.892,4.726 7.119,4.71L7.752,4.345z" clip-path="url(#clip_1)" fill="#000000" fill-opacity="1"/>
        <path d="M8.518,6.064l2.78,0.49c0.045,-0.288 0.069,-0.584 0.069,-0.885c0,-1 -0.258,-1.939 -0.711,-2.756L8.208,4.326C8.157,4.394 7.884,4.785 7.95,5.241C7.994,5.55 8.185,5.826 8.518,6.064z" clip-path="url(#clip_1)" fill="#000000" fill-opacity="1"/>
        <path d="M3.236,4.143C3.329,4.153 3.8,4.189 4.158,3.909c0.246,-0.193 0.389,-0.498 0.428,-0.905l-0.964,-2.65c-1.187,0.458 -2.183,1.3 -2.833,2.376L3.236,4.143z" clip-path="url(#clip_1)" fill="#000000" fill-opacity="1"/>
        <path d="M3.655,0.34l0.122,-0.044C3.736,0.31 3.695,0.325 3.655,0.34z" clip-path="url(#clip_1)" fill="#000000" fill-opacity="1"/>
        <path d="M4.787,2.936c0.058,0.062 0.396,0.398 0.856,0.413c0.317,0.012 0.618,-0.13 0.909,-0.416l0.965,-2.652c-0.58,-0.199 -1.201,-0.308 -1.849,-0.308c-0.647,0 -1.269,0.109 -1.848,0.308L4.787,2.936z" clip-path="url(#clip_1)" fill="#000000" fill-opacity="1"/>
        <path d="M5.564,11.363V8.539C5.529,8.459 5.326,8.029 4.9,7.858C4.611,7.742 4.275,7.77 3.903,7.939L2.09,10.1C3.043,10.87 4.248,11.339 5.564,11.363z" clip-path="url(#clip_1)" fill="#000000" fill-opacity="1"/>
        <path d="M2.825,6.064C2.896,6.017 3.285,5.742 3.38,5.292c0.064,-0.305 -0.021,-0.631 -0.252,-0.968L0.684,2.913C0.231,3.73 -0.027,4.669 -0.027,5.669c0,0.301 0.024,0.597 0.069,0.885L2.825,6.064z" clip-path="url(#clip_1)" fill="#000000" fill-opacity="1"/>
        <path d="M8.477,6.272c-0.092,0.022 -0.546,0.15 -0.786,0.535c-0.165,0.265 -0.196,0.6 -0.094,0.996l1.813,2.16c0.936,-0.816 1.603,-1.933 1.85,-3.201L8.477,6.272z" clip-path="url(#clip_1)" fill="#000000" fill-opacity="1"/>
        <path d="M7.564,0.297l0.117,0.043C7.642,0.325 7.603,0.311 7.564,0.297z" clip-path="url(#clip_1)" fill="#000000" fill-opacity="1"/>
        <path d="M3.74,7.804C3.76,7.74 3.893,7.267 3.671,6.851C3.524,6.577 3.249,6.382 2.856,6.273l-2.777,0.49c0.247,1.268 0.913,2.384 1.85,3.201L3.74,7.804z" clip-path="url(#clip_1)" fill="#000000" fill-opacity="1"/>
        <path d="M6.75,3.009c0.006,0.091 0.051,0.564 0.391,0.868c0.232,0.208 0.557,0.296 0.964,0.265l2.445,-1.412C9.9,1.654 8.904,0.811 7.717,0.353L6.75,3.009z" clip-path="url(#clip_1)" fill="#000000" fill-opacity="1"/>
        <path d="M5.272,6.826c0.123,0.05 0.218,0.127 0.292,0.206V5.96l-0.688,0.82C5.016,6.762 5.148,6.776 5.272,6.826z" clip-path="url(#clip_1)" fill="#000000" fill-opacity="1"/>
        <path d="M7.431,7.934C7.347,7.892 6.919,7.698 6.487,7.839C6.19,7.936 5.951,8.173 5.775,8.541v2.822C7.09,11.339 8.296,10.87 9.249,10.1L7.431,7.934z" clip-path="url(#clip_1)" fill="#000000" fill-opacity="1"/>
        <path d="M6.035,4.354c-0.117,0.06 -0.238,0.092 -0.362,0.092c-0.009,0 -0.018,0 -0.027,0C5.514,4.442 5.399,4.402 5.303,4.353L5.669,5.36L6.035,4.354z" clip-path="url(#clip_1)" fill="#000000" fill-opacity="1"/>
        <path d="M7.74,5.269C7.7,4.984 7.767,4.726 7.85,4.532l-0.64,0.37C7.161,4.974 7.046,5.173 7.078,5.398c0.025,0.175 0.137,0.334 0.331,0.47l0.709,0.125C7.908,5.776 7.777,5.535 7.74,5.269z" clip-path="url(#clip_1)" fill="#000000" fill-opacity="1"/>
        <path d="M8.07,6.2L7.337,6.071c-0.083,0.024 -0.3,0.102 -0.42,0.296c-0.092,0.149 -0.109,0.339 -0.05,0.566l0.47,0.56C7.315,7.19 7.37,6.921 7.513,6.693C7.665,6.45 7.883,6.295 8.07,6.2z" clip-path="url(#clip_1)" fill="#000000" fill-opacity="1"/>
    </g>
</svg>