<svg xmlns="http://www.w3.org/2000/svg" width="11.339" height="11.339" viewBox="0 0 11.339 11.339">
    <g>
        <clipPath id="clip_1">
            <path d="M1.772,5.669c0,-2.153 1.745,-3.898 3.898,-3.898c2.153,0 3.898,1.745 3.898,3.898c0,2.153 -1.745,3.898 -3.898,3.898C3.517,9.567 1.772,7.822 1.772,5.669"/>
        </clipPath>
        <path d="M6.143,3.766C5.995,3.876 5.849,4.103 5.891,4.305C6.6,4.199 7.298,4.723 7.308,4.694C7.372,4.52 7.36,4.217 7.309,4.042C7.134,3.436 6.545,3.47 6.143,3.766z" clip-path="url(#clip_1)" fill="#000000" fill-opacity="1"/>
        <path d="M5.669,-0.027c-3.146,0 -5.696,2.55 -5.696,5.696s2.55,5.697 5.696,5.697c3.146,0 5.697,-2.551 5.697,-5.697S8.816,-0.027 5.669,-0.027zM4.688,7.522H4.107V4.699h-0.45V4.286c0.45,0 0.55,-0.217 0.64,-0.465h0.391V7.522zM7.146,7.166c0,0 -0.571,0.979 -0.767,1.176c-0.192,0.193 -0.418,0.32 -0.418,0.32H5.67V7.931c0.074,0 0.078,0.005 0.142,-0.01l0.089,-0.323l0.1,0.267c0.057,-0.02 0.054,-0.024 0.102,-0.053l0.095,-0.716l0.105,0.547c0.032,-0.036 0.062,-0.072 0.088,-0.109l0.05,-0.352l0.052,0.183c0.076,-0.137 0.08,-0.197 0.08,-0.197L6.68,6.672l0.277,-0.278l0.151,-0.725l0.192,0.092C7.079,6.566 7.146,7.166 7.146,7.166zM7.641,5.674L6.825,5.305L6.544,6.097c0,0 -0.058,-0.358 -0.211,-0.54L6.206,6.176L6.096,5.354C6.015,5.303 6.015,5.303 5.902,5.27L5.803,5.538L5.744,5.247C5.737,5.247 5.7,5.24 5.67,5.236V4.798l0.323,0.141L5.67,4.329V2.671c0,0 0.447,0 0.767,0.126C6.749,2.92 7.339,3.422 7.548,3.978c0.005,0.014 0.01,0.028 0.015,0.043c0.194,0.573 0,0.928 0,0.928l0.235,0.214L7.641,5.674z" clip-path="url(#clip_1)" fill="#000000" fill-opacity="1"/>
    </g>
</svg>