<svg xmlns="http://www.w3.org/2000/svg" width="11.339" height="11.339" viewBox="0 0 11.339 11.339">
    <g>
        <clipPath id="clip_1">
            <path d="M9.809,5.98c0,-2.622 -2.126,-4.748 -4.748,-4.748c-2.622,0 -4.748,2.126 -4.748,4.748c0,2.622 2.126,4.748 4.748,4.748C7.683,10.729 9.809,8.603 9.809,5.98"/>
        </clipPath>
        <g clip-path="url(#clip_1)">
            <clipPath id="clip_2">
                <path d="M12,5.98c0,-3.833 -3.107,-6.939 -6.94,-6.939c-3.833,0 -6.939,3.107 -6.939,6.939c0,3.833 3.107,6.94 6.939,6.94C8.893,12.92 12,9.813 12,5.98"/>
            </clipPath>
            <path d="M10.362,4.972l0.206,-3.48l2.936,-2.936L12.43,-2.519l-6.81,6.81C5.428,4.222 5.227,4.187 5.021,4.187c-0.474,0 -0.92,0.185 -1.255,0.52c-0.335,0.335 -0.52,0.782 -0.52,1.256c0,0.224 0.043,0.442 0.122,0.645l0.282,1.423L3.777,7.23c0.195,0.192 0.427,0.332 0.679,0.417l0.289,2.494l0.344,-2.404c0.312,-0.012 0.609,-0.103 0.869,-0.265L6.167,9.26l0.277,-2.232C6.8,6.554 6.897,5.931 6.695,5.365l0.374,-0.374l0.219,1.693l0.275,-2.186L7.58,4.479l0.284,3.538l0.243,-4.065l0.384,-0.384l0.184,1.244l0.182,-1.609L10.05,2.01L10.362,4.972zM6.425,5.382c0.236,0.57 0.107,1.22 -0.329,1.655C5.809,7.324 5.428,7.482 5.022,7.482S4.235,7.324 3.948,7.037C3.661,6.75 3.503,6.369 3.503,5.964S3.661,5.176 3.948,4.89c0.287,-0.287 0.668,-0.444 1.073,-0.444c0.201,0 0.397,0.039 0.582,0.115l0.08,0.033L6.086,4.19l0.205,0.205l0.18,-0.18L6.267,4.009l0.635,-0.635L7.107,3.58l0.18,-0.18L7.082,3.194l0.635,-0.635l0.205,0.205l0.18,-0.18L7.897,2.379l0.635,-0.635l0.205,0.205l0.18,-0.18L8.713,1.563l0.635,-0.635l0.205,0.205l0.18,-0.18L9.528,0.748l0.635,-0.635l0.205,0.205l0.18,-0.18l-0.205,-0.205l0.635,-0.635l0.205,0.205l0.18,-0.18l-0.205,-0.205l0.635,-0.635l0.205,0.205l0.18,-0.18l-0.205,-0.205l0.456,-0.456l0.709,0.709L6.392,5.303L6.425,5.382z" clip-path="url(#clip_2)" fill="#000000" fill-opacity="1"/>
        </g>
        <g clip-path="url(#clip_1)">
            <clipPath id="clip_2">
                <path d="M12,5.98c0,-3.833 -3.107,-6.939 -6.94,-6.939c-3.833,0 -6.939,3.107 -6.939,6.939c0,3.833 3.107,6.94 6.939,6.94C8.893,12.92 12,9.813 12,5.98"/>
            </clipPath>
            <path d="M6.528,4.962L6.024,4.457l-0.32,0.32C5.179,4.476 4.5,4.544 4.051,4.993c-0.536,0.536 -0.536,1.406 0,1.942s1.406,0.536 1.942,0c0.448,-0.448 0.516,-1.128 0.215,-1.652L6.528,4.962zM4.695,5.769C4.477,5.769 4.3,5.592 4.3,5.374c0,-0.218 0.177,-0.395 0.395,-0.395c0.218,0 0.395,0.177 0.395,0.395C5.091,5.592 4.914,5.769 4.695,5.769z" clip-path="url(#clip_2)" fill="#000000" fill-opacity="1"/>
        </g>
    </g>
</svg>