<svg xmlns="http://www.w3.org/2000/svg" width="11.339" height="11.339" viewBox="0 0 11.339 11.339">
    <path d="M9.271,5.804V5.516H8.658l0.838,-0.838L9.191,4.373L8.119,5.444H7.694l0.485,-0.485L7.975,4.755L7.286,5.444H6.993L6.522,4.628l0.138,-0.239l0.948,-0.254L7.534,3.856l-0.67,0.179l0.213,-0.369l1.47,-0.394L8.435,2.855L7.284,3.164l0.31,-0.536L7.345,2.484L7.04,3.011L6.736,1.874L6.318,1.986l0.39,1.456L6.492,3.816L6.315,3.152L6.036,3.227l0.252,0.942L6.153,4.404H5.182L5.051,4.177l0.255,-0.95L5.028,3.152l-0.18,0.672L4.632,3.45l0.392,-1.464L4.607,1.874L4.3,3.02L3.99,2.484L3.741,2.628l0.308,0.534L2.907,2.855L2.795,3.273l1.461,0.392l0.213,0.369L3.808,3.856L3.734,4.135l0.939,0.252l0.14,0.242L4.342,5.444H4.053L3.364,4.755L3.16,4.959l0.485,0.485H3.219L2.148,4.373L1.843,4.678L2.68,5.516H2.064v0.288H2.68L1.843,6.641l0.305,0.305l1.071,-1.071h0.432L3.16,6.367L3.364,6.57l0.694,-0.694h0.283L4.817,6.7L4.671,6.953L3.734,7.204l0.075,0.278l0.659,-0.177L4.255,7.675l-1.46,0.391l0.112,0.417l1.141,-0.306L3.741,8.708L3.99,8.852l0.309,-0.535l0.307,1.147l0.417,-0.112L4.631,7.887l0.216,-0.374l0.181,0.674l0.278,-0.075L5.051,7.16l0.141,-0.244h0.952l0.146,0.252L6.036,8.112l0.278,0.075l0.178,-0.665l0.216,0.374L6.318,9.353l0.417,0.112l0.305,-1.138l0.304,0.526l0.249,-0.144L7.286,8.175l1.15,0.308l0.112,-0.417L7.079,7.672L6.866,7.304l0.668,0.179l0.075,-0.278L6.662,6.951L6.518,6.7l0.476,-0.824h0.287L7.975,6.57l0.204,-0.204L7.688,5.876H8.12l1.071,1.071l0.305,-0.305L8.659,5.804H9.271zM6.144,6.484H5.191L4.716,5.66l0.476,-0.824h0.952L6.619,5.66L6.144,6.484z" fill="#000000" fill-opacity="1"/>
</svg>