<svg xmlns="http://www.w3.org/2000/svg" width="11.339" height="11.339" viewBox="0 0 11.339 11.339">
    <g>
        <clipPath id="clip_1">
            <path d="M9.567,5.669c0,-2.153 -1.745,-3.898 -3.898,-3.898c-2.153,0 -3.898,1.745 -3.898,3.898c0,2.153 1.745,3.898 3.898,3.898C7.822,9.567 9.567,7.822 9.567,5.669"/>
        </clipPath>
        <path d="M5.669,4.374c-0.715,0 -1.295,0.58 -1.295,1.295s0.58,1.295 1.295,1.295c0.715,0 1.295,-0.58 1.295,-1.295S6.384,4.374 5.669,4.374zM6.436,6.137L6.137,6.436L5.669,5.968L5.202,6.436L4.903,6.137L5.37,5.669L4.903,5.202l0.299,-0.299L5.669,5.37l0.467,-0.467l0.299,0.299L5.968,5.669L6.436,6.137z" clip-path="url(#clip_1)" fill="#000000" fill-opacity="1"/>
        <path d="M5.669,-0.027c-3.146,0 -5.697,2.55 -5.697,5.697s2.55,5.697 5.697,5.697s5.697,-2.55 5.697,-5.697S8.815,-0.027 5.669,-0.027zM5.669,7.476c-1.315,0 -2.429,-0.758 -2.819,-1.807C3.24,4.62 4.354,3.862 5.669,3.862c1.315,0 2.429,0.758 2.819,1.807C8.099,6.718 6.985,7.476 5.669,7.476z" clip-path="url(#clip_1)" fill="#000000" fill-opacity="1"/>
    </g>
</svg>