<svg xmlns="http://www.w3.org/2000/svg" width="11.339" height="11.339" viewBox="0 0 11.339 11.339">
    <path d="M8.025,6.835l-0.279,-0.471l-2.086,1.232l-2.086,-1.232l-0.279,0.471l1.826,1.079l-1.826,1.079l0.279,0.472l2.086,-1.233l2.086,1.233l0.279,-0.472l-1.826,-1.079z" fill="#000000" fill-opacity="1"/>
    <path d="M5.637,6.966c0.824,0 1.491,-0.668 1.491,-1.491c0,-0.134 -0.019,-0.262 -0.052,-0.386c-0.03,-0.114 -0.072,-0.222 -0.127,-0.323L6.947,4.762l-1.31,-2.364l-1.31,2.364L4.325,4.766C4.27,4.867 4.229,4.976 4.198,5.089C4.165,5.213 4.146,5.341 4.146,5.475C4.146,6.299 4.814,6.966 5.637,6.966zM6.322,4.915c0.283,0 0.512,0.229 0.512,0.512c0,0.283 -0.229,0.512 -0.512,0.512c-0.283,0 -0.512,-0.229 -0.512,-0.512C5.81,5.144 6.039,4.915 6.322,4.915zM5.879,6.436L5.637,6.348L5.395,6.436l0.242,-0.569L5.879,6.436zM4.952,4.915c0.283,0 0.512,0.229 0.512,0.512c0,0.283 -0.229,0.512 -0.512,0.512C4.67,5.939 4.44,5.71 4.44,5.427C4.44,5.144 4.67,4.915 4.952,4.915z" fill="#000000" fill-opacity="1"/>
    <path d="M7.989,2.364c0,-0.243 -0.085,-0.309 -0.22,-0.309c-0.135,0 -0.22,0.073 -0.22,0.266v0.174H7.148V2.348c0,-0.432 0.216,-0.679 0.633,-0.679c0.417,0 0.633,0.247 0.633,0.679v0.069c0,0.29 -0.093,0.467 -0.297,0.552v0.008C8.328,3.07 8.413,3.267 8.413,3.541v0.212c0,0.432 -0.216,0.679 -0.633,0.679c-0.417,0 -0.633,-0.247 -0.633,-0.679V3.529h0.401V3.78c0,0.193 0.085,0.266 0.22,0.266c0.135,0 0.22,-0.066 0.22,-0.305V3.529c0,-0.251 -0.085,-0.343 -0.278,-0.343H7.568V2.8h0.166c0.158,0 0.255,-0.069 0.255,-0.286V2.364z" fill="#000000" fill-opacity="1"/>
</svg>