<svg xmlns="http://www.w3.org/2000/svg" width="11.339" height="11.339" viewBox="0 0 11.339 11.339">
    <g>
        <clipPath id="clip_1">
            <path d="M1.772,1.772h7.795v7.795h-7.795z"/>
        </clipPath>
        <path d="M8.82,7.231L8.228,6.206c0.036,-0.175 0.055,-0.355 0.055,-0.537c0,-0.353 -0.069,-0.696 -0.205,-1.017C7.947,4.341 7.758,4.062 7.518,3.821S6.998,3.392 6.687,3.26C6.62,3.232 6.552,3.206 6.484,3.184L5.893,2.161C7.73,2.276 9.185,3.803 9.185,5.669C9.185,6.23 9.053,6.76 8.82,7.231M5.67,9.185c-1.254,0 -2.355,-0.657 -2.978,-1.645h1.152c0.104,0.102 0.215,0.194 0.333,0.276L4.308,7.54l0.181,-0.382H3.52H3.001L4.1,5.254l1.259,-2.181l0.31,-0.536l0.309,0.536L8.073,6.7l0.265,0.458H7.819H6.85l0.312,0.658C7.28,7.733 7.391,7.642 7.495,7.54h1.152C8.024,8.528 6.923,9.185 5.67,9.185M5.446,2.161L4.854,3.184C4.786,3.206 4.718,3.232 4.652,3.26C4.341,3.392 4.061,3.581 3.821,3.821S3.392,4.341 3.26,4.652C3.124,4.973 3.055,5.316 3.055,5.669c0,0.182 0.019,0.362 0.055,0.537L2.519,7.231c-0.234,-0.47 -0.365,-1 -0.365,-1.561C2.153,3.803 3.608,2.276 5.446,2.161M9.261,4.152C9.064,3.688 8.783,3.271 8.425,2.914c-0.358,-0.358 -0.774,-0.64 -1.239,-0.836C6.705,1.875 6.195,1.772 5.67,1.772c-0.526,0 -1.037,0.103 -1.518,0.306C3.688,2.274 3.271,2.555 2.913,2.914C2.555,3.271 2.274,3.688 2.078,4.152c-0.203,0.48 -0.306,0.991 -0.306,1.517s0.103,1.037 0.306,1.518C2.274,7.65 2.555,8.068 2.913,8.425c0.358,0.358 0.775,0.639 1.239,0.836C4.633,9.464 5.143,9.567 5.67,9.567c0.526,0 1.036,-0.104 1.517,-0.306c0.464,-0.197 0.881,-0.478 1.239,-0.836C8.783,8.068 9.064,7.65 9.261,7.187c0.203,-0.481 0.306,-0.991 0.306,-1.518S9.464,4.632 9.261,4.152" clip-path="url(#clip_1)" fill="#000000" fill-opacity="1"/>
    </g>
    <g>
        <clipPath id="clip_1">
            <path d="M1.772,1.772h7.795v7.795h-7.795z"/>
        </clipPath>
        <path d="M4.63,8.069c0.008,0.003 0.014,0.006 0.022,0.01c0.244,0.103 0.5,0.167 0.764,0.193L5.188,7.804L4.63,8.069z" clip-path="url(#clip_1)" fill="#000000" fill-opacity="1"/>
    </g>
    <g>
        <clipPath id="clip_1">
            <path d="M1.772,1.772h7.795v7.795h-7.795z"/>
        </clipPath>
        <path d="M5.939,8.27c0.258,-0.026 0.508,-0.09 0.748,-0.191c0.007,-0.003 0.014,-0.006 0.021,-0.01L6.151,7.804L5.939,8.27z" clip-path="url(#clip_1)" fill="#000000" fill-opacity="1"/>
    </g>
    <path d="M6.491,7.158l0,0l-0.105,-0.22l0.338,-0.12l0.497,-0.177l-0.497,-0.177l-0.338,-0.12l0.154,-0.324l0.227,-0.477l-0.477,0.227l-0.324,0.153l-0.12,-0.338l-0.177,-0.496l-0.177,0.496l-0.12,0.338l-0.324,-0.153l-0.476,-0.227l0.226,0.477l0.154,0.324l-0.338,0.12l-0.497,0.177l0.497,0.177l0.338,0.12l-0.105,0.22l-0.049,0.104l-0.226,0.476l0.476,-0.226l0.324,-0.154l0.065,0.182l0.055,0.156l0.177,0.497l0.177,-0.497l0.055,-0.156l0.065,-0.182l0.324,0.154l0.477,0.226l-0.227,-0.476z" fill="#000000" fill-opacity="1"/>
</svg>