<svg xmlns="http://www.w3.org/2000/svg" width="11.339" height="11.339" viewBox="0 0 11.339 11.339">
    <g>
        <clipPath id="clip_1">
            <path d="M1.772,5.669c0,-2.153 1.745,-3.898 3.898,-3.898c2.153,0 3.898,1.745 3.898,3.898c0,2.153 -1.745,3.898 -3.898,3.898C3.517,9.567 1.772,7.822 1.772,5.669"/>
        </clipPath>
    </g>
    <g>
        <clipPath id="clip_1">
            <path d="M1.772,5.669c0,-2.153 1.745,-3.898 3.898,-3.898c2.153,0 3.898,1.745 3.898,3.898c0,2.153 -1.745,3.898 -3.898,3.898C3.517,9.567 1.772,7.822 1.772,5.669"/>
        </clipPath>
        <path d="M7.088,5.644H6.721v0.608V6.49v0.64h0.366c0.207,0 0.331,-0.106 0.331,-0.402V6.49V6.252V6.046C7.419,5.751 7.294,5.644 7.088,5.644z" clip-path="url(#clip_1)" fill="#000000" fill-opacity="1"/>
        <path d="M5.67,-0.027c-3.146,0 -5.696,2.55 -5.696,5.696c0,3.146 2.55,5.697 5.696,5.697c3.146,0 5.697,-2.551 5.697,-5.697C11.366,2.523 8.816,-0.027 5.67,-0.027zM5.835,7.722H5.167L4.535,6.073L4.334,6.451v1.271h-0.65V3.585h0.65v1.791h0.012l0.839,-1.791h0.65L4.931,5.429L5.835,7.722zM8.069,6.252V6.49v0.209c0,0.662 -0.319,1.022 -0.969,1.022H6.071V6.49V6.252V5.053h1.028c0.65,0 0.969,0.361 0.969,1.023V6.252zM7.07,4.716L6.071,3.999h0.461V3.585h1.075v0.414h0.461L7.07,4.716z" clip-path="url(#clip_1)" fill="#000000" fill-opacity="1"/>
    </g>
</svg>