<svg xmlns="http://www.w3.org/2000/svg" width="11.339" height="11.339" viewBox="0 0 11.339 11.339">
    <path d="M3.965,6.227L3.698,6.729v1.688H2.835V2.921h0.864V5.3h0.016l1.115,-2.379h0.864l-1.201,2.45l1.201,3.046H4.806L3.965,6.227z" fill="#000000" fill-opacity="1"/>
    <path d="M7.193,4.014c0.535,0 1.009,0.255 1.311,0.648V4.24c0,-0.879 -0.463,-1.382 -1.311,-1.382c-0.848,0 -1.311,0.503 -1.311,1.382v0.422C6.184,4.269 6.658,4.014 7.193,4.014z" fill="#000000" fill-opacity="1"/>
    <path d="M6.446,6.224c0.318,0 0.575,-0.257 0.575,-0.575c0,-0.318 -0.257,-0.575 -0.575,-0.575c-0.284,0 -0.518,0.206 -0.565,0.477v0.196C5.928,6.017 6.162,6.224 6.446,6.224z" fill="#000000" fill-opacity="1"/>
    <path d="M7.922,6.641v0.512c-0.22,0.108 -0.467,0.171 -0.729,0.171c-0.262,0 -0.511,-0.061 -0.731,-0.17V6.641l-0.58,-0.213v0.67c0,0.879 0.463,1.382 1.311,1.382c0.848,0 1.311,-0.503 1.311,-1.382v-0.67L7.922,6.641z" fill="#000000" fill-opacity="1"/>
    <path d="M7.462,6.743l-0.269,-0.763l-0.27,0.763l0.27,-0.117z" fill="#000000" fill-opacity="1"/>
    <path d="M7.922,5.649m-0.575,0a0.575,0.575 0,1 1,1.15 0a0.575,0.575 0,1 1,-1.15 0" fill="#000000" fill-opacity="1"/>
</svg>