<svg xmlns="http://www.w3.org/2000/svg" width="11.339" height="11.339" viewBox="0 0 11.339 11.339">
    <path d="M7.725,5.733l3.1,-1.769L7.627,4.737l1.293,-1.69L7.085,4.021l0.343,-1.63l-1.166,1.16L6.089,1.468L5.381,3.331L4.365,0.354l0.068,3.242L3.032,2.567l0.627,1.592L1.996,3.419l1.163,1.556L0.57,5.522l2.733,0.537l-1.534,1.52l2.07,-0.537L2.24,10.984l2.301,-2.94l0.142,1.621l0.839,-1.808l0.833,1.861l0.257,-2.447l2.364,2.345L7.568,6.767l2.167,0.231L7.725,5.733zM6.893,5.942H5.752H5.088H3.947V5.278h1.141h0.664h1.141V5.942zM7.547,7.634L7.55,7.636l0.001,0.003L7.547,7.634z" fill="#000000" fill-opacity="1"/>
</svg>