<svg xmlns="http://www.w3.org/2000/svg" width="11.339" height="11.339" viewBox="0 0 11.339 11.339">
    <path d="M8.305,3.387c0.148,-0.222 0.407,-0.239 0.483,-0.239c0.008,0 0.013,0 0.013,0l0.127,0.008L7.529,1.8L7.497,1.826C7.204,2.062 6.899,2.181 6.59,2.181c-0.524,0 -0.885,-0.348 -0.888,-0.351L5.669,1.797L5.636,1.83C5.632,1.833 5.273,2.181 4.748,2.181c-0.309,0 -0.614,-0.119 -0.907,-0.355L3.809,1.8L2.5,3.068L2.409,3.156l0.126,-0.007c0,0 0.006,0 0.014,0c0.076,0 0.335,0.017 0.483,0.239c0.175,0.262 0.132,0.73 -0.126,1.352c-0.43,1.04 -0.817,2.357 0.026,3.324C3.15,8.311 3.398,8.508 3.691,8.665C3.944,8.8 4.231,8.906 4.596,9.001C5.01,9.108 5.422,9.256 5.628,9.613l0.041,0.071L5.71,9.613c0.206,-0.357 0.618,-0.505 1.032,-0.612c0.539,-0.139 1.159,-0.36 1.663,-0.938c0.843,-0.967 0.457,-2.284 0.026,-3.324C8.174,4.117 8.13,3.649 8.305,3.387zM6.807,5.798H5.926H5.413H4.531V5.285h0.881h0.513h0.881V5.798z" fill="#000000" fill-opacity="1"/>
</svg>