<svg xmlns="http://www.w3.org/2000/svg" width="11.339" height="11.339" viewBox="0 0 11.339 11.339">
    <g>
        <clipPath id="clip_1">
            <path d="M1.772,5.649c0,-2.153 1.745,-3.898 3.898,-3.898c2.153,0 3.898,1.745 3.898,3.898c0,2.153 -1.745,3.898 -3.898,3.898C3.517,9.546 1.772,7.801 1.772,5.649"/>
        </clipPath>
        <path d="M5.669,-0.048c-3.146,0 -5.696,2.55 -5.696,5.696s2.55,5.697 5.696,5.697c3.146,0 5.697,-2.551 5.697,-5.697S8.815,-0.048 5.669,-0.048zM4.887,8.042H3.914V7.686h0.973V8.042zM4.887,7.459H3.914V5.023h0.973V7.459zM4.888,4.796H3.914C3.912,4.613 3.918,3.478 4.401,2.885C4.884,3.478 4.89,4.613 4.888,4.796zM6.156,8.042H5.182V7.686h0.973V8.042zM6.156,7.459H5.182V5.023h0.973V7.459zM6.156,4.796H5.183C5.18,4.613 5.186,3.478 5.669,2.885C6.153,3.478 6.158,4.613 6.156,4.796zM7.424,8.042H6.451V7.686h0.973V8.042zM7.424,7.459H6.451V5.023h0.973V7.459zM7.424,4.796H6.451c-0.002,-0.177 0.005,-1.32 0.487,-1.911C7.421,3.478 7.427,4.613 7.424,4.796z" clip-path="url(#clip_1)" fill="#000000" fill-opacity="1"/>
    </g>
</svg>