<svg xmlns="http://www.w3.org/2000/svg" width="11.339" height="11.339" viewBox="0 0 11.339 11.339">
    <path d="M7.815,6.834V4.89c0,-0.634 0.29,-0.978 0.902,-0.978c0.58,0 0.881,0.344 0.881,0.945v0.07H9.04V4.82c0,-0.269 -0.118,-0.371 -0.306,-0.371c-0.21,0 -0.328,0.102 -0.328,0.462v0.72h0.011c0.103,-0.215 0.274,-0.328 0.537,-0.328c0.435,0 0.655,0.306 0.655,0.859v0.671c0,0.602 -0.316,0.945 -0.896,0.945S7.815,7.436 7.815,6.834zM9.018,6.877V6.211c0,-0.252 -0.103,-0.371 -0.306,-0.371c-0.205,0 -0.307,0.118 -0.307,0.371v0.666c0,0.247 0.102,0.365 0.307,0.365C8.916,7.243 9.018,7.124 9.018,6.877z" fill="#000000" fill-opacity="1"/>
    <path d="M6.422,7.138l0.154,-0.124c-0.097,-0.189 -0.133,-0.411 -0.154,-0.62C6.365,5.827 6.418,5.307 6.483,4.743C6.461,4.74 6.362,4.731 6.34,4.728c0.02,-0.065 0.043,-0.128 0.069,-0.189c0.096,-0.23 0.242,-0.434 0.411,-0.62c0.194,-0.214 0.419,-0.405 0.635,-0.585c0.056,-0.047 0.113,-0.096 0.169,-0.143C7.181,2.883 6.746,2.567 6.299,2.266C6.168,2.178 6.038,2.089 5.908,2C5.872,1.975 5.062,1.424 5.065,1.417C4.893,1.713 4.708,2.023 4.504,2.319c-0.245,0.355 -0.518,0.693 -0.831,0.97c-0.039,0.034 -0.078,0.067 -0.118,0.1c-0.238,0.192 -0.527,0.331 -0.77,0.522c-0.125,0.098 -0.24,0.21 -0.325,0.346C2.407,4.34 2.261,4.639 2.261,4.639L2.074,4.567L1.537,5.259C2.181,6.129 2.921,6.71 2.921,6.71l0.184,-0.27c0.496,0.45 0.843,1.216 0.843,1.216c1.681,1.871 3.024,1.977 3.024,1.977l0.353,-0.389L7.227,9.081c0.1,-0.058 0.238,-0.254 0.263,-0.377c0.039,-0.189 -0.019,-0.363 -0.139,-0.51C7.046,7.821 6.646,7.574 6.422,7.138zM5.879,6.12H5.026v0.871H4.53V6.12H3.678V5.624H4.53V4.766h0.496v0.859h0.852V6.12z" fill="#000000" fill-opacity="1"/>
</svg>