<svg xmlns="http://www.w3.org/2000/svg" width="11.339" height="11.339" viewBox="0 0 11.339 11.339">
    <path d="M8.83,7.044H7.703V6.507l1.074,-2.541h0.645v2.541h0.279v0.537H9.422v0.682H8.83V7.044zM8.83,6.507V5.04h-0.01l-0.58,1.466H8.83z" fill="#000000" fill-opacity="1"/>
    <path d="M6.423,7.143l0.154,-0.124C6.48,6.83 6.444,6.608 6.423,6.399C6.367,5.831 6.419,5.31 6.485,4.746C6.463,4.743 6.364,4.733 6.342,4.731c0.02,-0.065 0.043,-0.128 0.069,-0.189c0.096,-0.23 0.242,-0.434 0.411,-0.621c0.194,-0.215 0.42,-0.406 0.636,-0.586C7.513,3.288 7.57,3.239 7.626,3.192C7.183,2.884 6.748,2.568 6.301,2.267C6.17,2.178 6.039,2.09 5.909,2C5.873,1.976 5.062,1.424 5.066,1.417C4.894,1.714 4.708,2.023 4.504,2.32C4.258,2.676 3.985,3.014 3.672,3.29c-0.039,0.034 -0.078,0.068 -0.118,0.1C3.316,3.583 3.027,3.721 2.783,3.913c-0.125,0.098 -0.24,0.21 -0.325,0.346C2.405,4.342 2.259,4.641 2.259,4.641L2.072,4.57L1.535,5.263c0.644,0.871 1.385,1.452 1.385,1.452l0.185,-0.27c0.497,0.45 0.844,1.217 0.844,1.217C5.63,9.533 6.974,9.64 6.974,9.64l0.353,-0.389L7.229,9.088c0.1,-0.059 0.238,-0.254 0.264,-0.377c0.04,-0.189 -0.019,-0.363 -0.139,-0.51C7.048,7.826 6.648,7.579 6.423,7.143zM5.867,6.124H5.014H4.517H3.664V5.628h0.853h0.497h0.853V6.124z" fill="#000000" fill-opacity="1"/>
</svg>