<svg xmlns="http://www.w3.org/2000/svg" width="11.339" height="11.339" viewBox="0 0 11.339 11.339">
    <path d="M6.57,7.192c-0.145,0.18 -0.394,0.265 -0.739,0.253c-0.316,-0.011 -0.54,-0.11 -0.685,-0.303c-0.165,-0.22 -0.197,-0.525 -0.189,-0.768h0.942c0.129,0.531 -0.371,0.825 -0.371,0.825c0.516,0.039 0.76,-0.485 0.864,-0.825h0.322C6.739,6.525 6.781,6.931 6.57,7.192M9.86,7.989c-0.035,-0.437 -0.158,-0.871 -0.319,-1.27c-0.177,-0.44 -0.446,-0.83 -0.748,-1.173c-0.308,-0.351 -0.39,-0.4 -0.509,-0.882c0,0 -0.934,0.109 -1.465,-0.547c0.114,-0.185 0.329,-0.41 0.702,-0.4l0.056,-0.211c0,0 -0.485,-0.277 -1.025,0.094C6.49,3.395 6.456,3.151 6.461,2.861H2.066L1.47,2.427v0.434v1.706h1.038l0.157,0.445h0.684l0.354,1.362h0.93C4.626,6.669 4.67,7.047 4.888,7.338c0.204,0.273 0.518,0.418 0.931,0.433C5.845,7.772 5.87,7.772 5.894,7.772c0.416,0 0.728,-0.126 0.928,-0.376c0.165,-0.204 0.221,-0.455 0.234,-0.672c0.242,-0.003 0.539,0.387 0.391,2.502c0,0 0.328,0.133 0.745,0.188c0.085,0.012 0.172,0.02 0.26,0.021c0.002,0 0.004,0.001 0.007,0.001c0.021,0 0.041,0 0.062,0C8.879,9.431 9.241,9.338 9.533,9.1C9.844,8.846 9.892,8.387 9.86,7.989" fill="#000000" fill-opacity="1"/>
</svg>