<svg xmlns="http://www.w3.org/2000/svg" width="11.339" height="11.339" viewBox="0 0 11.339 11.339">
    <path d="M7.736,5.762l3.117,-1.778L7.637,4.761l1.3,-1.699L7.093,4.041l0.345,-1.639L6.265,3.568L6.091,1.474L5.38,3.347L4.358,0.354l0.068,3.26L3.018,2.579L3.648,4.18L1.976,3.435L3.145,5L0.543,5.55L3.29,6.09L1.748,7.617l2.082,-0.54l-1.608,3.964l2.313,-2.956l0.143,1.63L5.52,7.898l0.837,1.871l0.259,-2.461l2.376,2.358L7.578,6.802l2.179,0.232L7.736,5.762zM6.9,5.973H5.753v1.173H5.085V5.973H3.937V5.305h1.147V4.149h0.668v1.156H6.9V5.973zM7.557,7.674L7.56,7.676l0.001,0.003L7.557,7.674z" fill="#000000" fill-opacity="1"/>
</svg>