<svg xmlns="http://www.w3.org/2000/svg" width="14.17" height="14.17" viewBox="0 0 14.17 14.17">
    <path d="M11.022,8.542c-1.063,-0.82 -2.347,-0.477 -2.604,-0.376c0,0 -0.455,0.173 -1.333,0.218C6.207,8.339 5.752,8.166 5.752,8.166C5.494,8.066 4.211,7.723 3.148,8.542c0,0 -1.133,0.853 -0.633,2.101c0,0 0.568,1.498 2.287,1.101c0,0 0.601,-0.07 1.574,-0.713c0,0 0.361,-0.299 0.709,-0.302c0.348,0.002 0.709,0.302 0.709,0.302c0.973,0.643 1.574,0.713 1.574,0.713c1.719,0.397 2.287,-1.101 2.287,-1.101C12.155,9.396 11.022,8.542 11.022,8.542zM4.711,10.509c-0.769,0 -1.393,-0.316 -1.393,-0.706s0.624,-0.706 1.393,-0.706c0.769,0 1.393,0.316 1.393,0.706S5.48,10.509 4.711,10.509zM9.472,10.509c-0.769,0 -1.393,-0.316 -1.393,-0.706s0.624,-0.706 1.393,-0.706c0.769,0 1.393,0.316 1.393,0.706S10.242,10.509 9.472,10.509z" fill="#000000" fill-opacity="1"/>
    <path d="M11.918,7.058c-3.233,0 -6.437,0 -9.662,0C2.017,6.293 2.058,5.543 2.365,4.804c0.027,-0.064 0.192,-0.127 0.292,-0.125C2.861,4.683 2.95,4.615 3.042,4.468c0.85,-1.357 2.188,-2.111 4.049,-2.109c1.86,0.002 3.199,0.755 4.044,2.115c0.093,0.15 0.188,0.209 0.386,0.205c0.095,-0.002 0.255,0.046 0.278,0.102C12.116,5.528 12.15,6.287 11.918,7.058z" fill="#000000" fill-opacity="1"/>
</svg>