<svg xmlns="http://www.w3.org/2000/svg" width="11.339" height="11.339" viewBox="0 0 11.339 11.339">
    <g>
        <clipPath id="clip_1">
            <path d="M1.765,1.26h7.795v8.818h-7.795z"/>
        </clipPath>
        <path d="M9.562,2.277c-2.011,-0.53 -3.601,0.835 -3.601,0.835c1.144,0.416 -0.348,1.812 -0.348,1.812S5.322,4.732 4.717,4.207l0.248,0.449L4.756,4.863L4.307,4.616c0.527,0.605 0.718,0.897 0.718,0.897S3.629,7.006 3.214,5.86c0,0 -1.366,1.59 -0.837,3.601c0,0 0.814,-2.122 2.549,-1.728c0,0 0.499,-1.692 2.254,-0.654H7.178H7.18C6.14,5.324 7.832,4.826 7.832,4.826C7.438,3.091 9.562,2.277 9.562,2.277M7.526,3.511c-0.149,0.331 -0.211,0.68 -0.188,1.041c-0.036,0.02 -0.074,0.041 -0.113,0.066C6.883,4.832 6.632,5.121 6.5,5.454C6.395,5.721 6.365,6.008 6.412,6.312L5.815,5.706l-0.18,-0.184l0.026,-0.028L5.92,5.254c0.011,-0.01 0.254,-0.239 0.483,-0.547c0.354,-0.476 0.495,-0.904 0.42,-1.272C6.806,3.346 6.772,3.246 6.712,3.146c0.341,-0.196 0.853,-0.429 1.46,-0.51C7.884,2.904 7.667,3.198 7.526,3.511" clip-path="url(#clip_1)" fill="#000000" fill-opacity="1"/>
    </g>
</svg>