<svg xmlns="http://www.w3.org/2000/svg" width="11.339" height="11.339" viewBox="0 0 11.339 11.339">
    <path d="M1.665,9.417c0,0 0.834,0.055 1.621,-0.474C4.85,7.891 6.265,9.082 6.265,9.082c1.701,-0.264 2.272,-1.72 2.272,-1.72C7.239,7.551 6.751,7.365 6.751,7.365C9.277,6.62 9.674,4.431 9.674,4.431C8.481,5.418 7.147,5.262 7.147,5.262c3.102,-1.62 1.968,-4.157 1.968,-4.157C8.824,1.976 8.382,2.403 7.634,2.922C5.405,4.469 3.323,4.587 3.323,4.587c-0.62,0.394 -1.061,0.978 -1.176,1.235C2.147,5.822 3.837,7.277 1.665,9.417" fill="#000000" fill-opacity="1"/>
</svg>